<svg id="Layer_1" data-name="Layer 1" xmlns="http://www.w3.org/2000/svg" viewBox="0 0 388.78 151.82"><defs><style>.cls-1,.cls-2{fill:#ef792d;}.cls-1{fill-rule:evenodd;}.cls-2{font-size:41.59px;font-family:Tahoma;}.cls-3{letter-spacing:0em;}.cls-4{letter-spacing:-0.01em;}.cls-5{letter-spacing:0em;}.cls-6{letter-spacing:-0.01em;}.cls-7{letter-spacing:0em;}</style></defs><path class="cls-1" d="M200,112.49l16.38,24.56c17.46-5,51.41-5.7,68.67-.2l18.13-24.27c1.59-2.18-.8-3.28-3-.89-18.29,23.05-21.47,6.07-18.92.3,1.59-3.38-1.43-4.18-3.34-.5-2.22,3.38-6.74,10.23-12.08,9.75-8.91-.8-11.93-11-12.24-22.38a1.75,1.75,0,1,0-3.5,0c-.32,4.37-1.83,21.15-12.24,22.28-7.32.8-11.29-7.56-11.93-9.55-1.59-3.58-4.93-2.88-3.34.7,1,3.38,2,10.1-2.22,11.24-6.58,1.77-15.42-9.35-17.33-11.94s-4.61-1.69-3,.9" transform="translate(-79.54 -89.18)"/><path class="cls-1" d="M255.79,91.94c0-1.53-2-2.76-4.43-2.76S247,90.41,247,91.94s2,2.77,4.41,2.77" transform="translate(-79.54 -89.18)"/><path class="cls-1" d="M282.21,107.23c2.44,0,4.42-1.24,4.42-2.77s-2-2.76-4.42-2.76-4.42,1.24-4.42,2.76,2,2.77,4.42,2.77" transform="translate(-79.54 -89.18)"/><path class="cls-1" d="M306,108.26c2.44,0,4.42-1.23,4.42-2.76s-2-2.77-4.42-2.77-4.42,1.24-4.42,2.77,2,2.76,4.42,2.76" transform="translate(-79.54 -89.18)"/><path class="cls-1" d="M221.37,107.23c-2.45,0-4.43-1.24-4.43-2.77s2-2.76,4.43-2.76,4.42,1.24,4.42,2.76-2,2.77-4.42,2.77" transform="translate(-79.54 -89.18)"/><path class="cls-1" d="M197.63,108.26c-2.44,0-4.42-1.23-4.42-2.76s2-2.77,4.42-2.77,4.42,1.24,4.42,2.77-2,2.76-4.42,2.76" transform="translate(-79.54 -89.18)"/><text class="cls-2" transform="translate(0 84.49)">Ho<tspan class="cls-3" x="50.67" y="0">l</tspan><tspan x="60.29" y="0">landbi</tspan><tspan class="cls-4" x="170.29" y="0">k</tspan><tspan class="cls-5" x="190.64" y="0">esho</tspan><tspan class="cls-6" x="276.87" y="0">p</tspan><tspan class="cls-7" x="299.49" y="0">.com</tspan></text><path class="cls-1" d="M251.62,94.71c2.44,0,4.42-1.24,4.42-2.77s-2-2.76-4.42-2.76-4.42,1.23-4.42,2.76,2,2.77,4.42,2.77" transform="translate(-79.54 -89.18)"/></svg>