<svg id="Layer_1" data-name="Layer 1" xmlns="http://www.w3.org/2000/svg" viewBox="0 0 811.47 810.47"><defs><style>.cls-1{fill:#fff;}</style></defs><path class="cls-1" d="M688.7,925.3A23.21,23.21,0,0,1,675,920.47c-18.12-13.92-443.09-344.61-373-624.63,27.76-110.92,116.28-182,225.5-181h0c54.71,1.08,113.25,33.58,175.46,96.62,49.94-46.31,119.19-93.88,188.36-89,106.05,7.37,186.09,80,208.87,189.45,58.82,282.59-379.08,596-397.73,609.17A23.21,23.21,0,0,1,688.7,925.3Zm-160.55-764c-70.24-.63-153.92,37.37-181.08,145.84C290.83,531.75,618.24,814.31,689.76,872.83c73.82-55.59,412.3-324.8,365.11-551.51-18.37-88.25-82.24-146.73-166.67-152.6-1.57-.1-3.13-.18-4.69-.22-46-.92-104.52,31.85-164.7,92.28a23.16,23.16,0,0,1-16.89,6.81h0a23.15,23.15,0,0,1-16.62-7.49C626.7,196.32,572.36,162.16,528.15,161.26Z" transform="translate(-294.27 -114.84)"/></svg>