<svg id="Layer_1" data-name="Layer 1" xmlns="http://www.w3.org/2000/svg" viewBox="0 0 471.88 503.97"><defs><style>.cls-1{fill:#ef792e;stroke:#ef792e;stroke-miterlimit:10;}</style></defs><path class="cls-1" d="M465.2,464.69c-26.07-31.09-57.24-54-91.31-67.64a126.11,126.11,0,0,0,50.34-101.29c-.24-66.57-56-123.82-122.58-125.71-71.26-2-129.89,55.37-129.89,126.19a126.11,126.11,0,0,0,50.35,100.81C188,410.7,156.87,433.6,130.8,464.69c-44,52.48-68.24,122.11-68.24,196.08h0A12.2,12.2,0,0,0,74.76,673H521.24a12.2,12.2,0,0,0,12.2-12.2h0C533.44,586.8,509.21,517.17,465.2,464.69Zm-269-165.08A101.93,101.93,0,0,1,301.38,194.46c53.36,1.74,96.66,45,98.39,98.4A101.93,101.93,0,0,1,294.62,398C241.26,396.28,198,353,196.23,299.61ZM88,635.28c9.07-109,75.66-197.94,162.6-222a126.18,126.18,0,0,0,94.77,0c86.94,24.1,153.52,113,162.59,222a12.23,12.23,0,0,1-12.16,13.28H100.18A12.23,12.23,0,0,1,88,635.28Z" transform="translate(-62.06 -169.5)"/></svg>