<svg xmlns="http://www.w3.org/2000/svg" viewBox="0 0 409.72 470.31"><defs><style>.cls-1{fill:#fff;stroke:#fff;stroke-miterlimit:10;stroke-width:25px;}</style></defs><g id="Call"><path class="cls-1" d="M1971,1025.35c-3.35,3-13.1,11.85-20.56,18.42a18.39,18.39,0,0,0-5.65,18.27c12.75,50.8,45.13,101.4,88.48,130,5.11,3.38,15.06,9.63,24.17,14.76a20,20,0,0,0,22.78-2.17c4.84-4.08,9.9-8.31,12.8-10.46,0,0,21.28-19.85,38.22-9.94,21,12.26,111.65,62.11,90.22,101.09a52.48,52.48,0,0,1-13.67,16.4l-5.95,4.66c-6.89,5.39-14,11-20.85,16.58-9.57,7.86-21.16,11.23-35.42,10.3-1.25-.08-2.5-.21-3.75-.36l-2.88-.36-2.91-.37c-76.14-11.31-144.57-46.25-197.9-101s-86.42-124.15-95.65-200.58a327.44,327.44,0,0,1,.12-81.47,44.59,44.59,0,0,1,16.67-30c2.58-2,5.17-4,7.76-6.06,6.08-4.71,14.48-10.73,20.33-15.73,0,0,26.62-20,46-1.13C1950.49,913,2004.28,995.82,1971,1025.35Z" transform="translate(-1827.46 -875.59)"/></g></svg>