<?xml version="1.0" encoding="UTF-8"?>
<svg id="Layer_1" data-name="Layer 1" xmlns="http://www.w3.org/2000/svg" viewBox="0 0 512 512">
  <defs>
    <style>
      .cls-1 {
        fill: #ed5920;
      }

      .cls-2 {
        fill: #ff702e;
      }

      .cls-3 {
        fill: #5f606b;
      }

      .cls-4 {
        fill: #51545a;
      }
    </style>
  </defs>
  <path class="cls-2" d="M160.40308,102.62849v62.37271c0,8.71848,4.04463,16.94367,10.94942,22.26681l.92477,.71293c6.90478,5.32314,10.94942,13.54833,10.94942,22.26681v1.50283c0,8.92222-4.23486,17.31484-11.41171,22.61567l-.00002,.00002c-7.17685,5.30083-11.4117,13.69344-11.41171,22.61566l-.00014,210.4654c-.00001,15.7692,12.78345,28.55267,28.55265,28.55267h134.0885c15.7692,0,28.55266-12.78347,28.55265-28.55267l-.00014-210.46541c0-8.92221-4.23486-17.31482-11.41171-22.61564l-.00002-.00002c-7.17685-5.30083-11.41171-13.69345-11.41171-22.61568v-1.50291c0-8.71843,4.04459-16.94359,10.94932-22.26673l.92497-.7131c6.90472-5.32314,10.94932-13.5483,10.94932-22.26673v-62.37262"/>
  <path class="cls-1" d="M339.72266,187.9809l.92493-.71307c6.90472-5.32312,10.94934-13.54828,10.94934-22.26672v-62.37262h-30.34357v62.37262c0,8.71844-4.04456,16.9436-10.94928,22.26672l-.92499,.71307c-6.90472,5.32318-10.94934,13.54834-10.94934,22.26678v1.50287c0,8.92224,4.23486,17.31488,11.41174,22.61572s11.41168,13.69342,11.41174,22.6156l.00012,210.46545c0,15.76917-12.78345,28.55267-28.55267,28.55267h30.34357c15.76923,0,28.55267-12.78351,28.55267-28.55267l-.00018-210.46545c0-8.92218-4.23486-17.31476-11.41168-22.6156-7.17688-5.30084-11.41174-13.69348-11.41174-22.61572v-1.50287c0-8.71844,4.04462-16.9436,10.94934-22.26678Z"/>
  <path class="cls-1" d="M351.59692,467.44733v-.12976H160.40308v.12976c0,15.76917,12.78345,28.55267,28.55267,28.55267h134.0885c15.76923,0,28.55267-12.78351,28.55267-28.55267Z"/>
  <path class="cls-1" d="M327.1488,219.86977h-86.62397c-10.41743,0-18.86242-8.445-18.86242-18.86242v-.00003c0-7.38581-4.21392-14.12432-10.85447-17.35747l-14.33249-6.9782h135.97118l-5.29782,43.19813Z"/>
  <path class="cls-3" d="M351.59692,112.71562v-34.05226c0-11.89033-8.84637-21.92346-20.6431-23.41243l-27.08286-3.41836c-11.49804-1.45127-20.12042-11.23036-20.12042-22.81963v-13.01295h-55.50119v13.01295c0,11.58927-8.62238,21.36836-20.12042,22.81963l-27.08274,3.41835c-11.79673,1.48897-20.64309,11.5221-20.64309,23.41242v34.05227h191.19383Z"/>
  <path class="cls-4" d="M330.9538,55.25092l-27.08282-3.41833c-11.49805-1.45129-20.12042-11.23041-20.12042-22.81964v-13.01294h-20.29034v13.01294c0,11.58923,8.62238,21.36835,20.12042,22.81964l17.08289,3.41833c11.79669,1.48895,20.64307,11.52209,20.64307,23.41241v34.05231h30.29034v-34.05231c0-11.89032-8.84637-21.92346-20.64313-23.41241Z"/>
  <path d="M250.47412,53.81494h-33.52148c-2.76123,0-5-2.23877-5-5s2.23877-5,5-5h33.52148c2.76123,0,5,2.23877,5,5s-2.23877,5-5,5Z"/>
  <path d="M291.98779,21h-71.97559c-2.76123,0-5-2.23877-5-5s2.23877-5,5-5h71.97559c2.76123,0,5,2.23877,5,5s-2.23877,5-5,5Z"/>
  <path d="M293.92725,259.50391H161.54639c-2.76123,0-5-2.23877-5-5s2.23877-5,5-5h132.38086c2.76123,0,5,2.23877,5,5s-2.23877,5-5,5Z"/>
  <path d="M196.47559,181.67188c-2.76123,0-5-2.23877-5-5s2.23877-5,5-5l152.44482-.00049c2.76123,0,5,2.23877,5,5s-2.23877,5-5,5l-152.44482,.00049Z"/>
  <rect class="cls-4" x="206.10491" y="75.70153" width="20.13557" height="18.08583" rx="5.31974" ry="5.31974"/>
  <rect class="cls-4" x="232.65645" y="75.70153" width="20.13557" height="18.08583" rx="5.31974" ry="5.31974"/>
  <rect class="cls-4" x="259.20799" y="75.70153" width="20.13557" height="18.08583" rx="5.31974" ry="5.31974"/>
  <rect class="cls-4" x="285.75952" y="75.70153" width="20.13557" height="18.08583" rx="5.31974" ry="5.31974"/>
  <rect class="cls-4" x="312.31106" y="75.70153" width="20.13557" height="18.08583" rx="5.31974" ry="5.31974"/>
  <rect class="cls-4" x="179.55338" y="75.70153" width="20.13557" height="18.08583" rx="5.31974" ry="5.31974"/>
  <g>
    <path d="M189.62109,98.7876c-2.76123,0-5-2.23877-5-5v-18.08594c0-2.76123,2.23877-5,5-5s5,2.23877,5,5v18.08594c0,2.76123-2.23877,5-5,5Z"/>
    <path d="M216.17285,98.7876c-2.76123,0-5-2.23877-5-5v-18.08594c0-2.76123,2.23877-5,5-5s5,2.23877,5,5v18.08594c0,2.76123-2.23877,5-5,5Z"/>
    <path d="M242.72412,98.7876c-2.76123,0-5-2.23877-5-5v-18.08594c0-2.76123,2.23877-5,5-5s5,2.23877,5,5v18.08594c0,2.76123-2.23877,5-5,5Z"/>
    <path d="M269.27588,98.7876c-2.76123,0-5-2.23877-5-5v-18.08594c0-2.76123,2.23877-5,5-5s5,2.23877,5,5v18.08594c0,2.76123-2.23877,5-5,5Z"/>
    <path d="M295.82715,98.7876c-2.76123,0-5-2.23877-5-5v-18.08594c0-2.76123,2.23877-5,5-5s5,2.23877,5,5v18.08594c0,2.76123-2.23877,5-5,5Z"/>
    <path d="M322.37891,98.7876c-2.76123,0-5-2.23877-5-5v-18.08594c0-2.76123,2.23877-5,5-5s5,2.23877,5,5v18.08594c0,2.76123-2.23877,5-5,5Z"/>
  </g>
  <path d="M323.04443,501H188.95557c-18.50098,0-33.55225-15.05176-33.55225-33.55273v-.12939c0-2.76123,2.23877-5,5-5l186.19336-.00049v-205.33545c0-7.30371-3.50732-14.25488-9.38232-18.59375-8.41602-6.21631-13.44092-16.17432-13.44092-26.6377v-1.50293c0-10.19629,4.82129-20.00098,12.89648-26.22656l.9248-.71289c5.63672-4.3457,9.00195-11.18945,9.00195-18.30713v-22.52393c0-2.76123,2.23877-5,5-5s5,2.23877,5,5v22.52393c0,10.19678-4.82129,20.00146-12.89648,26.22705l-.9248,.71289c-5.63672,4.3457-9.00195,11.18896-9.00195,18.30664v1.50293c0,7.30371,3.50732,14.25439,9.38232,18.59375,8.41602,6.21631,13.44092,16.17432,13.44092,26.6377v210.46533c0,18.50098-15.05127,33.55273-33.55225,33.55273Zm-157.13477-28.68213c2.25,10.65771,11.72852,18.68213,23.0459,18.68213h134.08887c11.31738,0,20.79639-8.0249,23.0459-18.68262l-180.18066,.00049Z"/>
  <path d="M160.40332,438.35938c-2.76123,0-5-2.23877-5-5v-176.37744c0-10.46338,5.0249-20.42139,13.44092-26.6377,5.875-4.33887,9.38232-11.29004,9.38232-18.59375v-1.50293c0-7.11719-3.36523-13.96094-9.00195-18.30664l-.9248-.71289c-8.0752-6.22559-12.89648-16.03027-12.89648-26.22705v-62.37256c0-2.76123,2.23877-5,5-5s5,2.23877,5,5v62.37256c0,7.11768,3.36523,13.96143,9.00195,18.30713l.9248,.71289c8.0752,6.22559,12.89648,16.03027,12.89648,26.22656v1.50293c0,10.46338-5.0249,20.42139-13.44092,26.6377-5.875,4.33936-9.38232,11.29004-9.38232,18.59375v176.37744c0,2.76123-2.23877,5-5,5Z"/>
  <path d="M351.59668,117.71582H160.40332c-2.76123,0-5-2.23877-5-5v-34.05225c0-14.37549,10.75488-26.57324,25.01709-28.37305l27.08252-3.41846c8.97705-1.1333,15.74658-8.81055,15.74658-17.85889v-13.01318c0-2.76123,2.23877-5,5-5h55.50098c2.76123,0,5,2.23877,5,5v13.01318c0,9.04834,6.76953,16.72559,15.74658,17.85889l27.08252,3.41846c14.26221,1.7998,25.01709,13.99756,25.01709,28.37305v34.05225c0,2.76123-2.23877,5-5,5Zm-186.19336-10h181.19336v-29.05225c0-9.34863-6.99414-17.28125-16.26904-18.45215l-27.08252-3.41846c-13.96436-1.76221-24.49463-13.70508-24.49463-27.77979v-8.01318h-45.50098v8.01318c0,14.07471-10.53027,26.01758-24.49463,27.77979l-27.08252,3.41846c-9.2749,1.1709-16.26904,9.10352-16.26904,18.45215v29.05225Z"/>
</svg>