<?xml version="1.0" encoding="UTF-8"?>
<svg id="Layer_1" data-name="Layer 1" xmlns="http://www.w3.org/2000/svg" viewBox="0 0 512 512">
  <defs>
    <style>
      .cls-1 {
        fill: #e7e8f1;
      }

      .cls-2 {
        fill: #ed5920;
      }

      .cls-3 {
        fill: #ff702e;
      }

      .cls-4 {
        fill: #c7c8ce;
      }

      .cls-5 {
        fill: #5f606b;
      }

      .cls-6 {
        fill: #51545a;
      }
    </style>
  </defs>
  <path class="cls-5" d="M309.94428,202.69048h104.90883c12.5191,30.91216,18.54333,65.80171,19.70439,103.6695l-23.74249-14.76339c-19.14912-11.90716-40.23917-20.36165-62.31066-24.97883l-38.56006-8.06645v-55.86084Z"/>
  <path class="cls-6" d="M411.7867,276.95027c.8443,5.44788,1.5564,10.97672,2.14248,16.58275l20.62832,12.82692c-1.16106-37.86776-7.18529-72.75733-19.70439-103.66945h-104.90887v15.98356h34.07207c33.89078,0,62.58003,24.78525,67.7704,58.27622Z"/>
  <circle class="cls-3" cx="179.38612" cy="278.21707" r="163.38612"/>
  <circle class="cls-5" cx="179.38612" cy="278.21707" r="47.96436"/>
  <path class="cls-1" d="M238.52011,73.97228l11.9364,3.20042c106.20217,28.47522,180.04407,124.724,180.04407,234.67735v3.86067c0,54.13354,15.30403,107.16421,44.14654,152.97414l.00005,.00008c2.90311,4.61095,9.05976,5.87989,13.54954,2.79268l3.64572-2.50683c4.24008-2.91552,5.4236-8.65771,2.68194-13.01223l-.41368-.65703c-28.84251-45.80993-44.14654-98.8406-44.14654-152.97414v-3.86067c0-109.95335-73.8419-206.20212-180.04407-234.67735l-11.9364-3.20042"/>
  <path class="cls-1" d="M457.73116,374.75382h-68.7306c-18.57856,0-33.63946-15.0609-33.63946-33.63946v-.00007c0-18.57856,15.0609-33.63946,33.63946-33.63946h53.70189l15.02871,67.27899Z"/>
  <path class="cls-4" d="M355.63977,120.70781c-23.85129-21.41867-52.13196-38.27209-83.64024-49.0312-4.22024-1.44108-7.31654-5.06884-8.0023-9.4753h0s-6.01355-1.61235-6.01355-1.61235l-3.27244,5.86143-3.77851-1.01309-12.41259,8.53499,11.93637,3.20037c44.25191,11.86492,82.87739,35.50403,112.8916,66.99097,1.75774-8.63094-1.15478-17.57071-7.70833-23.45582Z"/>
  <circle class="cls-1" cx="234.16903" cy="62.64792" r="23.81465"/>
  <path class="cls-4" d="M220.74358,73.03712c0-13.15247,10.6622-23.81467,23.81467-23.81467,3.89828,0,7.57418,.94265,10.82218,2.60319-3.94201-7.71034-11.95729-12.99237-21.21142-12.99237-13.15247,0-23.81461,10.6622-23.81461,23.81467,0,9.2542,5.28203,17.26941,12.99243,21.21136-1.66054-3.248-2.60325-6.9239-2.60325-10.82218Z"/>
  <path class="cls-4" d="M398.39787,365.3565c-18.57858,0-33.6395-15.06092-33.6395-33.6395v-.00003c0-6.88626,2.07305-13.28662,5.62347-18.61854-9.053,6.02844-15.0208,16.32362-15.0208,28.01588v.00006c0,18.57857,15.0609,33.63947,33.63947,33.63947h47.65617c-1.22683-5.49211-6.10066-9.39733-11.72812-9.39733h-26.53069Z"/>
  <path class="cls-2" d="M248.34877,130.06857c36.60189,28.30938,60.1759,72.64969,60.1759,122.50226,0,85.48529-69.29953,154.78482-154.78482,154.78482-49.85263,0-94.19307-23.57414-122.50239-60.17615,26.00422,55.76772,82.5575,94.42368,148.14863,94.42368,90.23573,0,163.38609-73.15042,163.38609-163.38609,0-65.59101-38.65577-122.14423-94.42343-148.14851Z"/>
  <path class="cls-6" d="M145.47022,287.99972c0-24.13406,19.56452-43.69858,43.69858-43.69858,14.68099,0,27.66117,7.24731,35.58497,18.35131-6.46514-18.84707-24.32797-32.39974-45.36767-32.39974-26.48999,0-47.96432,21.47439-47.96432,47.96438,0,21.03976,13.55267,38.90246,32.3998,45.3676-11.10406-7.92379-18.35137-20.90391-18.35137-35.58497Z"/>
  <path d="M400.896,290.83447c-.80518,0-1.62109-.19482-2.37891-.60547-16.02344-8.6875-33.19482-14.98486-51.03662-18.71729l-5.73242-1.19922c-2.70264-.56543-4.43555-3.21484-3.87012-5.91797s3.2168-4.43555,5.91797-3.87012l5.73242,1.19922c18.79199,3.93115,36.87793,10.56396,53.75537,19.71436,2.42725,1.31592,3.32861,4.35107,2.01221,6.77881-.90527,1.66992-2.625,2.61768-4.3999,2.61768Z"/>
  <path d="M404.60693,207.69043h-79.78174c-2.76123,0-5-2.23877-5-5s2.23877-5,5-5h79.78174c2.76123,0,5,2.23877,5,5s-2.23877,5-5,5Z"/>
  <path d="M179.38623,446.60303c-92.84863,0-168.38623-75.5376-168.38623-168.38574,0-45,17.53027-87.30078,49.36133-119.10938,1.95312-1.95312,5.11963-1.95068,7.0708,.00244,1.95215,1.95312,1.95117,5.11914-.00244,7.0708-29.94043,29.91992-46.42969,69.7085-46.42969,112.03613,0,87.33398,71.05176,158.38574,158.38623,158.38574s158.38623-71.05176,158.38623-158.38574S266.7207,119.83105,179.38623,119.83105c-26.87012,0-53.41064,6.84863-76.75293,19.80518-2.41504,1.33984-5.4585,.46924-6.79834-1.94482-1.34033-2.41455-.46924-5.45801,1.94482-6.79834,24.82373-13.77881,53.04248-21.06201,81.60645-21.06201,92.84863,0,168.38623,75.5376,168.38623,168.38623s-75.5376,168.38574-168.38623,168.38574Z"/>
  <path d="M179.38623,331.18164c-29.20459,0-52.96436-23.75977-52.96436-52.96436s23.75977-52.96436,52.96436-52.96436c22.6333,0,42.771,14.37598,50.11035,35.77295,.896,2.61182-.49512,5.45557-3.10742,6.35156-2.60889,.89551-5.45557-.49512-6.35156-3.10742-5.95312-17.35596-22.28955-29.01709-40.65137-29.01709-23.69043,0-42.96436,19.27393-42.96436,42.96436s19.27393,42.96436,42.96436,42.96436c21.24072,0,39.08301-15.19629,42.4248-36.1333,.43555-2.72705,2.99805-4.58496,5.72559-4.14941,2.72705,.43506,4.58447,2.99854,4.14941,5.72559-4.12109,25.81836-26.11621,44.55713-52.2998,44.55713Z"/>
  <path d="M482.80322,478.17188c-.99072,0-1.98975-.10156-2.98486-.30664-3.92725-.80908-7.26611-3.12305-9.40234-6.51611-17.78516-28.24756-30.49219-59.04346-37.80127-91.59521h-43.61426c-21.30615,0-38.63965-17.3335-38.63965-38.63965s17.3335-38.63965,38.63965-38.63965h36.31445c-1.77197-45.42529-16.37646-89.0459-42.38965-126.45557-26.82373-38.57617-64.03027-68.09277-107.59668-85.35889-2.56689-1.01758-3.82324-3.92334-2.80615-6.49072,1.01807-2.56689,3.92529-3.82178,6.49072-2.80615,45.40039,17.99365,84.17188,48.75098,112.12256,88.94678,28.11719,40.43604,43.44385,87.83594,44.32178,137.0752,.02393,1.34131-.49219,2.63623-1.43213,3.59326s-2.2251,1.49609-3.56689,1.49609h-41.45801c-15.79199,0-28.63965,12.84766-28.63965,28.63965s12.84766,28.63965,28.63965,28.63965h47.64404c2.36523,0,4.40674,1.65723,4.89307,3.97168,6.90479,32.85596,19.46777,63.9082,37.34082,92.29541,.67188,1.06738,1.72266,1.79541,2.95801,2.05029,1.23584,.25488,2.48828,.00098,3.52734-.71387l3.64551-2.50684c2.03711-1.40039,2.60107-4.13623,1.28418-6.22803l-.41455-.6582c-29.3833-46.66895-44.91455-100.48877-44.91455-155.63965v-3.85938c0-107.49316-72.51318-202.00928-176.33887-229.84619l-11.93652-3.20068c-2.66699-.71533-4.24951-3.45752-3.53467-6.12451,.71533-2.66748,3.45801-4.25098,6.12451-3.53467l11.93652,3.20068c108.18848,29.00684,183.74902,127.49512,183.74902,239.50537v3.85938c0,53.26318,15,105.24023,43.37793,150.3125l.41406,.6582c4.18555,6.64795,2.39307,15.34375-4.08105,19.79541l-3.64551,2.50684c-2.46582,1.69531-5.30957,2.57422-8.22656,2.57422Z"/>
  <path d="M234.16895,91.4624c-15.88818,0-28.81445-12.92627-28.81445-28.81445s12.92627-28.81445,28.81445-28.81445,28.81494,12.92627,28.81494,28.81445-12.92627,28.81445-28.81494,28.81445Zm0-47.62891c-10.37451,0-18.81445,8.43994-18.81445,18.81445s8.43994,18.81445,18.81445,18.81445,18.81494-8.43994,18.81494-18.81445-8.44043-18.81445-18.81494-18.81445Z"/>
</svg>