<?xml version="1.0" encoding="UTF-8"?>
<svg id="Layer_1" data-name="Layer 1" xmlns="http://www.w3.org/2000/svg" viewBox="0 0 512 512">
  <defs>
    <style>
      .cls-1 {
        fill: #e7e8f1;
      }

      .cls-2 {
        fill: #ed5920;
      }

      .cls-3 {
        fill: #ff702e;
      }

      .cls-4 {
        fill: #c7c8ce;
      }

      .cls-5 {
        fill: #5f606b;
      }

      .cls-6 {
        fill: #51545a;
      }
    </style>
  </defs>
  <path class="cls-3" d="M425.59396,389.72468l39.62794-222.30321c8.55187-47.97392-16.07504-95.73382-60.11745-116.58803l-4.99173-2.3636C308.30191,4.99715,201.79439,5.18617,110.13847,48.98446l-3.58926,1.71515c-43.83963,20.94901-68.29809,68.58959-59.77121,116.42333l39.68116,222.60174c10.96156,61.49173,64.43429,106.27532,126.89539,106.27532h85.34403c62.4611,0,115.93382-44.78359,126.89539-106.27532Z"/>
  <path class="cls-2" d="M424.26807,62.47272c17.90649,23.48297,25.93042,53.93213,20.48499,84.47992l-26.79639,150.32133c-18.38599,103.14102-108.07661,178.25722-212.84356,178.25722h-12.22736c-30.12781,0-58.16235-10.42181-80.3457-28.10956,23.80908,29.85315,60.43042,48.57837,100.81445,48.57837h85.34399c62.46118,0,115.93384-44.78363,126.89551-106.27533l39.62793-222.30322c7.21606-40.48083-9.19165-80.8092-40.95386-104.94873Z"/>
  <rect class="cls-1" x="112.31664" y="94.53162" width="287.36672" height="225.47017" rx="26.15187" ry="26.15187"/>
  <path class="cls-5" d="M271.05811,368.73041v71.26959c0,8.83656,7.16344,16,16,16h11.64014c43.13965,0,79.94629-30.82471,87.5166-73.29492l1.99058-11.16679c1.74792-9.80549-5.79163-18.80788-15.75169-18.80788h-85.39563c-8.83656,0-16,7.16344-16,16Z"/>
  <path class="cls-5" d="M224.99512,352.73041h-85.39557c-9.96008,0-17.49963,9.00243-15.75168,18.80793l1.99052,11.16625c7.55997,42.40931,44.4388,73.29541,87.51667,73.29541h11.64007c8.83656,0,16-7.16344,16-16v-71.26959c0-8.83656-7.16344-16-16-16Z"/>
  <path class="cls-6" d="M379.17822,354.21399l-1.35559,7.60443c-7.08228,39.73248-41.51624,68.57019-81.87512,68.57019h-10.88977c-6.41309,0-11.86829-4.04071-13.99963-9.7088v19.32019c0,8.83655,7.16345,16,16,16h11.64014c43.13965,0,79.94629-30.82471,87.5166-73.29492l1.9906-11.16681c1.32349-7.42444-2.68237-14.37994-9.02722-17.32428Z"/>
  <path class="cls-6" d="M226.99548,430.38861h-10.88977c-40.30103,0-74.80249-28.89514-81.87512-68.57062l-1.35559-7.604c-6.34473,2.94434-10.35059,9.89984-9.0271,17.32434l1.99048,11.16626c7.56006,42.4093,44.43872,73.29541,87.5166,73.29541h11.64014c8.83655,0,16-7.16345,16-16v-19.32019c-2.13135,5.66809-7.58655,9.7088-13.99963,9.7088Z"/>
  <path class="cls-4" d="M373.53149,94.53162H138.46851c-14.44327,0-26.15186,11.70858-26.15186,26.15186v161.05442h.00003c17.04153,0,30.85641-13.81489,30.85641-30.85641v-37.30261c0-42.63127,34.55947-77.19075,77.19075-77.19075h179.31951v-15.70465c0-14.44327-11.70858-26.15186-26.15186-26.15186Z"/>
  <path d="M298.69824,501h-85.34375c-64.97705,0-120.41455-46.4292-131.81787-110.39795L41.85547,168.00049c-8.89111-49.87744,16.82568-99.96875,62.53809-121.81201,2.49072-1.19189,5.47656-.13574,6.66699,2.35547,1.19092,2.4917,.13623,5.47656-2.35547,6.66699-41.66797,19.91113-65.10938,65.57031-57.00488,111.03467l39.68115,222.60156c10.55176,59.19141,61.84912,102.15283,121.97314,102.15283h85.34375c60.125,0,111.42188-42.96143,121.97266-102.15283l39.62793-222.30322c8.13477-45.63184-15.44238-91.35547-57.33398-111.19141l-4.99219-2.36377c-39.20605-18.56396-81.04395-29.16357-124.35156-31.50391-43.09277-2.33008-85.60742,3.62158-126.37402,17.68408-2.6084,.90039-5.45654-.48486-6.35693-3.09619-.90088-2.61035,.48535-5.45654,3.09619-6.35693,41.99365-14.48584,85.79443-20.61328,130.17383-18.21631,44.61035,2.41064,87.70703,13.32861,128.0918,32.45117l4.99219,2.36377c45.95801,21.76123,71.82422,71.92334,62.90039,121.98438l-39.62793,222.30322c-11.40332,63.96875-66.84082,110.39795-131.81836,110.39795Z"/>
  <path d="M373.53125,325.00195H138.46875c-17.17725,0-31.15234-13.97461-31.15234-31.15186V120.68359c0-17.17725,13.9751-31.15186,31.15234-31.15186h235.0625c17.17773,0,31.15234,13.97461,31.15234,31.15186V254.52539c0,2.76123-2.23828,5-5,5s-5-2.23877-5-5V120.68359c0-11.66309-9.48926-21.15186-21.15234-21.15186H138.46875c-11.66357,0-21.15234,9.48877-21.15234,21.15186v173.1665c0,11.66309,9.48877,21.15186,21.15234,21.15186h235.0625c11.66309,0,21.15234-9.48877,21.15234-21.15186,0-2.76123,2.23828-5,5-5s5,2.23877,5,5c0,17.17725-13.97461,31.15186-31.15234,31.15186Z"/>
  <path d="M298.69824,461h-11.63965c-11.5791,0-21-9.42041-21-21v-71.26953c0-11.57959,9.4209-21,21-21h85.39551c6.23047,0,12.09863,2.73975,16.09863,7.5166,4.00098,4.77686,5.66797,11.03467,4.5752,17.16846l-1.99023,11.16699c-7.99609,44.85889-46.87305,77.41748-92.43945,77.41748Zm-11.63965-103.26953c-6.06543,0-11,4.93457-11,11v71.26953c0,6.06543,4.93457,11,11,11h11.63965c40.71387,0,75.4502-29.09131,82.59375-69.17236l1.99023-11.16699c.57324-3.21338-.2998-6.49121-2.39551-8.99316s-5.16895-3.93701-8.43262-3.93701h-85.39551Z"/>
  <path d="M224.99512,461h-11.64014c-45.56592,0-84.44238-32.55908-92.43896-77.41797l-1.99072-11.16602c-1.09326-6.13428,.57422-12.39258,4.5752-17.16943,4.00049-4.77637,9.86865-7.51611,16.09912-7.51611h85.39551c11.57959,0,21,9.42041,21,21,0,2.76123-2.23877,5-5,5s-5-2.23877-5-5c0-6.06543-4.93457-11-11-11h-85.39551c-3.26367,0-6.3374,1.43506-8.43311,3.93701-2.0957,2.50244-2.96924,5.78027-2.39648,8.99365l1.99072,11.16602c7.14502,40.08154,41.88086,69.17285,82.59424,69.17285h11.64014c6.06543,0,11-4.93457,11-11v-42.12793c0-2.76123,2.23877-5,5-5s5,2.23877,5,5v42.12793c0,11.57959-9.42041,21-21,21Z"/>
  <path d="M212.30762,224.86963h-52.17822c-2.76123,0-5-2.23877-5-5s2.23877-5,5-5h52.17822c2.76123,0,5,2.23877,5,5s-2.23877,5-5,5Z"/>
  <path d="M175.4624,293.2002h-23.14453c-2.76123,0-5-2.23877-5-5s2.23877-5,5-5h23.14453c2.76123,0,5,2.23877,5,5s-2.23877,5-5,5Z"/>
  <path d="M228.21191,293.2002h-23.14502c-2.76123,0-5-2.23877-5-5s2.23877-5,5-5h23.14502c2.76123,0,5,2.23877,5,5s-2.23877,5-5,5Z"/>
  <path d="M269.82812,293.2002h-23.14502c-2.76123,0-5-2.23877-5-5s2.23877-5,5-5h23.14502c2.76172,0,5,2.23877,5,5s-2.23828,5-5,5Z"/>
  <path d="M323.46582,293.2002h-23.14551c-2.76172,0-5-2.23877-5-5s2.23828-5,5-5h23.14551c2.76172,0,5,2.23877,5,5s-2.23828,5-5,5Z"/>
  <path d="M365.08203,293.2002h-23.14453c-2.76172,0-5-2.23877-5-5s2.23828-5,5-5h23.14453c2.76172,0,5,2.23877,5,5s-2.23828,5-5,5Z"/>
  <path d="M309.56445,224.86963h-52.17871c-2.76123,0-5-2.23877-5-5s2.23877-5,5-5h52.17871c2.76172,0,5,2.23877,5,5s-2.23828,5-5,5Z"/>
</svg>