<?xml version="1.0" encoding="UTF-8"?>
<svg id="Layer_1" data-name="Layer 1" xmlns="http://www.w3.org/2000/svg" viewBox="0 0 512 512">
  <defs>
    <style>
      .cls-1 {
        fill: #e7e8f1;
      }

      .cls-2 {
        fill: #ed5920;
      }

      .cls-3 {
        fill: #ff702e;
      }

      .cls-4 {
        fill: #c7c8ce;
      }

      .cls-5 {
        fill: #5f606b;
      }

      .cls-6 {
        fill: #51545a;
      }
    </style>
  </defs>
  <path d="M323.01758,332.7749c-2.76172,0-5-2.23877-5-5V88.12402c0-8.78662-7.14844-15.93506-15.93457-15.93506h-92.16602c-8.78613,0-15.93457,7.14844-15.93457,15.93506v215.83496c0,2.76123-2.23828,5-5,5s-5-2.23877-5-5V88.12402c0-14.30078,11.63379-25.93506,25.93457-25.93506h92.16602c14.30078,0,25.93457,11.63428,25.93457,25.93506v239.65088c0,2.76123-2.23828,5-5,5Z"/>
  <path d="M228.18457,122.25635c-2.76172,0-5-2.23877-5-5V42.16992c0-2.76123,2.23828-5,5-5s5,2.23877,5,5V117.25635c0,2.76123-2.23828,5-5,5Z"/>
  <path d="M282.37109,146.27832c-2.76172,0-5-2.23877-5-5V42.16992c0-2.76123,2.23828-5,5-5s5,2.23877,5,5v99.1084c0,2.76123-2.23828,5-5,5Z"/>
  <path class="cls-5" d="M430.05396,370.25014H80.54461c-6.63349,0-12.011,5.37751-12.011,12.011v59.79837c0,6.63349,5.37751,12.011,12.011,12.011h93.90643c6.66985,0,13.01701,2.87082,17.42136,7.87968l.00028,.00032c4.40435,5.00886,10.75151,7.87968,17.42136,7.87968h92.01038c6.66992,0,13.01714-2.87088,17.42149-7.87983v-.00002c4.40436-5.00895,10.75158-7.87983,17.42151-7.87983h93.90655c6.63349,0,12.011-5.37751,12.011-12.011v-59.79837c0-6.63349-5.37751-12.011-12.011-12.011Z"/>
  <rect class="cls-3" x="368.54291" y="386.70008" width="51.17253" height="50.92052" rx="6.0055" ry="6.0055"/>
  <path class="cls-6" d="M430.05396,370.25014h-5.33399v10.46806c0,31.43322-25.48166,56.91489-56.91489,56.91489h-49.00269c-6.66993,0-13.01705,2.87092-17.42148,7.87984v.00006c-4.40442,5.00892-10.75155,7.87978-17.42148,7.87978H76.59641c1.23819,.43143,2.56289,.67774,3.9482,.67774h94.93283c6.37828,0,12.41073,2.89935,16.39521,7.87994v.00002c3.98437,4.98045,10.01665,7.87972,16.39474,7.87972h93.03705c6.62735,0,12.99068-2.78732,17.34058-7.78734,4.4074-5.06612,10.7915-7.97233,17.50237-7.97233h93.90657c6.63349,0,12.011-5.37751,12.011-12.011v-59.79837c0-6.63349-5.37751-12.011-12.011-12.011Z"/>
  <rect class="cls-3" x="90.88302" y="386.70008" width="51.17253" height="50.92052" rx="6.0055" ry="6.0055"/>
  <rect class="cls-1" x="161.88129" y="386.70008" width="186.91849" height="50.92052" rx="6.0055" ry="6.0055"/>
  <path class="cls-2" d="M413.70989,387.05634h-5.13825v10.85629c0,14.66998-11.89237,26.56235-26.56235,26.56235h-13.46626v7.14013c0,3.31675,2.68875,6.0055,6.0055,6.0055h39.16136c3.31675,0,6.0055-2.68875,6.0055-6.0055v-38.55327c0-3.31675-2.68875-6.0055-6.0055-6.0055Z"/>
  <path class="cls-2" d="M136.05004,387.05634h-5.13825v10.85629c0,14.66998-11.89237,26.56235-26.56235,26.56235h-13.46626v7.14013c0,3.31675,2.68875,6.0055,6.0055,6.0055h39.16136c3.31675,0,6.0055-2.68875,6.0055-6.0055v-38.55327c0-3.31675-2.68875-6.0055-6.0055-6.0055Z"/>
  <path class="cls-4" d="M342.79435,387.05634h-5.13825v.7882c0,20.23044-16.40001,36.63044-36.63044,36.63044H161.88132v7.14013c0,3.31675,2.68875,6.0055,6.0055,6.0055h174.90753c3.31675,0,6.0055-2.68875,6.0055-6.0055v-38.55327c0-3.31675-2.68875-6.0055-6.0055-6.0055Z"/>
  <path class="cls-6" d="M340.89368,333.84698c-8.21236-3.99585-17.22574-6.07227-26.35862-6.07227h-117.07012c-9.13288,0-18.14626,2.07643-26.35862,6.07227l-31.85291,15.49839,5.87648,21.57066,28.27199-13.80708c10.46027-5.10838,21.94784-7.76358,33.58863-7.76358h98.01898c11.64079,0,23.12836,2.6552,33.58863,7.76358l28.27199,13.80708,5.87648-21.57066-31.85291-15.49839Z"/>
  <path class="cls-6" d="M100.47196,370.91603h155.52804v-26.57525H108.02898c-7.54092,0-15.01328,1.43157-22.02024,4.21869l-31.67241,12.59815c-8.47301,3.37026-14.37389,11.1665-15.31662,20.23632l-2.97399,28.61195c-.30738,2.9572,2.01221,5.53038,4.98534,5.53038h4.54003c2.99163,0,5.85312-1.22341,7.92008-3.38616l3.14742-3.29329c6.54655-6.84995,14.81869-11.80835,23.9457-14.35328l16.03046-4.46985"/>
  <path class="cls-5" d="M76.59641,370.91603l-42.27842,16.81683c-8.47301,3.37026-14.37389,11.1665-15.31662,20.23632l-2.97399,28.61195c-.30738,2.9572,2.01221,5.53038,4.98534,5.53038h4.54003c2.99163,0,5.85312-1.22341,7.92008-3.38616l3.14742-3.29329c6.54655-6.84995,14.81869-11.80835,23.9457-14.35328l16.03046-4.46985"/>
  <path class="cls-6" d="M56.05123,379.08819v10.74689c0,13.5912-8.56434,25.7075-21.37666,30.24238h-.00003c-5.17983,1.83339-9.57027,5.39464-12.43289,10.08477l-5.65845,9.27085c.83597,1.5811,2.49081,2.67842,4.42959,2.67842h4.5401c2.99161,0,5.8531-1.22341,7.92005-3.38616l3.14741-3.2933c6.54651-6.84995,14.81863-11.80834,23.94562-14.35326l16.03045-4.46983v-45.69292l-20.54519,8.17216Z"/>
  <path d="M38.54102,391.05566c-.17285,0-.34668-.00879-.52246-.02734-2.74707-.28516-4.74219-2.74316-4.45703-5.48975l.48438-4.66113c1.14062-10.95801,8.20703-20.29443,18.44238-24.36572l31.67285-12.59814c7.62793-3.03418,15.6582-4.57275,23.86816-4.57275h14.34668c2.76172,0,5,2.23877,5,5s-2.23828,5-5,5h-14.34668c-6.93848,0-13.72559,1.30029-20.17285,3.86475l-31.67285,12.59814c-6.76562,2.69141-11.4375,8.86328-12.19043,16.10742l-.48438,4.66064c-.26758,2.57129-2.43848,4.48389-4.96777,4.48389Z"/>
  <path d="M25.55273,447.11133h-4.54004c-2.83105,0-5.54199-1.20605-7.4375-3.30908-1.89453-2.10254-2.81348-4.92285-2.52148-7.73828l2.97363-28.61182c1.14062-10.95801,8.20703-20.29395,18.44336-24.36523l42.27832-16.81689c2.56641-1.02197,5.47363,.2334,6.49316,2.79785,1.02148,2.56592-.23145,5.47363-2.79785,6.49414l-42.27832,16.81689c-6.7666,2.69141-11.43848,8.86328-12.19141,16.10742l-2.97363,28.61182,4.55176,.01318c1.61816,0,3.1875-.67041,4.30469-1.83984l3.14746-3.29395c3.25781-3.40771,6.92871-6.41016,10.91309-8.92529,2.33398-1.47412,5.42383-.77637,6.89746,1.55908,1.47363,2.33496,.77539,5.42285-1.55957,6.89697-3.29395,2.0791-6.3291,4.56152-9.02148,7.37842l-3.14648,3.29346c-2.99512,3.13379-7.19922,4.93115-11.53516,4.93115Z"/>
  <path class="cls-6" d="M411.52804,370.91603h-155.52804v-26.57525h147.97102c7.54092,0,15.01328,1.43157,22.02024,4.21869l31.67241,12.59815c8.47301,3.37026,14.37389,11.1665,15.31662,20.23632l2.97399,28.61195c.30738,2.9572-2.01221,5.53038-4.98534,5.53038h-4.54003c-2.99163,0-5.85312-1.22341-7.92008-3.38616l-3.14742-3.29329c-6.54655-6.84995-14.81869-11.80835-23.9457-14.35328l-16.03046-4.46985"/>
  <path class="cls-5" d="M435.40359,370.91603l42.27842,16.81683c8.47301,3.37026,14.37389,11.1665,15.31662,20.23632l2.97399,28.61195c.30738,2.9572-2.01221,5.53038-4.98534,5.53038h-4.54003c-2.99163,0-5.85312-1.22341-7.92008-3.38616l-3.14742-3.29329c-6.54655-6.84995-14.81869-11.80835-23.9457-14.35328l-16.03046-4.46985"/>
  <path class="cls-6" d="M356.00443,287.0903h19.68806v54.43668c0,5.43306-4.41096,9.84402-9.84402,9.84402h-.00002c-5.43306,0-9.84402-4.41096-9.84402-9.84402v-54.43668h0Z" transform="translate(636.60807 722.27227) rotate(-165.00001)"/>
  <path d="M368.96582,350.64307c-.42871,0-.86328-.05566-1.29688-.17188-2.66797-.71484-4.25-3.45654-3.53613-6.12354l12.16504-45.3999c.69141-2.58008-.84473-5.24121-3.4248-5.93262-2.58496-.69434-5.24219,.84424-5.93359,3.42529l-11.54004,43.07031c-.71484,2.66748-3.45801,4.24854-6.12402,3.53564-2.66797-.71484-4.25-3.45654-3.53613-6.12354l11.54102-43.0708c2.11914-7.90723,10.27441-12.6167,18.18066-10.49609,7.90625,2.11865,12.61523,10.27441,10.49707,18.17969l-12.16504,45.3999c-.59863,2.23389-2.61914,3.70703-4.82715,3.70752Z"/>
  <path class="cls-6" d="M455.94877,379.08819v10.74689c0,13.5912,8.56434,25.7075,21.37666,30.24238h.00003c5.17983,1.83339,9.57027,5.39464,12.43289,10.08477l5.65845,9.27085c-.83597,1.5811-2.49081,2.67842-4.42959,2.67842h-4.5401c-2.99161,0-5.8531-1.22341-7.92005-3.38616l-3.14741-3.2933c-6.54651-6.84995-14.81863-11.80834-23.94562-14.35326l-16.03045-4.46983v-45.69292l20.54519,8.17216Z"/>
  <path class="cls-5" d="M335.01745,355.41764c-8.21236-3.99585-17.22574-6.07227-26.35886-6.07227h-105.31717c-9.13312,0-18.1465,2.07643-26.35886,6.07227l-31.85266,15.49839h221.74022l-31.85266-15.49839Z"/>
  <path class="cls-6" d="M146.15153,287.0903h.00002c5.43306,0,9.84402,4.41096,9.84402,9.84402v54.43668h-19.68806v-54.43668c0-5.43306,4.41096-9.84402,9.84402-9.84402Z" transform="translate(-77.64291 48.70426) rotate(-14.99999)"/>
  <path d="M143.03418,350.64307c-2.20801,0-4.22852-1.47363-4.82715-3.70752l-12.16504-45.3999c-2.11816-7.90527,2.59082-16.06104,10.49707-18.17969,7.90039-2.11865,16.06152,2.58838,18.17969,10.49561l11.54199,43.07129c.71387,2.66699-.86816,5.40869-3.53613,6.12354-2.6709,.7168-5.40918-.86914-6.12402-3.53564l-11.54102-43.0708c-.69141-2.5791-3.35059-4.1167-5.93262-3.4248-2.58008,.69141-4.11621,3.35254-3.4248,5.93262l12.16504,45.3999c.71387,2.66699-.86816,5.40869-3.53613,6.12354-.43359,.11621-.86914,.17139-1.29688,.17188Z"/>
  <path d="M473.45898,391.05566c-2.5293,0-4.7002-1.9126-4.96777-4.48389l-.48438-4.66113c-.75293-7.24365-5.4248-13.41553-12.19043-16.10693l-31.67285-12.59814c-3.5957-1.43018-7.35449-2.479-11.17285-3.11768-2.72363-.45557-4.56152-3.0332-4.10645-5.75684,.45508-2.72314,3.02539-4.56201,5.75684-4.10645,4.51758,.75586,8.96484,1.99707,13.21777,3.68896l31.67285,12.59814c10.23535,4.07129,17.30176,13.40723,18.44238,24.36523l.48438,4.66162c.28516,2.74658-1.70996,5.20459-4.45703,5.48975-.17578,.01807-.34961,.02734-.52246,.02734Z"/>
  <path d="M372.74316,354.34619c-.7334,0-1.47949-.16211-2.18359-.50488l-31.85352-15.49805c-7.48633-3.64307-15.84375-5.56836-24.1709-5.56836h-117.07031c-8.32715,0-16.68457,1.92529-24.1709,5.56836l-31.85352,15.49805c-2.48242,1.20996-5.47559,.17432-6.68359-2.30859s-.1748-5.47559,2.30859-6.68359l31.85352-15.49805c8.84082-4.30225,18.71191-6.57617,28.5459-6.57617h117.07031c9.83398,0,19.70508,2.27393,28.5459,6.57617l31.85352,15.49805c2.4834,1.20801,3.5166,4.20068,2.30859,6.68359-.86523,1.77881-2.64648,2.81348-4.5,2.81348Z"/>
  <path class="cls-5" d="M368.80349,315.36747h19.68806v54.43668c0,5.43306-4.41096,9.84402-9.84402,9.84402h-.00002c-5.43306,0-9.84402-4.41096-9.84402-9.84402v-54.43668h0Z" transform="translate(654.45142 781.17572) rotate(-165.00002)"/>
  <path d="M382.79395,375.08154c-.42871,0-.86328-.05566-1.29688-.17188-2.66699-.71484-4.25-3.45605-3.53613-6.12354l11.13574-41.56104c.33496-1.25,.16309-2.55566-.4834-3.67578-.64648-1.12061-1.69141-1.92236-2.94141-2.25732-2.57812-.68945-5.24219,.84473-5.93262,3.42578l-11.54004,43.07031c-.71484,2.66748-3.45801,4.24854-6.12402,3.53564-2.66699-.71436-4.25-3.45605-3.53613-6.12354l11.54004-43.0708c2.11914-7.90625,10.27344-12.61475,18.18066-10.49658,3.83008,1.02637,7.03125,3.48242,9.01367,6.9165,1.98242,3.43359,2.50879,7.43408,1.4834,11.26367l-11.13574,41.56104c-.59863,2.23389-2.61914,3.70703-4.82715,3.70752Z"/>
  <path class="cls-5" d="M133.35247,315.36747h.00002c5.43306,0,9.84402,4.41096,9.84402,9.84402v54.43668h-19.68806v-54.43668c0-5.43306,4.41096-9.84402,9.84402-9.84402Z" transform="translate(-85.39768 46.35514) rotate(-14.99998)"/>
  <path d="M129.20605,375.08154c-2.20801,0-4.22852-1.47363-4.82715-3.70752l-11.13574-41.56104c-1.02539-3.82959-.49902-7.83008,1.4834-11.26367,1.98242-3.43408,5.18359-5.89014,9.01367-6.9165,7.9043-2.11816,16.06152,2.59033,18.18066,10.49658l11.54004,43.0708c.71387,2.66748-.86914,5.40918-3.53613,6.12354-2.6709,.71631-5.40918-.86914-6.12402-3.53564l-11.54004-43.0708c-.69141-2.58008-3.35449-4.11523-5.93262-3.42529-1.25,.33496-2.29492,1.13672-2.94141,2.25732-.64648,1.12012-.81836,2.42578-.4834,3.67578l11.13574,41.56104c.71387,2.66748-.86914,5.40869-3.53613,6.12354-.43359,.11621-.86914,.17188-1.29688,.17188Z"/>
  <path d="M490.9873,447.11133h-4.54004c-4.33594,0-8.54004-1.79736-11.53516-4.93164l-3.14746-3.29297c-5.92285-6.19727-13.41699-10.68994-21.67383-12.9917l-7.9668-2.22168c-2.66016-.7417-4.21484-3.49951-3.47363-6.15967,.74121-2.65918,3.49805-4.2124,6.15918-3.47314l7.9668,2.22168c9.9873,2.78467,19.05371,8.21875,26.21777,15.71533l3.14746,3.29346c1.11816,1.16992,2.6875,1.84033,4.30566,1.84033h4.54004l-2.96191-28.625c-.75293-7.24414-5.4248-13.41602-12.19141-16.10742l-42.27832-16.81689c-2.56641-1.02051-3.81934-3.92822-2.79785-6.49414,1.02051-2.56445,3.92578-3.81934,6.49316-2.79785l42.27832,16.81689c10.23633,4.07129,17.30273,13.40723,18.44336,24.36523l2.97363,28.61182c.29199,2.81543-.62695,5.63574-2.52148,7.73828-1.89551,2.10303-4.60645,3.30908-7.4375,3.30908Z"/>
  <path d="M146.85254,375.08105c-1.85352,0-3.63477-1.03467-4.5-2.81348-1.20801-2.48291-.1748-5.4751,2.30859-6.68359l30.13379-14.6626c8.84277-4.30225,18.71484-6.57617,28.54688-6.57617,2.76172,0,5,2.23877,5,5s-2.23828,5-5,5c-8.3252,0-16.68457,1.92529-24.17188,5.56836l-30.13379,14.6626c-.7041,.34277-1.4502,.50488-2.18359,.50488Z"/>
  <path d="M364.95605,374.9873c-.73438,0-1.47949-.16211-2.18359-.50488l-29.94238-14.56885c-7.4873-3.64307-15.84668-5.56836-24.17188-5.56836h-82.75391c-2.76172,0-5-2.23877-5-5s2.23828-5,5-5h82.75391c9.83203,0,19.7041,2.27393,28.54688,6.57617l29.94238,14.56885c2.4834,1.20801,3.5166,4.20068,2.30859,6.68359-.86523,1.77881-2.64648,2.81348-4.5,2.81348Z"/>
  <path d="M301.30469,474.83008h-92.01074c-8.10547,0-15.82324-3.49072-21.17578-9.57764-3.45508-3.92871-8.43652-6.18213-13.66699-6.18213H80.54492c-9.37988,0-17.01172-7.63086-17.01172-17.01074v-59.79834c0-9.37988,7.63184-17.01123,17.01172-17.01123H430.05371c9.37988,0,17.01172,7.63135,17.01172,17.01123v59.79834c0,9.37988-7.63184,17.01074-17.01172,17.01074h-93.90625c-5.23145,0-10.21289,2.25293-13.66699,6.18164-5.35156,6.08691-13.07031,9.57812-21.17578,9.57812Zm-220.75977-99.58008c-3.86621,0-7.01172,3.14502-7.01172,7.01123v59.79834c0,3.86572,3.14551,7.01074,7.01172,7.01074h93.90625c8.10547,0,15.82324,3.49121,21.17578,9.57812,3.45508,3.92871,8.43652,6.18164,13.66699,6.18164h92.01074c5.23145,0,10.21191-2.25293,13.66602-6.18115,5.35254-6.0874,13.07129-9.57861,21.17676-9.57861h93.90625c3.86621,0,7.01172-3.14502,7.01172-7.01074v-59.79834c0-3.86621-3.14551-7.01123-7.01172-7.01123H80.54492Z"/>
  <path d="M413.70996,442.62061h-39.16113c-6.06836,0-11.00586-4.93701-11.00586-11.00537v-38.90967c0-6.06836,4.9375-11.00537,11.00586-11.00537h39.16113c6.06836,0,11.00586,4.93701,11.00586,11.00537v38.90967c0,6.06836-4.9375,11.00537-11.00586,11.00537Zm-39.16113-50.92041c-.55469,0-1.00586,.45117-1.00586,1.00537v38.90967c0,.5542,.45117,1.00537,1.00586,1.00537h39.16113c.55469,0,1.00586-.45117,1.00586-1.00537v-38.90967c0-.5542-.45117-1.00537-1.00586-1.00537h-39.16113Z"/>
  <path d="M136.0498,442.62061h-39.16113c-6.06836,0-11.00586-4.93701-11.00586-11.00537v-38.90967c0-6.06836,4.9375-11.00537,11.00586-11.00537h39.16113c6.06836,0,11.00586,4.93701,11.00586,11.00537v38.90967c0,6.06836-4.9375,11.00537-11.00586,11.00537Zm-39.16113-50.92041c-.55469,0-1.00586,.45117-1.00586,1.00537v38.90967c0,.5542,.45117,1.00537,1.00586,1.00537h39.16113c.55469,0,1.00586-.45117,1.00586-1.00537v-38.90967c0-.5542-.45117-1.00537-1.00586-1.00537h-39.16113Z"/>
  <path d="M342.79395,442.62061c-2.76172,0-5-2.23877-5-5s2.23828-5,5-5c.55469,0,1.00586-.45117,1.00586-1.00537v-38.90967c0-.5542-.45117-1.00537-1.00586-1.00537H167.88672c-.55469,0-1.00586,.45117-1.00586,1.00537v38.90967c0,.5542,.45117,1.00537,1.00586,1.00537h146.41016c2.76172,0,5,2.23877,5,5s-2.23828,5-5,5H167.88672c-6.06836,0-11.00586-4.93701-11.00586-11.00537v-38.90967c0-6.06836,4.9375-11.00537,11.00586-11.00537h174.90723c6.06836,0,11.00586,4.93701,11.00586,11.00537v38.90967c0,6.06836-4.9375,11.00537-11.00586,11.00537Z"/>
  <rect class="cls-5" x="215.4175" y="50.29299" width="25.53408" height="34.8649" rx="5.41362" ry="5.41362"/>
  <rect class="cls-5" x="269.6045" y="50.29299" width="25.53408" height="34.8649" rx="5.41362" ry="5.41362"/>
  <rect class="cls-3" x="215.4175" y="117.25647" width="25.53408" height="34.8649" rx="5.41362" ry="5.41362"/>
  <rect class="cls-3" x="269.6045" y="141.27847" width="25.53408" height="34.8649" rx="5.41362" ry="5.41362"/>
  <path class="cls-6" d="M221.68287,72.6014c0-8.11281,6.57673-14.68955,14.68955-14.68955h4.57929v-2.20523c0-2.98986-2.42376-5.41362-5.41362-5.41362h-14.70705c-2.98986,0-5.41362,2.42376-5.41362,5.41362v24.03764c0,2.98986,2.42376,5.41362,5.41362,5.41362h.85183v-12.55649Z"/>
  <path class="cls-6" d="M275.86981,72.6014c0-8.11281,6.57673-14.68955,14.68955-14.68955h4.57929v-2.20523c0-2.98986-2.42376-5.41362-5.41362-5.41362h-14.70705c-2.98986,0-5.41362,2.42376-5.41362,5.41362v24.03764c0,2.98986,2.42376,5.41362,5.41362,5.41362h.85183v-12.55649Z"/>
  <path class="cls-2" d="M288.87324,153.83497c0,8.11281-6.57673,14.68955-14.68955,14.68955h-4.57929v2.20523c0,2.98986,2.42376,5.41362,5.41362,5.41362h14.70705c2.98986,0,5.41362-2.42376,5.41362-5.41362v-24.03764c0-2.98986-2.42376-5.41362-5.41362-5.41362h-.85183v12.55649Z"/>
  <path class="cls-2" d="M234.68624,129.81297c0,8.11281-6.57673,14.68955-14.68955,14.68955h-4.57929v2.20523c0,2.98986,2.42376,5.41362,5.41362,5.41362h14.70705c2.98986,0,5.41362-2.42376,5.41362-5.41362v-24.03764c0-2.98986-2.42376-5.41362-5.41362-5.41362h-.85183v12.55649Z"/>
  <path d="M235.53809,90.15771h-14.70703c-5.74219,0-10.41309-4.67139-10.41309-10.41357v-24.0376c0-5.74219,4.6709-10.41357,10.41309-10.41357h14.70703c5.74219,0,10.41309,4.67139,10.41309,10.41357v24.0376c0,5.74219-4.6709,10.41357-10.41309,10.41357Zm-14.70703-34.86475c-.22754,0-.41309,.18555-.41309,.41357v24.0376c0,.22803,.18555,.41357,.41309,.41357h14.70703c.22754,0,.41309-.18555,.41309-.41357v-24.0376c0-.22803-.18555-.41357-.41309-.41357h-14.70703Z"/>
  <path d="M289.72461,90.15771h-14.70605c-5.74219,0-10.41406-4.67139-10.41406-10.41357v-24.0376c0-5.74219,4.67188-10.41357,10.41406-10.41357h14.70605c5.74219,0,10.41406,4.67139,10.41406,10.41357v24.0376c0,5.74219-4.67188,10.41357-10.41406,10.41357Zm-14.70605-34.86475c-.22852,0-.41406,.18555-.41406,.41357v24.0376c0,.22803,.18555,.41357,.41406,.41357h14.70605c.22852,0,.41406-.18555,.41406-.41357v-24.0376c0-.22803-.18555-.41357-.41406-.41357h-14.70605Z"/>
  <path d="M235.53809,157.12158h-14.70703c-5.74219,0-10.41309-4.67188-10.41309-10.41406v-24.0376c0-5.74219,4.6709-10.41357,10.41309-10.41357h14.70703c5.74219,0,10.41309,4.67139,10.41309,10.41357v24.0376c0,5.74219-4.6709,10.41406-10.41309,10.41406Zm-14.70703-34.86523c-.22754,0-.41309,.18555-.41309,.41357v24.0376c0,.22852,.18555,.41406,.41309,.41406h14.70703c.22754,0,.41309-.18555,.41309-.41406v-24.0376c0-.22803-.18555-.41357-.41309-.41357h-14.70703Z"/>
  <path d="M289.72461,181.14355h-14.70605c-5.74219,0-10.41406-4.67139-10.41406-10.41357v-24.03809c0-5.74219,4.67188-10.41357,10.41406-10.41357h14.70605c5.74219,0,10.41406,4.67139,10.41406,10.41357v24.03809c0,5.74219-4.67188,10.41357-10.41406,10.41357Zm-14.70605-34.86523c-.22852,0-.41406,.18555-.41406,.41357v24.03809c0,.22803,.18555,.41357,.41406,.41357h14.70605c.22852,0,.41406-.18555,.41406-.41357v-24.03809c0-.22803-.18555-.41357-.41406-.41357h-14.70605Z"/>
</svg>