<?xml version="1.0" encoding="UTF-8"?>
<svg id="Layer_1" data-name="Layer 1" xmlns="http://www.w3.org/2000/svg" viewBox="0 0 512 512">
  <defs>
    <style>
      .cls-1 {
        fill: #e7e8f1;
      }

      .cls-2 {
        fill: #ed5920;
      }

      .cls-3 {
        fill: #ff702e;
      }

      .cls-4 {
        fill: #c7c8ce;
      }

      .cls-5 {
        fill: #5f606b;
      }

      .cls-6 {
        fill: #51545a;
      }
    </style>
  </defs>
  <g>
    <rect class="cls-5" x="272.83818" y="106.33725" width="65.95208" height="60.69856" rx="3.99889" ry="3.99889" transform="translate(-29.14953 138.88413) rotate(-24.4586)"/>
    <rect class="cls-5" x="336.00288" y="138.93878" width="40.3051" height="216.84692" transform="translate(-70.45563 169.65914) rotate(-24.4586)"/>
  </g>
  <path class="cls-5" d="M404.82853,115.76699h44.30511c2.20705,0,3.99889,1.79184,3.99889,3.99889V376.12653h-52.30289V119.76588c0-2.20705,1.79184-3.99889,3.99889-3.99889Z" transform="translate(113.44675 -134.18332) rotate(20.5414)"/>
  <path class="cls-6" d="M336.72392,155.96843l-8.81366,4.00893,32.33378,73.35522c6.73954,15.28991,.77964,33.19854-13.778,41.40086h-.00003s10.64338,23.39958,10.64338,23.39958h44.27862l-64.6641-142.16458Z"/>
  <path class="cls-6" d="M392.80184,262.63217h.00004c20.87551,4.11367,41.71082-7.26805,49.52935-27.05643l5.55253-14.05322c3.99568-10.1129,12.55135-17.7311,23.05818-20.5316l.90162-.24032-40.72552,108.68587-51.96319-10.31946,13.647-36.48484Z"/>
  <path class="cls-5" d="M116.05847,316.81228l.00004-86.19588c0-3.4974-2.8352-6.3326-6.3326-6.3326h-6.86045c-2.26243,0-4.35299-1.207-5.4842-3.16632l-13.19268-22.85055c-1.1312-1.95931-1.1312-4.37327,0-6.33257l13.1927-22.85054c1.13121-1.95932,3.22178-3.16631,5.4842-3.16631h6.86045c3.4974,0,6.3326-2.8352,6.3326-6.33259l.00002-45.64002c0-3.4974-2.8352-6.3326-6.3326-6.3326l-48.84923-.00002c-3.4974,0-6.3326,2.8352-6.3326,6.3326v10.8888c0,3.4974,2.83519,6.3326,6.33259,6.3326h5.98886c2.26243,0,4.353,1.207,5.4842,3.16633l9.43658,16.34479c1.13119,1.9593,1.13119,4.37326,0,6.33256l-9.43659,16.34478c-1.13121,1.95932-3.22178,3.16632-5.48421,3.16632h-5.98886c-3.4974,0-6.3326,2.8352-6.3326,6.33259v25.82591c-.00001,3.4974,2.83519,6.3326,6.33259,6.3326h3.66439c2.26242,0,4.35298,1.20699,5.48419,3.16631l7.11207,12.3185c1.13121,1.95931,1.13121,4.37328,0,6.33259l-7.11209,12.3185c-1.13121,1.95931-3.22177,3.1663-5.4842,3.1663h-3.66439c-3.4974,0-6.3326,2.8352-6.3326,6.3326l-.00003,91.69622"/>
  <path class="cls-6" d="M109.72593,224.28375h-6.60028v2.09403c0,16.20339-10.97332,30.34985-26.66771,34.37921l-21.91379,5.62611v83.96005l61.51419-33.53086,.00024-52.6851h0v-33.51079c0-3.49743-2.83523-6.33266-6.33266-6.33266Z"/>
  <path class="cls-5" d="M196.64677,246.89298l-10.2353-3.83526c-4.09621-1.53489-8.66112,.54148-10.19601,4.63769l-5.41481,14.45072c-1.53489,4.09621,.54148,8.66112,4.63769,10.19601l10.2353,3.83526c6.84735,2.56576,10.31826,10.19659,7.7525,17.04393v.00002c-.76745,2.04811,.27073,4.33056,2.31884,5.098l210.04679,78.70632,23.04373-61.49774-210.04679-78.70632c-2.04811-.76744-4.33056,.27074-5.098,2.31885v.00002c-2.56576,6.84735-10.19659,10.31826-17.04394,7.7525Z"/>
  <path class="cls-6" d="M330.9238,278.83961H189.99438c3.84366,3.54266,5.37888,9.18514,3.43167,14.38169v.00006c-.76737,2.04808,.27092,4.33053,2.31894,5.09795l29.66877,11.11716h142.28403v-16.81736l-36.77398-13.7795Z"/>
  <path class="cls-3" d="M328.24813,397.1626c9.94103,0,19.74724,2.62203,28.206,7.84444,10.56693,6.52399,23.01699,10.28958,36.34756,10.28958,39.16786,0,70.74621-32.49269,69.25052-71.99315-1.36331-36.00431-30.76039-65.30778-66.76853-66.56579-14.1894-.49573-27.46586,3.27796-38.64833,10.13468-8.77223,5.37884-18.9774,7.95594-29.26739,7.95594H150.73265c-10.28878,0-20.49271-2.57692-29.26382-7.95526-11.18121-6.85619-24.45577-10.63005-38.64376-10.13556-36.00827,1.25498-65.40774,30.55624-66.77384,66.56046-1.49885,39.50295,30.08063,71.99868,69.24993,71.99868,13.33089,0,25.78086-3.76562,36.34788-10.28965,8.45872-5.22238,18.2649-7.84437,28.20589-7.84437h178.39319Z"/>
  <path class="cls-1" d="M410.14565,311.95622h-34.68762c-1.42867,0-2.74881,.76218-3.46314,1.99945l-17.34381,30.04036c-.71433,1.23726-.71433,2.76163,0,3.99889l17.34381,30.04036c.71433,1.23726,2.03448,1.99945,3.46314,1.99945h34.68762c1.42867,0,2.74881-.76218,3.46314-1.99945l17.34381-30.04036c.71433-1.23726,.71433-2.76163,0-3.99889l-17.34381-30.04036c-.71433-1.23726-2.03448-1.99945-3.46314-1.99945Z"/>
  <path class="cls-1" d="M102.64512,311.95622h-34.68762c-1.42867,0-2.74881,.76218-3.46314,1.99945l-17.34381,30.04036c-.71433,1.23726-.71433,2.76163,0,3.99889l17.34381,30.04036c.71433,1.23726,2.03448,1.99945,3.46314,1.99945h34.68762c1.42867,0,2.74881-.76218,3.46314-1.99945l17.34381-30.04036c.71433-1.23726,.71433-2.76163,0-3.99889l-17.34381-30.04036c-.71433-1.23726-2.03448-1.99945-3.46314-1.99945Z"/>
  <rect class="cls-2" x="155.02773" y="325.16927" width="172.88254" height="41.65236" rx="13.99612" ry="13.99612"/>
  <circle class="cls-4" cx="392.80184" cy="345.99547" r="19.26091"/>
  <circle class="cls-4" cx="85.3013" cy="345.99547" r="19.26091"/>
  <path class="cls-2" d="M462.05224,343.30348c-.5355-14.14537-5.41256-27.24574-13.3032-38.02809,2.39045,6.55513,3.82926,13.55264,4.10482,20.83199,1.49568,39.50046-30.08272,71.99316-69.25057,71.99316-13.33053,0-25.78045-3.76556-36.34734-10.28957-8.45884-5.22243-18.26495-7.84444-28.20605-7.84444H140.65674c-9.94109,0-19.74721,2.62201-28.20605,7.84438-10.56689,6.52401-23.01681,10.28963-36.34783,10.28963-22.95848,0-43.29732-11.17366-55.90832-28.36915,9.69336,26.57899,35.17408,45.56525,65.1067,45.56525,13.33078,0,25.78094-3.76562,36.34783-10.28969,8.45859-5.22237,18.26495-7.84438,28.2058-7.84438h178.39316c9.94109,0,19.74745,2.62208,28.20605,7.84444,10.56689,6.52401,23.01705,10.28963,36.34759,10.28963,39.16785,0,70.74625-32.4927,69.25057-71.99316Z"/>
  <g>
    <path d="M290.36133,181.66846c-3.4209,0-6.69824-1.95996-8.20508-5.27148l-21.82031-47.97266c-.99512-2.18701-1.0791-4.63232-.23535-6.88379,.84375-2.25098,2.5127-4.03857,4.70117-5.03369l52.75293-23.99512c4.52051-2.0542,9.86426-.05029,11.91797,4.46582l21.82031,47.97119c2.05371,4.5166,.0498,9.8623-4.46484,11.91699l-24.32422,11.06396c-2.51367,1.1416-5.47754,.03223-6.62207-2.48096-1.14258-2.51367-.03223-5.47852,2.48145-6.62158l23.41211-10.64893-20.99121-46.14941-50.93066,23.16602,20.99023,46.14941,7.12207-3.23926c2.51465-1.14404,5.47754-.0332,6.62207,2.48096,1.14258,2.51367,.03223,5.47852-2.48145,6.62158l-8.0332,3.65381c-1.2041,.54785-2.46777,.80713-3.71191,.80713Z"/>
    <path d="M391.63965,281.6958c-1.90039,0-3.71582-1.08887-4.55469-2.93115l-54.91309-120.72607c-1.14258-2.51367-.03223-5.47803,2.48145-6.62158,2.51172-1.14453,5.47754-.0332,6.62207,2.48096l54.91309,120.72607c1.14258,2.51367,.03223,5.47852-2.48145,6.62158-.6709,.30518-1.375,.4502-2.06738,.4502Z"/>
    <path d="M352.92871,293.9375c-1.90039,0-3.71582-1.08887-4.55469-2.93115l-52.88965-116.27979c-1.14258-2.51367-.03223-5.47852,2.48145-6.62158,2.51074-1.14404,5.47754-.0332,6.62207,2.48096l52.88965,116.27979c1.14258,2.51367,.03223,5.47852-2.48145,6.62158-.6709,.30518-1.375,.4502-2.06738,.4502Z"/>
  </g>
  <path d="M437.28125,297.98633c-.58301,0-1.17578-.10254-1.75391-.31934-2.58496-.96924-3.89648-3.85059-2.92676-6.43652l58.11133-155.08252-39.61328-14.84326-45.07812,120.29736c-.96777,2.58594-3.84961,3.89795-6.43652,2.92773-2.58496-.96924-3.89648-3.85059-2.92676-6.43652l45.42871-121.23535c.84277-2.25049,2.51172-4.03809,4.7002-5.03369,2.1875-.99414,4.63379-1.07861,6.88281-.23535l41.48926,15.5459c4.64453,1.74023,7.00879,6.93652,5.26953,11.5835l-58.46387,156.021c-.75195,2.00781-2.65723,3.24707-4.68262,3.24707Z"/>
  <path d="M54.54395,287.26318c-2.76172,0-5-2.23877-5-5v-23.61621c0-6.24854,5.08398-11.33252,11.33301-11.33252h3.66406c.47461,0,.91699-.25488,1.1543-.66602l7.1123-12.31885c.2373-.41064,.2373-.92188,0-1.33301l-7.1123-12.31836c-.2373-.41113-.67969-.66602-1.1543-.66602h-3.66406c-6.24902,0-11.33301-5.08398-11.33301-11.33252v-25.82617c0-6.24902,5.08398-11.33252,11.33301-11.33252h5.98828c.47461,0,.91699-.25488,1.1543-.66553l9.43652-16.3457c.2373-.41162,.2373-.92139,0-1.33154l-9.43652-16.3457c-.2373-.41162-.67969-.6665-1.1543-.6665h-5.98828c-6.24902,0-11.33301-5.08398-11.33301-11.33252v-10.88867c0-6.24854,5.08398-11.33252,11.33301-11.33252h48.84863c6.24902,0,11.33301,5.08398,11.33301,11.33252v45.64014c0,6.24854-5.08398,11.33252-11.33301,11.33252h-6.86035c-.47461,0-.91699,.25586-1.1543,.66748l-13.19238,22.84961c-.2373,.41064-.2373,.92188,0,1.3335l13.19238,22.84961c.2373,.41016,.67969,.66602,1.1543,.66602h6.86035c6.24902,0,11.33301,5.08398,11.33301,11.33252v27.76074c0,2.76123-2.23828,5-5,5s-5-2.23877-5-5v-27.76074c0-.73486-.59766-1.33252-1.33301-1.33252h-6.86035c-4.03418,0-7.79492-2.17041-9.81348-5.66455l-13.19336-22.85205c-2.01758-3.49561-2.01758-7.83789,0-11.33203l13.19238-22.85107c2.01953-3.49561,5.7793-5.6665,9.81445-5.6665h6.86035c.73535,0,1.33301-.59766,1.33301-1.33252v-45.64014c0-.73486-.59766-1.33252-1.33301-1.33252H60.87695c-.73535,0-1.33301,.59766-1.33301,1.33252v10.88867c0,.73486,.59766,1.33252,1.33301,1.33252h5.98828c4.03613,0,7.79785,2.17139,9.81445,5.66748l9.43652,16.34375c2.01855,3.49512,2.01855,7.83838-.00098,11.33398l-9.43555,16.34326c-2.0166,3.49512-5.77832,5.6665-9.81445,5.6665h-5.98828c-.73535,0-1.33301,.59766-1.33301,1.33252v25.82617c0,.73486,.59766,1.33252,1.33301,1.33252h3.66406c4.03613,0,7.79688,2.17139,9.81445,5.6665l7.1123,12.31836c2.01758,3.49463,2.01758,7.83691,0,11.33203l-7.1123,12.31885c-2.0166,3.49512-5.77734,5.6665-9.81445,5.6665h-3.66406c-.73535,0-1.33301,.59766-1.33301,1.33252v23.61621c0,2.76123-2.23828,5-5,5Z"/>
  <path d="M193.17285,299.77393c-2.66504,0-4.87891-2.10303-4.99219-4.79102-.0498-1.19971,.13867-2.38135,.56152-3.51172,.77441-2.06543,.69727-4.30371-.21387-6.30713s-2.54785-3.53223-4.60938-4.30469l-10.23438-3.83496c-3.23242-1.21094-5.7998-3.6084-7.22852-6.75-1.42871-3.14111-1.54883-6.65137-.33691-9.8833l5.41504-14.4502c1.20996-3.23145,3.60645-5.79834,6.74902-7.22754,3.14062-1.42871,6.65039-1.54834,9.88184-.33789l10.23633,3.83545c2.06152,.77295,4.2998,.6958,6.30273-.21533,2.00391-.91162,3.53223-2.54834,4.30371-4.60938,1.73438-4.62598,6.9082-6.979,11.53516-5.24658l134.1377,50.26221c2.58496,.96875,3.89648,3.85059,2.92676,6.43652-.96777,2.58643-3.84961,3.89893-6.43652,2.92773l-133.19043-49.90771c-1.80664,4.1084-5.01758,7.3667-9.13574,9.23975-4.43555,2.0166-9.38965,2.18652-13.95312,.47705l-10.23535-3.83545c-.72949-.27441-1.52344-.24756-2.2334,.07666-.70996,.32275-1.25098,.90234-1.52441,1.63281l-5.41602,14.45117c-.27344,.73096-.24609,1.52393,.07617,2.23389,.32324,.71045,.90332,1.25195,1.63477,1.52588l10.23438,3.83496c4.5625,1.70996,8.18652,5.09375,10.20312,9.52832,1.99023,4.37451,2.18164,9.25488,.5459,13.76514-.00586,2.66016-2.10742,4.86865-4.79102,4.98096-.07129,.00293-.14258,.00439-.21289,.00439Z"/>
  <path d="M392.80176,420.29639c-13.80469,0-27.28125-3.81592-38.97461-11.03516-7.52246-4.64404-16.36719-7.09863-25.5791-7.09863-2.76172,0-5-2.23877-5-5s2.23828-5,5-5c11.06836,0,21.73047,2.97021,30.83301,8.58984,10.1123,6.24365,21.77344,9.54395,33.7207,9.54395,17.6377,0,34.08984-6.99902,46.32617-19.70801,12.22949-12.70166,18.59668-29.42725,17.92773-47.09521-1.26758-33.46191-28.47754-60.58936-61.94727-61.7583-12.69531-.44629-25.10742,2.80566-35.8584,9.3999-9.27637,5.6875-20.30078,8.69336-31.88184,8.69336H150.73242c-11.58008,0-22.60254-3.00586-31.87695-8.69238-10.75195-6.59277-23.15918-9.84277-35.85645-9.40137-33.46973,1.16699-60.68164,28.29199-61.95215,61.75293-.66992,17.66992,5.69727,34.39697,17.92676,47.1001,12.2373,12.70947,28.68945,19.70898,46.32715,19.70898,11.94824,0,23.60938-3.30029,33.72168-9.54395,9.10156-5.61963,19.76367-8.58984,30.83203-8.58984h149.71094c2.76172,0,5,2.23877,5,5s-2.23828,5-5,5H149.85449c-9.21191,0-18.05664,2.45459-25.57812,7.09863-11.69336,7.21924-25.1709,11.03516-38.97559,11.03516-20.38086,0-39.3916-8.08789-53.53027-22.77295-14.13281-14.6792-21.49023-34.00439-20.71582-54.41504,1.4668-38.6709,32.91602-70.01953,71.59668-71.36816,14.66211-.51709,29,3.24707,41.43066,10.87061,7.70117,4.72168,16.91602,7.21729,26.65039,7.21729h176.63574c9.73535,0,18.95215-2.49609,26.6543-7.21826,12.43066-7.62402,26.76074-11.37988,41.43555-10.86914,38.67969,1.35107,70.12598,32.70215,71.58984,71.37402,.77344,20.40869-6.58398,39.73193-20.71582,54.40967-14.13965,14.68457-33.15039,22.77197-53.53027,22.77197Z"/>
  <path d="M410.14551,385.03467h-34.6875c-3.20605,0-6.19238-1.72461-7.79395-4.50098l-17.34277-30.03857c-1.60352-2.7749-1.60352-6.22412,.00098-9.00049l17.34277-30.03906c1.60059-2.7749,4.58691-4.49951,7.79297-4.49951h34.6875c3.20605,0,6.19238,1.72461,7.79395,4.50098l17.34277,30.03906c1.60352,2.7749,1.60352,6.22412-.00098,9.00049l-17.34277,30.03857c-1.60059,2.7749-4.58691,4.49951-7.79297,4.49951Zm-34.10938-10h33.53125l16.76562-29.03906-16.76562-29.03955h-33.53125l-16.76562,29.03955,16.76562,29.03906Zm34.10938-58.07861h0Z"/>
  <path d="M104.9541,385.03467h-39.30566c-1.78613,0-3.43652-.95312-4.33008-2.5l-19.65234-34.03906c-.89355-1.54688-.89355-3.45312,0-5l7.11523-12.32422c1.37988-2.39062,4.4375-3.21191,6.83008-1.83008,2.3916,1.38037,3.21094,4.43848,1.83008,6.83008l-5.67188,9.82422,16.76562,29.03906h33.53223l16.76562-29.03906-16.76562-29.03955h-36.41895c-2.76172,0-5-2.23877-5-5s2.23828-5,5-5h39.30566c1.78613,0,3.43652,.95312,4.33008,2.5l19.65234,34.03955c.89355,1.54688,.89355,3.45312,0,5l-19.65234,34.03906c-.89355,1.54688-2.54395,2.5-4.33008,2.5Z"/>
</svg>