<?xml version="1.0" encoding="UTF-8"?>
<svg id="Layer_1" data-name="Layer 1" xmlns="http://www.w3.org/2000/svg" viewBox="0 0 512 512">
  <defs>
    <style>
      .cls-1 {
        fill: #ed5920;
      }

      .cls-2 {
        fill: #ff702e;
      }

      .cls-3 {
        fill: #5f606b;
      }

      .cls-4 {
        fill: #51545a;
      }
    </style>
  </defs>
  <circle class="cls-3" cx="107.53117" cy="343.95945" r="75.75285"/>
  <circle class="cls-3" cx="400.4419" cy="343.95945" r="75.75285"/>
  <path class="cls-4" d="M468.42746,310.53718c.64041-3.15937,.52266-6.21996-1.04048-9.16524h-4.29557c-13.63366-20.01709-36.60405-33.16535-62.64953-33.16535-3.21529,0-6.37665,.22355-9.48657,.61229,22.07857,2.76054,41.2021,15.01798,53.15507,32.55305h-110.61354c-5.61482,10.57991-8.80778,22.64179-8.80778,35.45392,0,.19295,.00072,.38574,.00217,.57835,.20651,27.57229,22.90845,49.69252,50.48151,49.69252h55.80712c5.28281,0,8.01765,6.39179,4.30007,10.14515-11.63025,11.74218-27.07299,19.70104-44.32461,21.85806,3.10992,.38887,6.27128,.61229,9.48657,.61229,41.83716,0,75.75288-33.91572,75.75288-75.75282,0-11.99893-2.80104-23.33967-7.7673-33.42223Z"/>
  <path class="cls-4" d="M183.28401,336.82586c0-12.81213-3.19296-24.87401-8.80778-35.45392h-4.29557c-13.63366-20.01709-36.60399-33.16535-62.64947-33.16535-3.21535,0-6.37658,.22355-9.48657,.61229,22.07851,2.76054,41.20204,15.0181,53.15501,32.55305H40.58609c-5.61482,10.57991-8.80778,22.64179-8.80778,35.45392,0,.19295,.00072,.38574,.00217,.57835,.20651,27.57229,22.90845,49.69252,50.48151,49.69252h57.12483c4.78973,0,7.21285,5.7402,3.90154,9.20095-11.72986,12.25923-27.53366,20.58791-45.24373,22.80226,3.10998,.38887,6.27122,.61229,9.48657,.61229,41.8371,0,75.75282-33.91572,75.75282-75.75282,0-1.16699-.03583-2.32552-.08801-3.47957,.0576-1.2109,.08801-2.42877,.08801-3.65398Z"/>
  <path class="cls-2" d="M31.28618,374.4271H480.71382c8.44233,0,15.28618-6.84386,15.28618-15.28618v-99.62562c0-32.85936-15.86907-63.69597-42.60783-82.79509l-37.73226-26.95161c-20.0697-14.3355-45.45248-19.05962-69.33581-12.90445l-36.49752,9.40608c-29.19091,7.52304-59.70153,8.37376-89.26628,2.489l-24.26384-4.82963c-11.65919-2.32072-21.55796-9.96921-26.74559-20.66551l-4.64647-9.5805c-6.3467-13.08619-19.61226-21.39589-34.1563-21.39589h-.00009c-41.10135,0-77.0928,27.57066-87.79527,67.25413l-18.49733,68.58587c-5.61242,20.81017-8.45541,42.26972-8.45541,63.82343v67.18978c0,8.44233,6.84386,15.28618,15.28618,15.28618Z"/>
  <g>
    <path class="cls-1" d="M125.61978,113.68358l4.64644,9.58049c5.18764,10.69629,15.08646,18.34479,26.7456,20.66552l24.26389,4.82962c19.41388,3.86428,39.23398,4.80455,58.82208,2.8781-6.54154-.64333-13.06286-1.58933-19.53747-2.8781l-24.26383-4.82962c-11.6592-2.32073-21.55796-9.96923-26.7456-20.66552l-4.6465-9.58049c-6.34667-13.08618-19.61223-21.39587-34.15631-21.39587h-.00006c-8.25607,0-16.29942,1.13004-23.97958,3.22965,8.0913,3.56721,14.8488,9.91344,18.85134,18.16621Z"/>
    <path class="cls-1" d="M453.39218,176.72018l-37.73229-26.9516c-19.73377-14.09556-44.60318-18.89084-68.13417-13.19653,10.25392,2.485,20.06119,6.91909,28.84956,13.19653l37.73223,26.9516c26.73882,19.09915,42.60788,49.93574,42.60788,82.79513v99.62567c0,8.44223-6.84389,15.28618-15.28618,15.28618h39.28461c8.44236,0,15.28618-6.84395,15.28618-15.28618v-99.62567c0-32.85939-15.86906-63.69598-42.60781-82.79513Z"/>
  </g>
  <path d="M107.53125,424.7124c-32.02734,0-61.05566-18.94727-73.95215-48.27002-1.11182-2.52783,.03613-5.47852,2.56348-6.58984,2.52783-1.11133,5.47803,.03613,6.58984,2.56348,11.30078,25.69434,36.73584,42.29639,64.79883,42.29639,19.78711,0,38.80664-8.37256,52.18213-22.97168,1.86572-2.03516,5.02832-2.17383,7.06445-.30859,2.03564,1.86523,2.17432,5.02832,.30859,7.06445-15.26465,16.66064-36.97168,26.21582-59.55518,26.21582Z"/>
  <path d="M400.44189,424.7124c-21.56982,0-41.84863-8.3999-57.10107-23.65186-1.95264-1.95264-1.95264-5.11865,0-7.07129,1.95312-1.95215,5.11816-1.95215,7.07129,0,13.36328,13.36377,31.13086,20.72314,50.02979,20.72314,27.75342,0,53.07422-16.34717,64.50879-41.646,1.13672-2.5166,4.10059-3.63525,6.61523-2.49707,2.5166,1.13721,3.63428,4.09912,2.49707,6.61523-13.04883,28.87207-41.94727,47.52783-73.62109,47.52783Z"/>
  <path d="M480.71387,379.42725H31.28613c-11.18604,0-20.28613-9.1001-20.28613-20.28613v-67.18994c0-21.9873,2.90283-43.89844,8.62793-65.12549l18.49707-68.58545c11.26709-41.77588,49.35498-70.95264,92.62305-70.95264,16.34814,0,31.521,9.50439,38.65527,24.21387l4.64648,9.58105c4.47754,9.23242,13.15869,15.93994,23.22266,17.94336,2.7085,.53906,4.4668,3.17139,3.92773,5.87988-.53955,2.7085-3.17334,4.46582-5.87988,3.92773-13.11719-2.61084-24.43213-11.354-30.26855-23.3877l-4.64648-9.58008c-5.47314-11.28564-17.11426-18.57812-29.65723-18.57812-38.75781,0-72.87549,26.13525-82.96777,63.55615l-18.49707,68.58594c-5.49658,20.37793-8.2832,41.41357-8.2832,62.52148v67.18994c0,5.67188,4.61426,10.28613,10.28613,10.28613H480.71387c5.67188,0,10.28613-4.61426,10.28613-10.28613v-62.69092c0-2.76123,2.23877-5,5-5s5,2.23877,5,5v62.69092c0,11.18604-9.1001,20.28613-20.28613,20.28613Z"/>
  <path d="M496,264.51514c-2.76123,0-5-2.23877-5-5,0-31.17529-15.14551-60.60596-40.51416-78.72607l-37.73242-26.95166c-18.91406-13.50977-42.67041-17.93164-65.18115-12.13135l-36.49805,9.40576c-29.73584,7.66357-61.37305,8.54688-91.48975,2.55127-2.7085-.53906-4.4668-3.17139-3.92773-5.87988,.53906-2.70898,3.16895-4.46484,5.87988-3.92773,28.65283,5.70264,58.75146,4.86377,87.04199-2.42725l36.49805-9.40576c25.37695-6.54102,52.16406-1.55469,73.48926,13.67725l37.73242,26.95166c27.99072,19.99365,44.70166,52.46582,44.70166,86.86377,0,2.76123-2.23877,5-5,5Z"/>
  <path class="cls-1" d="M75.81214,233.3574l14.59463-26.51068c6.18346-11.23206,4.42777-25.1688-4.34822-34.51633l-12.95853-13.80246-4.11237,4.87779c-5.659,6.7123-5.68862,16.51679-.07027,23.26316l.00002,.00002c4.97994,5.97978,7.62827,13.55938,7.45601,21.33935l-.56126,25.34915Z"/>
  <path d="M75.80762,238.3584c-.81543,0-1.64209-.19971-2.40674-.62109-2.41943-1.33154-3.30078-4.37207-1.96875-6.79102l14.59473-26.51074c5.15479-9.36377,3.70264-20.89014-3.61328-28.68262l-12.9585-13.80273c-1.89014-2.01318-1.79053-5.17773,.22266-7.06738,2.01318-1.89014,5.17822-1.79053,7.06738,.22266l12.9585,13.80273c10.29248,10.96191,12.33496,27.17773,5.08301,40.3501l-14.59473,26.51025c-.91064,1.6543-2.62061,2.58984-4.38428,2.58984Z"/>
  <path class="cls-1" d="M278.29528,258.04436l12.12654-26.54295c2.38938-5.22994-1.02434-11.26822-6.73747-11.91744h-.00003c-8.47514-.96309-12.1508-11.23949-6.20902-17.3592l2.30003-2.36891,27.03964,3.07269c7.05067,.80121,11.26359,8.25314,8.31482,14.70749l-25.78052,56.42918h-.00002c-8.55988,.56303-14.61872-8.21824-11.05397-16.02087Z"/>
  <path d="M289.34619,279.06641c-.69531,0-1.40137-.14551-2.07471-.45312-2.51172-1.14746-3.61768-4.11377-2.47021-6.62549l25.78076-56.4292c.73193-1.60254,.65479-3.40186-.2124-4.93555s-2.36865-2.52734-4.11914-2.72607l-27.03955-3.07275c-2.74365-.31201-4.71533-2.78906-4.40381-5.53271,.31152-2.74414,2.79004-4.71533,5.53271-4.40381l27.03955,3.07275c4.9707,.56494,9.2334,3.38672,11.69531,7.74121,2.46191,4.35498,2.68164,9.46191,.60303,14.01221l-25.78076,56.4292c-.83984,1.83838-2.65381,2.92334-4.55078,2.92334Z"/>
</svg>