<?xml version="1.0" encoding="UTF-8"?>
<svg id="Layer_1" data-name="Layer 1" xmlns="http://www.w3.org/2000/svg" viewBox="0 0 512 512">
  <defs>
    <style>
      .cls-1 {
        fill: #e7e8f1;
      }

      .cls-2 {
        fill: #ed5920;
      }

      .cls-3 {
        fill: #ff702e;
      }

      .cls-4 {
        fill: #c7c8ce;
      }

      .cls-5 {
        fill: #5f606b;
      }

      .cls-6 {
        fill: #51545a;
      }
    </style>
  </defs>
  <path class="cls-6" d="M472.10406,345.27068h8.3892c3.30927,0,5.99599,2.68671,5.99599,5.99599v10.1134h-20.38118v-10.1134c0-3.30927,2.68671-5.99599,5.99599-5.99599Z"/>
  <path class="cls-3" d="M143.32607,164.69921h-.00017c-32.87315,0-59.5221,26.64895-59.5221,59.5221v127.27157H397.22338v-36.74855c0-14.5563-6.1683-28.43087-16.97511-38.18273l-40.10169-36.18696c-53.98171-48.71201-124.10953-75.67543-196.8205-75.67543Z"/>
  <path class="cls-5" d="M83.8038,351.49288H397.22338v14.24426c0,4.79939-3.8965,8.69589-8.69589,8.69589H92.49969c-4.79939,0-8.69589-3.8965-8.69589-8.69589v-14.24426h0Z"/>
  <path d="M496,367.96289h-98.77686c-2.76123,0-5-2.23877-5-5s2.23877-5,5-5h98.77686c2.76123,0,5,2.23877,5,5s-2.23877,5-5,5Z"/>
  <path d="M486.48926,383.72266c-2.76123,0-5-2.23877-5-5v-28.18604c0-.14697-.11914-.26611-.26611-.26611h-9.84912c-.14697,0-.26611,.11914-.26611,.26611v12.42627c0,2.76123-2.23877,5-5,5s-5-2.23877-5-5v-12.42627c0-5.66064,4.60547-10.26611,10.26611-10.26611h9.84912c5.66064,0,10.26611,4.60547,10.26611,10.26611v28.18604c0,2.76123-2.23877,5-5,5Z"/>
  <path class="cls-1" d="M324.00921,258.44442c-30.49169-27.51508-66.13882-48.07795-104.49019-60.77215-7.96952-2.63789-16.56061,1.7591-19.1099,9.75739l-8.10808,25.43869c-5.79109,18.16927,7.76751,36.72145,26.83736,36.72145h100.58555c5.85818,0,8.63448-7.22075,4.28527-11.14538h-.00001Z"/>
  <path d="M83.80371,238.05762c-2.76123,0-5-2.23877-5-5V83.42432c0-2.76123,2.23877-5,5-5s5,2.23877,5,5V233.05762c0,2.76123-2.23877,5-5,5Z"/>
  <path class="cls-5" d="M83.8038,92.17975L18.94481,129.00066c-5.17738,2.93924-3.09143,10.83876,2.86209,10.83876h61.99689v-47.65966Z"/>
  <path class="cls-2" d="M103.58655,229.24127c0-24.09912,19.53619-43.63531,43.63525-43.63531h13.89606c70.27881,0,138.06085,26.06152,190.237,73.14417l38.76038,34.97656c1.56274,1.41016,3.01196,2.91919,4.3689,4.4967-2.79346-8.23193-7.64624-15.71558-14.23584-21.66187l-40.10181-36.18689c-53.98169-48.71204-124.10944-75.67542-196.82043-75.67542h-.00012c-32.87317,0-59.52216,26.64893-59.52216,59.52209v127.27161h19.78278v-122.25165Z"/>
  <path class="cls-4" d="M322.67018,255.58841c-2.59886-2.92868-5.24831-5.77094-7.92011-8.57349,.01351,4.13255-2.51732,8.13591-6.43169,8.13591h-101.18361c-5.83331,0-11.14836-2.16438-15.56497-5.8056,4.4785,11.74945,14.02805,20.24457,25.60589,20.24457h101.18361c5.89311,0,8.68586-9.07111,4.31088-14.00139Z"/>
  <path class="cls-6" d="M70.20135,99.90192v6.86922c0,12.30454-9.9748,22.27934-22.27934,22.27934H18.87195c-5.0766,2.97449-2.98798,10.78894,2.93494,10.78894h61.99689v-47.65967l-13.60242,7.72217Z"/>
  <path class="cls-6" d="M103.58655,365.73706v-14.24414h-19.78278v14.24414c0,4.80273,3.89331,8.69604,8.69592,8.69604h19.78278c-4.80261,0-8.69592-3.89331-8.69592-8.69604Z"/>
  <path d="M397.22314,356.49268H83.80371c-2.76123,0-5-2.23877-5-5v-127.27148c0-35.57764,28.94434-64.52197,64.52197-64.52197h.00049c74.08203,0,145.17041,27.33252,200.16992,76.96338l40.10156,36.18701c11.83691,10.68066,18.62549,25.95068,18.62549,41.89453v36.74854c0,2.76123-2.23877,5-5,5Zm-308.41943-10H392.22314v-31.74854c0-13.11816-5.58545-25.68213-15.32471-34.4707l-40.10156-36.18701c-53.15869-47.96924-121.86768-74.38721-193.4707-74.38721-30.06396,0-54.52246,24.4585-54.52246,54.52197v122.27148Z"/>
  <path d="M388.52734,379.43311H92.49951c-7.55176,0-13.6958-6.14404-13.6958-13.6958v-14.24463c0-2.76123,2.23877-5,5-5H397.22314c2.76123,0,5,2.23877,5,5v14.24463c0,7.55176-6.14404,13.6958-13.6958,13.6958Zm-299.72363-22.94043v9.24463c0,2.03809,1.65771,3.6958,3.6958,3.6958H388.52734c2.03809,0,3.6958-1.65771,3.6958-3.6958v-9.24463H88.80371Z"/>
  <path d="M83.80371,144.83936H21.80713c-4.97412,0-9.16943-3.23096-10.43945-8.04053-1.27002-4.80908,.78271-9.69043,5.1084-12.14648l64.85938-36.8208c1.54785-.87842,3.4458-.86816,4.98389,.02734s2.48438,2.54102,2.48438,4.3208v47.65967c0,2.76123-2.23877,5-5,5Zm-5-44.07178l-57.39062,32.58105c-.18604,.10596-.53369,.30322-.37695,.89697s.55615,.59375,.771,.59375h56.99658v-34.07178Z"/>
  <circle class="cls-1" cx="193.15272" cy="362.96296" r="65.61289"/>
  <circle class="cls-5" cx="193.15272" cy="362.96296" r="19.00355"/>
  <path class="cls-4" d="M220.29419,303.23047c14.51727,11.33081,23.86273,28.97974,23.86273,48.82251,0,34.19434-27.71991,61.91418-61.91418,61.91418-19.84259,0-37.49158-9.34534-48.82239-23.86255,10.32648,22.68835,33.17883,38.47119,59.73236,38.47119,36.237,0,65.61292-29.37585,65.61292-65.61292,0-26.55347-15.78302-49.40601-38.47144-59.73242Z"/>
  <path class="cls-6" d="M179.49298,368.30676c0-10.49536,8.50818-19.00354,19.00354-19.00354,3.88086,0,7.48615,1.16895,10.4939,3.16577-3.40356-5.12634-9.22321-8.50952-15.83771-8.50952-10.49536,0-19.00354,8.50806-19.00354,19.00342,0,6.6145,3.38324,12.4342,8.50964,15.83777-1.99695-3.00769-3.16583-6.61304-3.16583-10.4939Z"/>
  <path d="M193.15283,433.57568c-38.93604,0-70.61279-31.67676-70.61279-70.61279s31.67676-70.61279,70.61279-70.61279,70.61279,31.67676,70.61279,70.61279-31.67676,70.61279-70.61279,70.61279Zm0-131.22559c-33.42188,0-60.61279,27.19092-60.61279,60.61279s27.19092,60.61279,60.61279,60.61279,60.61279-27.19092,60.61279-60.61279-27.19092-60.61279-60.61279-60.61279Z"/>
  <path d="M193.15283,386.96631c-13.23584,0-24.00391-10.76807-24.00391-24.00342s10.76807-24.00342,24.00391-24.00342,24.00342,10.76807,24.00342,24.00342-10.76807,24.00342-24.00342,24.00342Zm0-38.00684c-7.72168,0-14.00391,6.28174-14.00391,14.00342s6.28223,14.00342,14.00391,14.00342,14.00342-6.28174,14.00342-14.00342-6.28174-14.00342-14.00342-14.00342Z"/>
  <path d="M319.72412,274.58984h-100.58594c-10.70264,0-20.46338-4.95605-26.77832-13.59717s-8.07275-19.4458-4.82227-29.64307l8.10791-25.43848c1.64404-5.1582,5.20605-9.35303,10.03076-11.81152,4.81445-2.45459,10.28955-2.87061,15.41406-1.17383,39.58691,13.10303,75.34082,33.89795,106.26855,61.80664h0c3.53076,3.18604,4.70898,8.1123,3.00244,12.55127-1.70654,4.43799-5.88184,7.30615-10.63721,7.30615Zm-104.94385-72.68506c-1.56689,0-3.12402,.37109-4.56396,1.10498-2.42578,1.23584-4.2168,3.34473-5.04346,5.93848l-8.10791,25.43848c-2.27002,7.12305-1.04248,14.66992,3.36865,20.70557s11.22852,9.49756,18.70459,9.49756h100.58594c.79248,0,1.146-.48682,1.30322-.89551,.15723-.4082,.2207-1.00684-.36768-1.53809-29.89209-26.97363-64.44922-47.07227-102.71191-59.7373-1.03809-.34375-2.10498-.51416-3.16748-.51416Z"/>
</svg>