<?xml version="1.0" encoding="UTF-8"?>
<svg id="Layer_1" data-name="Layer 1" xmlns="http://www.w3.org/2000/svg" viewBox="0 0 512 512">
  <defs>
    <style>
      .cls-1 {
        fill: #e7e8f1;
      }

      .cls-2 {
        fill: #ed5920;
      }

      .cls-3 {
        fill: #ff702e;
      }

      .cls-4 {
        fill: #c7c8ce;
      }

      .cls-5 {
        fill: #5f606b;
      }

      .cls-6 {
        fill: #51545a;
      }
    </style>
  </defs>
  <rect class="cls-6" x="243.7328" y="59.21621" width="24.53441" height="29.77898"/>
  <path class="cls-1" d="M288.02527,85.6936h-64.05054c-24.75362,0-47.10569,14.80888-56.75734,37.60334l-6.99191,16.51292h191.54904l-6.99191-16.51292c-9.65165-22.79447-32.00371-37.60334-56.75734-37.60334Z"/>
  <rect class="cls-1" x="144.15582" y="139.80986" width="223.68835" height="26.4774" rx="6.87418" ry="6.87418"/>
  <rect class="cls-1" x="144.15582" y="469.5226" width="223.68835" height="26.4774" rx="6.87418" ry="6.87418"/>
  <path class="cls-4" d="M344.78259,123.29694c-9.65161-22.79449-32.00378-37.60333-56.75732-37.60333h-34.63074c24.75366,0,47.10571,14.80884,56.75732,37.60333l6.99194,16.51294h34.63074l-6.99194-16.51294Z"/>
  <rect class="cls-3" x="160.22548" y="166.28726" width="191.54904" height="303.23534"/>
  <path class="cls-5" d="M271.66278,16h-31.32555c-3.35208,0-6.18575,2.48284-6.62623,5.80585l-4.60968,34.77582c-.53094,4.00543,2.58576,7.56252,6.62623,7.56252h40.54491c4.04047,0,7.15716-3.55709,6.62623-7.56252l-4.60968-34.77582c-.44048-3.32301-3.27415-5.80585-6.62623-5.80585Z"/>
  <path class="cls-5" d="M160.22548,222.61466h39.60044c17.1805,0,31.12889,13.94839,31.12889,31.12889v128.32276c0,17.1805-13.94839,31.12889-31.12889,31.12889h-39.60044V222.61466h0Z"/>
  <path class="cls-6" d="M282.89868,56.58167l-4.60962-34.77582c-.44055-3.323-3.27417-5.80585-6.62622-5.80585h-11.31287c3.35205,0,6.18567,2.48285,6.62622,5.80585l4.60974,34.77582c.53088,4.00543-2.58582,7.5625-6.62622,7.5625h11.31274c4.04053,0,7.15723-3.55707,6.62622-7.5625Z"/>
  <rect class="cls-2" x="319.93842" y="166.28726" width="31.8361" height="303.23534"/>
  <path class="cls-4" d="M360.96997,139.80988h-27.98767c3.79651,0,6.87415,3.07764,6.87415,6.87415v12.72906c0,3.79651-3.07764,6.87415-6.87415,6.87415h27.98767c3.79651,0,6.87427-3.07764,6.87427-6.87415v-12.72906c0-3.79651-3.07776-6.87415-6.87427-6.87415Z"/>
  <path class="cls-4" d="M360.96997,469.52258h-27.98767c3.79651,0,6.87415,3.07776,6.87415,6.87415v12.729c0,3.79663-3.07764,6.87427-6.87415,6.87427h27.98767c3.79651,0,6.87427-3.07764,6.87427-6.87427v-12.729c0-3.79639-3.07776-6.87415-6.87427-6.87415Z"/>
  <path d="M243.73291,88.75049c-2.76123,0-5-2.23877-5-5v-19.28955c0-2.76123,2.23877-5,5-5s5,2.23877,5,5v19.28955c0,2.76123-2.23877,5-5,5Z"/>
  <path d="M268.26758,88.75049c-2.76172,0-5-2.23877-5-5v-19.28955c0-2.76123,2.23828-5,5-5s5,2.23877,5,5v19.28955c0,2.76123-2.23828,5-5,5Z"/>
  <path d="M160.22314,144.81152c-.6499,0-1.31055-.12793-1.94727-.39697-2.54248-1.07666-3.73145-4.01123-2.65479-6.55371l6.9917-16.51318c10.45752-24.69678,34.54346-40.6543,61.36182-40.6543h64.05078c26.81836,0,50.9043,15.95752,61.36133,40.65381l6.99219,16.51318c1.07617,2.54297-.1123,5.47705-2.65527,6.5542-2.54004,1.07373-5.47656-.1123-6.55371-2.65479l-6.99219-16.51318c-8.88672-20.99023-29.3584-34.55322-52.15234-34.55322h-64.05078c-22.79395,0-43.26514,13.56299-52.15283,34.55322l-6.9917,16.51318c-.80762,1.90625-2.65869,3.05176-4.60693,3.05176Z"/>
  <path d="M360.96973,171.28711H151.02979c-6.54736,0-11.87402-5.32666-11.87402-11.87402v-12.729c0-6.54736,5.32666-11.87402,11.87402-11.87402h117.23779c2.76172,0,5,2.23877,5,5s-2.23828,5-5,5h-117.23779c-1.0332,0-1.87402,.84082-1.87402,1.87402v12.729c0,1.0332,.84082,1.87402,1.87402,1.87402h209.93994c1.0332,0,1.87402-.84082,1.87402-1.87402v-12.729c0-1.0332-.84082-1.87402-1.87402-1.87402h-61.99023c-2.76172,0-5-2.23877-5-5s2.23828-5,5-5h61.99023c6.54688,0,11.87402,5.32666,11.87402,11.87402v12.729c0,6.54736-5.32715,11.87402-11.87402,11.87402Z"/>
  <path class="cls-6" d="M208.32568,223.79913c.15356,1.2533,.24194,2.52667,.24194,3.82141v111.10961c0,26.69861-21.6435,48.34211-48.34211,48.34211h-.00005v26.12292h39.60046c17.19202,0,31.12891-13.93689,31.12891-31.12891V253.74353c0-14.24384-9.57056-26.24438-22.62915-29.9444Z"/>
  <path d="M360.96973,501H151.02979c-6.54736,0-11.87402-5.32666-11.87402-11.87402v-12.729c0-6.54785,5.32666-11.87451,11.87402-11.87451h209.93994c6.54688,0,11.87402,5.32666,11.87402,11.87451v12.729c0,6.54736-5.32715,11.87402-11.87402,11.87402Zm-209.93994-26.47754c-1.0332,0-1.87402,.84082-1.87402,1.87451v12.729c0,1.0332,.84082,1.87402,1.87402,1.87402h209.93994c1.0332,0,1.87402-.84082,1.87402-1.87402v-12.729c0-1.03369-.84082-1.87451-1.87402-1.87451H151.02979Z"/>
  <path d="M351.77441,445.32764c-2.76172,0-5-2.23877-5-5V166.28711c0-2.76123,2.23828-5,5-5s5,2.23877,5,5V440.32764c0,2.76123-2.23828,5-5,5Z"/>
  <path d="M160.22559,474.52246c-2.76123,0-5-2.23877-5-5V194.88037c0-2.76123,2.23877-5,5-5s5,2.23877,5,5V469.52246c0,2.76123-2.23877,5-5,5Z"/>
  <path d="M276.27246,69.14404h-40.54492c-3.3667,0-6.56982-1.45215-8.78809-3.98438-2.21875-2.53223-3.2373-5.89844-2.79443-9.23535l4.60938-34.77539c.7666-5.78613,5.74658-10.14893,11.58301-10.14893h31.32568c5.83594,0,10.81543,4.36279,11.58301,10.14844l4.60938,34.77637c.44238,3.33643-.57617,6.70264-2.79492,9.23486s-5.42188,3.98438-8.78809,3.98438Zm-35.93506-48.14404c-.84131,0-1.55908,.62891-1.66992,1.46289l-4.60938,34.77588c-.0874,.65869,.21484,1.1167,.40283,1.33105s.60205,.57422,1.2666,.57422h40.54492c.66406,0,1.0791-.35986,1.2666-.57422,.1875-.21484,.49023-.67285,.40234-1.33105l-4.60938-34.77637c-.11035-.8335-.82812-1.4624-1.66895-1.4624h-31.32568Z"/>
  <path d="M199.82568,418.19531h-12.88135c-2.76123,0-5-2.23877-5-5s2.23877-5,5-5h12.88135c14.40771,0,26.12891-11.72119,26.12891-26.12891V253.74365c0-14.40771-11.72119-26.12891-26.12891-26.12891h-39.6001c-2.76123,0-5-2.23877-5-5s2.23877-5,5-5h39.6001c19.92139,0,36.12891,16.20752,36.12891,36.12891v128.32275c0,19.92139-16.20752,36.12891-36.12891,36.12891Z"/>
  <path d="M246.7002,45.07227h-15.41064c-2.76123,0-5-2.23877-5-5s2.23877-5,5-5h15.41064c2.76123,0,5,2.23877,5,5s-2.23877,5-5,5Z"/>
</svg>