<?xml version="1.0" encoding="UTF-8"?>
<svg id="Layer_1" data-name="Layer 1" xmlns="http://www.w3.org/2000/svg" viewBox="0 0 512 512">
  <defs>
    <style>
      .cls-1 {
        fill: #e7e8f1;
      }

      .cls-2 {
        fill: #ed5920;
      }

      .cls-3 {
        fill: #ff702e;
      }

      .cls-4 {
        fill: #c7c8ce;
      }

      .cls-5 {
        fill: #5f606b;
      }

      .cls-6 {
        fill: #51545a;
      }
    </style>
  </defs>
  <path class="cls-5" d="M415.36065,197.08042h40.96398v28.45033h-40.96398c-3.2873,0-5.95616-2.66887-5.95616-5.95616v-16.53801c0-3.2873,2.66887-5.95616,5.95616-5.95616Z"/>
  <rect class="cls-5" x="237.0704" y="83.85106" width="38.23468" height="58.56128"/>
  <path class="cls-6" d="M237.07039,83.85106v12.42806h3.56097c13.28996,0,24.06359,10.77364,24.06359,24.06359v22.06964h10.61014v-58.56129h-38.2347Z"/>
  <g>
    <rect class="cls-1" x="160.05112" y="142.41234" width="192.27318" height="26.28394" rx="6.82396" ry="6.82396"/>
    <rect class="cls-1" x="160.05112" y="469.71606" width="192.27318" height="26.28394" rx="6.82396" ry="6.82396"/>
    <rect class="cls-3" x="176.00336" y="168.69628" width="160.3687" height="301.01978"/>
    <rect class="cls-2" x="304.76856" y="168.69628" width="31.6035" height="301.01978"/>
    <path class="cls-4" d="M345.50032,142.41235h-27.78318c3.76877,0,6.82392,3.05515,6.82392,6.82392v12.63606c0,3.76877-3.05515,6.82392-6.82392,6.82392h27.78318c3.76877,0,6.82404-3.05515,6.82404-6.82392v-12.63606c0-3.76877-3.05527-6.82392-6.82404-6.82392Z"/>
    <path class="cls-4" d="M345.50032,469.71604h-27.78318c3.76877,0,6.82392,3.05527,6.82392,6.82392v12.636c0,3.76889-3.05515,6.82404-6.82392,6.82404h27.78318c3.76877,0,6.82404-3.05515,6.82404-6.82404v-12.636c0-3.76865-3.05527-6.82392-6.82404-6.82392Z"/>
    <path d="M345.5,173.69629H166.875c-6.51953,0-11.82422-5.3042-11.82422-11.82373v-12.63623c0-6.52002,5.30469-11.82422,11.82422-11.82422h41.54297c2.76172,0,5,2.23877,5,5s-2.23828,5-5,5h-41.54297c-1.00586,0-1.82422,.81836-1.82422,1.82422v12.63623c0,1.00537,.81836,1.82373,1.82422,1.82373h178.625c1.00586,0,1.82422-.81836,1.82422-1.82373v-12.63623c0-1.00586-.81836-1.82422-1.82422-1.82422h-108.42969c-2.76172,0-5-2.23877-5-5s2.23828-5,5-5h108.42969c6.51953,0,11.82422,5.3042,11.82422,11.82422v12.63623c0,6.51953-5.30469,11.82373-11.82422,11.82373Z"/>
    <path d="M345.5,501H166.875c-6.51953,0-11.82422-5.3042-11.82422-11.82373v-12.63623c0-6.52002,5.30469-11.82422,11.82422-11.82422h178.625c6.51953,0,11.82422,5.3042,11.82422,11.82422v12.63623c0,6.51953-5.30469,11.82373-11.82422,11.82373Zm-178.625-26.28418c-1.00586,0-1.82422,.81836-1.82422,1.82422v12.63623c0,1.00537,.81836,1.82373,1.82422,1.82373h178.625c1.00586,0,1.82422-.81836,1.82422-1.82373v-12.63623c0-1.00586-.81836-1.82422-1.82422-1.82422H166.875Z"/>
    <path d="M176.00293,445.73438c-2.76172,0-5-2.23877-5-5V168.69629c0-2.76123,2.23828-5,5-5s5,2.23877,5,5V440.73438c0,2.76123-2.23828,5-5,5Z"/>
    <path d="M336.37207,474.71582c-2.76172,0-5-2.23877-5-5V197.08057c0-2.76123,2.23828-5,5-5s5,2.23877,5,5V469.71582c0,2.76123-2.23828,5-5,5Z"/>
  </g>
  <rect class="cls-1" x="212.93036" y="16" width="86.51476" height="67.85108" rx="14.8904" ry="14.8904"/>
  <path class="cls-1" d="M124.03081,81.46493l88.89955-12.50426V30.8904l-88.89955-12.50426c-8.9604-1.26033-16.96441,5.69665-16.96441,14.74526v33.58827c0,9.04861,8.00401,16.00559,16.96441,14.74526Z"/>
  <path class="cls-1" d="M388.34467,81.46493l-88.89955-12.50426V30.8904l88.89955-12.50426c8.9604-1.26033,16.96441,5.69665,16.96441,14.74526v33.58827c0,9.04861-8.00401,16.00559-16.96441,14.74526Z"/>
  <path class="cls-4" d="M289.4929,16.85618c.02981,.38486,.05865,.77021,.05865,1.16271v13.20372c0,21.95715-17.79979,39.75694-39.75694,39.75694h-31.86726c-1.73382,0-3.39081-.31149-4.93826-.85619,.59499,7.67865,7.00048,13.7277,14.83175,13.7277h56.7338c8.22374,0,14.8904-6.66666,14.8904-14.8904V30.8904c0-6.49007-4.15933-11.99515-9.95214-14.03422Z"/>
  <path class="cls-4" d="M399.70564,73.94909l-71.31785-10.03132c-10.08283-1.41822-17.58154-10.04548-17.58154-20.22757v-.00003c0-5.11317-3.16254-9.69336-7.944-11.50502l-3.4172-1.29475v38.07026l88.89964,12.50428c6.32503,.88963,12.15904-2.32463,15.05206-7.4695-1.19991,.12978-2.43375,.13045-3.69109-.04635Z"/>
  <path class="cls-4" d="M112.66977,73.94909l71.31785-10.03132c10.08283-1.41822,17.58154-10.04548,17.58154-20.22757v-.00003c0-5.11317,3.16254-9.69336,7.944-11.50502l3.4172-1.29475v38.07026l-88.89964,12.50428c-6.32503,.88963-12.15904-2.32463-15.05206-7.4695,1.19991,.12978,2.43375,.13045,3.69109-.04635Z"/>
  <path class="cls-6" d="M444.36086,197.08042v2.61775c0,8.59019-6.96373,15.55392-15.55392,15.55392h-19.40241v4.32249c0,3.2895,2.66666,5.95616,5.95616,5.95616h40.96388v-28.45033h-11.9637Z"/>
  <path d="M354.35254,442.68848h-17.98047c-2.76172,0-5-2.23877-5-5s2.23828-5,5-5h17.98047c13.31152,0,24.1416-10.82959,24.1416-24.14111V168.71143c0-10.01172,8.14453-18.15723,18.15625-18.15723h23.05762c10.01172,0,18.15625,8.14551,18.15625,18.15723v28.36914c0,2.76123-2.23828,5-5,5s-5-2.23877-5-5v-28.36914c0-4.49805-3.65918-8.15723-8.15625-8.15723h-23.05762c-4.49707,0-8.15625,3.65918-8.15625,8.15723v239.83594c0,18.82568-15.31543,34.14111-34.1416,34.14111Z"/>
  <path d="M456.32422,230.53076c-2.76172,0-5-2.23877-5-5v-46.81445c0-2.76123,2.23828-5,5-5s5,2.23877,5,5v46.81445c0,2.76123-2.23828,5-5,5Z"/>
  <path d="M456.32422,230.53076h-40.96387c-6.04102,0-10.95605-4.91504-10.95605-10.95605v-16.53809c0-6.04102,4.91504-10.95605,10.95605-10.95605h40.96387c2.76172,0,5,2.23877,5,5v28.4502c0,2.76123-2.23828,5-5,5Zm-40.96387-28.4502c-.52734,0-.95605,.42871-.95605,.95605v16.53809c0,.52734,.42871,.95605,.95605,.95605h35.96387v-18.4502h-35.96387Z"/>
  <path d="M275.30469,147.41211c-2.76172,0-5-2.23877-5-5v-58.56104c0-2.76123,2.23828-5,5-5s5,2.23877,5,5v58.56104c0,2.76123-2.23828,5-5,5Z"/>
  <path d="M237.07031,147.41211c-2.76172,0-5-2.23877-5-5v-58.56104c0-2.76123,2.23828-5,5-5s5,2.23877,5,5v58.56104c0,2.76123-2.23828,5-5,5Z"/>
  <path d="M284.55469,88.85107h-56.73438c-10.9668,0-19.88965-8.92285-19.88965-19.89062V30.89062c0-10.96777,8.92285-19.89062,19.88965-19.89062h56.73438c10.96777,0,19.89062,8.92285,19.89062,19.89062v38.06982c0,10.96777-8.92285,19.89062-19.89062,19.89062ZM227.82031,21c-5.45312,0-9.88965,4.43701-9.88965,9.89062v38.06982c0,5.45361,4.43652,9.89062,9.88965,9.89062h56.73438c5.4541,0,9.89062-4.43701,9.89062-9.89062V30.89062c0-5.45361-4.43652-9.89062-9.89062-9.89062h-56.73438Z"/>
  <path d="M121.9541,86.61035c-4.76465,0-9.40234-1.71191-13.0459-4.87891-4.34766-3.7793-6.8418-9.25098-6.8418-15.01172V33.13135c0-5.76074,2.49414-11.23242,6.8418-15.01172s10.11719-5.48877,15.81934-4.68457l88.89941,12.50439c2.46777,.34717,4.30371,2.45898,4.30371,4.95117v38.06982c0,2.49219-1.83594,4.604-4.30371,4.95117l-88.89941,12.50439h0c-.9248,.13037-1.85156,.19434-2.77344,.19434Zm2.07715-5.14551h0Zm-2.0752-58.22412c-2.36914,0-4.67578,.85156-6.4873,2.42627-2.16211,1.87939-3.40234,4.59961-3.40234,7.46436v33.58838c0,2.86475,1.24023,5.58496,3.40234,7.46436s5.02734,2.72754,7.86621,2.32959l84.5957-11.89893v-29.37842l-84.5957-11.89893c-.45996-.06445-.9209-.09668-1.37891-.09668Z"/>
  <path d="M390.42188,86.61035c-.92188,0-1.84863-.06396-2.77344-.19434l-88.89941-12.50439c-2.73438-.38477-4.63965-2.91309-4.25488-5.64746s2.90234-4.64307,5.64746-4.25488l88.89941,12.50439c2.83984,.39795,5.70508-.4502,7.86621-2.32959,2.16211-1.87939,3.40234-4.6001,3.40234-7.46436V33.13135c0-2.86426-1.24023-5.58496-3.40234-7.46436-2.16113-1.87939-5.02637-2.72754-7.86621-2.32959l-67.77441,9.53271c-2.74316,.38281-5.2627-1.52051-5.64746-4.25488s1.52051-5.2627,4.25488-5.64746l67.77441-9.53271c5.7041-.8042,11.4707,.90527,15.81934,4.68457,4.34766,3.7793,6.8418,9.25098,6.8418,15.01172v33.58838c0,5.76074-2.49414,11.23242-6.8418,15.01172-3.64355,3.1665-8.28223,4.87891-13.0459,4.87891Z"/>
</svg>