<?xml version="1.0" encoding="UTF-8"?>
<svg id="Layer_1" data-name="Layer 1" xmlns="http://www.w3.org/2000/svg" viewBox="0 0 512 512">
  <defs>
    <style>
      .cls-1 {
        fill: #e7e8f1;
      }

      .cls-2 {
        fill: #ed5920;
      }

      .cls-3 {
        fill: #ff702e;
      }

      .cls-4 {
        fill: #c7c8ce;
      }

      .cls-5 {
        fill: #5f606b;
      }

      .cls-6 {
        fill: #51545a;
      }
    </style>
  </defs>
  <path class="cls-5" d="M154.41203,364.36145h-31.19659V148.78405c0-73.21755,59.56701-132.78405,132.78456-132.78405s132.78456,59.5665,132.78456,132.78405v194.77967h-31.19659V148.78405c0-56.01576-45.57221-101.58746-101.58797-101.58746s-101.58797,45.5717-101.58797,101.58746v215.57739Z"/>
  <g>
    <path class="cls-6" d="M240.45553,47.19659c-56.01576,0-101.58797,45.5717-101.58797,101.58746v215.57739h15.54447V148.78405c0-53.401,41.41723-97.3098,93.81573-101.29271-2.5657-.19504-5.15754-.29475-7.77224-.29475Z"/>
    <path class="cls-6" d="M256,16c-2.60962,0-5.19943,.08416-7.77224,.23344,69.61324,4.03845,125.01232,61.94261,125.01232,132.55061v194.77967h15.54447V148.78405c0-73.21755-59.56701-132.78405-132.78456-132.78405Z"/>
  </g>
  <path class="cls-3" d="M99.61536,364.36164h164.94881v110.84057H99.61536c-8.60893,0-15.5983-6.98936-15.5983-15.5983v-79.64398c0-8.60893,6.98936-15.5983,15.5983-15.5983Z"/>
  <rect class="cls-3" x="264.56418" y="343.56391" width="163.41875" height="152.43603" rx="20.79773" ry="20.79773" transform="translate(692.54711 839.56385) rotate(180)"/>
  <path class="cls-1" d="M353.55276,283.08038h39.26638c4.0175,0,7.27921,3.2617,7.27921,7.27921v53.20432h-53.82479v-53.20432c0-4.0175,3.2617-7.27921,7.27921-7.27921Z"/>
  <path class="cls-4" d="M392.8192,283.08046h-16.41782c4.02017,0,7.27921,3.25891,7.27921,7.27921v53.20431h16.41782v-53.20431c0-4.02029-3.25904-7.27921-7.27921-7.27921Z"/>
  <path class="cls-2" d="M240.8696,364.3617v25.44389c0,36.6271-29.69213,66.31924-66.31924,66.31924H84.0171v3.47915c0,8.6147,6.9836,15.5983,15.5983,15.5983h164.94868v-110.84057h-23.69448Z"/>
  <path class="cls-2" d="M407.18517,343.56397h-6.04282v42.20576c0,45.37203-36.7813,82.15333-82.15333,82.15333h-54.42493v7.27921c0,11.48627,9.31146,20.79773,20.79773,20.79773h121.82336c11.48627,0,20.79773-9.31146,20.79773-20.79773v-110.84057c0-11.48627-9.31146-20.79773-20.79773-20.79773Z"/>
  <path d="M123.21582,369.36133c-2.76172,0-5-2.23877-5-5V148.78418c0-75.97461,61.80957-137.78418,137.78418-137.78418s137.78418,61.80957,137.78418,137.78418v134.29639c0,2.76123-2.23828,5-5,5s-5-2.23877-5-5V148.78418c0-70.46045-57.32422-127.78418-127.78418-127.78418s-127.78418,57.32373-127.78418,127.78418v215.57715c0,2.76123-2.23828,5-5,5Z"/>
  <path d="M154.41211,345.62549c-2.76172,0-5-2.23877-5-5V148.78418c0-58.77246,47.81543-106.5874,106.58789-106.5874s106.58789,47.81494,106.58789,106.5874v134.29639c0,2.76123-2.23828,5-5,5s-5-2.23877-5-5V148.78418c0-53.2583-43.3291-96.5874-96.58789-96.5874s-96.58789,43.3291-96.58789,96.5874v191.84131c0,2.76123-2.23828,5-5,5Z"/>
  <path d="M264.56445,480.20215H99.61523c-11.3584,0-20.59863-9.24023-20.59863-20.59814v-79.64404c0-11.35791,9.24023-20.59814,20.59863-20.59814H236.6875c2.76172,0,5,2.23877,5,5s-2.23828,5-5,5H99.61523c-5.84375,0-10.59863,4.75439-10.59863,10.59814v79.64404c0,5.84375,4.75488,10.59814,10.59863,10.59814h164.94922c2.76172,0,5,2.23877,5,5s-2.23828,5-5,5Z"/>
  <path d="M407.18555,501h-121.82324c-14.22461,0-25.79785-11.57275-25.79785-25.79785v-22.3584c0-2.76123,2.23828-5,5-5s5,2.23877,5,5v22.3584c0,8.71094,7.08691,15.79785,15.79785,15.79785h121.82324c8.71094,0,15.79785-7.08691,15.79785-15.79785v-110.84033c0-8.71094-7.08691-15.79785-15.79785-15.79785h-121.82324c-8.71094,0-15.79785,7.08691-15.79785,15.79785v59.47656c0,2.76123-2.23828,5-5,5s-5-2.23877-5-5v-59.47656c0-14.2251,11.57324-25.79785,25.79785-25.79785h121.82324c14.22461,0,25.79785,11.57275,25.79785,25.79785v110.84033c0,14.2251-11.57324,25.79785-25.79785,25.79785Z"/>
  <path d="M400.09863,348.56396c-2.76172,0-5-2.23877-5-5v-53.20459c0-1.25635-1.02246-2.27881-2.2793-2.27881h-39.2666c-1.25684,0-2.2793,1.02246-2.2793,2.27881v31.34717c0,2.76123-2.23828,5-5,5s-5-2.23877-5-5v-31.34717c0-6.77051,5.50879-12.27881,12.2793-12.27881h39.2666c6.77051,0,12.2793,5.5083,12.2793,12.27881v53.20459c0,2.76123-2.23828,5-5,5Z"/>
</svg>