<?xml version="1.0" encoding="UTF-8"?>
<svg id="Layer_1" data-name="Layer 1" xmlns="http://www.w3.org/2000/svg" viewBox="0 0 512 512">
  <defs>
    <style>
      .cls-1 {
        fill: #e7e8f1;
      }

      .cls-2 {
        fill: #ed5920;
      }

      .cls-3 {
        fill: #ff702e;
      }

      .cls-4 {
        fill: #c7c8ce;
      }

      .cls-5 {
        fill: #5f606b;
      }

      .cls-6 {
        fill: #51545a;
      }
    </style>
  </defs>
  <path class="cls-5" d="M234.56382,289.94264h68.97847c4.35965,0,8.524,1.80834,11.50033,4.99393l161.23892,172.57539c7.48611,8.01244,5.49631,20.91902-4.05539,26.30476l-.00003,.00002c-6.79607,3.83197-15.33086,2.52332-20.66658-3.16883l-140.78372-150.18822h-76.21201"/>
  <path class="cls-6" d="M477.25794,479.55429c-6.79609,3.83197-15.33089,2.5234-20.66657-3.16884l-59.46364-63.43578-12.19436,6.62134,66.62618,71.07687c5.33568,5.69212,13.87048,7.00081,20.66657,3.16884,6.27466-3.538,9.26028-10.31965,8.46588-16.82919-1.00814,.96914-2.14632,1.84062-3.43407,2.56677Z"/>
  <path class="cls-1" d="M300.31311,289.94238h-30.1909c0-77.14699,19.13515-153.93281,55.3377-222.05742h0c1.28989-2.42807,4.30391-3.35072,6.73195-2.06076l17.86909,9.49343c2.42799,1.28994,3.35056,4.30392,2.06061,6.73191l-.00088,.00166c-33.89302,63.77926-51.80757,135.66643-51.80757,207.89119Z"/>
  <path class="cls-3" d="M31.48301,26.50679l43.2969,133.32017c3.06587,9.44046,4.20528,19.40034,3.35067,29.2893l-1.06846,12.36355c-.79035,9.14544,.12422,18.35813,2.69719,27.16969l15.73233,53.87784c10.36653,35.5018,42.91514,59.90545,79.8995,59.90545h133.73411c2.57898,0,4.66965-2.09068,4.66965-4.66965v-12.76492c0-7.62733-5.94389-13.93338-13.5579-14.38399l-27.50794-1.62794c-28.89683-1.84584-51.38978-25.82141-51.38978-54.77713v-16.97009c0-23.49319-15.8174-44.04196-38.52849-50.0533l-38.67072-10.23566c-10.37936-2.74729-18.96166-10.03728-23.35178-19.83552L64.06385,30.5122c-3.95609-8.82953-12.7291-14.51212-22.40439-14.51212h-2.54171c-5.45297,0-9.31905,5.32039-7.63474,10.50671Z"/>
  <path class="cls-1" d="M106.81997,229.22v-.00003c.85732-3.0564,4.99781-3.51812,6.50735-.72566l37.81812,69.95843c2.12382,3.92878-.96301,8.64543-5.41343,8.27168h-.00003c-9.32899-.78347-17.59288-6.3266-21.85702-14.66093l-13.38478-26.16077c-5.79674-11.32981-7.10735-24.42903-3.67022-36.68272Z"/>
  <path class="cls-5" d="M336.18399,317.56436l56.02515-24.63768c2.56626-1.12854,5.55993,.05782,6.6565,2.63791l5.75398,13.5384c1.08225,2.5464-.09445,5.48886-2.63411,6.58685l-48.11683,20.8026"/>
  <path class="cls-6" d="M190.07501,342.43279v1.25006c0,12.18858,9.88079,22.06937,22.06937,22.06937h122.34021l-23.70876-25.29253-120.70082,1.9731Z"/>
  <path class="cls-2" d="M186.27243,325.32456c-36.98435,0-69.53299-24.40358-79.8995-59.9054l-15.73235-53.87779c-2.57297-8.81158-3.48751-18.02437-2.69717-27.16972l1.06846-12.36358c.85459-9.88895-.28482-19.84877-3.35072-29.28933L44.56911,16.18796c-.95901-.11449-1.9279-.18796-2.90963-.18796h-2.54171c-5.453,0-9.31906,5.32051-7.63476,10.50687l43.29691,133.32005c3.06589,9.44055,4.2053,19.40038,3.35065,29.28933l-1.0684,12.36358c-.7904,9.14535,.1242,18.35815,2.69717,27.16972l15.73229,53.87779c10.36657,35.50183,42.91516,59.9054,79.8995,59.9054h133.73411c2.57899,0,4.66966-2.09061,4.66966-4.66966v-12.43851h-127.52247Z"/>
  <path class="cls-4" d="M151.14547,298.45274l-37.81817-69.95847c-1.50955-2.79244-5.64998-2.33066-6.50733,.72578-.3159,1.12626-.57793,2.26149-.81386,3.40004l33.41171,61.8072c2.12378,3.92877-.963,8.64549-5.41344,8.27166-.14201-.01192-.28138-.03513-.4229-.04926,3.61275,2.27193,7.76013,3.70605,12.1505,4.07472h.00006c4.45038,.37382,7.53722-4.34289,5.41344-8.27166Z"/>
  <path d="M146.20752,311.74414c-.29688,0-.59521-.01172-.89453-.03711-11.125-.93359-20.80322-7.42578-25.88916-17.36621l-13.38477-26.16113c-6.38965-12.48779-7.82178-26.80322-4.0332-40.31006h0c.94336-3.36426,3.79688-5.78809,7.26953-6.17529,3.47217-.38818,6.78906,1.34863,8.4502,4.42236l37.81836,69.9585c1.85693,3.43555,1.68164,7.59863-.45654,10.86621-1.97363,3.01465-5.31689,4.80273-8.87988,4.80273Zm-35.44629-77.48242c-1.92432,9.9585-.48047,20.25439,4.18018,29.36328l13.38477,26.16113c3.50146,6.84375,10.16455,11.3125,17.82422,11.95605,.10107,.00781,.36719,.03125,.56982-.27734,.20215-.30957,.07471-.54492,.02686-.63379l-35.98584-66.56934Z"/>
  <path d="M309.12549,347.43262H175.39111c-19.23682,0-37.53955-6.09961-52.93066-17.63867-15.39111-11.54004-26.37646-27.39941-31.76855-45.86523l-15.73193-53.87793c-2.75732-9.44287-3.72607-19.2002-2.87939-29.00098l1.06836-12.36426c.80176-9.27148-.24951-18.46143-3.12451-27.31396-.85303-2.62646,.58447-5.44678,3.21094-6.2998,2.62549-.85303,5.44727,.58447,6.2998,3.21094,3.29102,10.13281,4.49414,20.65137,3.57666,31.26416l-1.06836,12.36377c-.73975,8.5625,.10645,17.0874,2.51562,25.3374l15.73193,53.87793c4.78125,16.37305,14.52148,30.43555,28.16797,40.66699,13.64697,10.23145,29.87549,15.63965,46.93213,15.63965h133.40381v-12.43457c0-4.97363-3.88867-9.09863-8.85303-9.39258l-27.5083-1.62793c-31.46484-2.00977-56.09424-28.2627-56.09424-59.76855v-16.96973c0-21.2002-14.31348-39.79541-34.80762-45.22021l-38.6709-10.23535c-11.896-3.14893-21.604-11.39502-26.63574-22.62451L59.50098,32.55664c-3.14551-7.02051-10.14844-11.55664-17.84131-11.55664h-2.54199c-1.3418,0-2.11035,.78174-2.44873,1.24756-.33887,.46582-.84521,1.43848-.43066,2.71533l34.89453,107.44629c.85303,2.62646-.58447,5.44678-3.21094,6.2998-2.62988,.85205-5.44727-.58496-6.2998-3.21094L26.72754,28.05127c-1.30273-4.01221-.62793-8.27002,1.85156-11.68262,2.47949-3.41162,6.3208-5.36865,10.53857-5.36865h2.54199c11.62744,0,22.21289,6.85645,26.96729,17.46777l56.72412,126.60254c3.79102,8.46045,11.10547,14.67383,20.06836,17.04639l38.6709,10.23535c24.87549,6.58447,42.24902,29.15527,42.24902,54.88721v16.96973c0,26.24512,20.5166,48.11426,46.7085,49.78711l27.48438,1.62695c10.24072,.60547,18.2627,9.11621,18.2627,19.375v12.76465c0,5.33203-4.33789,9.66992-9.66943,9.66992Z"/>
  <path class="cls-4" d="M349.95099,75.25928l-6.16156-3.27356c-31.57008,57.02841-50.2727,120.881-54.52474,185.89001-.64664,9.88643-9.00008,17.48832-18.90457,17.24196h-.00002c-.15663,4.9387-.23789,9.88084-.23789,14.8247h30.1909c0-72.22475,17.91455-144.11193,51.80757-207.89119l.00086-.00172c1.22482-2.44963,.24807-5.50522-2.17054-6.7902Z"/>
  <path class="cls-6" d="M403.09435,305.51424l-33.38092,14.43178c-8.0132,3.4644-17.33904,1.51913-23.29901-4.85991l-1.33817-1.43226-8.89229,3.91047,17.6847,18.92803,48.1168-20.8024c2.53971-1.098,3.71644-4.04052,2.63416-6.58697l-1.52527-3.58873Z"/>
  <path d="M356.52344,394.26172c-1.33398,0-2.66455-.53027-3.64893-1.58008l-44.70264-47.68848c-1.88867-2.01465-1.78613-5.17969,.22852-7.06738,2.01465-1.88867,5.17822-1.78711,7.06738,.22754l44.70264,47.68848c1.88867,2.01465,1.78613,5.17969-.22852,7.06738-.96484,.9043-2.19287,1.35254-3.41846,1.35254Z"/>
  <path d="M463.8999,501.0127c-5.90186,0-11.71777-2.38965-15.98828-6.94629l-36.73926-39.19238c-1.88867-2.01465-1.78613-5.17969,.22852-7.06738,2.01465-1.88965,5.17822-1.78711,7.06738,.22754l36.73926,39.19336c3.77051,4.02441,9.76074,4.94141,14.5625,2.2334,3.2085-1.80859,5.37012-4.93359,5.93115-8.57324,.56152-3.64062-.55859-7.27148-3.07324-9.96289l-161.23877-172.5752c-2.02344-2.16504-4.8833-3.40723-7.84668-3.40723h-68.97852c-2.76123,0-5-2.23828-5-5s2.23877-5,5-5h68.97852c5.72314,0,11.24658,2.39844,15.15381,6.58105l161.23877,172.5752c4.62207,4.94727,6.68115,11.62207,5.64941,18.3125-1.03174,6.69141-5.00537,12.43555-10.90283,15.76074-3.39014,1.91211-7.10303,2.84082-10.78174,2.84082Z"/>
  <path d="M270.12207,294.94238c-2.76123,0-5-2.23828-5-5,0-77.96191,19.33789-155.55957,55.92285-224.40381,2.58154-4.8584,8.6333-6.71143,13.49268-4.12988l17.86914,9.49365c2.35352,1.25,4.07959,3.34229,4.85986,5.89062,.77783,2.54102,.52246,5.23193-.71777,7.58057-.00439,.00781-.00879,.01611-.0127,.02393-29.35791,55.24561-46.81396,117.55762-50.48047,180.2002-.16162,2.75586-2.52686,4.86035-5.28369,4.69922s-4.86084-2.52637-4.69922-5.2832c3.74951-64.06152,21.60156-127.78906,51.62305-184.29102,.00342-.00635,.00684-.01318,.01025-.01953l-17.85986-9.46338c-35.79102,67.396-54.72412,143.37109-54.72412,219.70264,0,2.76172-2.23877,5-5,5Z"/>
  <path d="M353.87109,341.49316c-1.93408,0-3.77539-1.12891-4.5918-3.0166-1.0957-2.53516,.07031-5.47754,2.60498-6.57422l48.1167-20.80273-5.73682-13.5791-56.06738,24.62109c-2.52734,1.11133-5.47803-.03613-6.58984-2.56445-1.11133-2.52734,.03662-5.47852,2.56445-6.58984l56.0249-24.6377c2.47314-1.08789,5.21973-1.13965,7.73389-.14355,2.51318,.99609,4.47949,2.91406,5.53711,5.40234l5.75391,13.53809c2.15039,5.06152-.20605,10.95215-5.25244,13.13281l-48.11572,20.80273c-.64648,.2793-1.31982,.41113-1.98193,.41113Z"/>
  <path d="M302.70068,370.75195h-90.55615c-14.92627,0-27.06934-12.14355-27.06934-27.06934v-1.25c0-2.76172,2.23877-5,5-5s5,2.23828,5,5v1.25c0,9.41211,7.65723,17.06934,17.06934,17.06934h90.55615c2.76123,0,5,2.23828,5,5s-2.23877,5-5,5Z"/>
  <path class="cls-1" d="M333.33862,407.5526l22.70445,25.61669c7.3031,8.23986,19.1493,10.70802,29.13543,6.07039l78.54309-36.47596c6.96096-3.23272,12.70354-8.60994,16.38622-15.34369h0c1.42399-2.60378,.93001-5.83838-1.20623-7.89843h-.00002c-7.51213-7.24423-17.21517-11.7918-27.58892-12.93026h-.00006c-27.79597-3.05045-55.87016,2.2577-80.63361,15.24587l-36.09716,18.93257c-2.5185,1.32093-3.12951,4.65456-1.24319,6.78282Z"/>
  <path class="cls-4" d="M466.35367,401.40253c.83997-.47935,1.65923-.99064,2.45565-1.53289,0,0,0-.00012,.00006-.00012-37.86792-8.24955-76.8325-10.43942-115.43284-6.39579l-6.10292,.6393-12.69182,6.65672c-2.09804,1.10034-2.86608,3.59586-1.97563,5.62935l33.06743,21.40279c6.70334,7.5632,16.96979,10.5775,26.50727,8.18579l71.54074-33.224c.89033-.4135,1.75991-.86312,2.60786-1.34616,.00823-.00467,.01597-.0102,.0242-.01499Z"/>
  <path class="cls-1" d="M344.58763,401.19062l-11.7397,1.22982c-.92252,1.56691-.82879,3.6434,.49071,5.13206l22.7044,25.6168c7.30308,8.23988,19.14927,10.70805,29.1354,6.07042l68.42431-31.77677c-35.74064-7.95312-72.55331-10.09189-109.01512-6.27233Z"/>
  <path class="cls-4" d="M437.04763,404.22507l-47.71805,22.1606c-12.44944,5.78161-27.21776,2.7046-36.32231-7.56782l-.00002-.00002c-3.00501-3.39047-7.85751-4.44867-12.00129-2.61716l-.00172,.00076,15.03878,16.96788c7.30308,8.23988,19.14927,10.70806,29.1354,6.07042l68.42434-31.77678c-5.49391-1.22245-11.0157-2.29073-16.55512-3.23788Z"/>
  <path d="M374.78223,446.52148c-8.40527,0-16.69873-3.51172-22.48096-10.03613l-22.70459-25.61621c-1.92529-2.17188-2.72949-5.05566-2.20654-7.91113,.52344-2.85547,2.29785-5.26758,4.86914-6.61621l36.09766-18.93262c25.73633-13.49902,54.61035-18.96191,83.50098-15.78711,11.4126,1.25098,22.24951,6.33008,30.51416,14.30078,3.74805,3.61426,4.62061,9.3291,2.12256,13.89648-4.16553,7.61621-10.79492,13.82324-18.66699,17.47949l-78.54297,36.47559c-3.99023,1.85254-8.26074,2.74707-12.50244,2.74707Zm-37.17627-41.69238l22.17871,25.02344c5.79199,6.53418,15.36816,8.53223,23.28809,4.85156l78.54297-36.47559c5.94824-2.76172,10.95801-7.45312,14.10547-13.20801,.34131-.62402,.22168-1.40527-.29102-1.90039-6.67969-6.44141-15.43848-10.54688-24.6626-11.55859-26.9082-2.95215-53.79688,2.13281-77.76611,14.70312l-35.39551,18.56445Zm-.52588-.59277h0l.00342,.00391c-.00098-.00098-.00244-.00293-.00342-.00391Z"/>
  <path d="M374.78223,446.52148c-8.40527,0-16.69873-3.51172-22.48096-10.03613l-22.7041-25.61621c-2.70557-3.05273-3.12988-7.46777-1.05713-10.98633,.80518-1.36621,2.20996-2.26953,3.78711-2.43457l11.73926-1.23047h0c37.00586-3.87695,74.22412-1.73438,110.62207,6.36426,2.0918,.46582,3.6543,2.21191,3.88477,4.34277,.23096,2.12988-.92139,4.1709-2.86475,5.07324l-68.42432,31.77637c-3.99023,1.85254-8.26025,2.74707-12.50195,2.74707Zm-35.45654-39.75195l20.45898,23.08301c5.79199,6.53418,15.36719,8.5332,23.2876,4.85156l54.53711-25.32715c-30.55957-5.36621-61.61182-6.44922-92.50098-3.21387l-5.78271,.60645Z"/>
  <path d="M272.48682,247.89502c-2.20947,0-4.23096-1.47607-4.82764-3.71289l-11.72363-43.94824c-.71191-2.66797,.87402-5.40771,3.54248-6.11963,2.66553-.71387,5.40771,.87354,6.11963,3.54248l11.72363,43.94824c.71191,2.66797-.87402,5.40771-3.54248,6.11963-.43164,.11523-.86523,.17041-1.29199,.17041Z"/>
  <path d="M253.43164,176.45947c-2.21045,0-4.23145-1.47607-4.82812-3.71289l-5.56201-20.85107c-15.11182-56.65039-66.61475-96.21582-125.24609-96.21582h-44.69531c-2.76123,0-5-2.23877-5-5s2.23877-5,5-5h44.69531c63.1543,0,118.63086,42.61768,134.9082,103.63867l5.56201,20.85107c.71191,2.66797-.87402,5.40771-3.54248,6.11963-.43164,.11523-.86523,.17041-1.2915,.17041Z"/>
</svg>