<?xml version="1.0" encoding="UTF-8"?>
<svg id="Layer_1" data-name="Layer 1" xmlns="http://www.w3.org/2000/svg" viewBox="0 0 512 512">
  <defs>
    <style>
      .cls-1 {
        fill: #e7e8f1;
      }

      .cls-2 {
        fill: #ed5920;
      }

      .cls-3 {
        fill: #ff702e;
      }

      .cls-4 {
        fill: #c7c8ce;
      }

      .cls-5 {
        fill: #5f606b;
      }

      .cls-6 {
        fill: #51545a;
      }
    </style>
  </defs>
  <path class="cls-3" d="M137.88556,138.38676H473.12264v230.72823c0,18.08712-14.68444,32.77156-32.77156,32.77156H170.65712c-18.08712,0-32.77156-14.68444-32.77156-32.77156V138.38676h0Z"/>
  <path class="cls-2" d="M473.12269,154.08034l-39.04177-8.47368L137.88558,357.76402v11.35092c0,18.09923,14.67233,32.77156,32.77156,32.77156H440.35113c18.09923,0,32.77156-14.67233,32.77156-32.77156V154.08034Z"/>
  <rect class="cls-3" x="122.32035" y="138.38676" width="366.36749" height="33.07115" rx="9.24812" ry="9.24812"/>
  <path class="cls-2" d="M479.4397,138.38664h-25.71569c5.10766,0,9.24812,4.1406,9.24812,9.24812v14.57494c0,5.10766-4.14046,9.24812-9.24812,9.24812h25.71569c5.10766,0,9.24812-4.14046,9.24812-9.24812v-14.57494c0-5.10752-4.14046-9.24812-9.24812-9.24812Z"/>
  <rect class="cls-1" x="369.09559" y="171.45791" width="71.01737" height="44.67871" rx="4.62406" ry="4.62406"/>
  <path class="cls-4" d="M393.19604,182.58279h46.91698v-6.50089c0-2.5538-2.07026-4.62406-4.62406-4.62406h-61.76922c-2.5538,0-4.62406,2.07026-4.62406,4.62406v35.43064c0,2.5538,2.07026,4.62406,4.62406,4.62406h5.3446v-19.4221c0-7.80472,6.32698-14.1317,14.1317-14.1317Z"/>
  <rect class="cls-1" x="269.99538" y="171.45791" width="71.01737" height="44.67871" rx="4.62406" ry="4.62406"/>
  <path class="cls-4" d="M294.09583,182.58279h46.91698v-6.50089c0-2.5538-2.07026-4.62406-4.62406-4.62406h-61.76922c-2.5538,0-4.62406,2.07026-4.62406,4.62406v35.43064c0,2.5538,2.07026,4.62406,4.62406,4.62406h5.3446v-19.4221c0-7.80472,6.32698-14.1317,14.1317-14.1317Z"/>
  <rect class="cls-1" x="170.89518" y="171.45791" width="71.01737" height="44.67871" rx="4.62406" ry="4.62406"/>
  <path class="cls-4" d="M194.99563,182.58279h46.91698v-6.50089c0-2.5538-2.07026-4.62406-4.62406-4.62406h-61.76922c-2.5538,0-4.62406,2.07026-4.62406,4.62406v35.43064c0,2.5538,2.07026,4.62406,4.62406,4.62406h5.3446v-19.4221c0-7.80472,6.32698-14.1317,14.1317-14.1317Z"/>
  <rect class="cls-1" x="369.09559" y="245.52838" width="71.01737" height="44.67871" rx="4.62406" ry="4.62406"/>
  <path class="cls-4" d="M393.19604,256.65325h46.91698v-6.50089c0-2.5538-2.07026-4.62406-4.62406-4.62406h-61.76922c-2.5538,0-4.62406,2.07026-4.62406,4.62406v35.43064c0,2.5538,2.07026,4.62406,4.62406,4.62406h5.3446v-19.4221c0-7.80472,6.32698-14.1317,14.1317-14.1317Z"/>
  <rect class="cls-1" x="269.99538" y="245.52838" width="71.01737" height="44.67871" rx="4.62406" ry="4.62406"/>
  <path class="cls-4" d="M294.09583,256.65325h46.91698v-6.50089c0-2.5538-2.07026-4.62406-4.62406-4.62406h-61.76922c-2.5538,0-4.62406,2.07026-4.62406,4.62406v35.43064c0,2.5538,2.07026,4.62406,4.62406,4.62406h5.3446v-19.4221c0-7.80472,6.32698-14.1317,14.1317-14.1317Z"/>
  <rect class="cls-1" x="170.89518" y="245.52838" width="71.01737" height="44.67871" rx="4.62406" ry="4.62406"/>
  <path class="cls-4" d="M194.99563,256.65325h46.91698v-6.50089c0-2.5538-2.07026-4.62406-4.62406-4.62406h-61.76922c-2.5538,0-4.62406,2.07026-4.62406,4.62406v35.43064c0,2.5538,2.07026,4.62406,4.62406,4.62406h5.3446v-19.4221c0-7.80472,6.32698-14.1317,14.1317-14.1317Z"/>
  <rect class="cls-1" x="369.09559" y="319.59884" width="71.01737" height="44.67871" rx="4.62406" ry="4.62406"/>
  <path class="cls-4" d="M393.19604,330.72371h46.91698v-6.50089c0-2.5538-2.07026-4.62406-4.62406-4.62406h-61.76922c-2.5538,0-4.62406,2.07026-4.62406,4.62406v35.43064c0,2.5538,2.07026,4.62406,4.62406,4.62406h5.3446v-19.4221c0-7.80472,6.32698-14.1317,14.1317-14.1317Z"/>
  <rect class="cls-1" x="269.99538" y="319.59884" width="71.01737" height="44.67871" rx="4.62406" ry="4.62406"/>
  <path class="cls-4" d="M294.09583,330.72371h46.91698v-6.50089c0-2.5538-2.07026-4.62406-4.62406-4.62406h-61.76922c-2.5538,0-4.62406,2.07026-4.62406,4.62406v35.43064c0,2.5538,2.07026,4.62406,4.62406,4.62406h5.3446v-19.4221c0-7.80472,6.32698-14.1317,14.1317-14.1317Z"/>
  <rect class="cls-1" x="170.89518" y="319.59884" width="71.01737" height="44.67871" rx="4.62406" ry="4.62406"/>
  <path class="cls-4" d="M194.99563,330.72371h46.91698v-6.50089c0-2.5538-2.07026-4.62406-4.62406-4.62406h-61.76922c-2.5538,0-4.62406,2.07026-4.62406,4.62406v35.43064c0,2.5538,2.07026,4.62406,4.62406,4.62406h5.3446v-19.4221c0-7.80472,6.32698-14.1317,14.1317-14.1317Z"/>
  <rect class="cls-6" x="233.93403" y="401.8865" width="143.14013" height="21.84865"/>
  <path class="cls-5" d="M484.43986,446.85546H94.74688c-9.57675,0-17.34023-7.76349-17.34023-17.34023V76.70468c0-6.38449,5.17565-11.56014,11.56014-11.56014h.00002c6.38449,0,11.56014,5.17565,11.56014,11.56014V423.73515H484.43986c6.38449,0,11.56014,5.17565,11.56014,11.56014v.00002c0,6.38449-5.17565,11.56014-11.56014,11.56014Z"/>
  <path class="cls-5" d="M16,185.38844v9.46398c0,4.46915,3.62296,8.09211,8.09211,8.09211h21.83079v51.29621H24.09211c-4.46915,0-8.09211,3.62296-8.09211,8.09211v9.46379c0,4.46915,3.62296,8.09211,8.09211,8.09211h53.31454v-102.59243H24.09211c-4.46915,0-8.09211,3.62296-8.09211,8.09211Z"/>
  <path class="cls-6" d="M490.3822,425.39291c.02117,.28505,.04346,.56968,.04346,.85996v.00014c0,6.38447-5.17554,11.56001-11.56016,11.56001H89.17262c-4.29562,0-8.21869-1.57033-11.24766-4.15725,1.85912,7.57351,8.67484,13.19963,16.82192,13.19963H484.43984c6.38447,0,11.56016-5.17554,11.56016-11.56016h0c0-4.20834-2.25629-7.88044-5.6178-9.90233Z"/>
  <path class="cls-6" d="M64.55755,177.29633v65.55748c0,12.79712-10.37411,23.17123-23.17123,23.17123H16.00003v5.77161c0,4.46915,3.62296,8.09211,8.09211,8.09211h53.31452v-102.59243h-12.8491Z"/>
  <path d="M440.35107,406.88672H170.65723c-20.82715,0-37.77148-16.94434-37.77148-37.77148V191.63232c0-2.76123,2.23877-5,5-5s5,2.23877,5,5v177.48291c0,15.31348,12.45801,27.77148,27.77148,27.77148H440.35107c15.31348,0,27.77148-12.45801,27.77148-27.77148V171.45801c0-2.76123,2.23877-5,5-5s5,2.23877,5,5v197.65723c0,20.82715-16.94434,37.77148-37.77148,37.77148Z"/>
  <path d="M479.43994,176.45801H131.56836c-7.85645,0-14.24805-6.3916-14.24805-14.24805v-14.5752c0-7.85645,6.3916-14.24805,14.24805-14.24805H403.0415c2.76123,0,5,2.23877,5,5s-2.23877,5-5,5H131.56836c-2.34229,0-4.24805,1.90576-4.24805,4.24805v14.5752c0,2.34229,1.90576,4.24805,4.24805,4.24805H479.43994c2.34229,0,4.24805-1.90576,4.24805-4.24805v-14.5752c0-2.34229-1.90576-4.24805-4.24805-4.24805h-46.90088c-2.76123,0-5-2.23877-5-5s2.23877-5,5-5h46.90088c7.85645,0,14.24805,6.3916,14.24805,14.24805v14.5752c0,7.85645-6.3916,14.24805-14.24805,14.24805Z"/>
  <path d="M233.93408,428.73535c-2.76123,0-5-2.23828-5-5v-21.84863c0-2.76172,2.23877-5,5-5s5,2.23828,5,5v21.84863c0,2.76172-2.23877,5-5,5Z"/>
  <path d="M377.07422,428.73535c-2.76123,0-5-2.23828-5-5v-21.84863c0-2.76172,2.23877-5,5-5s5,2.23828,5,5v21.84863c0,2.76172-2.23877,5-5,5Z"/>
  <path d="M484.43994,451.85547H94.74707c-12.31836,0-22.34033-10.02148-22.34033-22.33984V76.70459c0-9.13135,7.42871-16.56006,16.56006-16.56006s16.56006,7.42871,16.56006,16.56006V391.10645c0,2.76172-2.23877,5-5,5s-5-2.23828-5-5V76.70459c0-3.61719-2.94287-6.56006-6.56006-6.56006s-6.56006,2.94287-6.56006,6.56006V429.51562c0,6.80371,5.53564,12.33984,12.34033,12.33984H484.43994c3.61719,0,6.56006-2.94336,6.56006-6.56055s-2.94287-6.55957-6.56006-6.55957H100.52686c-2.76123,0-5-2.23828-5-5s2.23877-5,5-5H484.43994c9.13135,0,16.56006,7.42871,16.56006,16.55957,0,9.13184-7.42871,16.56055-16.56006,16.56055Z"/>
  <path d="M52.82227,284.88867H24.09229c-7.21924,0-13.09229-5.87305-13.09229-13.0918v-9.46387c0-7.21924,5.87305-13.09229,13.09229-13.09229h16.83057v-41.29639H24.09229c-7.21924,0-13.09229-5.87305-13.09229-13.0918v-9.46387c0-7.21924,5.87305-13.09229,13.09229-13.09229h53.31445c2.76123,0,5,2.23877,5,5s-2.23877,5-5,5H24.09229c-1.70508,0-3.09229,1.38721-3.09229,3.09229v9.46387c0,1.70508,1.38721,3.0918,3.09229,3.0918h21.83057c2.76123,0,5,2.23877,5,5v51.29639c0,2.76123-2.23877,5.00049-5,5.00049H24.09229c-1.70508,0-3.09229,1.38672-3.09229,3.0918v9.46387c0,1.70508,1.38721,3.0918,3.09229,3.0918h28.72998c2.76123,0,5,2.23828,5,5s-2.23877,5-5,5Z"/>
  <path d="M435.48877,221.13672h-61.76904c-5.30664,0-9.62402-4.31738-9.62402-9.62402v-35.43066c0-5.30664,4.31738-9.62402,9.62402-9.62402h61.76904c5.30664,0,9.62402,4.31738,9.62402,9.62402v35.43066c0,5.30664-4.31738,9.62402-9.62402,9.62402Zm-61.39307-10h61.01709v-34.67871h-61.01709v34.67871Z"/>
  <path d="M336.38867,221.13672h-61.76904c-5.30664,0-9.62402-4.31738-9.62402-9.62402,0-2.76123,2.23877-5,5-5,2.63525,0,4.79395,2.03809,4.98633,4.62402h61.03076v-34.67871h-61.01709v14.91602c0,2.76123-2.23877,5-5,5s-5-2.23877-5-5v-15.29199c0-5.30664,4.31738-9.62402,9.62402-9.62402h61.76904c5.30664,0,9.62402,4.31738,9.62402,9.62402v35.43066c0,5.30664-4.31738,9.62402-9.62402,9.62402Z"/>
  <path d="M237.28857,221.13672h-61.76953c-5.30664,0-9.62402-4.31738-9.62402-9.62402v-35.43066c0-5.30664,4.31738-9.62402,9.62402-9.62402h61.76953c5.30664,0,9.62402,4.31738,9.62402,9.62402v35.43066c0,5.30664-4.31738,9.62402-9.62402,9.62402Zm-61.39355-10h61.01758v-34.67871h-61.01758v34.67871Z"/>
  <path d="M435.48877,295.20703h-61.76904c-5.30664,0-9.62402-4.31738-9.62402-9.62402v-35.43066c0-5.30664,4.31738-9.62402,9.62402-9.62402h61.76904c5.30664,0,9.62402,4.31738,9.62402,9.62402v35.43066c0,5.30664-4.31738,9.62402-9.62402,9.62402Zm-61.39307-10h61.01709v-34.67871h-61.01709v34.67871Z"/>
  <path d="M336.38867,295.20703h-61.76904c-5.30664,0-9.62402-4.31738-9.62402-9.62402v-35.43066c0-5.30664,4.31738-9.62402,9.62402-9.62402h61.76904c5.30664,0,9.62402,4.31738,9.62402,9.62402v35.43066c0,5.30664-4.31738,9.62402-9.62402,9.62402Zm-61.39307-10h61.01709v-34.67871h-61.01709v34.67871Z"/>
  <path d="M237.28857,295.20703h-61.76953c-5.30664,0-9.62402-4.31738-9.62402-9.62402v-35.43066c0-5.30664,4.31738-9.62402,9.62402-9.62402h61.76953c5.30664,0,9.62402,4.31738,9.62402,9.62402v35.43066c0,5.30664-4.31738,9.62402-9.62402,9.62402Zm-61.39355-10h61.01758v-34.67871h-61.01758v34.67871Z"/>
  <path d="M435.48877,369.27734h-61.76904c-5.30664,0-9.62402-4.31738-9.62402-9.62402v-35.43066c0-5.30664,4.31738-9.62402,9.62402-9.62402h61.76904c5.30664,0,9.62402,4.31738,9.62402,9.62402v35.43066c0,5.30664-4.31738,9.62402-9.62402,9.62402Zm-61.39307-10h61.01709v-34.67871h-61.01709v34.67871Z"/>
  <path d="M336.38867,369.27734h-61.76904c-5.30664,0-9.62402-4.31738-9.62402-9.62402v-35.43066c0-5.30664,4.31738-9.62402,9.62402-9.62402h61.76904c5.30664,0,9.62402,4.31738,9.62402,9.62402v10.93066c0,2.76172-2.23877,5-5,5s-5-2.23828-5-5v-10.55469h-61.01709v34.67871h61.03125c.19189-2.58594,2.35107-4.62402,4.98584-4.62402,2.76123,0,5,2.23828,5,5,0,5.30664-4.31738,9.62402-9.62402,9.62402Z"/>
  <path d="M237.28857,369.27734h-61.76953c-5.30664,0-9.62402-4.31738-9.62402-9.62402v-35.43066c0-5.30664,4.31738-9.62402,9.62402-9.62402h61.76953c5.30664,0,9.62402,4.31738,9.62402,9.62402v35.43066c0,5.30664-4.31738,9.62402-9.62402,9.62402Zm-61.39355-10h61.01758v-34.67871h-61.01758v34.67871Z"/>
</svg>