<?xml version="1.0" encoding="UTF-8"?>
<svg id="Layer_1" data-name="Layer 1" xmlns="http://www.w3.org/2000/svg" viewBox="0 0 512 512">
  <defs>
    <style>
      .cls-1 {
        fill: #e7e8f1;
      }

      .cls-2 {
        fill: #ed5920;
      }

      .cls-3 {
        fill: #ff702e;
      }

      .cls-4 {
        fill: #c7c8ce;
      }

      .cls-5 {
        fill: #5f606b;
      }

      .cls-6 {
        fill: #51545a;
      }
    </style>
  </defs>
  <path class="cls-3" d="M29.18911,245.41951H482.81089v153.75685c0,18.97308-15.40373,34.37681-34.37681,34.37681H63.56592c-18.97308,0-34.37681-15.40373-34.37681-34.37681V245.41951h0Z"/>
  <path class="cls-2" d="M71.90157,245.41948v39.81074c0,12.31974,9.98712,22.30686,22.30686,22.30686H378.79269c42.49701,0,76.94764,34.45063,76.94764,76.94764v48.28277c15.47465-3.3506,27.07054-17.11352,27.07054-33.59107V245.41948H71.90157Z"/>
  <rect class="cls-3" x="16" y="119.34176" width="480" height="164.57965" rx="25.62746" ry="25.62746"/>
  <rect class="cls-5" x="135.52294" y="182.3364" width="31.4935" height="251.21678"/>
  <path class="cls-6" d="M135.52305,182.3364v16.02746h7.76484c7.76302,0,14.05619,6.29317,14.05619,14.05619v221.13305h9.67234V182.3364h-31.49338Z"/>
  <path class="cls-1" d="M128.0407,119.34176h46.45798v39.97972c0,2.69474-2.18778,4.88252-4.88252,4.88252h-36.69294c-2.69474,0-4.88252-2.18778-4.88252-4.88252v-39.97972h0Z"/>
  <path class="cls-1" d="M132.31997,164.20399h37.89944v17.33495c0,3.53605-2.87082,6.40686-6.40686,6.40686h-25.08571c-3.53605,0-6.40686-2.87082-6.40686-6.40686v-17.33495h0Z"/>
  <rect class="cls-5" x="344.98357" y="182.3364" width="31.4935" height="251.21678"/>
  <path class="cls-5" d="M83.82772,78.44689h37.80612c3.53605,0,6.40686,2.87082,6.40686,6.40686v34.34286h-50.61985v-34.34286c0-3.53605,2.87082-6.40686,6.40686-6.40686Z"/>
  <path class="cls-5" d="M390.36617,78.44689h37.80612c3.53605,0,6.40686,2.87082,6.40686,6.40686v34.34286h-50.61985v-34.34286c0-3.53605,2.87082-6.40686,6.40686-6.40686Z"/>
  <path class="cls-6" d="M344.98363,182.3364v16.02746h7.76484c7.76302,0,14.05619,6.29317,14.05619,14.05619v221.13305h9.67234V182.3364h-31.49338Z"/>
  <path class="cls-4" d="M166.4143,119.34168v12.43678c0,12.85352-10.41984,23.27336-23.27336,23.27336h-15.10018v4.26968c0,2.6965,2.18595,4.88245,4.88245,4.88245h36.69296c2.6965,0,4.88245-2.18595,4.88245-4.88245v-39.97982h-8.08431Z"/>
  <path class="cls-4" d="M159.99739,164.20395v17.33498c0,3.53843-2.86844,6.40686-6.40686,6.40686h7.01859c3.53843,0,6.40686-2.86844,6.40686-6.40686v-17.33498h-7.01859Z"/>
  <path class="cls-2" d="M470.37254,119.34168h-33.35957c14.15371,0,25.62746,11.47388,25.62746,25.62746v113.32481c0,14.15371-11.47375,25.62746-25.62746,25.62746h33.35957c14.15358,0,25.62746-11.47375,25.62746-25.62746v-113.32481c0-14.15358-11.47388-25.62746-25.62746-25.62746Z"/>
  <path class="cls-6" d="M422.94972,78.44682v7.02811c0,12.84071-10.40946,23.25017-23.25017,23.25017h-15.74031v10.47151h50.61988s0-34.34289,0-34.34289c-.00002-3.53844-2.86847-6.40689-6.40689-6.40689h-5.22252Z"/>
  <path class="cls-6" d="M116.41131,78.44682v7.02811c0,12.84071-10.40946,23.25017-23.25017,23.25017h-15.74031v10.47151h50.61986v-34.34292c0-3.53841-2.86845-6.40686-6.40686-6.40686h-5.22252Z"/>
  <path class="cls-1" d="M337.50132,119.34176h46.45798v39.97972c0,2.69474-2.18778,4.88252-4.88252,4.88252h-36.69294c-2.69474,0-4.88252-2.18778-4.88252-4.88252v-39.97972h0Z"/>
  <path class="cls-1" d="M341.78059,164.20399h37.89944v17.33495c0,3.53605-2.87082,6.40686-6.40686,6.40686h-25.08571c-3.53605,0-6.40686-2.87082-6.40686-6.40686v-17.33495h0Z"/>
  <path class="cls-4" d="M375.87493,119.34168v12.43678c0,12.85352-10.41984,23.27336-23.27336,23.27336h-15.10018v4.26968c0,2.6965,2.18595,4.88245,4.88245,4.88245h36.69296c2.6965,0,4.88245-2.18595,4.88245-4.88245v-39.97982h-8.08431Z"/>
  <path class="cls-4" d="M369.45803,164.20395v17.33498c0,3.53843-2.86844,6.40686-6.40686,6.40686h7.01859c3.53843,0,6.40686-2.86844,6.40686-6.40686v-17.33498h-7.01859Z"/>
  <path d="M448.43359,438.55273H63.56592c-21.7124,0-39.37695-17.66406-39.37695-39.37598v-117.41699c0-2.76172,2.23877-5,5-5s5,2.23828,5,5v117.41699c0,16.19824,13.17822,29.37598,29.37695,29.37598H448.43359c16.19824,0,29.37695-13.17773,29.37695-29.37598v-88.48535c0-2.76172,2.23828-5,5-5s5,2.23828,5,5v88.48535c0,21.71191-17.66406,39.37598-39.37695,39.37598Z"/>
  <path d="M317.92383,288.92188H167.0166c-2.76123,0-5-2.23828-5-5s2.23877-5,5-5h150.90723c2.76172,0,5,2.23828,5,5s-2.23828,5-5,5Z"/>
  <path d="M470.37207,288.92188h-92.34668c-2.76172,0-5-2.23828-5-5s2.23828-5,5-5h92.34668c11.37402,0,20.62793-9.25391,20.62793-20.62793v-113.32471c0-11.37402-9.25391-20.62744-20.62793-20.62744H41.62744c-11.37402,0-20.62744,9.25342-20.62744,20.62744v113.32471c0,11.37402,9.25342,20.62793,20.62744,20.62793H109.38037c2.76123,0,5,2.23828,5,5s-2.23877,5-5,5H41.62744c-16.88818,0-30.62744-13.73926-30.62744-30.62793v-113.32471c0-16.88818,13.73926-30.62744,30.62744-30.62744H470.37207c16.88867,0,30.62793,13.73926,30.62793,30.62744v113.32471c0,16.88867-13.73926,30.62793-30.62793,30.62793Z"/>
  <path d="M167.0166,438.55273h-31.49365c-2.76123,0-5-2.23828-5-5V188.74316c0-2.76123,2.23877-5,5-5s5,2.23877,5,5v239.80957h21.49365V188.74316c0-2.76123,2.23877-5,5-5s5,2.23877,5,5v244.80957c0,2.76172-2.23877,5-5,5Z"/>
  <path d="M169.61621,169.2041h-36.69287c-5.44922,0-9.88281-4.43359-9.88281-9.88281v-17.54834c0-2.76123,2.23877-5,5-5s5,2.23877,5,5v17.43115h36.45801v-39.8623c0-2.76123,2.23877-5,5-5s5,2.23877,5,5v39.97949c0,5.44922-4.43311,9.88281-9.88232,9.88281Z"/>
  <path d="M163.8125,192.9458h-25.08545c-6.29004,0-11.40723-5.11719-11.40723-11.40674v-17.33496c0-2.76123,2.23877-5,5-5h37.89941c2.76123,0,5,2.23877,5,5v17.33496c0,6.28955-5.11719,11.40674-11.40674,11.40674Zm-26.49268-23.7417v12.33496c0,.77588,.63135,1.40674,1.40723,1.40674h25.08545c.77588,0,1.40674-.63086,1.40674-1.40674v-12.33496h-27.89941Z"/>
  <path d="M376.47754,438.55273c-2.76172,0-5-2.23828-5-5V187.9458c0-2.76123,2.23828-5,5-5s5,2.23877,5,5v245.60693c0,2.76172-2.23828,5-5,5Z"/>
  <path d="M344.9834,411.2666c-2.76172,0-5-2.23828-5-5V187.9458c0-2.76123,2.23828-5,5-5s5,2.23877,5,5v218.3208c0,2.76172-2.23828,5-5,5Z"/>
  <path d="M77.4209,124.19678c-2.76123,0-5-2.23877-5-5v-34.34326c0-6.28955,5.11719-11.40674,11.40674-11.40674h37.80615c6.28955,0,11.40674,5.11719,11.40674,11.40674v13.96826c0,2.76123-2.23877,5-5,5s-5-2.23877-5-5v-13.96826c0-.77588-.63086-1.40674-1.40674-1.40674h-37.80615c-.77588,0-1.40674,.63086-1.40674,1.40674v34.34326c0,2.76123-2.23877,5-5,5Z"/>
  <path d="M434.5791,124.19678c-2.76172,0-5-2.23877-5-5v-34.34326c0-.77588-.63086-1.40674-1.40723-1.40674h-37.80566c-.77637,0-1.40723,.63086-1.40723,1.40674v13.96826c0,2.76123-2.23828,5-5,5s-5-2.23877-5-5v-13.96826c0-6.28955,5.11719-11.40674,11.40723-11.40674h37.80566c6.29004,0,11.40723,5.11719,11.40723,11.40674v34.34326c0,2.76123-2.23828,5-5,5Z"/>
  <path d="M379.07715,169.2041h-36.69336c-5.44922,0-9.88281-4.43359-9.88281-9.88281v-39.97949c0-2.76123,2.23828-5,5-5h46.45801c2.76172,0,5,2.23877,5,5v39.97949c0,5.44922-4.43262,9.88281-9.88184,9.88281Zm-36.57617-10h36.45801v-34.8623h-36.45801v34.8623Z"/>
  <path d="M373.27344,192.9458h-25.08594c-6.29004,0-11.40723-5.11719-11.40723-11.40674v-17.33496c0-2.76123,2.23828-5,5-5h37.89941c2.76172,0,5,2.23877,5,5v17.33496c0,6.28955-5.11719,11.40674-11.40625,11.40674Zm-26.49316-23.7417v12.33496c0,.77588,.63086,1.40674,1.40723,1.40674h25.08594c.77539,0,1.40625-.63086,1.40625-1.40674v-12.33496h-27.89941Z"/>
</svg>