<?xml version="1.0" encoding="UTF-8"?>
<svg id="Layer_1" data-name="Layer 1" xmlns="http://www.w3.org/2000/svg" viewBox="0 0 512 512">
  <defs>
    <style>
      .cls-1 {
        fill: #e7e8f1;
      }

      .cls-2 {
        fill: #ed5920;
      }

      .cls-3 {
        fill: #ff702e;
      }

      .cls-4 {
        fill: #c7c8ce;
      }

      .cls-5 {
        fill: #5f606b;
      }

      .cls-6 {
        fill: #51545a;
      }
    </style>
  </defs>
  <circle class="cls-5" cx="144.80305" cy="316.70608" r="90.553"/>
  <rect class="cls-5" x="355.5606" y="196.20759" width="45.33449" height="288.99395" transform="translate(876.13504 446.64954) rotate(150.00001)"/>
  <path class="cls-6" d="M223.22429,361.98258c25.00556-43.31097,10.16604-98.69228-33.14466-123.69757-9.90337-5.71787-20.43921-9.32852-31.09745-11.01567,.9507,.49956,1.90034,1.00281,2.83867,1.54449,38.24242,22.07925,51.34531,70.97991,29.26607,109.22233-22.07938,38.24269-70.97991,51.34558-109.22246,29.26607-8.48929-4.90115-15.73244-11.12938-21.6343-18.26408,7.15761,18.75654,20.55529,35.26899,39.29643,46.0891,43.31084,25.00556,98.69214,10.16631,123.69771-33.14466Z"/>
  <rect class="cls-5" x="77.82102" y="289.77888" width="57.65267" height="186.02977" transform="translate(7.60987 767.6266) rotate(-150.00001)"/>
  <path class="cls-6" d="M128.1905,287.82723l-25.66884,44.45986,6.73377,11.76135c11.35131,19.82644,11.30719,44.19248-.11583,63.97769l-36.20459,62.70804,12.1693,7.026,93.01467-161.10643-49.92848-28.82652Z"/>
  <path class="cls-6" d="M345.21909,238.40732l.07975-.07221-19.68906-34.10217-39.26077,22.66725,144.49685,250.27606,13.78459-7.95867-106.64673-184.71787c-8.74699-15.15026-5.73298-34.35089,7.23535-46.09239Z"/>
  <path class="cls-3" d="M140.5321,345.90897l162.87114-94.03374c80.77988-46.63831,80.77986-163.23404-.00004-209.87232l-.00036-.00021C222.62294-4.63557,121.64809,53.66231,121.64811,146.9389l.00003,188.06742c0,9.69125,10.49109,15.74828,18.88396,10.90266Z"/>
  <path class="cls-4" d="M186.79435,114.80263l.05072,.01373c14.34903,3.8855,27.49984-9.26795,23.61146-23.6162l-.01402-.05173,.00004,.00004c10.48399,10.55866,28.4717,5.73897,32.27192-8.64705v-.00004s.01347,.05081,.01347,.05081c3.80646,14.3704,21.77237,19.18645,32.25636,8.64683l.03641-.0366-.01373,.05072c-3.8855,14.34903,9.26795,27.49983,23.6162,23.61146l.05174-.01402-.00004,.00004c-10.55866,10.48399-5.73897,28.4717,8.64705,32.27192h.00004s-.05081,.01347-.05081,.01347c-14.3704,3.80646-19.18645,21.77237-8.64683,32.25636l.0366,.03641-.05072-.01374c-14.34903-3.8855-27.49983,9.26795-23.61146,23.6162l.01402,.05174-.00004-.00004c-10.48399-10.55867-28.4717-5.73897-32.27193,8.64705v.00003s-.01347-.05081-.01347-.05081c-3.80646-14.3704-21.77237-19.18645-32.25636-8.64683l-.03641,.0366,.01373-.05072c3.8855-14.34903-9.26795-27.49984-23.6162-23.61146l-.05174,.01402,.00004-.00004c10.55867-10.48399,5.73897-28.4717-8.64705-32.27192h-.00003s.05082-.01347,.05082-.01347c14.3704-3.80646,19.18645-21.77237,8.64683-32.25636l-.03661-.03641Z"/>
  <rect class="cls-5" x="377.50514" y="436.51923" width="118.49471" height="49.89251" rx="10.78089" ry="10.78089"/>
  <circle class="cls-1" cx="242.72764" cy="147.09572" r="39.24332"/>
  <rect class="cls-5" x="16.00001" y="436.51923" width="118.49471" height="49.89251" rx="10.78089" ry="10.78089"/>
  <path class="cls-2" d="M148.79527,173.00784c0-93.27656,100.97479-151.57445,181.75463-104.93616l.00026,.00013c3.19452,1.84428,6.24797,3.80963,9.18955,5.86422-9.38827-12.42579-21.49335-23.36342-36.33655-31.93313l-.00026-.00026C222.6228-4.63552,121.648,53.66236,121.64827,146.93892v188.06734c0,9.69122,10.49084,15.74837,18.88393,10.90276l8.26307-4.77073V173.00784Z"/>
  <path class="cls-6" d="M485.21911,436.51931h-2.68838v.00003c0,18.92525-15.34195,34.2672-34.2672,34.2672h-70.75832v4.84429c0,5.95412,4.82677,10.78089,10.78089,10.78089h96.93301c5.95412,0,10.78089-4.82677,10.78089-10.78089v-28.33064c0-5.95412-4.82677-10.78089-10.78089-10.78089Z"/>
  <path class="cls-6" d="M123.7139,436.51931h-2.68812v.00003c0,18.92525-15.34195,34.2672-34.2672,34.2672H16v4.84429c0,5.95412,4.82677,10.78089,10.78089,10.78089H123.7139c5.95412,0,10.78089-4.82677,10.78089-10.78089v-28.33064c0-5.95412-4.82677-10.78089-10.78089-10.78089Z"/>
  <path d="M76.90625,381.65625c-1.38379,0-2.76172-.57129-3.75-1.69043-27.20312-30.80176-31.66602-75.42383-11.10449-111.03613,12.72949-22.04785,33.27637-37.84326,57.85547-44.47607,2.67188-.71973,5.41113,.8584,6.12988,3.52441,.71973,2.66602-.8584,5.41064-3.52441,6.12988-22.00684,5.93896-40.40332,20.08105-51.80078,39.82178-18.41016,31.88672-14.41602,71.83984,9.94043,99.41699,1.82715,2.06934,1.63184,5.22949-.43848,7.05762-.9502,.83984-2.13184,1.25195-3.30762,1.25195Z"/>
  <path d="M144.8623,412.2959c-6.30176,0-12.66602-.625-19.02051-1.91211-2.70703-.54785-4.45605-3.18652-3.9082-5.89258,.54883-2.70703,3.18652-4.45801,5.89258-3.9082,36.06055,7.2998,72.65723-9.21289,91.06836-41.10059,11.47754-19.88086,14.4873-43.03027,8.47461-65.18457-.72363-2.66504,.85059-5.41211,3.51562-6.13477,2.66602-.72363,5.41113,.85059,6.13477,3.51562,6.71582,24.74316,3.35449,50.59863-9.46484,72.80371-17.31738,29.99414-49.0498,47.81152-82.69238,47.81348Z"/>
  <path d="M459.72559,441.52051c-1.72852,0-3.40918-.89648-4.33496-2.50098l-122.89453-212.85938c-1.38086-2.3916-.56152-5.44922,1.83008-6.83008,2.3916-1.38281,5.4502-.56055,6.83008,1.83008l122.89453,212.85938c1.38086,2.3916,.56152,5.44922-1.83008,6.83008-.78711,.45508-1.64746,.6709-2.49512,.6709Z"/>
  <path d="M407.37793,441.52051c-1.72852,0-3.40918-.89648-4.33496-2.50098l-94.42871-163.55371c-1.38086-2.3916-.56152-5.44922,1.83008-6.83008,2.3916-1.38379,5.4502-.56152,6.83008,1.83008l94.42871,163.55371c1.38086,2.3916,.56152,5.44922-1.83008,6.83008-.78711,.45508-1.64746,.6709-2.49512,.6709Z"/>
  <path d="M109.24512,440.94043c-.84766,0-1.70801-.21582-2.49512-.6709-2.3916-1.38086-3.21094-4.43848-1.83008-6.83008l62.32715-107.9541c1.37891-2.39062,4.43652-3.21387,6.83008-1.83008,2.3916,1.38086,3.21094,4.43848,1.83008,6.83008l-62.32715,107.9541c-.92578,1.60352-2.60645,2.50098-4.33496,2.50098Z"/>
  <path d="M55.98047,417.89062c-.84766,0-1.70801-.21582-2.49512-.6709-2.3916-1.38086-3.21094-4.43848-1.83008-6.83008l65.22461-112.97168c1.37988-2.39062,4.4375-3.21387,6.83008-1.83008,2.3916,1.38086,3.21094,4.43848,1.83008,6.83008l-65.22461,112.97168c-.92578,1.60352-2.60645,2.50098-4.33496,2.50098Z"/>
  <path d="M134.23828,352.62402c-3.02051,0-6.04102-.79492-8.79492-2.38477-5.50684-3.17969-8.79492-8.87402-8.79492-15.2334V146.93896c0-17.96191,3.57812-35.17285,10.63379-51.15479,1.11523-2.52588,4.06641-3.66748,6.59375-2.55469,2.52637,1.11572,3.66992,4.06738,2.55469,6.59375-6.49121,14.70117-9.78223,30.55322-9.78223,47.11572v188.06689c0,2.74414,1.41895,5.20117,3.79492,6.57324,2.37598,1.37012,5.21289,1.37207,7.58887,0l162.87109-94.03418c36.37109-20.99854,58.08496-58.6084,58.08496-100.60596s-21.71387-79.60693-58.08496-100.60596c-36.82031-21.2583-80.65625-21.01904-117.26172,.6377-2.37793,1.40674-5.44336,.61865-6.84961-1.75732-1.40527-2.37646-.61914-5.44287,1.75781-6.84912,39.75586-23.521,87.36523-23.7793,127.35352-.69141,39.50195,22.80615,63.08496,63.65332,63.08496,109.26611s-23.58301,86.45996-63.08496,109.26611l-162.87109,94.03418c-2.75293,1.58984-5.77344,2.38477-8.79395,2.38477Z"/>
  <path d="M144.7959,80.45264c-1.02734,0-2.06445-.31592-2.95605-.9707-2.22559-1.63525-2.7041-4.76465-1.06934-6.98975,4.94629-6.73438,10.6123-13.01758,16.83887-18.67529,2.04492-1.8584,5.20605-1.70459,7.0625,.33838,1.85742,2.04346,1.70605,5.20605-.33789,7.06299-5.73438,5.21045-10.95117,10.99561-15.50488,17.19385-.97949,1.33398-2.49609,2.04053-4.0332,2.04053Z"/>
  <path d="M485.21875,491.41211h-96.93262c-8.70215,0-15.78125-7.0791-15.78125-15.78125v-28.33105c0-8.70117,7.0791-15.78027,15.78125-15.78027h96.93262c8.70215,0,15.78125,7.0791,15.78125,15.78027v28.33105c0,8.70215-7.0791,15.78125-15.78125,15.78125Zm-96.93262-49.89258c-3.1875,0-5.78125,2.59277-5.78125,5.78027v28.33105c0,3.1875,2.59375,5.78125,5.78125,5.78125h96.93262c3.1875,0,5.78125-2.59375,5.78125-5.78125v-28.33105c0-3.1875-2.59375-5.78027-5.78125-5.78027h-96.93262Z"/>
  <path d="M123.71387,491.41211H26.78125c-8.70215,0-15.78125-7.0791-15.78125-15.78125v-28.33105c0-8.70117,7.0791-15.78027,15.78125-15.78027H123.71387c8.70215,0,15.78125,7.0791,15.78125,15.78027v28.33105c0,8.70215-7.0791,15.78125-15.78125,15.78125Zm-96.93262-49.89258c-3.1875,0-5.78125,2.59277-5.78125,5.78027v28.33105c0,3.1875,2.59375,5.78125,5.78125,5.78125H123.71387c3.1875,0,5.78125-2.59375,5.78125-5.78125v-28.33105c0-3.1875-2.59375-5.78027-5.78125-5.78027H26.78125Z"/>
  <path d="M242.74121,216.68994c-2.26074,0-4.24023-1.5166-4.82812-3.7002-1.3418-5.06592-5.1123-8.84766-10.10449-10.18555-4.99316-1.33838-10.14844,.0498-13.79297,3.71436-1.59961,1.60791-4.10059,1.95508-6.06543,.8208-1.96387-1.13525-2.93555-3.43262-2.34082-5.62207,1.36328-5.03418-.01172-10.19385-3.66602-13.84766-3.65527-3.6543-8.81836-5.03027-13.80371-3.67676-2.18457,.5957-4.53125-.35449-5.66406-2.3208-1.13379-1.96533-.82812-4.44043,.78125-6.03906,3.6709-3.64502,5.06348-8.8042,3.72461-13.80078s-5.12402-8.76807-10.125-10.08936c-2.18945-.57812-3.71777-2.55713-3.72266-4.82227s1.5127-4.25098,3.7002-4.83984c5.06543-1.3418,8.84668-5.11182,10.18555-10.10303,1.33789-4.99219-.05078-10.14893-3.71484-13.79395-1.60645-1.59863-1.95605-4.09619-.82422-6.06006,1.13184-1.96289,3.42188-2.93945,5.61328-2.34912,5.04688,1.36572,10.20605-.00879,13.86035-3.66406,3.65332-3.65479,5.02832-8.81445,3.67578-13.80225-.59277-2.18994,.35547-4.53125,2.32031-5.66504,1.96582-1.13428,4.44141-.82812,6.04004,.78223,3.64453,3.67041,8.80176,5.06201,13.80078,3.72412,4.99609-1.33887,8.76855-5.12402,10.08984-10.12549,.58008-2.19531,2.56543-3.72266,4.83398-3.72266h.0332c2.28223,.01514,4.26367,1.57373,4.81738,3.78711,1.31836,4.979,5.08887,8.76074,10.08105,10.09863,4.99609,1.33984,10.14941-.05078,13.79297-3.71436,1.59766-1.60742,4.09473-1.95605,6.05957-.82373,1.96387,1.13184,2.93848,3.4248,2.34961,5.61328-1.36621,5.0459,.00879,10.20508,3.66406,13.85938s8.81348,5.02686,13.80273,3.67725c2.18652-.59521,4.53125,.35449,5.66406,2.32031,1.13379,1.96533,.82812,4.44043-.78125,6.03906-3.6709,3.64502-5.06348,8.80371-3.72461,13.80029s5.12402,8.76855,10.12598,10.08984c2.18945,.57812,3.7168,2.55713,3.72266,4.82227,.00488,2.26514-1.5127,4.25098-3.7002,4.83984-.95801,.2583-1.92969,.22021-2.8125-.05762-8.39453-2.30371-14.73828-8.68213-16.99512-17.10596-1.32715-4.95459-1.07715-10.00342,.59863-14.58105-4.82715-.8291-9.33691-3.13867-12.97168-6.77246-3.63477-3.63477-5.94531-8.14502-6.77832-12.96045-4.59277,1.69043-9.64844,1.94238-14.60547,.61328-4.96777-1.33154-9.22461-4.08545-12.35352-7.84229-3.12695,3.73828-7.37207,6.47754-12.3252,7.80469-4.95508,1.32861-10,1.07666-14.57812-.59766-.83008,4.8208-3.13965,9.3335-6.77441,12.96973-3.63379,3.63379-8.1416,5.94385-12.95605,6.77783,1.68457,4.58594,1.93848,9.64453,.60742,14.6084-1.33105,4.96729-4.08496,9.22363-7.8418,12.35254,3.73828,3.12598,6.47754,7.37158,7.80469,12.32471,1.32812,4.95459,1.07715,10.00342-.59863,14.58105,4.82715,.8291,9.33691,3.13867,12.97168,6.77246,3.63477,3.63477,5.94531,8.14502,6.77832,12.96045,4.59277-1.68994,9.64746-1.94287,14.60547-.61328,4.96777,1.33154,9.22559,4.08594,12.35449,7.84277,3.12598-3.73828,7.37109-6.47754,12.32422-7.80518,4.95215-1.32568,9.99902-1.07666,14.57812,.59766,.83008-4.8208,3.13965-9.3335,6.77441-12.96973,3.63281-3.6333,8.1416-5.94336,12.95508-6.77783-1.4043-3.8291-1.8125-8.00146-1.12402-12.20898,.44629-2.72559,3.01855-4.57568,5.74219-4.12646,2.72559,.4458,4.57324,3.0166,4.12695,5.7417-.74902,4.57324,.7168,9.08154,4.02148,12.36865,1.60645,1.59863,1.95605,4.09619,.82422,6.06006-1.13281,1.96289-3.42285,2.93994-5.61328,2.34912-5.04492-1.36572-10.20605,.00879-13.86035,3.66406-3.65332,3.65479-5.02832,8.81445-3.67578,13.80225,.59375,2.18994-.35547,4.53125-2.32031,5.66504-1.9668,1.1333-4.44238,.82764-6.04004-.78223-3.64453-3.67041-8.80273-5.06152-13.80078-3.72412-4.99609,1.33887-8.76758,5.12402-10.08887,10.125-.57812,2.18994-2.55664,3.71777-4.82227,3.72314h-.01172Z"/>
  <circle class="cls-6" cx="242.72764" cy="147.09572" r="12.01631"/>
  <path d="M242.7002,164.11914c-2.94922,0-5.8584-.77344-8.48047-2.28711-3.93652-2.27246-6.75195-5.94189-7.92871-10.33203-1.17578-4.39062-.57227-8.97607,1.7002-12.9126h0c2.27246-3.93604,5.94238-6.75195,10.33203-7.92822,4.39258-1.17578,8.97656-.57178,12.91211,1.7002,3.93652,2.27197,6.75195,5.94141,7.92871,10.33203s.57227,8.97607-1.7002,12.9126c-2.27246,3.93604-5.94238,6.75195-10.33203,7.92822-1.46582,.39258-2.9541,.58691-4.43164,.58691Zm-6.04883-20.53174h0c-.9375,1.62305-1.18555,3.51367-.70117,5.32422,.48535,1.81006,1.64648,3.32324,3.26953,4.26025,3.34961,1.93506,7.65137,.78271,9.58398-2.56787,.9375-1.62305,1.18652-3.51416,.70117-5.32422s-1.64648-3.32324-3.26953-4.25977c-3.34863-1.93506-7.64941-.78223-9.58398,2.56738Z"/>
</svg>