<?xml version="1.0" encoding="UTF-8"?>
<svg id="Layer_1" data-name="Layer 1" xmlns="http://www.w3.org/2000/svg" viewBox="0 0 512 512">
  <defs>
    <style>
      .cls-1 {
        fill: #e7e8f1;
      }

      .cls-2 {
        fill: #ed5920;
      }

      .cls-3 {
        fill: #ff702e;
      }

      .cls-4 {
        fill: #c7c8ce;
      }

      .cls-5 {
        fill: #5f606b;
      }

      .cls-6 {
        fill: #51545a;
      }
    </style>
  </defs>
  <path class="cls-1" d="M202.82546,132.87936l-32.36923,42.77348c-6.20023,8.19313-9.55542,18.18683-9.55542,28.46157V467.6707c0,10.41945,8.44664,18.86609,18.86609,18.86609h104.40657c10.41945,0,18.86609-8.44664,18.86609-18.86609V204.11441c0-10.27473-3.35519-20.26843-9.55541-28.46156l-32.36923-42.77351"/>
  <path class="cls-4" d="M293.48412,175.65284l-32.36929-42.77343h-28.05451l32.36929,42.77343c6.20016,8.19314,9.55536,18.18684,9.55536,28.46163V467.67065c0,10.41949-8.4466,18.86609-18.86609,18.86609h28.05451c10.41949,0,18.86609-8.4466,18.86609-18.86609V204.11446c0-10.27479-3.35494-20.26848-9.55536-28.46163Z"/>
  <g>
    <path class="cls-3" d="M382.48408,484.66141l-.55993,.18061c-46.2932,14.93251-96.11803,14.87576-142.37708-.16219l-.00008-.00003c-7.00287-2.2765-11.42943-9.17485-10.58098-16.48941l.00341-.02937c8.0142-69.09118,8.0142-138.87724,0-207.96842l-.00341-.02937c-.84845-7.31456,3.57811-14.21291,10.58098-16.48941l.00008-.00003c46.25906-15.03794,96.08389-15.0947,142.37708-.16219l.55993,.18061c7.02064,2.26461,11.46447,9.17255,10.6145,16.50027v.00012c-8.01421,69.09118-8.01421,138.87724-.00001,207.96842v.00012c.84999,7.32772-3.59384,14.23566-10.61448,16.50027Z"/>
    <path class="cls-2" d="M393.09853,468.161c-8.01418-69.09115-8.01418-138.87722,0-207.96845v-1.33575c0-6.99804-4.51417-13.19712-11.17438-15.34519h-.00001c-3.02533-.9759-6.06668-1.88411-9.12025-2.73198-.01651,.35576-.03516,.71184-.0766,1.07008l-.00017,.00008c-6.86005,59.14128-7.84797,118.79174-2.96376,178.07973,.10864,1.31875,.27897,3.09172,.49279,5.17576,2.36363,23.0382-13.28529,44.065-36.03512,48.39979-.09748,.01857-.19278,.03675-.28585,.0545-34.79871,6.63964-70.74904,5.20037-105.04531-4.30695-.32538,6.91109,3.99471,13.26138,10.65701,15.42712l.00017,.00008c46.25909,15.03794,96.08383,15.09473,142.37709,.1622h.00001c6.66021-2.14808,11.17438-8.34715,11.17438-15.34519v-1.33583Z"/>
    <circle class="cls-2" cx="345.66816" cy="346.3785" r="7.09254"/>
    <circle class="cls-2" cx="268.42261" cy="397.18365" r="7.09254"/>
    <circle class="cls-2" cx="336.14375" cy="268.69988" r="7.09254"/>
    <circle class="cls-2" cx="356.27774" cy="309.54437" r="13.04145"/>
    <circle class="cls-2" cx="314.37765" cy="377.21827" r="13.04145"/>
    <circle class="cls-2" cx="270.89399" cy="272.3258" r="13.04145"/>
    <circle class="cls-2" cx="351.61703" cy="455.76987" r="13.04145"/>
    <circle class="cls-2" cx="268.42261" cy="442.72841" r="13.04145"/>
    <circle class="cls-2" cx="281.06353" cy="322.58582" r="7.09254"/>
    <circle class="cls-2" cx="314.37765" cy="433.02539" r="7.09254"/>
    <circle class="cls-2" cx="364.65848" cy="404.27619" r="7.09254"/>
    <path d="M310.98242,501.07324c-24.55859,0-49.11328-3.87891-72.98145-11.63867-9.23145-3.00098-15.12012-12.17773-14.00195-21.82031,.00293-.02832,.01074-.08594,.01465-.11426,6.54492-56.43066,7.70605-113.84863,3.44238-170.5752-.20703-2.75391,1.8584-5.1543,4.61133-5.36133,2.78223-.1875,5.15332,1.85938,5.36133,4.61133,4.31055,57.35938,3.13574,115.41797-3.49219,172.5625-.00293,.02832-.01074,.08594-.01465,.11426-.56152,4.8457,2.4502,9.53809,7.1709,11.07324,45.54785,14.80762,93.71387,14.86328,139.2959,.1582l.56152-.18066c4.73438-1.52734,7.75488-6.22266,7.18164-11.16504-8.04785-69.38086-8.04785-139.73926,0-209.12109,.57324-4.94189-2.44727-9.6377-7.18262-11.16504l-.55957-.18066c-45.58203-14.70361-93.75195-14.64795-139.29688,.1582-4.7207,1.53467-7.73242,6.22754-7.16016,11.1582,.31641,2.72656-1.62305,5.21289-4.34668,5.55273-2.72461,.34082-5.20898-1.56641-5.57227-4.28613l-.00391-.0293c-1.12891-9.72754,4.75977-18.9043,13.99121-21.90527,47.56055-15.4624,97.8584-15.52002,145.45801-.16602l.55957,.18066c9.25977,2.9873,15.16699,12.16992,14.04688,21.83496-7.95996,68.61719-7.95996,138.2002,0,206.81641,1.12012,9.66504-4.78711,18.84766-14.0459,21.83496l-.56152,.18066c-23.71094,7.64844-48.0957,11.47266-72.47559,11.47266Z"/>
  </g>
  <path class="cls-6" d="M127.18255,16.00003h25.79584V50.1808h-25.79584c-4.62777,0-8.38493-3.75716-8.38493-8.38493V24.38496c0-4.62777,3.75716-8.38493,8.38493-8.38493Z"/>
  <path class="cls-5" d="M152.97839,50.1808l27.82474,17.39373c6.08857,3.80607,13.12431,5.82421,20.30462,5.82421h96.30309c2.91304,0,4.93821-2.8976,3.93713-5.63322l-4.40878-12.04777c-8.72922-23.85415-31.42676-39.71773-56.82794-39.71773h-87.13287V50.1808Z"/>
  <rect class="cls-3" x="194.43058" y="92.87267" width="75.07923" height="41.46715"/>
  <rect class="cls-6" x="207.35987" y="73.39874" width="49.22065" height="19.47392"/>
  <path class="cls-5" d="M152.97839,50.1808v10.00192c0,19.89356-4.79099,39.49453-13.96774,57.14505l-7.50654,14.43805c-.79666,1.5323-.50806,3.40421,.71313,4.6254h0c1.59199,1.59199,4.18938,1.53758,5.7133-.11969l16.69237-18.153c11.65189-12.67147,20.18242-27.88978,24.91156-44.44175l1.68745-5.90608-28.24354-17.58989Z"/>
  <rect class="cls-5" x="196.18628" y="92.16434" width="71.56783" height="40.71503" rx="6.2887" ry="6.2887"/>
  <rect class="cls-6" x="208.97542" y="107.38153" width="45.98955" height="11.40038" rx="3.43568" ry="3.43568"/>
  <g>
    <path d="M221.0459,121.87354c-2.76172,0-5-2.23877-5-5v-7.5835c0-2.76123,2.23828-5,5-5s5,2.23877,5,5v7.5835c0,2.76123-2.23828,5-5,5Z"/>
    <path d="M242.89453,121.87354c-2.76172,0-5-2.23877-5-5v-7.5835c0-2.76123,2.23828-5,5-5s5,2.23877,5,5v7.5835c0,2.76123-2.23828,5-5,5Z"/>
  </g>
  <path d="M261.46582,137.87939h-58.99121c-6.22461,0-11.28809-5.06396-11.28809-11.28857v-28.1377c0-6.22461,5.06348-11.28857,11.28809-11.28857h27.54199c2.76172,0,5,2.23877,5,5s-2.23828,5-5,5h-27.54199c-.70996,0-1.28809,.57812-1.28809,1.28857v28.1377c0,.71045,.57812,1.28857,1.28809,1.28857h58.99121c.70996,0,1.28809-.57812,1.28809-1.28857v-28.1377c0-.71045-.57812-1.28857-1.28809-1.28857h-4.88574c-2.76172,0-5-2.23877-5-5s2.23828-5,5-5h4.88574c6.22461,0,11.28809,5.06396,11.28809,11.28857v28.1377c0,6.22461-5.06348,11.28857-11.28809,11.28857Z"/>
  <path class="cls-6" d="M152.97846,50.18084v10.00188c0,1.29582-.02252,2.5901-.0632,3.88284l10.83285,6.74665c3.08641,1.9222,4.52527,5.65705,3.5263,9.15316v.00003c-4.72988,16.55313-13.26129,31.77244-24.91417,44.44478l-10.56211,11.48614c.34998,.48767,.81251,.91103,1.4214,1.21373,1.63953,.81507,3.63787,.32838,4.8772-1.01939l16.52757-17.97376c11.65145-12.67097,20.18153-27.88877,24.9102-44.44019l1.68732-5.90602-28.24335-17.58985Z"/>
  <path class="cls-6" d="M301.34806,67.76545l-4.40895-12.04771c-8.7291-23.85411-31.4266-39.71774-56.8278-39.71774h-87.13285v13.7358h75.49328c25.40121,0,48.09871,15.86363,56.8278,39.71774l1.44372,3.94528h10.66745c2.91303,0,4.93838-2.89767,3.93734-5.63337Z"/>
  <path d="M152.97852,55.18066h-25.7959c-7.38086,0-13.38477-6.00439-13.38477-13.38477V24.38477c0-7.38037,6.00391-13.38477,13.38477-13.38477h25.7959c2.76172,0,5,2.23877,5,5v13.73584c0,2.76123-2.23828,5-5,5s-5-2.23877-5-5v-8.73584h-20.7959c-1.86621,0-3.38477,1.51855-3.38477,3.38477v17.41113c0,1.86621,1.51855,3.38477,3.38477,3.38477h25.7959c2.76172,0,5,2.23877,5,5s-2.23828,5-5,5Z"/>
  <path d="M297.41113,78.39893h-96.30371c-8.125,0-16.06348-2.27686-22.95508-6.58447l-27.82422-17.39404c-2.3418-1.46387-3.05273-4.54883-1.58887-6.89014,1.46289-2.34229,4.54785-3.05273,6.88965-1.58936l27.82422,17.39404c5.30078,3.31299,11.40527,5.06396,17.6543,5.06396h95.14746l-4.01074-10.96289c-7.97559-21.79346-28.92578-36.43604-52.13281-36.43604h-87.13281c-2.76172,0-5-2.23877-5-5s2.23828-5,5-5h87.13281c27.38672,0,52.11133,17.28027,61.52344,42.99951l4.4082,12.04785c1.03125,2.81689,.62012,5.9668-1.09766,8.42529-1.71875,2.4585-4.53516,3.92627-7.53418,3.92627Z"/>
  <path d="M135.01953,142.55078c-2.36328,0-4.66406-.9502-6.33789-2.62354-2.77734-2.77832-3.4248-6.98438-1.61426-10.46826l7.50684-14.43799c8.76953-16.86572,13.4043-35.82861,13.4043-54.83838v-10.00195c0-2.76123,2.23828-5,5-5s5,2.23877,5,5v10.00195c0,20.60889-5.02539,41.1665-14.53125,59.45166l-3.89062,7.48193,11.38574-12.38184c8.10645-8.81641,14.60645-18.86719,19.32129-29.87354,1.08594-2.53906,4.02344-3.71436,6.56445-2.62744,2.53809,1.0874,3.71484,4.02637,2.62695,6.56494-5.16016,12.04932-12.27637,23.05273-21.15137,32.70459l-16.69238,18.15283c-1.64453,1.78809-3.97949,2.84229-6.40723,2.89307-.06152,.00146-.12305,.00195-.18457,.00195Z"/>
  <path d="M256.58008,97.16455c-2.76172,0-5-2.23877-5-5v-18.76562c0-2.76123,2.23828-5,5-5s5,2.23877,5,5v18.76562c0,2.76123-2.23828,5-5,5Z"/>
  <path d="M207.36035,97.16455c-2.76172,0-5-2.23877-5-5v-18.76562c0-2.76123,2.23828-5,5-5s5,2.23877,5,5v18.76562c0,2.76123-2.23828,5-5,5Z"/>
  <path d="M303.04004,209.11426c-2.76172,0-5-2.23877-5-5,0-9.12842-3.03418-18.16455-8.54297-25.44434l-32.36914-42.77344c-1.66602-2.20166-1.23145-5.33789,.96973-7.00391,2.2041-1.66602,5.33887-1.23242,7.00488,.96973l32.36914,42.77344c6.81543,9.00586,10.56836,20.18555,10.56836,31.47852,0,2.76123-2.23828,5-5,5Z"/>
  <path d="M243.36816,491.53711h-63.60156c-13.16016,0-23.86621-10.70605-23.86621-23.86621V204.11426c0-11.29297,3.75293-22.47266,10.56836-31.47852l32.36914-42.77344c1.66602-2.20215,4.80176-2.63672,7.00488-.96973,2.20117,1.66602,2.63574,4.80225,.96973,7.00391l-32.36914,42.77344c-5.50879,7.27979-8.54297,16.31592-8.54297,25.44434V467.6709c0,7.64551,6.2207,13.86621,13.86621,13.86621h63.60156c2.76172,0,5,2.23828,5,5s-2.23828,5-5,5Z"/>
</svg>