<?xml version="1.0" encoding="UTF-8"?>
<svg id="Layer_1" data-name="Layer 1" xmlns="http://www.w3.org/2000/svg" viewBox="0 0 512 512">
  <defs>
    <style>
      .cls-1 {
        fill: #e7e8f1;
      }

      .cls-2 {
        fill: #ed5920;
      }

      .cls-3 {
        fill: #ff702e;
      }

      .cls-4 {
        fill: #c7c8ce;
      }

      .cls-5 {
        fill: #5f606b;
      }

      .cls-6 {
        fill: #51545a;
      }
    </style>
  </defs>
  <path class="cls-3" d="M277.02371,191.35657h-69.17897c-31.45215,0-56.94915,25.497-56.94915,56.94915v226.33835c0,11.79456,9.56138,21.35593,21.35593,21.35593h167.49696c11.79456,0,21.35593-9.56138,21.35593-21.35593V248.30572c0-31.45215-25.497-56.94915-56.94915-56.94915h-9.57697"/>
  <path class="cls-2" d="M328.04236,196.60938c3.19464,7.11377,4.98645,14.99414,4.98645,23.29785v165.22619c0,45.5459-36.92225,82.46814-82.46814,82.46814h-99.6651v7.04248c0,11.79457,9.56139,21.35596,21.35596,21.35596h167.49695c11.79457,0,21.35596-9.56139,21.35596-21.35596V248.30566c0-22.91895-13.54596-42.66309-33.06207-51.69629Z"/>
  <path class="cls-5" d="M264.34555,16h-16.69109c-4.8372,0-9.00499,3.40729-9.96654,8.14796l-24.05455,118.59379h84.73329l-24.05455-118.59379c-.96156-4.74067-5.12934-8.14796-9.96654-8.14796Z"/>
  <path class="cls-6" d="M274.3121,24.14801c-.96158-4.74063-5.12937-8.14801-9.96652-8.14801h-16.69115c-.10304,0-.20384,.01043-.30625,.01341,4.70513,.14102,8.71923,3.49477,9.66027,8.1346l24.0546,118.59375h17.30359l-24.05453-118.59375Z"/>
  <rect class="cls-5" x="150.89559" y="310.86478" width="210.20883" height="65.62702"/>
  <rect class="cls-6" x="333.30789" y="310.86478" width="27.79653" height="65.62702"/>
  <rect class="cls-2" x="213.63336" y="166.95803" width="84.73329" height="24.39854"/>
  <path class="cls-1" d="M250.73465,259.66456l-35.33861,73.086c-9.26005,19.1513-3.87933,42.1692,12.91091,55.23092l.00006,.00004c16.2879,12.67093,39.09809,12.67093,55.38599,0l.00006-.00004c16.79024-13.06172,22.17096-36.07962,12.91091-55.23092l-35.33861-73.086c-2.1292-4.40353-8.40151-4.40353-10.53071,0Z"/>
  <path d="M298.3667,196.35645c-2.76123,0-5-2.23828-5-5v-24.39844c0-2.76172,2.23877-5,5-5s5,2.23828,5,5v24.39844c0,2.76172-2.23877,5-5,5Z"/>
  <path d="M213.6333,196.35645c-2.76123,0-5-2.23828-5-5v-21.47168c0-2.76172,2.23877-5,5-5s5,2.23828,5,5v21.47168c0,2.76172-2.23877,5-5,5Z"/>
  <path d="M339.74854,501H172.25146c-14.53271,0-26.35596-11.82324-26.35596-26.35547V248.30566c0-34.15918,27.79053-61.94922,61.94922-61.94922h33.76758c2.76123,0,5,2.23828,5,5s-2.23877,5-5,5h-33.76758c-28.64502,0-51.94922,23.30469-51.94922,51.94922v226.33887c0,9.01855,7.3374,16.35547,16.35596,16.35547h167.49707c9.01855,0,16.35596-7.33691,16.35596-16.35547V248.30566c0-28.64453-23.3042-51.94922-51.94922-51.94922h-5.78857c-2.76123,0-5-2.23828-5-5s2.23877-5,5-5h5.78857c34.15869,0,61.94922,27.79004,61.94922,61.94922v226.33887c0,14.53223-11.82324,26.35547-26.35596,26.35547Z"/>
  <path class="cls-4" d="M296.45723,332.05563l-35.00245-72.39103c-.29818-.61648-.68376-1.13736-1.12147-1.58129v.00003c0,20.63653,4.66611,41.00597,13.6493,59.58469l1.82153,3.76722c8.85003,18.30332,4.9101,40.50983-10.29179,54.00935-11.14132,9.89367-25.90978,13.34337-39.58798,10.36712,.82702,.74806,1.67985,1.47577,2.57192,2.16971,16.35257,12.72139,39.27962,12.67082,55.57992-.15171,16.77444-13.19551,21.6715-36.55978,12.38101-55.77409Z"/>
  <rect class="cls-6" x="201.21668" y="126.49253" width="109.56664" height="40.4655" rx="7.11864" ry="7.11864"/>
  <path d="M225.06592,315.86523h-74.17041c-2.76123,0-5-2.23828-5-5s2.23877-5,5-5h74.17041c2.76123,0,5,2.23828,5,5s-2.23877,5-5,5Z"/>
  <path d="M217.22314,381.49219h-66.32764c-2.76123,0-5-2.23828-5-5s2.23877-5,5-5h66.32764c2.76123,0,5,2.23828,5,5s-2.23877,5-5,5Z"/>
  <path d="M361.10449,315.86523h-74.47217c-2.76123,0-5-2.23828-5-5s2.23877-5,5-5h74.47217c2.76123,0,5,2.23828,5,5s-2.23877,5-5,5Z"/>
  <path d="M361.10449,381.49219h-41.19385c-2.76123,0-5-2.23828-5-5s2.23877-5,5-5h41.19385c2.76123,0,5,2.23828,5,5s-2.23877,5-5,5Z"/>
  <path d="M256,402.49609c-10.85449,.00098-21.70557-3.52148-30.76318-10.56836-18.53027-14.41504-24.56201-40.21777-14.34229-61.35352l22.59863-46.7373c1.20166-2.48633,4.19238-3.5293,6.67822-2.32422,2.48584,1.20117,3.52686,4.19141,2.32471,6.67773l-22.59863,46.7373c-8.18018,16.91699-3.35205,37.56934,11.47949,49.10742,14.49805,11.27734,34.74854,11.27734,49.24561,0,14.83203-11.53809,19.66016-32.19043,11.47998-49.10742l-35.33887-73.08594c-.05762-.11914-.23193-.48047-.76367-.48047s-.70605,.36133-.76367,.47949c-1.20215,2.48633-4.19287,3.52734-6.67725,2.32617-2.48633-1.20215-3.52783-4.19141-2.32568-6.67773,1.82666-3.7793,5.56885-6.12793,9.7666-6.12793s7.93994,2.34863,9.7666,6.12793l35.33887,73.08496c10.21973,21.13574,4.18799,46.93848-14.34277,61.35352-9.05518,7.04492-19.91064,10.56738-30.7627,10.56836Z"/>
  <path d="M295.06543,131.49316c-2.3291,0-4.41406-1.63574-4.89502-4.00684l-20.75879-102.34375c-.48682-2.40039-2.61719-4.14258-5.06592-4.14258h-16.69141c-2.44873,0-4.57959,1.74219-5.06592,4.14258l-15.89648,78.37305c-.54883,2.70703-3.1875,4.44922-5.89453,3.90625-2.70605-.54883-4.45508-3.18848-3.90625-5.89453l15.89648-78.37305c1.42822-7.04297,7.68066-12.1543,14.8667-12.1543h16.69141c7.18604,0,13.43848,5.11133,14.8667,12.1543l20.75879,102.34375c.54883,2.70605-1.2002,5.3457-3.90625,5.89453-.33545,.06738-.66992,.10059-.99951,.10059Z"/>
  <path d="M303.66455,171.95801h-95.3291c-6.68213,0-12.11865-5.43652-12.11865-12.11816v-26.22852c0-6.68262,5.43652-12.11914,12.11865-12.11914h95.3291c6.68213,0,12.11865,5.43652,12.11865,12.11914v26.22852c0,6.68164-5.43652,12.11816-12.11865,12.11816Zm-95.3291-40.46582c-1.16846,0-2.11865,.9502-2.11865,2.11914v26.22852c0,1.16797,.9502,2.11816,2.11865,2.11816h95.3291c1.16846,0,2.11865-.9502,2.11865-2.11816v-26.22852c0-1.16895-.9502-2.11914-2.11865-2.11914h-95.3291Z"/>
  <g>
    <path d="M220.77197,155.94727c-2.76123,0-5-2.23828-5-5v-8.44434c0-2.76172,2.23877-5,5-5s5,2.23828,5,5v8.44434c0,2.76172-2.23877,5-5,5Z"/>
    <path d="M244.25732,155.94727c-2.76123,0-5-2.23828-5-5v-8.44434c0-2.76172,2.23877-5,5-5s5,2.23828,5,5v8.44434c0,2.76172-2.23877,5-5,5Z"/>
    <path d="M267.74268,155.94727c-2.76123,0-5-2.23828-5-5v-8.44434c0-2.76172,2.23877-5,5-5s5,2.23828,5,5v8.44434c0,2.76172-2.23877,5-5,5Z"/>
    <path d="M291.22803,155.94727c-2.76123,0-5-2.23828-5-5v-8.44434c0-2.76172,2.23877-5,5-5s5,2.23828,5,5v8.44434c0,2.76172-2.23877,5-5,5Z"/>
  </g>
</svg>