<?xml version="1.0" encoding="UTF-8"?>
<svg id="Layer_1" data-name="Layer 1" xmlns="http://www.w3.org/2000/svg" viewBox="0 0 512 512">
  <defs>
    <style>
      .cls-1 {
        fill: #e7e8f1;
      }

      .cls-2 {
        fill: #ed5920;
      }

      .cls-3 {
        fill: #ff702e;
      }

      .cls-4 {
        fill: #c7c8ce;
      }

      .cls-5 {
        fill: #5f606b;
      }

      .cls-6 {
        fill: #51545a;
      }
    </style>
  </defs>
  <g>
    <rect class="cls-5" x="251.94788" y="16" width="91.28056" height="45.87072" rx="9.63849" ry="9.63849"/>
    <path class="cls-3" d="M377.65697,351.18621v-108.37561c0-6.61933,1.91975-13.0966,5.52661-18.64692v-.00002c3.60688-5.55032,5.52662-12.02759,5.52662-18.64692v-67.25487c0-8.95797-3.51253-17.5588-9.78342-23.95578l-51.40181-52.4354h-59.87357l-51.40186,52.43539c-6.27089,6.39698-9.78343,14.99781-9.78343,23.95579v67.25486c0,6.61933,1.91975,13.0966,5.52661,18.64692v.00002c3.60688,5.55032,5.52662,12.02759,5.52662,18.64692v108.37561c0,6.61926-1.9197,13.09646-5.52649,18.64674l-.00025,.00039c-3.60679,5.55028-5.52649,12.02748-5.52649,18.64674v37.61038c0,18.89968,15.32122,34.2209,34.2209,34.2209h113.80228c18.89968,0,34.2209-15.32122,34.2209-34.2209v-37.61038c0-6.61926-1.9197-13.09646-5.52649-18.64674l-.00025-.00039c-3.60679-5.55028-5.52649-12.02748-5.52649-18.64674Z"/>
    <polygon class="cls-1" points="373.0215 108.28192 327.52498 61.87069 267.65141 61.87069 222.15489 108.28192 373.0215 108.28192"/>
    <path class="cls-2" d="M383.18359,224.16379c3.6069-5.55054,5.52662-12.02782,5.52662-18.64721v-67.2548c0-8.95786-3.51252-17.55865-9.78348-23.95561l-51.40174-52.43548h-29.77829l51.4018,52.43548c6.27084,6.39696,9.78348,14.99774,9.78348,23.95561v67.2548c0,6.61939-1.91983,13.09667-5.52674,18.64721-3.60678,5.5503-5.5265,12.02734-5.5265,18.64673v108.37566c0,6.61915,1.91959,13.09643,5.5265,18.64673l.00024,.00048c3.60666,5.5503,5.5265,12.02734,5.5265,18.64673v37.61038c0,18.89969-15.32128,34.22086-34.22098,34.22086h29.77823c18.89969,0,34.22098-15.32116,34.22098-34.22086v-37.61038c0-6.61939-1.91971-13.09643-5.5265-18.64673l-.00024-.00048c-3.60678-5.5503-5.5265-12.02758-5.5265-18.64673v-108.37566c0-6.61939,1.91971-13.09643,5.52662-18.64673Z"/>
    <polygon class="cls-4" points="373.02126 108.28192 327.52498 61.87069 297.74669 61.87069 343.24302 108.28192 373.02126 108.28192"/>
    <path class="cls-2" d="M376.75146,229.69987h-117.75468v26.82073s52.74136,0,52.74136,0c19.9599,0,36.1406,16.1807,36.1406,36.1406v58.52498h20.72832l-1.75385-105.20608,9.89825-16.28023Z"/>
    <path d="M376.75146,234.7002h-117.75488c-2.76123,0-5-2.23828-5-5s2.23877-5,5-5h117.75488c2.76123,0,5,2.23828,5,5s-2.23877,5-5,5Z"/>
    <path d="M335.83496,356.18652h-117.75439c-2.76123,0-5-2.23828-5-5s2.23877-5,5-5h117.75439c2.76123,0,5,2.23828,5,5s-2.23877,5-5,5Z"/>
    <path d="M377.65674,324.66309c-2.76123,0-5-2.23828-5-5v-76.85254c0-7.60449,2.19043-14.99512,6.33447-21.37109,3.08691-4.75098,4.71875-10.25684,4.71875-15.92285v-67.25488c0-7.69531-2.9668-14.95996-8.354-20.45605l-51.40137-52.43457c-1.93311-1.97168-1.90186-5.1377,.07031-7.07031,1.97168-1.93262,5.13818-1.90039,7.07031,.07031l51.40186,52.43457c7.23096,7.37598,11.21289,17.12695,11.21289,27.45605v67.25488c0,7.60449-2.18994,14.99512-6.33398,21.37207-3.0874,4.75-4.71924,10.25586-4.71924,15.92188v76.85254c0,2.76172-2.23877,5-5,5Z"/>
    <path d="M354.48926,465.31152h-113.80225c-21.62646,0-39.2207-17.59473-39.2207-39.2207v-37.61035c0-7.60449,2.18994-14.99512,6.33398-21.37207,3.0874-4.75098,4.71924-10.25684,4.71924-15.92188v-108.37598c0-5.66602-1.63184-11.17188-4.71924-15.92188-4.14404-6.37695-6.33398-13.76758-6.33398-21.37207v-67.25488c0-10.3291,3.98193-20.08008,11.2124-27.45605l32.15625-32.80176c1.93311-1.97266,5.09814-2.00293,7.07031-.07031s2.00342,5.09863,.07031,7.07031l-32.15576,32.80176c-5.38672,5.49609-8.35352,12.76074-8.35352,20.45605v67.25488c0,5.66602,1.63184,11.17188,4.71875,15.92285,4.14404,6.37598,6.33447,13.7666,6.33447,21.37109v108.37598c0,7.60352-2.19043,14.99414-6.33447,21.37109-3.08691,4.75098-4.71875,10.25684-4.71875,15.92285v37.61035c0,16.1123,13.1084,29.2207,29.2207,29.2207h113.80225c16.1123,0,29.2207-13.1084,29.2207-29.2207v-37.61035c0-5.66602-1.63184-11.17188-4.71875-15.92285-4.14404-6.37695-6.33447-13.76758-6.33447-21.37109,0-2.76172,2.23877-5,5-5s5,2.23828,5,5c0,5.66504,1.63184,11.1709,4.71924,15.92188,4.14355,6.37695,6.33398,13.76758,6.33398,21.37207v37.61035c0,21.62598-17.59424,39.2207-39.2207,39.2207Z"/>
    <path d="M373.02148,113.28223H222.15479c-2.76123,0-5-2.23828-5-5s2.23877-5,5-5h150.8667c2.76123,0,5,2.23828,5,5s-2.23877,5-5,5Z"/>
    <rect class="cls-6" x="262.96593" y="33.14413" width="69.24446" height="12.844" rx="4.47157" ry="4.47157"/>
    <g>
      <path d="M272.97217,50.98828c-2.76123,0-5-2.23828-5-5v-12.84375c0-2.76172,2.23877-5,5-5s5,2.23828,5,5v12.84375c0,2.76172-2.23877,5-5,5Z"/>
      <path d="M297.58838,50.98828c-2.76123,0-5-2.23828-5-5v-12.84375c0-2.76172,2.23877-5,5-5s5,2.23828,5,5v12.84375c0,2.76172-2.23877,5-5,5Z"/>
      <path d="M322.2041,50.98828c-2.76123,0-5-2.23828-5-5v-12.84375c0-2.76172,2.23877-5,5-5s5,2.23828,5,5v12.84375c0,2.76172-2.23877,5-5,5Z"/>
    </g>
    <path d="M333.58984,66.87109h-72.00342c-8.07178,0-14.63867-6.56641-14.63867-14.63867V25.63867c0-8.07227,6.56689-14.63867,14.63867-14.63867h72.00342c8.07178,0,14.63867,6.56641,14.63867,14.63867v26.59375c0,8.07227-6.56689,14.63867-14.63867,14.63867Zm-72.00342-45.87109c-2.55762,0-4.63867,2.08105-4.63867,4.63867v26.59375c0,2.55762,2.08105,4.63867,4.63867,4.63867h72.00342c2.55762,0,4.63867-2.08105,4.63867-4.63867V25.63867c0-2.55762-2.08105-4.63867-4.63867-4.63867h-72.00342Z"/>
  </g>
  <polyline class="cls-3" points="253.77568 194.40719 253.77568 431.39974 142.9883 431.39974 142.9883 194.40719"/>
  <polygon class="cls-3" points="273.47418 129.80693 248.44059 149.50543 223.407 129.80693 198.37686 149.50543 173.34795 129.80693 148.31867 149.50543 123.2898 129.80693 142.9883 194.40719 253.77568 194.40719 273.47418 129.80693"/>
  <polygon class="cls-3" points="123.2898 496 148.32339 476.3015 173.35697 496 198.38712 476.3015 223.41603 496 248.44531 476.3015 273.47418 496 253.77568 431.39974 142.9883 431.39974 123.2898 496"/>
  <rect class="cls-2" x="227.18267" y="194.40732" width="26.59298" height="236.9923"/>
  <polygon class="cls-2" points="248.44062 149.50546 242.33864 144.70395 227.18267 194.40732 253.77565 194.40732 273.47421 129.80696 248.44062 149.50546"/>
  <polygon class="cls-2" points="253.77571 431.39962 227.18273 431.39962 242.33978 481.10659 248.44531 476.30148 273.47421 495.99998 253.77571 431.39962"/>
  <g>
    <polygon class="cls-1" points="181.93736 249.29135 226.99429 249.29135 204.46582 306.23976 226.99429 306.23976 181.93736 376.51558 193.86426 320.29492 169.76969 320.29492 181.93736 249.29135"/>
    <g>
      <path class="cls-4" d="M204.46579,306.23972l22.52851-56.94851h-15.04398l-16.99446,42.95945c-2.65541,6.71248,2.29129,13.98906,9.50992,13.98906h.00002Z"/>
      <polygon class="cls-4" points="189.37676 341.44804 181.93736 376.51572 226.9943 306.23972 211.95032 306.23972 189.37676 341.44804"/>
    </g>
    <path d="M181.93555,381.5166c-.63525,0-1.2793-.12207-1.89697-.37598-2.23438-.91699-3.49365-3.2998-2.99219-5.66309l10.646-50.18262h-17.92285c-1.47363,0-2.87256-.65039-3.82227-1.77637-.9502-1.12695-1.35498-2.61523-1.10596-4.06836l12.16797-71.00391c.41162-2.40039,2.49268-4.15527,4.92822-4.15527h45.05664c1.65576,0,3.2041,.81934,4.13477,2.18945,.93115,1.36914,1.12354,3.11035,.51465,4.64941l-13.32227,33.67676c-1.01611,2.56836-3.91943,3.82715-6.48877,2.81055-2.56787-1.01562-3.82568-3.9209-2.81006-6.48828l10.6167-26.83789h-33.48584l-10.4541,61.00391h18.16504c1.5083,0,2.93555,.68066,3.88525,1.85254,.94922,1.17188,1.31885,2.70996,1.00586,4.18555l-6.24219,29.42383,25.33594-39.5166h-13.3833c-2.76123,0-5-2.23828-5-5s2.23877-5,5-5h22.52832c1.82812,0,3.51025,.99707,4.38721,2.60156,.87695,1.60352,.80859,3.55859-.17822,5.09668l-45.05664,70.27539c-.94287,1.47168-2.54883,2.30273-4.21094,2.30273Z"/>
  </g>
  <path d="M253.77588,436.39941h-110.7876c-2.76123,0-5-2.23828-5-5V194.40723c0-2.76172,2.23877-5,5-5s5,2.23828,5,5v231.99219h100.7876V194.40723c0-2.76172,2.23877-5,5-5s5,2.23828,5,5v236.99219c0,2.76172-2.23877,5-5,5Z"/>
  <path d="M253.77783,199.4082c-.4834,0-.97412-.07031-1.46045-.21875-2.64111-.80469-4.12939-3.59961-3.32422-6.24023l15.05078-49.35938-12.51172,9.8457c-1.81348,1.42578-4.37012,1.42773-6.18359,0l-21.94141-17.2666-21.93799,17.26562c-1.81445,1.42773-4.37012,1.42969-6.18457,0l-21.93652-17.26465-21.93701,17.26465c-1.81445,1.42773-4.37012,1.42969-6.18457,0l-12.50586-9.84277,13.97021,45.81543h80.4917c2.76123,0,5,2.23828,5,5s-2.23877,5-5,5h-84.19434c-2.19971,0-4.14111-1.4375-4.78271-3.54199l-19.69824-64.60059c-.63721-2.08984,.15625-4.35156,1.95947-5.58496,1.80371-1.2334,4.19873-1.15332,5.91553,.19824l21.93652,17.26465,21.93701-17.26465c1.81494-1.42676,4.37061-1.42871,6.18457,0l21.93652,17.26465,21.93799-17.26465c1.81445-1.42773,4.37012-1.42871,6.18457-.00098l21.94092,17.2666,21.94189-17.2666c1.71631-1.35059,4.11182-1.42969,5.91504-.19727,1.80322,1.23438,2.59668,3.49512,1.95947,5.58496l-19.69824,64.60059c-.65723,2.15527-2.63916,3.54297-4.78076,3.54297Z"/>
  <path d="M123.28955,501c-.98389,0-1.96973-.29004-2.82275-.87305-1.80322-1.23438-2.59668-3.49512-1.95947-5.58496l12.31104-40.37305c.80615-2.6416,3.60059-4.12891,6.24121-3.32422,2.64111,.80469,4.12939,3.59961,3.32422,6.24023l-7.66357,25.13184,12.51123-9.84473c1.81348-1.42773,4.37012-1.42773,6.18359,0l21.94189,17.26562,21.93799-17.26465c1.81543-1.42773,4.37109-1.42871,6.18457,0l21.93652,17.26465,21.93701-17.26465c1.81543-1.42773,4.37109-1.42871,6.18457,0l12.50586,9.8418-15.05029-49.35742c-.80518-2.64062,.68311-5.43555,3.32422-6.24023,2.6416-.80566,5.43604,.68164,6.24121,3.32422l19.69824,64.60059c.63721,2.08984-.15625,4.35059-1.95947,5.58496-1.80322,1.23242-4.19873,1.15234-5.91553-.19824l-21.93652-17.26465-21.93701,17.26465c-1.81445,1.42871-4.37012,1.42969-6.18457,0l-21.93652-17.26465-21.93799,17.26465c-1.81445,1.42773-4.36963,1.42871-6.18408,.00098l-21.94189-17.26562-21.94141,17.26562c-.9043,.71094-1.99707,1.07031-3.09229,1.07031Z"/>
</svg>