<?xml version="1.0" encoding="UTF-8"?>
<svg id="Layer_1" data-name="Layer 1" xmlns="http://www.w3.org/2000/svg" viewBox="0 0 512 512">
  <defs>
    <style>
      .cls-1 {
        fill: #e7e8f1;
      }

      .cls-2 {
        fill: #ed5920;
      }

      .cls-3 {
        fill: #ff702e;
      }

      .cls-4 {
        fill: #c7c8ce;
      }

      .cls-5 {
        fill: #5f606b;
      }

      .cls-6 {
        fill: #51545a;
      }
    </style>
  </defs>
  <g>
    <path class="cls-5" d="M295.10673,16.00007h39.91256c5.63608,0,10.21185,4.57578,10.21185,10.21185V227.35961h-60.33627V26.21193c0-5.63608,4.57578-10.21185,10.21185-10.21185Z"/>
    <path class="cls-6" d="M335.01926,16h-2.00223V149.66339c0,26.57708-21.54498,48.12207-48.12207,48.12207h-.00005v29.57424h60.3362V26.21185c0-5.63985-4.572-10.21185-10.21185-10.21185Z"/>
    <circle class="cls-5" cx="315.06301" cy="355.31945" r="140.68043"/>
    <circle class="cls-2" cx="315.06301" cy="355.31945" r="99.31396"/>
    <path class="cls-6" d="M360.55575,222.16177c41.35464,22.26513,69.46616,65.95446,69.46616,116.21319,0,72.84821-59.05498,131.90344-131.90319,131.90344-50.25897,0-93.9483-28.11177-116.21344-69.46653,18.91187,55.36964,71.383,95.18814,133.15773,95.18814,77.6956,0,140.6805-62.9849,140.6805-140.6805,0-61.77473-39.81838-114.24586-95.18776-133.15773Z"/>
    <path class="cls-3" d="M379.35032,279.62638l-52.19202,54.74336,21.32036-72.59566c-10.44297-3.73072-21.69071-5.7686-33.41565-5.7686s-22.97268,2.03788-33.41565,5.7686l21.32036,72.59566-52.19202-54.74336c-17.12642,14.55987-29.25038,34.82451-33.42712,57.86052l73.52385,17.8326-73.52385,17.83235c4.17649,23.03601,16.30057,43.30065,33.42699,57.86077l52.19215-54.74361-21.32036,72.59591c10.44297,3.73072,21.69071,5.7686,33.41565,5.7686s22.97268-2.03788,33.41565-5.7686l-21.32036-72.59591,52.19215,54.74361c17.12642-14.56012,29.2505-34.82476,33.42699-57.86077l-73.52385-17.83235,73.52385-17.8326c-4.17674-23.03601-16.3007-43.30065-33.42712-57.86052Zm-60.23336,82.71452h-8.1079l-4.05395-7.0214,4.05408-7.02165h8.10765l4.05408,7.02165-4.05395,7.0214Z"/>
    <path d="M414.37695,360.31934h-99.31348c-2.76172,0-5-2.23828-5-5s2.23828-5,5-5h99.31348c2.76172,0,5,2.23828,5,5s-2.23828,5-5,5Z"/>
    <path d="M315.05859,360.32031c-.84766,0-1.70801-.21582-2.49512-.6709-2.3916-1.38086-3.21094-4.43848-1.83008-6.83008l48.89258-84.68457c1.37891-2.38965,4.4375-3.21289,6.83008-1.83008,2.3916,1.38086,3.21094,4.43848,1.83008,6.83008l-48.89258,84.68457c-.92578,1.60352-2.60645,2.50098-4.33496,2.50098Z"/>
    <path d="M315.06836,360.32031c-1.72852,0-3.40918-.89648-4.33496-2.50098l-49.65723-86.00879c-1.38086-2.3916-.56152-5.44922,1.83008-6.83008,2.3916-1.38379,5.4502-.56152,6.83008,1.83008l49.65723,86.00879c1.38086,2.3916,.56152,5.44922-1.83008,6.83008-.78711,.45508-1.64746,.6709-2.49512,.6709Z"/>
    <path d="M271.34668,360.31934h-55.59766c-2.76123,0-5-2.23828-5-5s2.23877-5,5-5h55.59766c2.76172,0,5,2.23828,5,5s-2.23828,5-5,5Z"/>
    <path d="M265.40137,446.3291c-.84766,0-1.70801-.21582-2.49512-.6709-2.3916-1.38086-3.21094-4.43848-1.83008-6.83008l49.65723-86.00879c1.37988-2.38965,4.4375-3.21387,6.83008-1.83008,2.3916,1.38086,3.21094,4.43848,1.83008,6.83008l-49.65723,86.00879c-.92578,1.60352-2.60645,2.50098-4.33496,2.50098Z"/>
    <path d="M352.83301,425.73145c-1.72852,0-3.40918-.89648-4.33496-2.50098l-37.76562-65.41113c-1.38086-2.3916-.56152-5.44922,1.83008-6.83008,2.3916-1.38379,5.4502-.56152,6.83008,1.83008l37.76562,65.41113c1.38086,2.3916,.56152,5.44922-1.83008,6.83008-.78711,.45508-1.64746,.6709-2.49512,.6709Z"/>
    <circle class="cls-1" cx="315.06301" cy="355.31945" r="22.55428"/>
    <path class="cls-4" d="M301.50912,362.72833c0-10.8476,8.79401-19.64161,19.64174-19.64161,6.69692,0,12.60339,3.3575,16.14886,8.47489-1.78982-10.6666-11.06126-18.79644-22.23671-18.79644-12.45642,0-22.55433,10.09792-22.55433,22.55433,0,9.64392,6.05506,17.87,14.56897,21.09461-3.44114-3.53775-5.56853-8.36046-5.56853-13.68578Z"/>
    <rect class="cls-1" x="300.04826" y="107.40239" width="30.0295" height="35.21305" rx="15.01473" ry="15.01473"/>
    <rect class="cls-1" x="300.04826" y="159.07083" width="30.0295" height="35.21305" rx="15.01473" ry="15.01473"/>
    <rect class="cls-1" x="300.04826" y="34.32882" width="30.0295" height="48.9894" rx="15.01473" ry="15.01473"/>
    <path class="cls-4" d="M306.69557,134.24808v-5.18371c0-8.29239,6.72235-15.01462,15.01474-15.01462h.00012c2.43092,0,4.71949,.59087,6.75077,1.61654-2.47306-4.89775-7.53685-8.26397-13.3982-8.26397-8.29239,0-15.01474,6.72222-15.01474,15.01487v5.18346c0,5.86134,3.36635,10.92514,8.26385,13.39832-1.02567-2.0314-1.61654-4.31984-1.61654-6.75089Z"/>
    <path class="cls-4" d="M306.69557,185.91642v-5.18346c0-8.29239,6.72235-15.01487,15.01474-15.01487h.00012c2.43092,0,4.71949,.59087,6.75077,1.61654-2.47306-4.89775-7.53685-8.26372-13.3982-8.26372-8.29239,0-15.01474,6.72222-15.01474,15.01462v5.18346c0,5.86159,3.3661,10.92539,8.26385,13.39832-1.02567-2.0314-1.61654-4.31984-1.61654-6.75089Z"/>
    <path class="cls-4" d="M306.69557,74.95077v-18.95999c0-8.29239,6.72235-15.01462,15.01474-15.01462h.00012c2.43092,0,4.71949,.59087,6.75077,1.61654-2.47306-4.89775-7.53685-8.26397-13.3982-8.26397-8.29239,0-15.01474,6.72247-15.01474,15.01487v18.95974c0,5.86134,3.3661,10.92539,8.26385,13.39832-1.02567-2.0314-1.61654-4.31984-1.61654-6.75089Z"/>
    <path d="M345.23145,222.88867c-2.76172,0-5-2.23828-5-5V26.21191c0-2.87402-2.33789-5.21191-5.21191-5.21191h-39.91309c-2.87402,0-5.21191,2.33789-5.21191,5.21191V217.88867c0,2.76172-2.23828,5-5,5s-5-2.23828-5-5V26.21191c0-8.3877,6.82422-15.21191,15.21191-15.21191h39.91309c8.3877,0,15.21191,6.82422,15.21191,15.21191V217.88867c0,2.76172-2.23828,5-5,5Z"/>
    <path d="M315.06348,501c-80.32861,0-145.68066-65.35254-145.68066-145.68066s65.35205-145.68066,145.68066-145.68066c26.88574,0,53.15625,7.38379,75.9707,21.35449,2.35449,1.44141,3.09473,4.51953,1.65234,6.875-1.44043,2.35449-4.51855,3.09375-6.875,1.65234-21.24121-13.00684-45.70605-19.88184-70.74805-19.88184-74.81445,0-135.68066,60.86621-135.68066,135.68066s60.86621,135.68066,135.68066,135.68066,135.67969-60.86621,135.67969-135.68066c0-23.30957-6.00781-46.29688-17.37305-66.47852-1.35547-2.40527-.50293-5.45508,1.90332-6.80957s5.45508-.50293,6.80957,1.90332c12.20801,21.67578,18.66016,46.36035,18.66016,71.38477,0,80.32812-65.35156,145.68066-145.67969,145.68066Z"/>
    <path d="M423.21289,270.33984c-1.43359,0-2.85547-.6123-3.84473-1.7998-4.64453-5.57617-9.77637-10.82129-15.25195-15.58984-2.08301-1.81348-2.30078-4.97168-.4873-7.05371,1.81348-2.08301,4.97168-2.30176,7.05371-.4873,5.87695,5.11719,11.38379,10.74609,16.36914,16.73047,1.76758,2.12207,1.48047,5.27441-.6416,7.04199-.93457,.77832-2.06934,1.1582-3.19727,1.1582Z"/>
    <path d="M315.06348,382.87402c-15.19336,0-27.55469-12.36133-27.55469-27.55469s12.36133-27.55371,27.55469-27.55371,27.55371,12.36035,27.55371,27.55371-12.36035,27.55469-27.55371,27.55469Zm0-45.1084c-9.67969,0-17.55469,7.875-17.55469,17.55371,0,9.67969,7.875,17.55469,17.55469,17.55469,9.67871,0,17.55371-7.875,17.55371-17.55469,0-9.67871-7.875-17.55371-17.55371-17.55371Z"/>
    <path d="M315.06348,147.61523c-11.03711,0-20.01562-8.97852-20.01562-20.01465v-5.18359c0-11.03613,8.97852-20.01465,20.01562-20.01465,11.03613,0,20.01465,8.97852,20.01465,20.01465v5.18359c0,11.03613-8.97852,20.01465-20.01465,20.01465Zm0-35.21289c-5.52246,0-10.01562,4.49219-10.01562,10.01465v5.18359c0,5.52246,4.49316,10.01465,10.01562,10.01465s10.01465-4.49219,10.01465-10.01465v-5.18359c0-5.52246-4.49219-10.01465-10.01465-10.01465Z"/>
    <path d="M315.06348,199.28418c-11.03711,0-20.01562-8.97852-20.01562-20.01465v-5.18359c0-11.03613,8.97852-20.01465,20.01562-20.01465,11.03613,0,20.01465,8.97852,20.01465,20.01465v5.18359c0,11.03613-8.97852,20.01465-20.01465,20.01465Zm0-35.21289c-5.52246,0-10.01562,4.49219-10.01562,10.01465v5.18359c0,5.52246,4.49316,10.01465,10.01562,10.01465s10.01465-4.49219,10.01465-10.01465v-5.18359c0-5.52246-4.49219-10.01465-10.01465-10.01465Z"/>
    <path d="M315.06348,88.31836c-2.76172,0-5-2.23828-5-5s2.23828-5,5-5c5.52246,0,10.01465-4.49219,10.01465-10.01465v-18.95996c0-5.52246-4.49219-10.01465-10.01465-10.01465s-10.01562,4.49219-10.01562,10.01465v16.83887c0,2.76172-2.23828,5-5,5s-5-2.23828-5-5v-16.83887c0-11.03613,8.97852-20.01465,20.01562-20.01465,11.03613,0,20.01465,8.97852,20.01465,20.01465v18.95996c0,11.03613-8.97852,20.01465-20.01465,20.01465Z"/>
    <path d="M315.06348,459.63379c-10.57617,0-21.01172-1.57812-31.01855-4.69141-2.63672-.82031-4.10938-3.62305-3.28906-6.25977,.82129-2.6377,3.62695-4.10645,6.25977-3.28906,9.04395,2.81348,18.48047,4.24023,28.04785,4.24023,52.00488,0,94.31348-42.30957,94.31348-94.31445,0-22.89062-8.30176-44.96484-23.37598-62.1543-14.93555-17.0332-35.44922-28.12988-57.76172-31.24707-2.73535-.38281-4.64258-2.90918-4.26074-5.64355,.38281-2.73438,2.90137-4.63574,5.64355-4.26074,24.68848,3.44922,47.38086,15.72266,63.89844,34.55859,16.67383,19.01465,25.85645,43.42871,25.85645,68.74707,0,57.51953-46.79492,104.31445-104.31348,104.31445Z"/>
    <path d="M265.39258,446.34277c-.84961,0-1.71094-.2168-2.49902-.67285-32.16406-18.61035-52.14453-53.23047-52.14453-90.35059,0-24.10156,8.41357-47.61035,23.69141-66.19629,15.06836-18.33203,36.08789-31.08594,59.18652-35.91211,2.70508-.56641,5.35156,1.16895,5.91699,3.87207,.56445,2.70312-1.16895,5.35156-3.87207,5.91699-43.41309,9.07031-74.92285,47.89648-74.92285,92.31934,0,33.5625,18.06787,64.86621,47.15234,81.69434,2.39062,1.38281,3.20703,4.44238,1.82422,6.83203-.92676,1.60156-2.60645,2.49707-4.33301,2.49707Z"/>
  </g>
  <g>
    <path class="cls-5" d="M176.98064,16.00007h39.91256c5.63608,0,10.21185,4.57578,10.21185,10.21185V227.35961h-60.33627V26.21193c0-5.63608,4.57578-10.21185,10.21185-10.21185Z"/>
    <path class="cls-6" d="M216.89316,16h-2.00223V149.66339c0,26.57708-21.54498,48.12207-48.12207,48.12207h-.00005v29.57424h60.3362V26.21185c0-5.63985-4.572-10.21185-10.21185-10.21185Z"/>
    <circle class="cls-5" cx="196.93692" cy="355.31945" r="140.68043"/>
    <circle class="cls-2" cx="196.93692" cy="355.31945" r="99.31396"/>
    <path class="cls-6" d="M242.42965,222.16177c41.35464,22.26513,69.46616,65.95446,69.46616,116.21319,0,72.84821-59.05498,131.90344-131.90319,131.90344-50.25897,0-93.9483-28.11177-116.21344-69.46653,18.91187,55.36964,71.383,95.18814,133.15773,95.18814,77.6956,0,140.6805-62.9849,140.6805-140.6805,0-61.77473-39.81838-114.24586-95.18776-133.15773Z"/>
    <path class="cls-3" d="M261.22423,279.62638l-52.19202,54.74336,21.32036-72.59566c-10.44297-3.73072-21.69071-5.7686-33.41565-5.7686s-22.97268,2.03788-33.41565,5.7686l21.32036,72.59566-52.19202-54.74336c-17.12642,14.55987-29.25038,34.82451-33.42712,57.86052l73.52385,17.8326-73.52385,17.83235c4.17649,23.03601,16.30057,43.30065,33.42699,57.86077l52.19215-54.74361-21.32036,72.59591c10.44297,3.73072,21.69071,5.7686,33.41565,5.7686s22.97268-2.03788,33.41565-5.7686l-21.32036-72.59591,52.19215,54.74361c17.12642-14.56012,29.2505-34.82476,33.42699-57.86077l-73.52385-17.83235,73.52385-17.8326c-4.17674-23.03601-16.3007-43.30065-33.42712-57.86052Zm-60.23336,82.71452h-8.1079l-4.05395-7.0214,4.05408-7.02165h8.10765l4.05408,7.02165-4.05395,7.0214Z"/>
    <path d="M296.25098,360.31934h-99.31396c-2.76123,0-5-2.23828-5-5s2.23877-5,5-5h99.31396c2.76172,0,5,2.23828,5,5s-2.23828,5-5,5Z"/>
    <path d="M196.93213,360.32031c-.84814,0-1.70752-.21582-2.49512-.6709-2.3916-1.38086-3.21094-4.43848-1.83008-6.83008l38.90869-67.39258c1.38037-2.39062,4.4375-3.21289,6.83008-1.83008,2.3916,1.38086,3.21094,4.43848,1.83008,6.83008l-38.90869,67.39258c-.92578,1.60352-2.60693,2.50098-4.33496,2.50098Z"/>
    <path d="M196.94189,360.32031c-1.72852,0-3.40869-.89648-4.33496-2.50098l-49.65723-86.00879c-1.38086-2.3916-.56152-5.44922,1.83008-6.83008,2.3916-1.38184,5.44971-.56152,6.83008,1.83008l49.65723,86.00879c1.38086,2.3916,.56152,5.44922-1.83008,6.83008-.78711,.45508-1.64697,.6709-2.49512,.6709Z"/>
    <path d="M153.22119,360.31934h-55.59814c-2.76123,0-5-2.23828-5-5s2.23877-5,5-5h55.59814c2.76123,0,5,2.23828,5,5s-2.23877,5-5,5Z"/>
    <path d="M147.2749,446.3291c-.84814,0-1.70752-.21582-2.49512-.6709-2.3916-1.38086-3.21094-4.43848-1.83008-6.83008l49.65723-86.00879c1.38037-2.39062,4.43799-3.21289,6.83008-1.83008,2.3916,1.38086,3.21094,4.43848,1.83008,6.83008l-49.65723,86.00879c-.92578,1.60352-2.60693,2.50098-4.33496,2.50098Z"/>
    <path d="M246.59863,446.3291c-1.72852,0-3.40869-.89648-4.33496-2.50098l-49.65674-86.00879c-1.38086-2.3916-.56152-5.44922,1.83008-6.83008,2.39258-1.38184,5.44922-.56152,6.83008,1.83008l49.65674,86.00879c1.38086,2.3916,.56152,5.44922-1.83008,6.83008-.78711,.45508-1.64697,.6709-2.49512,.6709Z"/>
    <circle class="cls-1" cx="196.93692" cy="355.31945" r="22.55428"/>
    <path class="cls-4" d="M183.38303,362.72833c0-10.8476,8.79401-19.64161,19.64174-19.64161,6.69692,0,12.60339,3.3575,16.14886,8.47489-1.78982-10.6666-11.06126-18.79644-22.23671-18.79644-12.45642,0-22.55433,10.09792-22.55433,22.55433,0,9.64392,6.05506,17.87,14.56897,21.09461-3.44114-3.53775-5.56853-8.36046-5.56853-13.68578Z"/>
    <rect class="cls-1" x="181.92217" y="107.40239" width="30.0295" height="35.21305" rx="15.01473" ry="15.01473"/>
    <rect class="cls-1" x="181.92217" y="159.07083" width="30.0295" height="35.21305" rx="15.01473" ry="15.01473"/>
    <rect class="cls-1" x="181.92217" y="34.32882" width="30.0295" height="48.9894" rx="15.01473" ry="15.01473"/>
    <path class="cls-4" d="M188.56948,134.24808v-5.18371c0-8.29239,6.72235-15.01462,15.01474-15.01462h.00012c2.43092,0,4.71949,.59087,6.75077,1.61654-2.47306-4.89775-7.53685-8.26397-13.3982-8.26397-8.29239,0-15.01474,6.72222-15.01474,15.01487v5.18346c0,5.86134,3.36635,10.92514,8.26385,13.39832-1.02567-2.0314-1.61654-4.31984-1.61654-6.75089Z"/>
    <path class="cls-4" d="M188.56948,185.91642v-5.18346c0-8.29239,6.72235-15.01487,15.01474-15.01487h.00012c2.43092,0,4.71949,.59087,6.75077,1.61654-2.47306-4.89775-7.53685-8.26372-13.3982-8.26372-8.29239,0-15.01474,6.72222-15.01474,15.01462v5.18346c0,5.86159,3.3661,10.92539,8.26385,13.39832-1.02567-2.0314-1.61654-4.31984-1.61654-6.75089Z"/>
    <path class="cls-4" d="M188.56948,74.95077v-18.95999c0-8.29239,6.72235-15.01462,15.01474-15.01462h.00012c2.43092,0,4.71949,.59087,6.75077,1.61654-2.47306-4.89775-7.53685-8.26397-13.3982-8.26397-8.29239,0-15.01474,6.72247-15.01474,15.01487v18.95974c0,5.86134,3.3661,10.92539,8.26385,13.39832-1.02567-2.0314-1.61654-4.31984-1.61654-6.75089Z"/>
    <path d="M227.10498,222.88867c-2.76123,0-5-2.23828-5-5V26.21191c0-2.87402-2.33789-5.21191-5.21191-5.21191h-39.9126c-2.87402,0-5.21191,2.33789-5.21191,5.21191V192.66699c0,2.76172-2.23877,5-5,5s-5-2.23828-5-5V26.21191c0-8.3877,6.82422-15.21191,15.21191-15.21191h39.9126c8.3877,0,15.21191,6.82422,15.21191,15.21191V217.88867c0,2.76172-2.23877,5-5,5Z"/>
    <path d="M196.93701,382.87402c-15.19336,0-27.5542-12.36133-27.5542-27.55469s12.36084-27.55371,27.5542-27.55371,27.5542,12.36035,27.5542,27.55371-12.36084,27.55469-27.5542,27.55469Zm0-45.1084c-9.6792,0-17.5542,7.875-17.5542,17.55371,0,9.67969,7.875,17.55469,17.5542,17.55469s17.5542-7.875,17.5542-17.55469c0-9.67871-7.875-17.55371-17.5542-17.55371Z"/>
    <path d="M196.93701,147.61523c-11.03613,0-20.01465-8.97852-20.01465-20.01465v-5.18359c0-11.03613,8.97852-20.01465,20.01465-20.01465s20.01465,8.97852,20.01465,20.01465v5.18359c0,11.03613-8.97852,20.01465-20.01465,20.01465Zm0-35.21289c-5.52197,0-10.01465,4.49219-10.01465,10.01465v5.18359c0,5.52246,4.49268,10.01465,10.01465,10.01465s10.01465-4.49219,10.01465-10.01465v-5.18359c0-5.52246-4.49268-10.01465-10.01465-10.01465Z"/>
    <path d="M196.93701,199.28418c-11.03613,0-20.01465-8.97852-20.01465-20.01465v-5.18359c0-11.03613,8.97852-20.01465,20.01465-20.01465s20.01465,8.97852,20.01465,20.01465v5.18359c0,11.03613-8.97852,20.01465-20.01465,20.01465Zm0-35.21289c-5.52197,0-10.01465,4.49219-10.01465,10.01465v5.18359c0,5.52246,4.49268,10.01465,10.01465,10.01465s10.01465-4.49219,10.01465-10.01465v-5.18359c0-5.52246-4.49268-10.01465-10.01465-10.01465Z"/>
    <path d="M196.93701,88.31836c-11.03613,0-20.01465-8.97852-20.01465-20.01465v-18.95996c0-11.03613,8.97852-20.01465,20.01465-20.01465s20.01465,8.97852,20.01465,20.01465v18.95996c0,11.03613-8.97852,20.01465-20.01465,20.01465Zm0-48.98926c-5.52197,0-10.01465,4.49219-10.01465,10.01465v18.95996c0,5.52246,4.49268,10.01465,10.01465,10.01465s10.01465-4.49219,10.01465-10.01465v-18.95996c0-5.52246-4.49268-10.01465-10.01465-10.01465Z"/>
    <path d="M196.93701,459.63379c-10.5752,0-21.01172-1.57812-31.01855-4.69141-2.63672-.82031-4.10938-3.62305-3.28906-6.25977,.82031-2.6377,3.62305-4.10742,6.25977-3.28906,9.04395,2.81348,18.48096,4.24023,28.04785,4.24023,52.00488,0,94.31396-42.30957,94.31396-94.31445s-42.30908-94.31348-94.31396-94.31348-94.31396,42.30859-94.31396,94.31348c0,33.5625,18.06787,64.86621,47.15234,81.69434,2.39014,1.38281,3.20703,4.44238,1.82373,6.83203-1.38281,2.38965-4.44043,3.20703-6.83154,1.82422-32.16406-18.61035-52.14453-53.23047-52.14453-90.35059,0-57.51855,46.79492-104.31348,104.31396-104.31348s104.31396,46.79492,104.31396,104.31348-46.79492,104.31445-104.31396,104.31445Z"/>
    <path d="M196.93701,501c-80.32861,0-145.68066-65.35254-145.68066-145.68066S116.6084,209.63867,196.93701,209.63867s145.68018,65.35254,145.68018,145.68066-65.35156,145.68066-145.68018,145.68066Zm0-281.36133c-74.81445,0-135.68066,60.86621-135.68066,135.68066s60.86621,135.68066,135.68066,135.68066,135.68018-60.86621,135.68018-135.68066-60.86621-135.68066-135.68018-135.68066Z"/>
  </g>
</svg>