<?xml version="1.0" encoding="UTF-8"?>
<svg id="Layer_1" data-name="Layer 1" xmlns="http://www.w3.org/2000/svg" viewBox="0 0 512 512">
  <defs>
    <style>
      .cls-1 {
        fill: #ed5920;
      }

      .cls-2 {
        fill: #ff702e;
      }

      .cls-3 {
        fill: #5f606b;
      }

      .cls-4 {
        fill: #51545a;
      }
    </style>
  </defs>
  <rect class="cls-2" x="148.6381" y="128.38497" width="344.36265" height="35.53483"/>
  <path class="cls-1" d="M436.13059,128.38497v.00003c0,13.96537-11.32117,25.28654-25.28654,25.28654H175.56105l5.91683,10.24827H493.00074v-35.53484h-56.87015Z"/>
  <polygon class="cls-2" points="485.15511 189.35824 290.49512 384.01823 266.0088 359.53191 477.32187 148.21884 485.15511 189.35824"/>
  <path class="cls-1" d="M433.66931,191.87143v5.2443c0,14.86345-5.90448,29.11813-16.41453,39.62818l-137.01701,137.01701,10.25732,10.25732,143.17421-143.17421,19.02606-19.02606v-48.9726l-19.02606,19.02606Z"/>
  <path class="cls-2" d="M144.64031,105.25385l-34.02184-.03898c-2.37972-.00273-3.86881,2.57305-2.67895,4.63395l166.54459,288.46392,31.92374-18.00773L149.09344,107.82826c-.9187-1.59123-2.61573-2.57231-4.45313-2.57442Z"/>
  <rect class="cls-2" x="450.56732" y="110.36346" width="45.43268" height="124.99847" rx="5.14884" ry="5.14884"/>
  <rect class="cls-2" x="-37.77477" y="253.40144" width="263.94074" height="22.93777" transform="translate(-185.53843 236.97822) rotate(-64.72903)"/>
  <rect class="cls-2" x="33.34242" y="375.37499" width="243.46324" height="22.93777"/>
  <circle class="cls-2" cx="281.93854" cy="367.20556" r="36.09297"/>
  <circle class="cls-2" cx="37.18513" cy="385.6" r="21.18513"/>
  <circle class="cls-3" cx="281.93854" cy="367.20556" r="15.42855"/>
  <path class="cls-4" d="M274.71248,373.29505c0-7.35397,5.96156-13.31559,13.31559-13.31559,4.46016,0,8.39808,2.20077,10.81455,5.56719-1.61125-6.79913-7.70621-11.86352-14.99794-11.86352-8.52097,0-15.42853,6.90763-15.42853,15.4286,0,7.29179,5.06445,13.38687,11.86364,14.998-3.36648-2.41647-5.56731-6.35445-5.56731-10.81467Z"/>
  <circle cx="37.18513" cy="385.60001" r="7.5"/>
  <path class="cls-1" d="M263.63962,398.31274c-3.64661-2.14979-6.88638-4.91572-9.56476-8.16479H55.20676c-2.88345,0-5.57139,1.3598-7.36735,3.61564-3.87725,4.87008-9.84678,7.99615-16.5565,7.99615-3.84969,0-7.44897-1.04284-10.56008-2.83758,3.884,4.79354,9.81208,7.86298,16.46233,7.86298,6.92736,0,13.06926-3.32996,16.9312-8.47239h209.52326Z"/>
  <path class="cls-1" d="M295.06752,333.58628c7.76895,6.6202,12.70214,16.46949,12.70214,27.47652,0,19.93358-16.15938,36.09296-36.09296,36.09296-4.63377,0-9.05874-.88282-13.12897-2.47367,6.3006,5.36895,14.46426,8.61645,23.39082,8.61645,19.93358,0,36.09296-16.15938,36.09296-36.09296,0-15.29982-9.52466-28.36656-22.96399-33.6193Z"/>
  <path class="cls-1" d="M81.10282,319.4702h0s66.51453-140.89732,66.51453-140.89732l-13.95485-24.17056-4.51083,9.55527v.00002c5.66152,9.80607,6.15531,21.76482,1.3215,32.00424l-49.98194,105.87643c-2.65811,5.63066-2.43028,12.19897,.61158,17.63193Z"/>
  <path class="cls-1" d="M479.5308,110.36347v124.99847h11.32034c2.84362,0,5.14884-2.30521,5.14884-5.14884V115.51231c0-2.84362-2.30521-5.14884-5.14884-5.14884h-11.32034Z"/>
  <path d="M450.56738,168.91992H206.96436c-2.76123,0-5-2.23877-5-5s2.23877-5,5-5h243.60303c2.76123,0,5,2.23877,5,5s-2.23877,5-5,5Z"/>
  <path d="M450.56738,133.38477H160.96191c-2.76123,0-5-2.23877-5-5s2.23877-5,5-5H450.56738c2.76123,0,5,2.23877,5,5s-2.23877,5-5,5Z"/>
  <path d="M294.42822,336.11279c-1.27979,0-2.55908-.48828-3.53564-1.46436-1.95264-1.95264-1.95264-5.11865,0-7.07129l139.24121-139.24121c1.95312-1.95215,5.11816-1.95215,7.07129,0,1.95264,1.95264,1.95264,5.11865,0,7.07129l-139.24121,139.24121c-.97656,.97607-2.25586,1.46436-3.53564,1.46436Z"/>
  <path d="M317.26318,362.25c-1.27979,0-2.55908-.48828-3.53564-1.46436-1.95264-1.95264-1.95264-5.11865,0-7.07129l133.3042-133.3042c1.95312-1.95215,5.11816-1.95215,7.07129,0,1.95264,1.95264,1.95264,5.11865,0,7.07129l-133.3042,133.3042c-.97656,.97607-2.25586,1.46436-3.53564,1.46436Z"/>
  <path d="M490.85107,240.36182h-35.13477c-5.59619,0-10.14893-4.55273-10.14893-10.14893v-66.29297c0-2.76123,2.23877-5,5-5s5,2.23877,5,5v66.29297c0,.08203,.06689,.14893,.14893,.14893h35.13477c.08203,0,.14893-.06689,.14893-.14893V115.51221c0-.08203-.06689-.14893-.14893-.14893h-35.13477c-.08203,0-.14893,.06689-.14893,.14893v25.51318c0,2.76123-2.23877,5-5,5s-5-2.23877-5-5v-25.51318c0-5.59619,4.55273-10.14893,10.14893-10.14893h35.13477c5.59619,0,10.14893,4.55273,10.14893,10.14893v114.70068c0,5.59619-4.55273,10.14893-10.14893,10.14893Z"/>
  <path d="M281.93848,408.29834c-22.65869,0-41.09277-18.43408-41.09277-41.09277,0-4.5708,.74365-9.04053,2.21387-13.32178L103.60938,112.34863c-1.44141-2.49658-1.44043-5.59766,.00244-8.09326,1.44141-2.49316,4.12402-4.04053,7.00293-4.04053h.01025l34.021,.03906c3.60986,.00391,6.97314,1.94824,8.77783,5.07471l127.47754,220.79736c.34717-.00879,.69287-.01318,1.03711-.01318,22.65869,0,41.09277,18.43408,41.09277,41.09277s-18.43408,41.09277-41.09277,41.09277ZM113.92676,110.21875l138.97607,240.71436c.77637,1.34473,.88379,2.97412,.29102,4.40967-1.55811,3.77051-2.34814,7.76172-2.34814,11.86279,0,17.14453,13.94824,31.09277,31.09277,31.09277s31.09277-13.94824,31.09277-31.09277c0-18.22559-15.80371-32.87598-34.38477-30.91797-1.9624,.20898-3.86523-.76172-4.85303-2.47266L144.76318,110.32812c-.02637-.0459-.07569-.07422-.12842-.07422l-30.70801-.03516Z"/>
  <path d="M223.66309,380.375H55.73633c-1.81885,0-3.49414-.98779-4.375-2.5791-.09912-.1792-.20947-.35059-.31836-.52344l-.12598-.20068c-.89941-1.44238-1.00439-3.24316-.27881-4.78027l91.96094-194.80127c1.17871-2.49756,4.15918-3.56641,6.65576-2.38721,2.49756,1.17871,3.56592,4.15869,2.38721,6.65576L62.60107,370.375H223.66309c2.76123,0,5,2.23877,5,5s-2.23877,5-5,5Z"/>
  <path d="M37.18506,411.78516c-14.43848,0-26.18506-11.74658-26.18506-26.18506,0-12.14209,8.4165-22.61377,19.99268-25.4248l98.14844-207.90723c1.17773-2.49756,4.15869-3.56689,6.65576-2.38721,2.49756,1.17871,3.56592,4.15869,2.38721,6.65576L38.94727,366.74902c-.72656,1.53955-2.18701,2.60352-3.875,2.82373-8.02246,1.04639-14.07227,7.93652-14.07227,16.02734,0,8.92432,7.26074,16.18506,16.18506,16.18506,5.11377,0,9.82373-2.36182,12.92285-6.47949,.94482-1.25488,2.42432-1.99315,3.99512-1.99315h209.53662c2.76123,0,5,2.23875,5,5s-2.23877,5-5,5H56.44336c-4.95361,5.41453-11.84033,8.47264-19.2583,8.47264Z"/>
  <path d="M281.93848,387.63428c-11.26465,0-20.42871-9.16406-20.42871-20.42871s9.16406-20.42871,20.42871-20.42871,20.42871,9.16406,20.42871,20.42871-9.16406,20.42871-20.42871,20.42871Zm0-30.85742c-5.75049,0-10.42871,4.67822-10.42871,10.42871s4.67822,10.42871,10.42871,10.42871,10.42871-4.67822,10.42871-10.42871-4.67822-10.42871-10.42871-10.42871Z"/>
</svg>