<?xml version="1.0" encoding="UTF-8"?>
<svg id="Layer_1" data-name="Layer 1" xmlns="http://www.w3.org/2000/svg" viewBox="0 0 512 512">
  <defs>
    <style>
      .cls-1 {
        fill: #ed5920;
      }

      .cls-2 {
        fill: #ff702e;
      }
    </style>
  </defs>
  <path class="cls-2" d="M380.71436,152.94366L77.68359,186.99658c-35.12793,3.94745-61.68359,33.65454-61.68359,69.00336v.00012c0,35.34882,26.55566,65.05591,61.68359,69.00336l303.03076,34.05292c61.47412,6.90808,115.28564-41.19519,115.28564-103.05621v-.00024c0-61.86102-53.81152-109.96429-115.28564-103.05621ZM90.88037,261.9444c0,5.95941-4.83105,10.79047-10.79053,10.79047h-23.37622c-5.95923,0-10.79028-4.83105-10.79028-10.79047v-11.88879c0-5.95941,4.83105-10.79047,10.79028-10.79047h23.37622c5.95947,0,10.79053,4.83105,10.79053,10.79047v11.88879Zm254.38379,38.95428c1.93359,2.02338,.27612,5.35406-2.50513,5.0415l-222.01074-24.94849c-5.45728-.61328-9.58325-5.22858-9.58325-10.72046v-28.54248c0-5.49188,4.12598-10.10718,9.58325-10.72046l222.01074-24.94849c2.78125-.31256,4.43872,3.01813,2.50513,5.0415-11.15405,11.67072-18.01099,27.47992-18.01099,44.89868s6.85693,33.22797,18.01099,44.89868Zm47.01831-19.89014c-13.81177,0-25.00854-11.19672-25.00854-25.00854s11.19678-25.00854,25.00854-25.00854,25.00854,11.19672,25.00854,25.00854-11.19678,25.00854-25.00854,25.00854Z"/>
  <path class="cls-1" d="M461.92432,179.15509c10.53833,16.1853,16.70825,35.5412,16.70825,56.47736v.00024c0,61.86102-53.81177,109.96429-115.28589,103.05621L60.31592,304.63599c-13.38159-1.50378-25.51221-6.75378-35.41187-14.62177,10.63208,18.89246,29.8811,32.41602,52.77954,34.9892l303.03076,34.05292c61.47412,6.90808,115.28564-41.19519,115.28564-103.05621v-.00024c0-30.6767-13.2373-57.96533-34.07568-76.84479Z"/>
  <path class="cls-1" d="M45.92334,261.9444v-11.88879c0-5.95941,4.83105-10.79047,10.79028-10.79047h23.37622c3.02344,0,5.75244,1.24677,7.71143,3.25-.44873-6.18359-5.59521-11.06427-11.89331-11.06427h-25.86133c-6.59302,0-11.93774,5.34467-11.93774,11.93762v13.15265c0,5.89392,4.27563,10.77802,9.8916,11.75-1.30054-1.78241-2.07715-3.97131-2.07715-6.34674Z"/>
  <path class="cls-1" d="M367.27393,256c0-13.81183,11.19678-25.00854,25.00854-25.00854,13.11646,0,23.86719,10.10004,24.91699,22.94592,.05444-.7301,.09155-1.46509,.09155-2.20911,0-16.17102-13.10938-29.28027-29.28027-29.28027s-29.28027,13.10925-29.28027,29.28027,13.10913,29.28027,29.28027,29.28027c.74414,0,1.479-.03699,2.20898-.09149-12.8457-1.0498-22.9458-11.80048-22.9458-24.91705Z"/>
  <path d="M392.26367,364.70312c-4.02832,0-8.06641-.22412-12.1084-.67822l-303.03027-34.05273c-37.69727-4.23584-66.125-36.03711-66.125-73.97217s28.42773-69.73633,66.125-73.97217l303.03027-34.05273c23.33984-2.62451,46.34961,2.18604,66.55859,13.90381,2.38867,1.38525,3.20312,4.44482,1.81738,6.83398-1.38477,2.38867-4.44727,3.20117-6.83301,1.81738-18.34277-10.63574-39.23535-15.00049-60.42578-12.61768L78.24219,191.96533c-32.63379,3.66699-57.24219,31.1958-57.24219,64.03467s24.6084,60.36768,57.24219,64.03467l303.03027,34.05273c27.88965,3.1333,55.88281-5.79541,76.80566-24.49854,20.92188-18.70312,32.92188-45.52539,32.92188-73.58887,0-16.32715-3.83496-31.8457-11.39941-46.12451-1.29297-2.44043-.36328-5.46631,2.07715-6.75928,2.43848-1.29102,5.46582-.36279,6.75879,2.07764,8.21875,15.51514,12.56348,33.0835,12.56348,50.80615,0,30.90674-13.21582,60.44629-36.25781,81.04443-20.00977,17.88721-45.89844,27.65723-72.47852,27.65869Z"/>
  <path d="M473.33594,196.271c-1.46582,0-2.91797-.6416-3.90625-1.875-3.88672-4.85498-8.25586-9.36816-12.98535-13.41406-2.09863-1.79492-2.34473-4.95117-.5498-7.0498,1.79688-2.09814,4.95215-2.34277,7.0498-.54883,5.20508,4.45264,10.01367,9.41943,14.29199,14.7627,1.72559,2.15527,1.37695,5.30176-.77832,7.02783-.92188,.73828-2.02539,1.09717-3.12207,1.09717Z"/>
  <path d="M392.28223,286.0083c-16.5459,0-30.00781-13.46143-30.00781-30.0083s13.46191-30.0083,30.00781-30.0083c16.54688,0,30.00879,13.46143,30.00879,30.0083s-13.46191,30.0083-30.00879,30.0083Zm0-50.0166c-11.03223,0-20.00781,8.97559-20.00781,20.0083s8.97559,20.0083,20.00781,20.0083c11.0332,0,20.00879-8.97559,20.00879-20.0083s-8.97559-20.0083-20.00879-20.0083Z"/>
  <path d="M80.08984,277.73486h-23.37598c-8.70703,0-15.79102-7.0835-15.79102-15.79053v-11.88867c0-8.70703,7.08398-15.79053,15.79102-15.79053h2.56055c2.76172,0,5,2.23877,5,5s-2.23828,5-5,5h-2.56055c-3.19336,0-5.79102,2.59766-5.79102,5.79053v11.88867c0,3.19287,2.59766,5.79053,5.79102,5.79053h23.37598c3.19336,0,5.79102-2.59766,5.79102-5.79053v-11.88867c0-3.19287-2.59766-5.79053-5.79102-5.79053-2.76172,0-5-2.23877-5-5s2.23828-5,5-5c8.70703,0,15.79102,7.0835,15.79102,15.79053v11.88867c0,8.70703-7.08398,15.79053-15.79102,15.79053Z"/>
  <path d="M351.9209,311.97021c-1.08887,0-2.18457-.35352-3.10352-1.08203-16.88184-13.38525-26.56445-33.39111-26.56445-54.88818,0-16.31982,5.60352-31.88916,15.87988-44.38867l-216.82617,24.36572c-2.93164,.32959-5.1416,2.80176-5.1416,5.75146v28.54297c0,2.94971,2.20996,5.42188,5.1416,5.75146l199.19824,22.38477c2.74414,.30859,4.71875,2.7832,4.41016,5.52734s-2.77148,4.71729-5.52734,4.41016l-199.19824-22.38477c-7.99512-.89844-14.02441-7.64355-14.02441-15.68896v-28.54297c0-8.04541,6.0293-14.79053,14.02441-15.68896l222.01074-24.94824c3.39258-.38428,6.5498,1.3457,8.06152,4.39795,1.51074,3.04883,.96777,6.6084-1.38379,9.06738-10.7207,11.21777-16.625,25.93604-16.625,41.44336,0,18.42529,8.30176,35.5752,22.77734,47.05225,2.16406,1.71582,2.52734,4.86035,.81152,7.02441-.9873,1.24463-2.44727,1.89355-3.9209,1.89355Z"/>
</svg>