<?xml version="1.0" encoding="UTF-8"?>
<svg id="Layer_1" data-name="Layer 1" xmlns="http://www.w3.org/2000/svg" viewBox="0 0 512 512">
  <defs>
    <style>
      .cls-1 {
        fill: #ed5920;
      }

      .cls-2 {
        fill: #ff702e;
      }

      .cls-3 {
        fill: #5f606b;
      }

      .cls-4 {
        fill: #51545a;
      }
    </style>
  </defs>
  <g>
    <path class="cls-2" d="M296.59458,16h51.81084c3.20467,0,5.80645,2.60178,5.80645,5.80645v59.51393h-63.42374V21.80645c0-3.20467,2.60178-5.80645,5.80645-5.80645Z"/>
    <path class="cls-1" d="M348.40542,16h-12.8836v9.70393c0,24.70571-20.02793,44.73364-44.73364,44.73364h-.00004v10.88279h63.42374V21.80645c0-3.20682-2.59964-5.80645-5.80645-5.80645Z"/>
    <polygon class="cls-2" points="365.33336 144.3694 279.66664 144.3694 266.55501 116.50283 378.44499 116.50283 365.33336 144.3694"/>
    <polygon class="cls-2" points="279.66663 440.38148 365.33335 440.38146 378.44498 468.24802 266.55501 468.24806 279.66663 440.38148"/>
    <path class="cls-1" d="M270.33566,468.24806h104.32867v.00003c0,15.3167-12.43522,27.75191-27.75191,27.75191h-48.82485c-15.3167,0-27.75191-12.43522-27.75191-27.75191v-.00003h0Z"/>
    <path class="cls-2" d="M285.47309,81.32039h74.05382c3.20467,0,5.80645,2.60178,5.80645,5.80645v29.37599h-85.66672v-29.37599c0-3.20467,2.60178-5.80645,5.80645-5.80645Z"/>
    <rect class="cls-2" x="279.66664" y="144.36944" width="85.66672" height="296.01202"/>
    <path d="M282.89795,46.62598c-2.47705,0-4.62793-1.83984-4.95264-4.36182-.35303-2.73877,1.58154-5.24512,4.32031-5.59766l79.19141-10.19971c2.74023-.35352,5.24512,1.58154,5.59766,4.32031,.35303,2.73877-1.58154,5.24512-4.32031,5.59766l-79.19141,10.19971c-.2168,.02783-.43213,.0415-.64502,.0415Z"/>
    <path d="M282.89795,68.97461c-2.47705,0-4.62793-1.83984-4.95264-4.36182-.35303-2.73877,1.58154-5.24512,4.32031-5.59766l79.19141-10.19971c2.74023-.34961,5.24512,1.58154,5.59766,4.32031,.35303,2.73877-1.58154,5.24512-4.32031,5.59766l-79.19141,10.19971c-.2168,.02783-.43213,.0415-.64502,.0415Z"/>
    <path class="cls-3" d="M379.30936,468.24806h56.68652c7.77875,0,14.56706-5.27519,16.48821-12.81296l.00004-.00018c27.27007-106.99607,27.27007-219.12286,0-326.11893l-.00004-.00018c-1.92115-7.53778-8.70946-12.81296-16.48821-12.81296h-56.68652l3.26568,12.81314c27.27007,106.99607,27.27007,219.12286,0,326.11893l-3.26568,12.81314Z"/>
    <path class="cls-4" d="M452.48413,129.31597l-.00005-.00018c-1.92115-7.53777-8.70946-12.81296-16.48821-12.81296h-10.90839l3.26569,12.81314c27.27009,106.99607,27.27009,219.12288,0,326.11895l-3.26569,12.81314h10.90839c7.77874,0,14.56706-5.27519,16.48821-12.81296l.00005-.00018c27.27009-106.99607,27.27009-219.12288,0-326.11895Z"/>
    <path d="M435.99609,473.24805h-56.68652c-1.54346,0-3.00098-.71289-3.94824-1.93213-.94727-1.21875-1.27832-2.80664-.89697-4.30273l3.26562-12.81299c25.41748-99.72803,26.89062-205.50781,4.26074-305.90283-.60742-2.69385,1.08398-5.37012,3.77783-5.97705,2.69629-.60693,5.37061,1.08447,5.97705,3.77783,22.97559,101.92773,21.47998,209.32129-4.3252,310.57178l-1.67676,6.57812h50.25244c5.49756,0,10.28516-3.7207,11.64258-9.04785,26.98291-105.8667,26.98291-217.78271,0-323.64941-1.35742-5.32715-6.14502-9.04785-11.64258-9.04785h-56.68652c-2.76123,0-5-2.23877-5-5s2.23877-5,5-5h56.68652c10.07324,0,18.8457,6.81738,21.33301,16.57812,27.39453,107.48242,27.39453,221.10645,0,328.58887-2.48779,9.76074-11.26025,16.57812-21.33301,16.57812Z"/>
    <path class="cls-1" d="M359.52689,81.32036h-22.36983c3.20677,0,5.80645,2.59963,5.80645,5.80645v29.37598h22.36983v-29.37598c0-3.20683-2.59963-5.80645-5.80645-5.80645Z"/>
    <polygon class="cls-1" points="350.71721 116.50279 342.44433 144.36939 365.33335 144.36939 378.445 116.50279 350.71721 116.50279"/>
    <polygon class="cls-1" points="365.33335 440.38147 342.44427 440.38147 350.71721 468.24801 378.445 468.24801 365.33335 440.38147"/>
    <rect class="cls-1" x="342.44433" y="144.36945" width="22.88902" height="296.01202"/>
    <path d="M290.78809,86.32031c-2.76123,0-5-2.23877-5-5V21.80664c0-5.95898,4.84766-10.80664,10.80664-10.80664h51.81055c5.95898,0,10.80664,4.84766,10.80664,10.80664V54.78955c0,2.76123-2.23877,5-5,5s-5-2.23877-5-5V21.80664c0-.44482-.36182-.80664-.80664-.80664h-51.81055c-.44482,0-.80664,.36182-.80664,.80664v59.51367c0,2.76123-2.23877,5-5,5Z"/>
    <path d="M365.33008,149.37061c-.71289,0-1.4375-.15283-2.125-.47656-2.49902-1.17578-3.57129-4.1543-2.396-6.65283l9.75732-20.73828h-96.13281l9.75732,20.73828c1.17529,2.49854,.10303,5.47705-2.396,6.65283-2.49805,1.1748-5.47754,.10303-6.65283-2.396l-13.11133-27.86621c-.72852-1.54883-.61426-3.36279,.30273-4.80811,.91748-1.44531,2.50977-2.3208,4.22168-2.3208h111.88965c1.71191,0,3.3042,.87549,4.22168,2.3208,.91699,1.44531,1.03125,3.25928,.30273,4.80811l-13.11133,27.86621c-.85205,1.81104-2.65088,2.87256-4.52783,2.87256Z"/>
    <path d="M378.44482,473.24805h-111.88965c-1.71191,0-3.3042-.87549-4.22168-2.3208-.91699-1.44531-1.03125-3.25928-.30273-4.80811l13.11133-27.86621c1.17529-2.49902,4.15479-3.57275,6.65283-2.396,2.49902,1.17578,3.57129,4.1543,2.396,6.65283l-9.75732,20.73828h96.13281l-8.40625-17.8667h-19.71582c-2.76123,0-5-2.23877-5-5s2.23877-5,5-5h22.88916c1.93701,0,3.69971,1.11865,4.52441,2.87158l13.11133,27.86621c.72852,1.54883,.61426,3.36279-.30273,4.80811-.91748,1.44531-2.50977,2.3208-4.22168,2.3208Z"/>
    <path d="M365.3335,121.50293c-2.76123,0-5-2.23877-5-5v-29.37598c0-.44482-.36182-.80664-.80664-.80664h-74.05371c-.44482,0-.80664,.36182-.80664,.80664v29.37598c0,2.76123-2.23877,5-5,5s-5-2.23877-5-5v-29.37598c0-5.95898,4.84766-10.80664,10.80664-10.80664h74.05371c5.95898,0,10.80664,4.84766,10.80664,10.80664v29.37598c0,2.76123-2.23877,5-5,5Z"/>
    <path d="M365.3335,445.38135c-2.76123,0-5-2.23877-5-5V149.36963h-17.88916c-2.76123,0-5-2.23877-5-5s2.23877-5,5-5h22.88916c2.76123,0,5,2.23877,5,5V440.38135c0,2.76123-2.23877,5-5,5Z"/>
    <path d="M279.6665,445.38135c-2.76123,0-5-2.23877-5-5V144.36963c0-2.76123,2.23877-5,5-5s5,2.23877,5,5V440.38135c0,2.76123-2.23877,5-5,5Z"/>
    <path d="M346.9126,501h-48.8252c-18.05957,0-32.75195-14.69238-32.75195-32.75195,0-2.76123,2.23877-5,5-5h104.3291c2.76123,0,5,2.23877,5,5,0,18.05957-14.69238,32.75195-32.75195,32.75195Zm-71.02344-27.75195c2.28467,10.14795,11.37012,17.75195,22.19824,17.75195h48.8252c10.82812,0,19.91357-7.604,22.19824-17.75195h-93.22168Z"/>
  </g>
  <g>
    <path class="cls-2" d="M163.59458,16h51.81084c3.20467,0,5.80645,2.60178,5.80645,5.80645v59.51393h-63.42374V21.80645c0-3.20467,2.60178-5.80645,5.80645-5.80645Z"/>
    <path class="cls-1" d="M215.40542,16h-12.8836v9.70393c0,24.70571-20.02793,44.73364-44.73364,44.73364h-.00004v10.88279h63.42374V21.80645c0-3.20682-2.59964-5.80645-5.80645-5.80645Z"/>
    <polygon class="cls-2" points="232.33336 144.3694 146.66664 144.3694 133.55501 116.50283 245.44499 116.50283 232.33336 144.3694"/>
    <polygon class="cls-2" points="146.66663 440.38148 232.33335 440.38146 245.44498 468.24802 133.55501 468.24806 146.66663 440.38148"/>
    <path class="cls-1" d="M137.33566,468.24806h104.32867v.00003c0,15.3167-12.43522,27.75191-27.75191,27.75191h-48.82485c-15.3167,0-27.75191-12.43522-27.75191-27.75191v-.00003h0Z"/>
    <path class="cls-2" d="M152.47309,81.32039h74.05382c3.20467,0,5.80645,2.60178,5.80645,5.80645v29.37599h-85.66672v-29.37599c0-3.20467,2.60178-5.80645,5.80645-5.80645Z"/>
    <rect class="cls-2" x="146.66664" y="144.36944" width="85.66672" height="296.01202"/>
    <path d="M149.89795,46.62598c-2.47705,0-4.62793-1.83984-4.95264-4.36182-.35303-2.73877,1.58154-5.24512,4.32031-5.59766l79.19141-10.19971c2.74268-.35352,5.24512,1.58154,5.59766,4.32031,.35303,2.73877-1.58154,5.24512-4.32031,5.59766l-79.19141,10.19971c-.2168,.02783-.43213,.0415-.64502,.0415Z"/>
    <path d="M149.89795,68.97461c-2.47705,0-4.62793-1.83984-4.95264-4.36182-.35303-2.73877,1.58154-5.24512,4.32031-5.59766l79.19141-10.19971c2.74268-.34961,5.24512,1.58154,5.59766,4.32031,.35303,2.73877-1.58154,5.24512-4.32031,5.59766l-79.19141,10.19971c-.2168,.02783-.43213,.0415-.64502,.0415Z"/>
    <path class="cls-3" d="M132.69064,468.24806h-56.68652c-7.77875,0-14.56706-5.27519-16.48821-12.81296l-.00004-.00018c-27.27007-106.99607-27.27007-219.12286,0-326.11893l.00004-.00018c1.92115-7.53778,8.70946-12.81296,16.48821-12.81296h56.68652l-3.26568,12.81314c-27.27007,106.99607-27.27007,219.12286,0,326.11893l3.26568,12.81314Z"/>
    <path class="cls-3" d="M246.30936,468.24806h56.68652c7.77875,0,14.56706-5.27519,16.48821-12.81296l.00004-.00018c27.27007-106.99607,27.27007-219.12286,0-326.11893l-.00004-.00018c-1.92115-7.53778-8.70946-12.81296-16.48821-12.81296h-56.68652l3.26568,12.81314c27.27007,106.99607,27.27007,219.12286,0,326.11893l-3.26568,12.81314Z"/>
    <path class="cls-4" d="M319.48413,129.31597l-.00005-.00018c-1.92115-7.53777-8.70946-12.81296-16.48821-12.81296h-10.90839l3.26569,12.81314c27.27009,106.99607,27.27009,219.12288,0,326.11895l-3.26569,12.81314h10.90839c7.77874,0,14.56706-5.27519,16.48821-12.81296l.00005-.00018c27.27009-106.99607,27.27009-219.12288,0-326.11895Z"/>
    <path class="cls-4" d="M59.51587,129.31597l.00005-.00018c1.92115-7.53777,8.70946-12.81296,16.48821-12.81296h10.90839l-3.26569,12.81314c-27.27009,106.99607-27.27009,219.12288,0,326.11895l3.26569,12.81314h-10.90839c-7.77874,0-14.56706-5.27519-16.48821-12.81296l-.00005-.00018c-27.27009-106.99607-27.27009-219.12288,0-326.11895Z"/>
    <path d="M132.69043,473.24805h-56.68652c-10.07275,0-18.84521-6.81738-21.33301-16.57812-27.39404-107.48193-27.39453-221.10645-.00049-328.58887,2.48828-9.76123,11.26074-16.57812,21.3335-16.57812h56.68652c1.54346,0,3.00098,.71289,3.94824,1.93213,.94727,1.21875,1.27832,2.80664,.89697,4.30273l-3.26562,12.81299c-25.21973,98.95215-26.86768,203.94971-4.76611,303.64209,.59766,2.6958-1.10303,5.36572-3.79932,5.96338-2.69531,.60059-5.36621-1.10352-5.96338-3.79932-22.43945-101.21338-20.76611-207.81348,4.83838-308.27588l1.67676-6.57812h-50.25244c-5.49756,0-10.28516,3.7207-11.64258,9.04785-26.98242,105.86621-26.98291,217.78271-.00049,323.64941,1.35791,5.32715,6.14551,9.04785,11.64307,9.04785h56.68652c2.76123,0,5,2.23877,5,5s-2.23877,5-5,5Z"/>
    <path d="M302.99609,473.24805h-56.68652c-1.54346,0-3.00098-.71289-3.94824-1.93213-.94727-1.21875-1.27832-2.80664-.89697-4.30273l3.26562-12.81299c25.41748-99.72803,26.89062-205.50781,4.26074-305.90283-.60742-2.69385,1.08398-5.37012,3.77783-5.97705,2.6958-.60693,5.37012,1.08447,5.97705,3.77783,22.97559,101.92773,21.47998,209.32129-4.3252,310.57178l-1.67676,6.57812h50.25244c5.49756,0,10.28516-3.7207,11.64258-9.04785,26.98291-105.8667,26.98291-217.78271,0-323.64941-1.35742-5.32715-6.14502-9.04785-11.64258-9.04785h-56.68652c-2.76123,0-5-2.23877-5-5s2.23877-5,5-5h56.68652c10.07324,0,18.8457,6.81738,21.33301,16.57812,27.39453,107.48242,27.39453,221.10645,0,328.58887-2.48779,9.76074-11.26025,16.57812-21.33301,16.57812Z"/>
    <path class="cls-1" d="M226.52689,81.32036h-22.36983c3.20677,0,5.80645,2.59963,5.80645,5.80645v29.37598h22.36983v-29.37598c0-3.20683-2.59963-5.80645-5.80645-5.80645Z"/>
    <polygon class="cls-1" points="217.71721 116.50279 209.44433 144.36939 232.33335 144.36939 245.445 116.50279 217.71721 116.50279"/>
    <polygon class="cls-1" points="232.33335 440.38147 209.44427 440.38147 217.71721 468.24801 245.445 468.24801 232.33335 440.38147"/>
    <rect class="cls-1" x="209.44433" y="144.36945" width="22.88902" height="296.01202"/>
    <path d="M221.21191,86.32031h-63.42383c-2.76123,0-5-2.23877-5-5V21.80664c0-5.95898,4.84766-10.80664,10.80664-10.80664h51.81055c5.95898,0,10.80664,4.84766,10.80664,10.80664v59.51367c0,2.76123-2.23877,5-5,5Zm-58.42383-10h53.42383V21.80664c0-.44482-.36182-.80664-.80664-.80664h-51.81055c-.44482,0-.80664,.36182-.80664,.80664v54.51367Z"/>
    <path d="M232.33008,149.37061c-.71289,0-1.4375-.15283-2.125-.47656-2.49902-1.17578-3.57129-4.1543-2.396-6.65283l9.75732-20.73828h-96.13281l9.75732,20.73828c1.17529,2.49854,.10303,5.47705-2.396,6.65283-2.49707,1.1748-5.47705,.10303-6.65283-2.396l-13.11133-27.86621c-.72852-1.54883-.61426-3.36279,.30273-4.80811,.91748-1.44531,2.50977-2.3208,4.22168-2.3208h111.88965c1.71191,0,3.3042,.87549,4.22168,2.3208,.91699,1.44531,1.03125,3.25928,.30273,4.80811l-13.11133,27.86621c-.85205,1.81104-2.65088,2.87256-4.52783,2.87256Z"/>
    <path d="M245.44482,473.24805h-111.88965c-1.71191,0-3.3042-.87549-4.22168-2.3208-.91699-1.44531-1.03125-3.25928-.30273-4.80811l13.11133-27.86621c1.17578-2.49902,4.15576-3.57275,6.65283-2.396,2.49902,1.17578,3.57129,4.1543,2.396,6.65283l-9.75732,20.73828h96.13281l-8.40625-17.8667h-52.61865c-2.76123,0-5-2.23877-5-5s2.23877-5,5-5h55.79199c1.93701,0,3.69971,1.11865,4.52441,2.87158l13.11133,27.86621c.72852,1.54883,.61426,3.36279-.30273,4.80811-.91748,1.44531-2.50977,2.3208-4.22168,2.3208Z"/>
    <path d="M213.9126,501h-48.8252c-18.05957,0-32.75195-14.69238-32.75195-32.75195,0-2.76123,2.23877-5,5-5h104.3291c2.76123,0,5,2.23877,5,5s-2.23877,5-5,5h-98.77539c2.28467,10.14795,11.37012,17.75195,22.19824,17.75195h48.8252c6.07666,0,11.79053-2.3667,16.08838-6.66406,1.95312-1.95215,5.11865-1.95215,7.0708,.00049,1.95264,1.95264,1.95264,5.11816-.00049,7.0708-6.18652,6.18604-14.41113,9.59277-23.15869,9.59277Z"/>
    <path d="M232.3335,121.50293c-2.76123,0-5-2.23877-5-5v-29.37598c0-.44482-.36182-.80664-.80664-.80664h-74.05371c-.44482,0-.80664,.36182-.80664,.80664v5.97021c0,2.76123-2.23877,5-5,5s-5-2.23877-5-5v-5.97021c0-5.95898,4.84766-10.80664,10.80664-10.80664h74.05371c5.95898,0,10.80664,4.84766,10.80664,10.80664v29.37598c0,2.76123-2.23877,5-5,5Z"/>
    <path d="M232.3335,445.38135c-2.76123,0-5-2.23877-5-5V149.36963h-49.01367c-2.76123,0-5-2.23877-5-5s2.23877-5,5-5h54.01367c2.76123,0,5,2.23877,5,5V440.38135c0,2.76123-2.23877,5-5,5Z"/>
    <path d="M146.6665,445.38135c-2.76123,0-5-2.23877-5-5V144.36963c0-2.76123,2.23877-5,5-5s5,2.23877,5,5V440.38135c0,2.76123-2.23877,5-5,5Z"/>
  </g>
</svg>