<?xml version="1.0" encoding="UTF-8"?>
<svg id="Layer_1" data-name="Layer 1" xmlns="http://www.w3.org/2000/svg" viewBox="0 0 512 512">
  <defs>
    <style>
      .cls-1 {
        fill: #e7e8f1;
      }

      .cls-2 {
        fill: #ed5920;
      }

      .cls-3 {
        fill: #ff702e;
      }

      .cls-4 {
        fill: #c7c8ce;
      }

      .cls-5 {
        fill: #5f606b;
      }

      .cls-6 {
        fill: #51545a;
      }
    </style>
  </defs>
  <path class="cls-3" d="M199.78926,40.59958h42.03441c5.51915,0,10,4.48085,10,10v92.19097h-62.03441V50.59958c0-5.51915,4.48085-10,10-10Z"/>
  <path class="cls-2" d="M231.7553,40.59959v102.19091h20.06829V50.59959c0-5.52285-4.47715-10-10-10h-10.06829Z"/>
  <path d="M251.82373,142.80908c-2.76123,0-5-2.23877-5-5V50.59961c0-2.75684-2.24316-5-5-5h-42.03467c-2.75684,0-5,2.24316-5,5V114.96094c0,2.76123-2.23877,5-5,5s-5-2.23877-5-5V50.59961c0-8.271,6.729-15,15-15h42.03467c8.271,0,15,6.729,15,15v87.20947c0,2.76123-2.23877,5-5,5Z"/>
  <path class="cls-3" d="M461.15774,25.98824l-.00005-.00005c-12.8418-12.8418-33.49487-13.3663-46.97195-1.19288l-132.1668,119.38212,60.94955,60.94956,119.38212-132.16681c12.17342-13.47707,11.64892-34.13015-1.19288-46.97195Z"/>
  <path class="cls-2" d="M461.15778,25.98825v-.00007c-3.24669-3.24656-6.99347-5.70294-10.9963-7.36887,10.34908,12.892,10.02064,31.63804-1.30488,44.17642l-34.10776,37.76032c-19.91993,22.05314-49.93159,31.55395-79.12712,26.00724-6.08268-1.15562-12.3703-1.76155-18.81281-1.76155h-13.33946l-21.45051,19.37566,49.03569,49.03569,11.91379,11.91385,4.29996-4.76034v.00007l41.04908-45.44504v-.00007l74.03315-81.9614c12.17349-13.47707,11.64887-34.13015-1.19284-46.97193Z"/>
  <circle class="cls-1" cx="436.93065" cy="50.16116" r="15.32894"/>
  <path class="cls-4" d="M424.07332,58.56505c0-7.10092,5.75643-12.85735,12.85735-12.85735s12.85735,5.75643,12.85735,12.85735c0,.05161-.0071,.10144-.00774,.15289,1.00818-1.97024,1.58823-4.19615,1.58823-6.5614,0-7.97379-6.4641-14.43784-14.43784-14.43784s-14.43784,6.46405-14.43784,14.43784c0,2.36525,.57994,4.59122,1.58823,6.56151-.00065-.0515-.00774-.10133-.00774-.153Z"/>
  <path class="cls-3" d="M300.78115,142.79055H140.83184c-59.53471,0-105.87343,51.71244-99.36747,110.89053l10.07562,91.64707c2.12063,19.28918,9.64413,36.78538,20.95681,51.06437v78.90423c0,5.62963,3.3978,10.70256,8.60371,12.84536l19.09046,7.85787V240.39941c0-16.00205,12.97228-28.97427,28.97433-28.97427h183.28234c16.00218,0,28.97433,12.97221,28.97433,28.97427v255.60059l19.09052-7.85787c5.20584-2.14281,8.60371-7.21574,8.60371-12.84536v-78.90436c11.31274-14.27906,18.83617-31.77513,20.95681-51.06424l10.07555-91.64707c6.50603-59.17809-39.83263-110.89053-99.3674-110.89053Z"/>
  <path class="cls-2" d="M85.64933,490.01447l14.54162,5.98553V240.39947c0-16.00208,12.97225-28.97433,28.97433-28.97433h183.28234c16.00208,0,28.97433,12.97225,28.97433,28.97433v255.60052l14.54169-5.98553V227.75296c0-25.60885-20.76007-46.36892-46.36892-46.36892H132.01825c-25.60885,0-46.36892,20.76007-46.36892,46.36892V490.01447Z"/>
  <path class="cls-5" d="M140.33113,491.68352l-40.14015,4.31648v-55.5658l40.14015,4.31648c5.42784,.58368,9.54288,5.16495,9.54288,10.62409v25.68467c0,5.45914-4.11503,10.04041-9.54288,10.62409Z"/>
  <path class="cls-5" d="M301.28186,491.68352l40.14015,4.31648v-55.5658l-40.14015,4.31648c-5.42784,.58368-9.54288,5.16495-9.54288,10.62409v25.68467c0,5.45914,4.11503,10.04041,9.54288,10.62409Z"/>
  <circle class="cls-3" cx="220.80647" cy="176.63721" r="49.69837"/>
  <circle class="cls-1" cx="220.80647" cy="176.63721" r="24.17411"/>
  <path class="cls-4" d="M206.39139,184.10213c0-12.08401,9.79596-21.88003,21.87997-21.88003,5.95363,0,11.34483,2.38548,15.28974,6.24333-3.35091-9.329-12.27223-16.00231-22.75461-16.00231-13.351,0-24.17415,10.82308-24.17415,24.17408,0,10.48245,6.67332,19.40364,16.00218,22.75454-3.85778-3.94491-6.24314-9.33604-6.24314-15.28961Z"/>
  <path class="cls-2" d="M250.00792,136.4325c5.96563,8.19916,9.4938,18.28593,9.4938,29.20162,0,27.44764-22.2506,49.69838-49.69838,49.69838-10.91556,0-21.00226-3.52817-29.20142-9.49367,9.035,12.41773,23.67255,20.49676,40.20457,20.49676,27.44771,0,49.69831-22.25073,49.69831-49.69838,0-16.53208-8.07896-31.16971-20.49689-40.2047Z"/>
  <path class="cls-6" d="M326.47865,442.04115v14.01219c0,14.52912-12.60192,25.84854-27.04776,24.2951l-7.69183-.82715v1.53815c0,5.45915,4.11504,10.04043,9.5429,10.62411l40.14004,4.31645v-55.56582l-14.94336,1.60697Z"/>
  <path class="cls-6" d="M115.13434,442.04115v14.01219c0,14.52912,12.60192,25.84854,27.04776,24.2951l7.69183-.82715v1.53815c0,5.45915-4.11504,10.04043-9.5429,10.62411l-40.14004,4.31645v-55.56582l14.94336,1.60697Z"/>
  <path d="M391.75439,156.11475c-1.19482,0-2.39355-.42578-3.3501-1.28955-2.04932-1.85107-2.20996-5.0127-.35889-7.06201l70.59473-78.15479c10.39648-11.50977,9.94922-29.11719-1.01807-40.08447-10.9668-10.96777-28.5752-11.41406-40.08496-1.01807l-130.63135,117.99512c-2.04932,1.85059-5.21045,1.69043-7.06201-.35889-1.85107-2.04932-1.69043-5.21094,.35889-7.06201L410.83398,21.08496c15.46533-13.96875,39.12354-13.36768,53.85938,1.36768,14.73584,14.73633,15.33691,38.39355,1.36768,53.85889l-70.59473,78.15479c-.9873,1.09277-2.34717,1.64844-3.71191,1.64844Z"/>
  <path d="M436.93066,70.49023c-11.20947,0-20.3291-9.11963-20.3291-20.3291s9.11963-20.3291,20.3291-20.3291,20.3291,9.11963,20.3291,20.3291-9.11963,20.3291-20.3291,20.3291Zm0-30.6582c-5.69531,0-10.3291,4.63379-10.3291,10.3291s4.63379,10.3291,10.3291,10.3291,10.3291-4.63379,10.3291-10.3291-4.63379-10.3291-10.3291-10.3291Z"/>
  <path d="M100.19043,501c-.64355,0-1.29004-.12402-1.90283-.37646l-19.09033-7.85791c-7.10791-2.92529-11.70068-9.78223-11.70068-17.46875v-77.1875c-11.60645-15.16553-18.83252-33.1875-20.92676-52.23486l-10.07568-91.64697c-3.25586-29.61719,6.28076-59.33008,26.16504-81.52051,19.88428-22.18994,48.37744-34.9165,78.17285-34.9165h42.38916c2.76123,0,5,2.23877,5,5s-2.23877,5-5,5h-42.38916c-26.95703,0-52.73535,11.51416-70.7251,31.59033-17.99023,20.07568-26.61816,46.9585-23.67236,73.75391l10.07568,91.64697c1.95215,17.76025,8.83545,34.5332,19.90527,48.50586,.7002,.88379,1.08105,1.97754,1.08105,3.10498v78.9043c0,3.61768,2.16162,6.84473,5.50684,8.22168l12.1875,5.0166V240.39941c0-18.7334,15.24072-33.97412,33.97461-33.97412h27.26514c2.76123,0,5,2.23877,5,5s-2.23877,5-5,5h-27.26514c-13.21973,0-23.97461,10.75488-23.97461,23.97412v255.60059c0,1.66797-.83154,3.22607-2.21729,4.1543-.83545,.55957-1.80615,.8457-2.7832,.8457Z"/>
  <path d="M341.42236,501c-.97705,0-1.94727-.28613-2.7832-.8457-1.38574-.92822-2.21729-2.48633-2.21729-4.1543V240.39941c0-13.21924-10.75488-23.97412-23.97412-23.97412h-56.16162c-2.76123,0-5-2.23877-5-5s2.23877-5,5-5h56.16162c18.7334,0,33.97412,15.24072,33.97412,33.97412v248.13574l12.1875-5.0166c3.34521-1.37695,5.50684-4.604,5.50684-8.22168v-78.9043c0-1.12695,.38086-2.22119,1.08105-3.10498,11.06934-13.97266,17.95312-30.74609,19.90576-48.50586l10.0752-91.64697c2.94629-26.79541-5.68164-53.67773-23.67139-73.75391-17.99023-20.07617-43.76855-31.59033-70.72559-31.59033h-42.57861c-2.76123,0-5-2.23877-5-5s2.23877-5,5-5h42.57861c29.7959,0,58.28857,12.72656,78.17285,34.91699,19.88428,22.18994,29.4209,51.90283,26.16455,81.52002l-10.0752,91.64697c-2.09473,19.04688-9.32129,37.06934-20.92725,52.23486v77.1875c0,7.68652-4.59277,14.54346-11.70068,17.46875l-19.09033,7.85791c-.61279,.25244-1.25928,.37646-1.90283,.37646Z"/>
  <path d="M100.19092,501c-1.22754,0-2.41895-.45215-3.34131-1.28027-1.05566-.94824-1.65869-2.30078-1.65869-3.71973v-55.56592c0-1.41895,.60303-2.77148,1.65869-3.71973s2.46387-1.4043,3.87598-1.25146l40.14014,4.31641c7.98633,.85889,14.0083,7.56396,14.0083,15.5957v25.68457c0,8.03174-6.02197,14.73633-14.0083,15.59521h0l-40.14014,4.31641c-.17871,.01953-.35693,.02881-.53467,.02881Zm40.14014-9.31641h0Zm-35.14014-45.68311v44.43311l34.60547-3.72119c2.89453-.31152,5.07764-2.7417,5.07764-5.65283v-25.68457c0-2.91162-2.18311-5.3418-5.07764-5.65332l-34.60547-3.72119Z"/>
  <path d="M341.42822,501.00049c-.17871,0-.35938-.00977-.54102-.0293l-40.14014-4.31641c-7.98633-.85889-14.0083-7.56348-14.0083-15.59521v-25.68457c0-8.03174,6.02197-14.73682,14.0083-15.5957l16.45459-1.76904c2.74463-.2959,5.21143,1.69141,5.50586,4.43652,.29541,2.74561-1.69092,5.21094-4.43652,5.50586l-16.45459,1.76904c-2.89453,.31152-5.07764,2.7417-5.07764,5.65332v25.68457c0,2.91113,2.18311,5.34131,5.07764,5.65283l40.14014,4.31641c2.74561,.29492,4.73193,2.76025,4.43652,5.50586-.27539,2.56396-2.44336,4.46582-4.96484,4.46582Z"/>
  <path d="M220.80664,231.33545c-30.16113,0-54.69873-24.5376-54.69873-54.69824s24.5376-54.69824,54.69873-54.69824,54.69824,24.5376,54.69824,54.69824-24.5376,54.69824-54.69824,54.69824Zm0-99.39648c-24.64697,0-44.69873,20.05176-44.69873,44.69824s20.05176,44.69824,44.69873,44.69824,44.69824-20.05176,44.69824-44.69824-20.05176-44.69824-44.69824-44.69824Z"/>
  <path d="M220.80664,205.81152c-16.08691,0-29.17432-13.0874-29.17432-29.17432s13.0874-29.17432,29.17432-29.17432,29.17383,13.0874,29.17383,29.17432-13.0874,29.17432-29.17383,29.17432Zm0-48.34863c-10.57275,0-19.17432,8.60156-19.17432,19.17432s8.60156,19.17432,19.17432,19.17432,19.17383-8.60156,19.17383-19.17432-8.60156-19.17432-19.17383-19.17432Z"/>
</svg>