<?xml version="1.0" encoding="UTF-8"?>
<svg id="Layer_1" data-name="Layer 1" xmlns="http://www.w3.org/2000/svg" viewBox="0 0 512 512">
  <defs>
    <style>
      .cls-1 {
        fill: #ed5920;
      }

      .cls-2 {
        fill: #ff702e;
      }

      .cls-3 {
        fill: #5f606b;
      }

      .cls-4 {
        fill: #51545a;
      }
    </style>
  </defs>
  <path class="cls-2" d="M490.98468,121.84803c4.54865,0,6.74849-5.60256,3.39244-8.67291-50.48228-46.18464-117.71377-74.36249-191.52743-74.36249C146.09537,38.81263,19.02085,165.88715,19.02085,322.64146c0,21.36291,2.37692,42.16829,6.85065,62.18216h41.92991c-5.45275-20.6655-8.26658-42.40263-8.02595-64.83705,1.44836-135.03583,111.59393-242.34197,246.62368-240.40808,42.20602,.60447,81.80443,11.9721,116.18559,31.47289,12.32007,6.98787,26.18554,10.79666,40.34939,10.79666h28.05055Z"/>
  <path class="cls-1" d="M287.8999,73.66817c-136.842,0-247.77456,110.9325-247.77456,247.77456,0,21.90925,2.85679,43.14892,8.19508,63.38086h19.48091c-5.23733-19.84929-8.04015-40.68724-8.04015-62.18211,0-134.254,108.83459-243.0884,243.08852-243.0884,30.85748,0,60.36608,5.75989,87.52281,16.24907-31.23016-14.20999-65.92374-22.13398-102.47261-22.13398Z"/>
  <path class="cls-3" d="M71.25446,396.67089c-1.24818-3.90691-2.40015-7.85689-3.45305-11.84727H25.85903l.10854,.62053c4.61899,26.40757,1.36202,53.59061-9.36478,78.15951l-.00003,.00006c-2.76403,6.33079,4.55758,12.28476,10.19189,8.2881l25.69632-18.2275c18.07977-12.82475,25.50934-35.87837,18.76349-56.99344Z"/>
  <path d="M46.25195,358.5835c-2.49414,0-4.65137-1.86328-4.95752-4.40186-.33057-2.7417,1.62354-5.23193,4.36523-5.5625l253.63135-30.58447,93.74414-237.77295c1.0127-2.56885,3.91602-3.82959,6.48535-2.81738,2.56934,1.0127,3.83008,3.9165,2.81738,6.48535l-94.83691,240.5459c-.67383,1.7085-2.22949,2.91016-4.05273,3.12988l-256.59131,30.94141c-.20312,.02441-.40527,.03662-.60498,.03662Z"/>
  <path class="cls-4" d="M71.25441,396.67087c-1.24816-3.9069-2.4001-7.85687-3.45308-11.84728h-18.76534c1.05297,3.99041,2.20492,7.94038,3.45308,11.84728,6.74587,21.11509-.68379,44.16867-18.76347,56.99346l-17.71735,12.56765c-.1315,5.18292,5.94679,9.09282,10.78639,5.65987l25.69643-18.22751c18.07969-12.82478,25.50922-35.87837,18.76335-56.99346Z"/>
  <circle class="cls-3" cx="302.84969" cy="322.64146" r="21.1024"/>
  <circle class="cls-4" cx="302.84969" cy="322.64146" r="8.86319"/>
  <path d="M302.84961,348.74365c-14.39258,0-26.10254-11.70947-26.10254-26.10205,0-6.6958,2.53223-13.06201,7.12988-17.92725,1.89746-2.00537,5.06152-2.09619,7.06836-.19922,2.00684,1.89648,2.0957,5.06104,.19922,7.06836-2.83594,3.00049-4.39746,6.92773-4.39746,11.05811,0,8.87891,7.22363,16.10205,16.10254,16.10205s16.10254-7.22314,16.10254-16.10205c0-6.65967-4.00195-12.54199-10.19531-14.98633-2.56934-1.01367-3.83008-3.91748-2.81641-6.48633,1.01465-2.56885,3.9209-3.82764,6.48633-2.81543,10.03906,3.96094,16.52539,13.49463,16.52539,24.28809,0,14.39258-11.70996,26.10205-26.10254,26.10205Z"/>
  <path d="M61.48535,356.74658c-2.49609,0-4.6543-1.86621-4.95801-4.40625-1.27832-10.68213-1.86768-21.58545-1.75146-32.40771,.71436-66.61084,27.23242-128.77344,74.66992-175.03711,47.47363-46.29932,110.39746-71.25635,177.0249-70.31641,30.15137,.43164,59.55469,6.22217,87.39551,17.21143,2.56836,1.01416,3.8291,3.91797,2.81445,6.48682-1.0127,2.56885-3.91797,3.82764-6.48633,2.81494-26.71191-10.54395-54.92871-16.1001-83.86621-16.51416-63.98096-.92529-124.34375,23.04639-169.90039,67.47656-45.52002,44.39404-70.9668,104.05225-71.65283,167.98535-.11084,10.39062,.45459,20.8584,1.68115,31.1123,.32812,2.7417-1.62842,5.23047-4.37061,5.55811-.20117,.02441-.40186,.03613-.6001,.03613Z"/>
  <path d="M25.8667,389.82471c-2.28955,.00049-4.35449-1.58252-4.87451-3.91016-4.62598-20.69434-6.97119-41.98242-6.97119-63.27295,0-77.14893,30.04346-149.68018,84.5957-204.23291,54.55273-54.55273,127.08398-84.59619,204.23291-84.59619,72.34473,0,141.5625,26.875,194.90234,75.67383,3.05762,2.79688,4.0625,7.104,2.55957,10.97266-1.50781,3.88135-5.16895,6.38916-9.32715,6.38916h-28.0498c-14.80664,0-29.6123-3.9585-42.81641-11.44775-2.40234-1.3623-3.24512-4.41406-1.88281-6.81592,1.36328-2.40186,4.41504-3.24414,6.81641-1.88232,11.70312,6.6377,24.80273,10.146,37.88281,10.146h28.0459c-51.51562-47.10742-118.31641-73.03564-188.13086-73.03564-74.47803,0-144.49805,29.00342-197.16162,81.66699C53.02441,178.14355,24.021,248.16357,24.021,322.6416c0,20.55811,2.26416,41.1123,6.72998,61.09131,.60254,2.69482-1.09375,5.36816-3.78857,5.97021-.36719,.08203-.73438,.12158-1.0957,.12158Z"/>
  <path d="M22.8418,478.17773c-2.6333,0-5.25732-.89697-7.44678-2.67725-4.16748-3.38916-5.52393-8.97412-3.375-13.89746,10.36572-23.74121,13.48584-49.77881,9.02246-75.29736l-.1084-.61768c-.47705-2.72021,1.34082-5.31201,4.06055-5.78906,2.72559-.47705,5.31201,1.34082,5.78906,4.06055l.10889,.62061c4.80273,27.46094,1.44629,55.47754-9.70703,81.02393-.45703,1.04639,.02979,1.74023,.51855,2.1377,.48877,.39697,1.26611,.73242,2.19727,.07178l25.69727-18.22705c16.24365-11.52295,23.03271-32.17676,16.89307-51.39404-.88135-2.75879-1.72217-5.56104-2.51025-8.36865h-12.54199c-2.76123,0-5-2.23877-5-5s2.23877-5,5-5h16.36182c2.27002,0,4.25488,1.5293,4.83447,3.72412,1.02441,3.88135,2.16211,7.78467,3.38135,11.60156,7.47119,23.38428-.82031,48.53857-20.63281,62.59326l-25.69727,18.22705c-2.0791,1.4751-4.46582,2.20801-6.84521,2.20801Z"/>
</svg>