<?xml version="1.0" encoding="UTF-8"?>
<svg id="Layer_1" data-name="Layer 1" xmlns="http://www.w3.org/2000/svg" viewBox="0 0 512 512">
  <defs>
    <style>
      .cls-1 {
        fill: #ed5920;
      }

      .cls-2 {
        fill: #ff702e;
      }

      .cls-3 {
        fill: #5f606b;
      }

      .cls-4 {
        fill: #51545a;
      }
    </style>
  </defs>
  <path class="cls-2" d="M362.85596,16h-118.48169c-18.67554,0-33.81519,15.13959-33.81519,33.81519v45.1145c0,6.71912,5.44702,12.16602,12.16602,12.16602h161.78027c6.71899,0,12.16602-5.4469,12.16602-12.16602V49.81519c0-18.6756-15.13965-33.81519-33.81543-33.81519Zm-107.99341,66.11914c-11.36108,0-20.57129-9.21008-20.57129-20.57129s9.21021-20.57129,20.57129-20.57129,20.57129,9.21008,20.57129,20.57129-9.20996,20.57129-20.57129,20.57129Zm97.50513,0c-11.36108,0-20.57129-9.21008-20.57129-20.57129s9.21021-20.57129,20.57129-20.57129,20.57129,9.21008,20.57129,20.57129-9.20996,20.57129-20.57129,20.57129Z"/>
  <path class="cls-2" d="M340.8153,107.09574h-77.51335l-31.66672,97.28509c-1.88862,5.80212,.81284,12.10574,6.3168,14.73973l19.81068,9.48065c5.73406,2.74411,12.61413,.61114,15.79034-4.89533l67.26226-116.61014Z"/>
  <polyline class="cls-3" points="257.7627 228.60122 173.145 434.90946 153.33432 425.42881 237.95203 219.12057"/>
  <rect class="cls-2" x="120.72001" y="425.79031" width="59.15189" height="66.51414" rx="16.64706" ry="16.64706" transform="translate(187.79276 -22.52023) rotate(22.58118)"/>
  <path class="cls-4" d="M237.95215,219.12054l-5.979,14.57715h.00001c6.51754,3.119,9.46871,10.78201,6.72686,17.46697l-73.75397,179.82099,8.19897,3.92377,84.61768-206.30823-19.81055-9.48065Z"/>
  <path class="cls-1" d="M180.48193,436.99792c-.20947,.94653-.48877,1.88898-.87402,2.81537l-5.1987,12.50054c-7.70439,18.5256-28.96798,27.29793-47.49359,19.59358l-5.70248-2.37152c-2.12109-.88208-3.96289-2.1521-5.47778-3.69336-1.70972,7.72742,2.28979,15.80255,9.85254,18.94769l23.87524,9.9292c8.48904,3.53041,18.23272-.48935,21.76313-8.97839l12.7564-30.67335c2.64819-6.3681,1.04761-13.44208-3.50073-18.06976Z"/>
  <path class="cls-1" d="M263.302,107.0957l-4.28687,13.1698h8.16399c21.36569,0,34.72297,23.12472,24.0476,41.63226l-37.39127,64.82398,3.92725,1.87946c5.73413,2.74414,12.61426,.61115,15.79028-4.89532l67.26245-116.61017h-77.51343Z"/>
  <path class="cls-1" d="M378.18994,19.6795c1.7666,4.10022,2.74902,8.61743,2.74902,13.36542v20.54197c0,20.29017-16.44844,36.73861-36.73861,36.73861H210.55908v4.60419c0,6.7191,5.44691,12.16602,12.16602,12.16602h161.78027c6.7191,0,12.16602-5.44691,12.16602-12.16602V49.81519c0-13.15344-7.51514-24.54437-18.48145-30.13568Z"/>
  <path d="M384.50488,112.0957H222.72559c-9.46582,0-17.16602-7.70068-17.16602-17.16602V49.81543c0-21.40283,17.41211-38.81543,38.81445-38.81543h118.48242c21.40234,0,38.81445,17.4126,38.81445,38.81543v45.11426c0,9.46533-7.7002,17.16602-17.16602,17.16602ZM244.37402,21c-15.88867,0-28.81445,12.92676-28.81445,28.81543v45.11426c0,3.95117,3.21484,7.16602,7.16602,7.16602h161.7793c3.95117,0,7.16602-3.21484,7.16602-7.16602V49.81543c0-15.88867-12.92578-28.81543-28.81445-28.81543h-118.48242Z"/>
  <path d="M262.9502,234.77637c-2.48047,0-4.9873-.53662-7.3457-1.66504l-19.81055-9.48047c-7.73438-3.70117-11.56738-12.64209-8.91406-20.79688l23.40527-71.90332c.85449-2.62549,3.6748-4.0625,6.30273-3.20654,2.62598,.85449,4.06152,3.67627,3.20703,6.30225l-23.40527,71.90234c-1.10742,3.40381,.49219,7.13672,3.7207,8.68164l19.81055,9.48047c3.35645,1.60645,7.44238,.34082,9.30078-2.88281l67.2627-116.61035c1.37891-2.39209,4.43555-3.21289,6.8291-1.83301,2.39258,1.37988,3.21289,4.4375,1.83301,6.8291l-67.2627,116.61035c-3.14648,5.45605-8.95801,8.57178-14.93359,8.57227Z"/>
  <path d="M154.51562,427.5459c-.63184,0-1.27441-.12061-1.89551-.37549-2.55469-1.04785-3.77637-3.96826-2.72852-6.52344l83.43457-203.42383c1.04688-2.5542,3.96484-3.77881,6.52344-2.72852,2.55469,1.04785,3.77637,3.96826,2.72852,6.52344l-83.43457,203.42383c-.79297,1.93359-2.65918,3.104-4.62793,3.104Z"/>
  <path d="M183.59473,414.42871c-.63184,0-1.27441-.12061-1.89551-.37549-2.55469-1.04785-3.77637-3.96826-2.72852-6.52344l74.16602-180.82617c1.04688-2.5542,3.9668-3.7793,6.52344-2.72852,2.55469,1.04785,3.77637,3.96826,2.72852,6.52344l-74.16602,180.82617c-.79297,1.93359-2.65918,3.104-4.62793,3.104Z"/>
  <path d="M155.85547,501.00732c-2.81738,0-5.63379-.55713-8.3125-1.67139l-23.875-9.9292c-11.02148-4.58301-16.25879-17.27832-11.67578-28.2998l12.75684-30.67285c2.21973-5.33887,6.38672-9.49365,11.73145-11.69873,5.34668-2.20605,11.23145-2.19678,16.56836,.02344l23.875,9.9292c11.02148,4.58301,16.25879,17.27832,11.67578,28.2998l-12.75684,30.67285c-2.21973,5.33887-6.38672,9.49365-11.73145,11.69873-2.66309,1.09863-5.45996,1.64795-8.25586,1.64795Zm-11.11914-73.91455c-1.50488,0-3.00879,.29541-4.44238,.88672-2.87598,1.18652-5.11719,3.42188-6.31152,6.29443l-12.75684,30.67285c-2.46582,5.93018,.35254,12.76074,6.28223,15.22656l23.875,9.9292c2.87305,1.19531,6.03809,1.19971,8.91504,.0127,2.87598-1.18652,5.11719-3.42188,6.31152-6.29443l12.75684-30.67285c2.46582-5.93018-.35254-12.76074-6.28223-15.22656h0l-23.875-9.9292c-1.44141-.59961-2.95703-.89941-4.47266-.89941Z"/>
  <g>
    <path d="M352.36816,87.11914c-14.09961,0-25.57129-11.47119-25.57129-25.57129,0-6.16113,2.22266-12.11426,6.25879-16.76172,1.8125-2.08496,4.9707-2.30664,7.05371-.49707,2.08496,1.81104,2.30762,4.96875,.49707,7.05371-2.45703,2.82861-3.80957,6.45312-3.80957,10.20508,0,8.58594,6.98535,15.57129,15.57129,15.57129s15.57129-6.98535,15.57129-15.57129c0-7.44629-5.29492-13.87549-12.59082-15.28662-2.71094-.5249-4.4834-3.14795-3.95898-5.85889,.52441-2.71143,3.14453-4.4834,5.85938-3.95947,11.98828,2.31982,20.69043,12.87793,20.69043,25.10498,0,14.1001-11.47168,25.57129-25.57129,25.57129Z"/>
    <path d="M254.8623,87.11914c-14.09961,0-25.57129-11.47119-25.57129-25.57129s11.47168-25.57129,25.57129-25.57129,25.57129,11.47119,25.57129,25.57129-11.47168,25.57129-25.57129,25.57129Zm0-41.14258c-8.58594,0-15.57129,6.98535-15.57129,15.57129s6.98535,15.57129,15.57129,15.57129,15.57129-6.98535,15.57129-15.57129-6.98535-15.57129-15.57129-15.57129Z"/>
  </g>
</svg>