<?xml version="1.0" encoding="UTF-8"?>
<svg id="Layer_1" data-name="Layer 1" xmlns="http://www.w3.org/2000/svg" viewBox="0 0 512 512">
  <defs>
    <style>
      .cls-1 {
        fill: #ed5920;
      }

      .cls-2 {
        fill: #ff702e;
      }

      .cls-3 {
        fill: #5f606b;
      }

      .cls-4 {
        fill: #51545a;
      }
    </style>
  </defs>
  <polygon class="cls-2" points="371.78565 80.70861 241.94614 80.70861 201.84639 16 411.8854 16 371.78565 80.70861"/>
  <rect class="cls-3" x="241.94614" y="113.06292" width="129.83951" height="313.28002"/>
  <rect class="cls-2" x="241.94614" y="80.70861" width="129.83951" height="32.35431"/>
  <rect class="cls-2" x="241.94614" y="426.34294" width="129.83951" height="32.35431"/>
  <rect class="cls-2" x="224.92413" y="458.69724" width="163.88352" height="37.30276" rx="9.89691" ry="9.89691"/>
  <polygon class="cls-1" points="361.0964 16 339.80066 80.70858 371.7856 80.70858 411.88547 16 361.0964 16"/>
  <rect class="cls-4" x="339.80066" y="113.0629" width="31.98494" height="313.28"/>
  <rect class="cls-1" x="339.80066" y="80.70858" width="31.98494" height="32.35432"/>
  <rect class="cls-1" x="339.80066" y="426.3429" width="31.98494" height="32.35432"/>
  <path class="cls-1" d="M378.91084,458.69723h-31.98518c5.46601,0,9.89691,4.43102,9.89691,9.89691v17.50896c0,5.46589-4.4309,9.89691-9.89691,9.89691h31.98518c5.46577,0,9.89691-4.43102,9.89691-9.89691v-17.50896c0-5.46589-4.43114-9.89691-9.89691-9.89691Z"/>
  <path d="M371.78613,85.7085H241.94629c-1.73047,0-3.33887-.89502-4.25-2.36621L197.59668,18.63379c-.95605-1.54199-1.00098-3.48096-.11816-5.06592,.88184-1.58496,2.55371-2.56787,4.36816-2.56787h210.03906c1.81445,0,3.48633,.98291,4.36816,2.56787,.88281,1.58496,.83789,3.52393-.11816,5.06592l-40.09961,64.7085c-.91113,1.47119-2.51953,2.36621-4.25,2.36621Zm-127.05566-10h124.27148l33.90332-54.7085H210.82715l33.90332,54.7085Z"/>
  <path d="M371.78613,431.34277H241.94629c-2.76172,0-5-2.23877-5-5V113.06299c0-2.76123,2.23828-5,5-5s5,2.23877,5,5V421.34277h119.83984V118.06299h-64.84961c-2.76172,0-5-2.23877-5-5s2.23828-5,5-5h69.84961c2.76172,0,5,2.23877,5,5V426.34277c0,2.76123-2.23828,5-5,5Z"/>
  <path d="M371.78613,118.06299c-2.76172,0-5-2.23877-5-5v-32.35449c0-2.76123,2.23828-5,5-5s5,2.23877,5,5v32.35449c0,2.76123-2.23828,5-5,5Z"/>
  <path class="cls-4" d="M339.80066,243.9685l-60.01652-59.89997c-6.87207-6.85872-10.73388-16.16916-10.73388-25.8783v-10.53915l70.7504,70.61301v25.70442Z"/>
  <path class="cls-4" d="M339.80066,324.87276l-60.01652-59.89997c-6.87207-6.85872-10.73388-16.16916-10.73388-25.8783v-10.53915l70.7504,70.61301v25.70442Z"/>
  <path class="cls-4" d="M339.80066,405.53555l-60.01652-59.89997c-6.87207-6.85872-10.73388-16.16916-10.73388-25.8783v-10.53915l70.7504,70.61301v25.70442Z"/>
  <path d="M378.91113,501H234.82129c-8.21484,0-14.89746-6.68262-14.89746-14.89697v-17.50879c0-8.21436,6.68262-14.89697,14.89746-14.89697h144.08984c8.21387,0,14.89648,6.68262,14.89648,14.89697v17.50879c0,8.21436-6.68262,14.89697-14.89648,14.89697Zm-144.08984-37.30273c-2.7002,0-4.89746,2.19678-4.89746,4.89697v17.50879c0,2.7002,2.19727,4.89697,4.89746,4.89697h144.08984c2.7002,0,4.89648-2.19678,4.89648-4.89697v-17.50879c0-2.7002-2.19629-4.89697-4.89648-4.89697H234.82129Z"/>
  <path d="M348.04395,231.50146c-1.2793,0-2.55957-.48828-3.53516-1.46436l-82.35645-82.35693c-1.95312-1.95264-1.95312-5.11865,0-7.07129,1.95117-1.95215,5.11914-1.95215,7.07031,0l82.35645,82.35693c1.95312,1.95264,1.95312,5.11865,0,7.07129-.97559,.97607-2.25586,1.46436-3.53516,1.46436Z"/>
  <path d="M348.04395,312.31006c-1.2793,0-2.55957-.48828-3.53516-1.46436l-82.35645-82.35693c-1.95312-1.95264-1.95312-5.11865,0-7.07129,1.95117-1.95215,5.11914-1.95215,7.07031,0l82.35645,82.35693c1.95312,1.95264,1.95312,5.11865,0,7.07129-.97559,.97607-2.25586,1.46436-3.53516,1.46436Z"/>
  <path d="M348.04395,393.11816c-1.2793,0-2.55957-.48828-3.53516-1.46436l-82.35645-82.35645c-1.95312-1.95264-1.95312-5.11865,0-7.07129,1.95117-1.95215,5.11914-1.95215,7.07031,0l82.35645,82.35645c1.95312,1.95264,1.95312,5.11865,0,7.07129-.97559,.97607-2.25586,1.46436-3.53516,1.46436Z"/>
  <path d="M429.55957,21H184.17188c-2.76172,0-5-2.23877-5-5s2.23828-5,5-5h245.3877c2.76172,0,5,2.23877,5,5s-2.23828,5-5,5Z"/>
  <polygon class="cls-2" points="270.05386 80.70861 140.21435 80.70861 100.1146 16 310.15361 16 270.05386 80.70861"/>
  <rect class="cls-3" x="140.21435" y="113.06292" width="129.83951" height="313.28002"/>
  <rect class="cls-2" x="140.21435" y="80.70861" width="129.83951" height="32.35431"/>
  <rect class="cls-2" x="140.21435" y="426.34294" width="129.83951" height="32.35431"/>
  <rect class="cls-2" x="123.19234" y="458.69724" width="163.88352" height="37.30276" rx="9.89691" ry="9.89691"/>
  <polygon class="cls-1" points="259.36461 16 238.06887 80.70858 270.0538 80.70858 310.15368 16 259.36461 16"/>
  <rect class="cls-4" x="238.06887" y="113.0629" width="31.98494" height="313.28"/>
  <rect class="cls-1" x="238.06887" y="80.70858" width="31.98494" height="32.35432"/>
  <rect class="cls-1" x="238.06887" y="426.3429" width="31.98494" height="32.35432"/>
  <path class="cls-1" d="M277.17905,458.69723h-31.98518c5.46601,0,9.89691,4.43102,9.89691,9.89691v17.50896c0,5.46589-4.4309,9.89691-9.89691,9.89691h31.98518c5.46577,0,9.89691-4.43102,9.89691-9.89691v-17.50896c0-5.46589-4.43114-9.89691-9.89691-9.89691Z"/>
  <path d="M270.04883,85.70898c-.89844,0-1.80859-.24219-2.62891-.75049-2.34766-1.45459-3.07129-4.53662-1.61621-6.88379L305.90332,13.36621c1.45508-2.34619,4.53613-3.07129,6.88379-1.61621,2.34766,1.45459,3.07129,4.53662,1.61621,6.88379l-40.09961,64.7085c-.94629,1.52686-2.58105,2.3667-4.25488,2.3667Z"/>
  <path d="M270.05371,85.7085H140.21387c-1.73047,0-3.33887-.89502-4.25-2.36621l-20.0498-32.354c-1.45508-2.34717-.73145-5.4292,1.61621-6.88379,2.34961-1.45459,5.42969-.72998,6.88379,1.61621l18.58398,29.98779h127.05566c2.76172,0,5,2.23877,5,5s-2.23828,5-5,5Z"/>
  <path d="M270.05371,431.34277c-2.76172,0-5-2.23877-5-5V118.06299h-124.83984c-2.76172,0-5-2.23877-5-5s2.23828-5,5-5h129.83984c2.76172,0,5,2.23877,5,5V426.34277c0,2.76123-2.23828,5-5,5Z"/>
  <path d="M241.94629,431.34277h-101.73242c-2.76172,0-5-2.23877-5-5V113.06299c0-2.76123,2.23828-5,5-5s5,2.23877,5,5V421.34277h96.73242c2.76172,0,5,2.23877,5,5s-2.23828,5-5,5Z"/>
  <path d="M270.05371,118.06299c-2.76172,0-5-2.23877-5-5v-27.35449h-119.83984v27.35449c0,2.76123-2.23828,5-5,5s-5-2.23877-5-5v-32.35449c0-2.76123,2.23828-5,5-5h129.83984c2.76172,0,5,2.23877,5,5v32.35449c0,2.76123-2.23828,5-5,5Z"/>
  <path d="M270.05371,463.69727H140.21387c-2.76172,0-5-2.23877-5-5s2.23828-5,5-5h124.83984v-27.35449c0-2.76123,2.23828-5,5-5s5,2.23877,5,5v32.35449c0,2.76123-2.23828,5-5,5Z"/>
  <path class="cls-4" d="M238.06887,243.9685l-60.01652-59.89997c-6.87207-6.85872-10.73388-16.16916-10.73388-25.8783v-10.53915l70.7504,70.61301v25.70442Z"/>
  <path class="cls-4" d="M238.06887,324.87276l-60.01652-59.89997c-6.87207-6.85872-10.73388-16.16916-10.73388-25.8783v-10.53915l70.7504,70.61301v25.70442Z"/>
  <path class="cls-4" d="M238.06887,405.53555l-60.01652-59.89997c-6.87207-6.85872-10.73388-16.16916-10.73388-25.8783v-10.53915l70.7504,70.61301v25.70442Z"/>
  <path d="M277.17871,501H133.08887c-8.21387,0-14.89648-6.68262-14.89648-14.89697v-17.50879c0-8.21436,6.68262-14.89697,14.89648-14.89697h144.08984c8.21484,0,14.89746,6.68262,14.89746,14.89697v17.50879c0,8.21436-6.68262,14.89697-14.89746,14.89697Zm-144.08984-37.30273c-2.7002,0-4.89648,2.19678-4.89648,4.89697v17.50879c0,2.7002,2.19629,4.89697,4.89648,4.89697h144.08984c2.7002,0,4.89746-2.19678,4.89746-4.89697v-17.50879c0-2.7002-2.19727-4.89697-4.89746-4.89697H133.08887Z"/>
  <path d="M246.3125,231.50146c-1.2793,0-2.55957-.48828-3.53516-1.46436l-82.35645-82.35693c-1.95312-1.95264-1.95312-5.11865,0-7.07129,1.95117-1.95215,5.11914-1.95215,7.07031,0l82.35645,82.35693c1.95312,1.95264,1.95312,5.11865,0,7.07129-.97559,.97607-2.25586,1.46436-3.53516,1.46436Z"/>
  <path d="M246.3125,312.31006c-1.2793,0-2.55957-.48828-3.53516-1.46436l-82.35645-82.35693c-1.95312-1.95264-1.95312-5.11865,0-7.07129,1.95117-1.95215,5.11914-1.95215,7.07031,0l82.35645,82.35693c1.95312,1.95264,1.95312,5.11865,0,7.07129-.97559,.97607-2.25586,1.46436-3.53516,1.46436Z"/>
  <path d="M246.3125,393.11816c-1.2793,0-2.55957-.48828-3.53516-1.46436l-82.35645-82.35645c-1.95312-1.95264-1.95312-5.11865,0-7.07129,1.95117-1.95215,5.11914-1.95215,7.07031,0l82.35645,82.35645c1.95312,1.95264,1.95312,5.11865,0,7.07129-.97559,.97607-2.25586,1.46436-3.53516,1.46436Z"/>
  <path d="M327.82812,21H82.44043c-2.76172,0-5-2.23877-5-5s2.23828-5,5-5h245.3877c2.76172,0,5,2.23877,5,5s-2.23828,5-5,5Z"/>
  <path d="M140.21387,463.69727c-2.76172,0-5-2.23877-5-5v-32.35449c0-2.76123,2.23828-5,5-5s5,2.23877,5,5v32.35449c0,2.76123-2.23828,5-5,5Z"/>
</svg>