<?xml version="1.0" encoding="UTF-8"?>
<svg id="Layer_1" data-name="Layer 1" xmlns="http://www.w3.org/2000/svg" viewBox="0 0 512 512">
  <defs>
    <style>
      .cls-1 {
        fill: #e7e8f1;
      }

      .cls-2 {
        fill: #ed5920;
      }

      .cls-3 {
        fill: #ff702e;
      }

      .cls-4 {
        fill: #c7c8ce;
      }
    </style>
  </defs>
  <path class="cls-1" d="M455.31905,158.27046h33.78637c4.22203,0,7.64978,3.42775,7.64978,7.64978v16.33991h-41.43614v-23.98968h0Z" transform="translate(259.8238 -286.73952) rotate(45)"/>
  <path class="cls-3" d="M16,302.28186v35.19673c0,4.50226,2.19406,8.72205,5.87956,11.30805l14.92486,10.4723c7.83942,5.50067,7.83942,17.11544,0,22.6161l-14.92486,10.4723c-3.68551,2.586-5.87956,6.80579-5.87956,11.30805v10.32497c0,29.18176,23.65649,52.83826,52.83826,52.83826h104.48468c7.62929,0,13.81406-6.18477,13.81406-13.81406v-173.13183c0-7.62929-6.18477-13.81406-13.81406-13.81406H52.22319c-20.00552,0-36.22319,16.21768-36.22319,36.22319Z"/>
  <circle class="cls-1" cx="54.28915" cy="316.44504" r="18.79405"/>
  <circle class="cls-1" cx="54.28915" cy="416.05301" r="18.79405"/>
  <path class="cls-4" d="M477.82389,155.08875l-7.95501-7.95489-16.96328,16.9631,29.29979,29.29992,3.86651-3.86651-1.93684-1.93685c-6.20297-6.20299-9.06566-14.99823-7.70219-23.66396l1.39102-8.8408Z"/>
  <path class="cls-1" d="M350.39952,53.14942h41.43614v16.33991c0,4.22203-3.42775,7.64978-7.64978,7.64978h-33.78637v-23.98968h0Z" transform="translate(587.4734 373.62798) rotate(-135)"/>
  <path class="cls-4" d="M386.29415,63.35749l7.95489,7.95501-16.9631,16.96328-29.29992-29.29979,3.86651-3.86651,1.93685,1.93684c6.20299,6.20297,14.99823,9.06566,23.66396,7.70219l8.8408-1.39102Z"/>
  <path class="cls-3" d="M484.27543,195.46679l-18.54583-18.54583c10.4233-27.98001,4.41035-60.69224-18.08256-83.18515-22.49292-22.49292-55.2052-28.50593-83.18522-18.08263l-18.54583-18.54583c-2.79751-2.79745-7.3331-2.79745-10.13061,0l-46.11554,46.11561c-5.44993,5.44987-8.33964,12.9513-7.95445,20.64898l1.38786,27.7383c.38519,7.6978-2.50452,15.19923-7.95445,20.6491l-96.11153,96.1116c-50.71078,50.71065-50.71197,132.9288-.00269,183.64096l2.15549,2.15561,187.93339-187.93345c5.44993-5.45,12.9513-8.33964,20.64904-7.95451l27.73836,1.38798c7.69774,.385,15.19911-2.50464,20.64904-7.95451l46.11554-46.11561c2.79751-2.79745,2.79751-7.33304,0-10.13061Zm-52.2165-5.99764c-22.13146,22.13152-58.01377,22.13152-80.14523,0-22.13152-22.13152-22.13152-58.01371,0-80.14523,22.13146-22.13152,58.01377-22.13152,80.14523,0,22.13152,22.13152,22.13152,58.01371,0,80.14523Z"/>
  <path class="cls-2" d="M484.27543,195.46679l-16.76841-16.76847-46.80423,46.80429c-5.98003,5.98004-14.21103,9.15079-22.65752,8.72812l-30.43537-1.52299c-8.44649-.42266-16.6775,2.74808-22.65754,8.72812l-100.18504,100.18504c-22.17101,22.17101-34.62656,52.24136-34.62656,83.59591v.00005l158.98268-158.98281c5.44998-5.44999,12.95141-8.33969,20.64922-7.9545l27.73818,1.38797c7.6977,.38518,15.19902-2.50448,20.64892-7.95439l46.11566-46.11572c2.79749-2.79749,2.79749-7.33312,0-10.13062Z"/>
  <path d="M463.97461,230.89844c-1.27979,0-2.55908-.48828-3.53564-1.46436l-34.17236-34.17236c-1.95264-1.95264-1.95264-5.11865,0-7.07129,1.95312-1.95215,5.11816-1.95215,7.07129,0l34.17236,34.17236c1.95264,1.95264,1.95264,5.11865,0,7.07129-.97656,.97607-2.25586,1.46436-3.53564,1.46436Z"/>
  <path d="M349.72168,116.64502c-1.27979,0-2.55908-.48828-3.53564-1.46436l-34.2373-34.23682c-1.95264-1.95264-1.95264-5.11865,0-7.07129,1.95312-1.95215,5.11816-1.95215,7.07129,0l34.2373,34.23682c1.95264,1.95264,1.95264,5.11865,0,7.07129-.97656,.97607-2.25586,1.46436-3.53564,1.46436Z"/>
  <path class="cls-2" d="M179.75549,267.65264c-1.92201-1.01385-4.10842-1.59398-6.43255-1.59398h-37.69394c-14.05887,0-25.45584,11.39697-25.45584,25.45584v77.18872c0,22.27284,18.0557,40.32854,40.32854,40.32854h.00004c-19.0031-46.89023-9.49134-102.63403,28.53553-140.66083l.71823-.71829Z"/>
  <path class="cls-4" d="M44.48101,325.431c0-10.37983,8.41434-18.79417,18.79404-18.79417,2.8656,0,5.57067,.66033,8.00098,1.80721-3.0075-6.37265-9.47279-10.79306-16.98689-10.79306-10.37964,0-18.79404,8.41434-18.79404,18.79404,0,7.51405,4.42041,13.97926,10.79306,16.98683-1.14695-2.43019-1.80715-5.13532-1.80715-8.00086Z"/>
  <path class="cls-4" d="M44.48101,425.03897c0-10.37983,8.41434-18.79417,18.79404-18.79417,2.8656,0,5.57067,.66033,8.00098,1.80721-3.0075-6.37265-9.47279-10.79306-16.98689-10.79306-10.37964,0-18.79404,8.41434-18.79404,18.79404,0,7.51405,4.42041,13.97926,10.79306,16.98683-1.14695-2.43019-1.80715-5.13532-1.80715-8.00086Z"/>
  <path d="M482.20557,198.39697c-1.27979,0-2.55908-.48828-3.53564-1.46436-1.95264-1.95264-1.95264-5.11865,0-7.07129l11.55371-11.5542c.50098-.50049,.77637-1.16602,.77637-1.87354s-.27539-1.37305-.77588-1.87354l-22.50537-22.50488c-1.95264-1.95264-1.95264-5.11865,0-7.07129,1.95312-1.95215,5.11816-1.95215,7.07129,0l22.50488,22.50488c2.38916,2.38916,3.70508,5.56592,3.70508,8.94482s-1.31592,6.55566-3.70557,8.94482l-11.55322,11.5542c-.97656,.97607-2.25586,1.46436-3.53564,1.46436Z"/>
  <path d="M173.32275,471.81885H68.83838c-31.89209,0-57.83838-25.94629-57.83838-57.83838v-10.3252c0-6.12549,2.99365-11.88281,8.00781-15.40088l14.92432-10.47217c2.38428-1.67285,3.75195-4.30273,3.75195-7.21484,0-2.9126-1.36719-5.54248-3.75195-7.21582l-14.9248-10.47217c-5.01367-3.51807-8.00732-9.27539-8.00732-15.40088v-35.19678c0-22.73047,18.49268-41.22314,41.22314-41.22314h98.60645c2.76123,0,5,2.23877,5,5s-2.23877,5-5,5H52.22314c-17.21631,0-31.22314,14.00684-31.22314,31.22314v35.19678c0,2.86963,1.40234,5.56689,3.75098,7.21533l14.92529,10.47217c5.01416,3.51855,8.00781,9.27588,8.00781,15.40137s-2.99365,11.88281-8.0083,15.40088l-14.92432,10.47168c-2.34912,1.64844-3.75146,4.3457-3.75146,7.21533v10.3252c0,26.37793,21.46045,47.83838,47.83838,47.83838h104.48438c4.86035,0,8.81445-3.9541,8.81445-8.81445,0-2.76123,2.23877-5,5-5s5,2.23877,5,5c0,10.37451-8.43994,18.81445-18.81445,18.81445Z"/>
  <path d="M54.28906,340.23926c-13.12012,0-23.79395-10.67432-23.79395-23.79443s10.67383-23.79395,23.79395-23.79395,23.79395,10.67383,23.79395,23.79395-10.67383,23.79443-23.79395,23.79443Zm0-37.58838c-7.60596,0-13.79395,6.18799-13.79395,13.79395,0,7.60645,6.18799,13.79443,13.79395,13.79443s13.79395-6.18799,13.79395-13.79443c0-7.60596-6.18799-13.79395-13.79395-13.79395Z"/>
  <path d="M54.28906,439.84717c-13.12012,0-23.79395-10.67383-23.79395-23.79395s10.67383-23.79443,23.79395-23.79443c2.76123,0,5,2.23877,5,5s-2.23877,5-5,5c-7.60596,0-13.79395,6.18799-13.79395,13.79443,0,7.60596,6.18799,13.79395,13.79395,13.79395s13.79395-6.18799,13.79395-13.79395c0-2.76123,2.23877-5,5-5s5,2.23877,5,5c0,13.12012-10.67383,23.79395-23.79395,23.79395Z"/>
  <path d="M347.98584,63.97607c-1.27979,0-2.55908-.48828-3.53564-1.46436-1.95264-1.95264-1.95264-5.11865,0-7.07129l11.5542-11.5542c4.93262-4.93164,12.95703-4.93164,17.88965,0l7.6875,7.6875c1.95264,1.95264,1.95264,5.11865,0,7.07129-1.95312,1.95215-5.11816,1.95215-7.07129,0l-7.6875-7.6875c-1.0332-1.0332-2.71387-1.0332-3.74707,0l-11.5542,11.5542c-.97656,.97607-2.25586,1.46436-3.53564,1.46436Z"/>
  <path d="M187.13721,453.2207c-1.27979,0-2.55908-.48828-3.53564-1.46436-1.95264-1.95264-1.95264-5.11865,0-7.07129l181.98633-181.98682c6.43652-6.43701,15.35205-9.87061,24.43408-9.4126l27.73877,1.38818c6.26562,.31494,12.4209-2.05371,16.86328-6.49609l8.729-8.729c1.9541-1.95166,5.11914-1.95166,7.07129,0,1.95264,1.95312,1.95264,5.11865,0,7.07129l-8.729,8.72852c-6.43701,6.43701-15.3457,9.86426-24.43457,9.4126l-27.73828-1.38818c-6.28027-.31348-12.42139,2.0542-16.86328,6.49658l-181.98633,181.98682c-.97656,.97607-2.25586,1.46436-3.53564,1.46436Zm-36.63379-39.1875c-1.97656,0-3.84814-1.1792-4.63574-3.12354-20.39941-50.33594-8.76758-107.67334,29.63379-146.07422l96.11182-96.11182c4.44238-4.44189,6.81006-10.58887,6.49609-16.86328l-1.3877-27.73828c-.45508-9.09229,2.97559-17.99805,9.4126-24.43457l46.11523-46.11572c4.74316-4.74219,12.45898-4.74219,17.20215,0l16.32373,16.32373c29.87256-9.82568,63.07471-2.02783,85.40723,20.30469,22.33301,22.33252,30.12987,55.53516,20.30469,85.40723l16.32373,16.32373c4.74219,4.74268,4.74219,12.45898,0,17.20166l-20.30078,20.30127c-1.95312,1.95215-5.11816,1.95215-7.07129,0-1.95264-1.95264-1.95264-5.11865,0-7.07129l20.30078-20.30127c.84375-.84326,.84375-2.21582,0-3.05908l-18.5459-18.5459c-1.38379-1.38379-1.83301-3.44727-1.1499-5.28125,10.05322-26.98584,3.40674-57.56494-16.93262-77.90381-20.33838-20.33887-50.91846-26.98535-77.90381-16.93262-1.83447,.68262-3.89795,.2334-5.28125-1.1499l-18.5459-18.5459c-.84277-.84375-2.21631-.84375-3.06006,0l-46.11475,46.11572c-4.44287,4.44238-6.81055,10.58838-6.49658,16.86328l1.3877,27.73828c.45508,9.0918-2.97559,17.99756-9.41211,24.43457l-96.11182,96.11182c-35.55518,35.5542-46.32471,88.64209-27.4375,135.24707,1.03711,2.55908-.19678,5.47461-2.75586,6.51172-.61523,.24951-1.25098,.36768-1.87598,.36768Zm241.48291-202.99414c-15.79297,0-31.58545-6.01172-43.6084-18.03418-16.11133-16.1123-22.01953-39.68066-15.41943-61.50879,.79932-2.64355,3.59033-4.13965,6.2334-3.33887,2.64307,.79932,4.13818,3.58984,3.33887,6.2334-5.53174,18.29248-.58154,38.04297,12.91846,51.54297,20.14502,20.14648,52.92627,20.14697,73.07422,0,20.14648-20.14648,20.14648-52.92773,0-73.07422s-52.92773-20.14648-73.07422,0c-.68604,.68604-1.36035,1.39844-2.00391,2.11768-1.84082,2.05811-5.00293,2.23389-7.06006,.39209-2.05811-1.84131-2.2334-5.00195-.39209-7.06006,.76611-.85645,1.56885-1.70459,2.38477-2.521,24.0459-24.04395,63.1709-24.04492,87.2168,0,24.04492,24.0459,24.04492,63.1709,0,87.2168-12.02295,12.02246-27.81592,18.03418-43.6084,18.03418Z"/>
</svg>