<?xml version="1.0" encoding="UTF-8"?>
<svg id="Layer_1" data-name="Layer 1" xmlns="http://www.w3.org/2000/svg" viewBox="0 0 512 512">
  <defs>
    <style>
      .cls-1 {
        fill: #ed5920;
      }

      .cls-2 {
        fill: #ff702e;
      }
    </style>
  </defs>
  <path class="cls-2" d="M287.37085,336.9159h-62.74169c-26.87822,0-51.58497-15.74064-62.94342-40.10136l-30.13835-64.6373c-4.80236-10.29955-15.1372-16.8838-26.50132-16.8838H26.05234c-5.55175,0-10.05234-4.50058-10.05234-10.05234v-20.10467c0-5.55175,4.50058-10.05234,10.05234-10.05234H105.04612c26.87822,0,51.58546,15.74064,62.94392,40.10136l30.13835,64.6373c4.80236,10.29955,15.1372,16.8838,26.50132,16.8838h62.74057c11.36412,0,21.69897-6.58425,26.50132-16.8838l30.13835-64.6373c11.35845-24.36072,36.0657-40.10136,62.94392-40.10136h78.99378c5.55175,0,10.05234,4.50058,10.05234,10.05234v20.10467c0,5.55175-4.50058,10.05234-10.05234,10.05234h-78.99372c-11.36412,0-21.69897,6.58425-26.50132,16.8838l-30.13835,64.6373c-11.35845,24.36072-36.06521,40.10136-62.94342,40.10136Z"/>
  <rect class="cls-2" x="163.68143" y="220.72692" width="184.63714" height="30.33682"/>
  <path class="cls-1" d="M392.31688,204.58927c-10.26217,0-19.59494,5.94575-23.9316,15.24661l-27.21604,58.36981c-10.25701,21.99869-32.56824,36.21307-56.84024,36.21307h-56.65802c-24.27206,0-46.58316-14.21439-56.84024-36.21307l-27.21604-58.36981c-4.33673-9.30086-13.66943-15.24661-23.93166-15.24661H16v.65183c0,5.55173,4.5006,10.05234,10.05234,10.05234H105.04606c11.3641,0,21.69897,6.58433,26.50132,16.8838l30.13835,64.6373c11.35845,24.36072,36.06521,40.10136,62.94342,40.10136h62.74169c26.87822,0,51.58497-15.74064,62.94342-40.10136l30.13835-64.6373c4.80235-10.29947,15.13716-16.8838,26.50125-16.8838h78.99378c5.55173,0,10.05234-4.5006,10.05234-10.05234v-.65183h-103.68312Z"/>
  <path class="cls-1" d="M170.57385,220.72692l14.14511,30.33682h71.28104v-11.21425h-53.33953c-6.34489,0-12.08948-3.75169-14.64022-9.56128v-.00002c-2.55075-5.80958-8.29535-9.56128-14.64023-9.56128h-2.80617Z"/>
  <path class="cls-1" d="M341.42615,220.72692l-14.14511,30.33682h-71.28104v-11.21425h53.33953c6.34489,0,12.08948-3.75169,14.64022-9.56128v-.00002c2.55075-5.80958,8.29535-9.56128,14.64023-9.56128h2.80617Z"/>
  <path d="M341.42627,225.72705H199.49902c-2.76123,0-5-2.23877-5-5s2.23877-5,5-5h141.92725c2.76123,0,5,2.23877,5,5s-2.23877,5-5,5Z"/>
  <path d="M303.5498,256.06396h-118.83105c-2.76123,0-5-2.23877-5-5s2.23877-5,5-5h118.83105c2.76123,0,5,2.23877,5,5s-2.23877,5-5,5Z"/>
  <path d="M287.37061,341.91602h-62.74121c-28.81348,0-55.29932-16.87402-67.47559-42.98877l-30.13818-64.63721c-3.96436-8.50244-12.58789-13.99658-21.96973-13.99658H26.05225c-8.2998,0-15.05225-6.75244-15.05225-15.05225v-20.10498c0-8.2998,6.75244-15.05225,15.05225-15.05225H105.0459c28.81348,0,55.29932,16.87402,67.47607,42.98877l16.72852,35.87842c1.16699,2.50244,.08398,5.47754-2.41895,6.64453-2.50342,1.16553-5.47705,.0835-6.64453-2.41895l-16.72852-35.87842c-10.54102-22.60693-33.46924-37.21436-58.4126-37.21436H26.05225c-2.78564,0-5.05225,2.2666-5.05225,5.05225v20.10498c0,2.78564,2.2666,5.05225,5.05225,5.05225H105.0459c13.25195,0,25.43311,7.76074,31.0332,19.771l30.13818,64.63721c10.54053,22.60693,33.46875,37.21436,58.41211,37.21436h62.74121c24.94336,0,47.87158-14.60742,58.41211-37.21436l30.13818-64.63721c5.6001-12.01025,17.78125-19.771,31.0332-19.771h78.99365c2.78564,0,5.05225-2.2666,5.05225-5.05225v-20.10498c0-2.78564-2.2666-5.05225-5.05225-5.05225h-78.99365c-24.94336,0-47.87158,14.60742-58.4126,37.21436l-30.13818,64.63721c-5.6001,12.01025-17.78125,19.771-31.0332,19.771h-62.74023c-13.25195,0-25.43311-7.76074-31.0332-19.771l-2.26367-4.85547c-1.16699-2.50293-.08398-5.47754,2.41895-6.64453,2.50293-1.16602,5.47803-.0835,6.64453,2.41895l2.26367,4.85547c3.96436,8.50244,12.58789,13.99658,21.96973,13.99658h62.74023c9.38184,0,18.00537-5.49414,21.96973-13.99658l30.13818-64.63721c12.17676-26.11475,38.6626-42.98877,67.47607-42.98877h78.99365c8.2998,0,15.05225,6.75244,15.05225,15.05225v20.10498c0,8.2998-6.75244,15.05225-15.05225,15.05225h-78.99365c-9.38184,0-18.00537,5.49414-21.96973,13.99658l-30.13818,64.63721c-12.17627,26.11475-38.66211,42.98877-67.47559,42.98877Z"/>
</svg>