<?xml version="1.0" encoding="UTF-8"?>
<svg id="Layer_1" data-name="Layer 1" xmlns="http://www.w3.org/2000/svg" viewBox="0 0 512 512">
  <defs>
    <style>
      .cls-1 {
        fill: #ed5920;
      }

      .cls-2 {
        fill: #ff702e;
      }

      .cls-3 {
        fill: #5f606b;
      }

      .cls-4 {
        fill: #51545a;
      }
    </style>
  </defs>
  <path class="cls-2" d="M344.36599,496h-11.87908c-1.86738,0-3.38743-1.50195-3.40979-3.3692l-.52799-44.09097h18.69964l.52701,44.00931c.02274,1.89914-1.51051,3.45087-3.40979,3.45087Z"/>
  <path class="cls-2" d="M167.41708,496h11.87908c1.86738,0,3.38743-1.50195,3.40979-3.3692l.52799-44.09097h-18.69964l-.52701,44.00931c-.02274,1.89914,1.51051,3.45087,3.40979,3.45087Z"/>
  <path class="cls-1" d="M328.54907,448.53979l.52808,44.09106c.02234,1.86719,1.54236,3.36914,3.40979,3.36914h5.67566v-47.46021h-9.61353Z"/>
  <path class="cls-1" d="M183.23394,448.53979l-.52808,44.09106c-.02234,1.86719-1.54236,3.36914-3.40979,3.36914h-5.67566v-47.46021h9.61353Z"/>
  <path class="cls-2" d="M288.6201,97.9969h-65.45713c-37.6758,0-68.56117,29.88267-69.80417,67.53796l-8.94105,270.85907c-.12098,3.66482,1.77352,7.10193,4.93674,8.95654l33.6414,19.72405,7.18954-291.99088c.52784-21.43749,18.0579-38.54123,39.5019-38.54123h52.4084c21.44399,0,38.97405,17.10374,39.5019,38.54123l7.18954,291.99088,33.6414-19.72405c3.16322-1.85461,5.05772-5.29172,4.93674-8.95654l-8.94105-270.85907c-1.243-37.65529-32.12837-67.53796-69.80417-67.53796Z"/>
  <path class="cls-2" d="M277.43645,61.07597h-43.08983c-2.80497,0-5.19048,2.04639-5.61723,4.81871l-4.94163,32.10222h64.20756l-4.94163-32.10222c-.42675-2.77232-2.81226-4.81871-5.61723-4.81871Z"/>
  <path class="cls-3" d="M241.18765,16h31.24881c2.75958,0,5,2.24042,5,5V61.07597h-41.24881V21c0-2.75958,2.24042-5,5-5Z"/>
  <path class="cls-1" d="M282.34061,116.54492h-53.12385c-29.79194,0-54.21864,23.62126-55.21717,53.39646l-9.5332,284.26916,18.52946,10.86392,7.18958-291.99084c.52785-21.43751,18.05792-38.54126,39.50193-38.54126h52.40835c21.44403,0,38.97412,17.10377,39.50195,38.5413l7.18945,291.9908,17.12878-10.04256-8.35079-284.85771c-.87564-29.86949-25.34217-53.62927-55.22449-53.62927Z"/>
  <path class="cls-1" d="M283.05371,65.89465c-.42676-2.77234-2.81226-4.81873-5.61719-4.81873h-19.11865c2.80493,0,5.19043,2.04639,5.61719,4.81873l4.94165,32.10217h19.11865l-4.94165-32.10217Z"/>
  <path class="cls-4" d="M259.93869,16V61.07593h17.49783V21c0-2.76142-2.23858-5-5-5h-12.49783Z"/>
  <path d="M344.36621,501h-11.87891c-4.58203,0-8.35449-3.72754-8.41016-8.30908l-.29004-27.56348c-.02832-2.76123,2.18652-5.02344,4.94727-5.05225,2.75098-.04443,5.02344,2.18604,5.05273,4.94678l.27344,25.97803h8.7002l-.14258-15.15625c-.02539-2.76123,2.19141-5.02051,4.95312-5.04688,2.73926,.00488,5.02051,2.19189,5.04688,4.95312l.15723,16.75244c.02734,2.25049-.83398,4.38574-2.42578,5.99756-1.59277,1.6123-3.71777,2.5-5.9834,2.5Zm-1.59082-8.39746v0Z"/>
  <path d="M179.29639,501h-11.87939c-2.26562,0-4.39014-.8877-5.98291-2.49951-1.5918-1.61133-2.45361-3.74658-2.42627-6.01172l.20898-17.44092c.0332-2.76123,2.34131-4.99658,5.05957-4.93945,2.76123,.0332,4.97266,2.29834,4.93945,5.05957l-.18945,15.83203h8.69678l.27344-25.97803c.02881-2.74316,2.26172-4.94727,4.99854-4.94727,.01807,0,.03564,0,.05371,.00049,2.76123,.02881,4.97607,2.29102,4.94678,5.05225l-.29004,27.55615c-.05518,4.58887-3.82715,8.31641-8.40918,8.31641Z"/>
  <path d="M328.78711,470.07471c-.83789,0-1.67578-.20996-2.43164-.63135-1.54688-.86084-2.52344-2.47559-2.56641-4.24561l-5.53516-224.79883c-.06836-2.76074,2.11426-5.05371,4.875-5.12158,2.80762-.08057,5.05371,2.11523,5.12109,4.87549l5.32715,216.31787,26.32227-15.43359c1.58301-.92773,2.5293-2.64404,2.46875-4.47803l-8.94141-270.85938c-.55762-16.9082-7.56055-32.69775-19.71875-44.46094s-28.1709-18.2417-45.08789-18.2417h-65.45703c-16.91748,0-32.92969,6.47852-45.08789,18.2417s-19.16113,27.55273-19.71924,44.46094l-8.94092,270.85938c-.06055,1.83398,.88525,3.55029,2.46826,4.47803l26.32324,15.43311,6.98047-283.50977c.2876-11.68018,5.05127-22.60596,13.41406-30.76514s19.40283-12.65283,31.08643-12.65283h52.4082c11.68359,0,22.72363,4.49365,31.08594,12.65283s13.12695,19.08496,13.41406,30.76514c.06836,2.76025-2.11426,5.05371-4.875,5.12158-2.81348,.06787-5.05371-2.11572-5.12109-4.87549-.46582-18.87695-15.62109-33.66406-34.50391-33.66406h-52.4082c-18.88281,0-34.03857,14.78711-34.50342,33.66406l-7.18945,291.99121c-.04346,1.77002-1.02002,3.38477-2.56641,4.24561-1.54736,.86182-3.43408,.84082-4.96094-.05518l-33.6416-19.72412c-4.74951-2.78467-7.58691-7.93262-7.40479-13.43506l8.94092-270.85938c.64404-19.51514,8.72705-37.74072,22.76025-51.31787,14.03271-13.57715,32.51465-21.05469,52.04102-21.05469h65.45703c19.52637,0,38.00781,7.47754,52.04102,21.05469,14.0332,13.57764,22.11621,31.80273,22.75977,51.31787l8.94141,270.85938c.18164,5.50244-2.65527,10.65039-7.4043,13.43506l-33.6416,19.72412c-.78027,.45703-1.6543,.68652-2.5293,.68652Z"/>
  <path d="M322.64551,220.72705c-2.70508,0-4.92969-2.1582-4.99609-4.87695l-.45898-18.65283c-.06836-2.76074,2.11426-5.05371,4.875-5.12158,2.79199-.06445,5.05371,2.11523,5.12109,4.87549l.45898,18.65283c.06836,2.76074-2.11426,5.05371-4.875,5.12158-.04199,.00098-.08398,.00146-.125,.00146Z"/>
  <path d="M287.99512,102.99707h-64.20752c-1.45898,0-2.84521-.63721-3.79492-1.74463-.9502-1.10742-1.36865-2.57422-1.14697-4.01611l4.94189-32.10254c.80811-5.24854,5.24902-9.05762,10.55908-9.05762h43.08984c5.31055,0,9.75098,3.80908,10.55859,9.05762l4.94141,32.10254c.22266,1.44189-.19629,2.90918-1.14648,4.01611-.9502,1.10742-2.33594,1.74463-3.79492,1.74463Zm-58.37891-10h52.55078l-4.05469-26.3418c-.05176-.33545-.33594-.5791-.67578-.5791h-43.08984c-.33984,0-.62354,.24365-.67529,.5791l-4.05518,26.3418Z"/>
  <path d="M277.43652,66.07617c-2.76172,0-5-2.23877-5-5V21h-31.24902v17.53809c0,2.76123-2.23877,5-5,5s-5-2.23877-5-5V21c0-5.51416,4.48584-10,10-10h31.24902c5.51367,0,10,4.48584,10,10V61.07617c0,2.76123-2.23828,5-5,5Z"/>
</svg>