<?xml version="1.0" encoding="UTF-8"?>
<svg id="Layer_1" data-name="Layer 1" xmlns="http://www.w3.org/2000/svg" viewBox="0 0 512 512">
  <defs>
    <style>
      .cls-1 {
        fill: #e7e8f1;
      }

      .cls-2 {
        fill: #ed5920;
      }

      .cls-3 {
        fill: #ff702e;
      }

      .cls-4 {
        fill: #c7c8ce;
      }

      .cls-5 {
        fill: #5f606b;
      }

      .cls-6 {
        fill: #51545a;
      }
    </style>
  </defs>
  <path class="cls-1" d="M256,52.13818c-112.58984,0-203.86182,91.27209-203.86182,203.86182s91.27197,203.86182,203.86182,203.86182,203.86182-91.27209,203.86182-203.86182S368.58984,52.13818,256,52.13818Zm0,385.48145c-100.30566,0-181.61963-81.31384-181.61963-181.61963S155.69434,74.38025,256,74.38025s181.61963,81.31396,181.61963,181.61975-81.31396,181.61963-181.61963,181.61963Z"/>
  <g>
    <path class="cls-3" d="M487.30371,273.27814l8.69629-5.55212v-23.4519l-8.6958-5.55182c-1.04883-8.69934-1.52344-12.63751-2.57227-21.33691l7.09546-7.42572c-2.42896-9.8833-3.17212-12.90619-5.60083-22.78949l-9.74585-3.29657c-3.10571-8.18634-4.51392-11.89789-7.61938-20.08429l5.11108-8.93835c-4.73486-9.00635-6.18433-11.76318-10.91895-20.76953l-10.24561-.85583c-4.98267-7.20709-7.23853-10.47015-12.22095-17.67725l2.82422-9.9082c-6.74609-7.60986-8.81494-9.94385-15.56079-17.55347l-10.16968,1.61462c-6.55811-5.8136-9.52588-8.44446-16.08398-14.25818l.3833-10.28174c-8.3667-5.78442-10.93091-7.55713-19.29761-13.34155l-9.49707,3.99561c-7.7522-4.07544-11.26489-5.92224-19.01733-9.9978l-2.08765-10.06592c-9.51611-3.61011-12.42627-4.71411-21.94214-8.32446l-8.24365,6.15149c-8.50293-2.08984-12.35791-3.03723-20.86084-5.12708l-4.4646-9.2959c-10.09766-1.21729-13.19312-1.59033-23.29077-2.80762l-6.52808,7.94702h-21.50049l-6.52759-7.94666c-10.09766,1.21716-13.19312,1.59033-23.29077,2.80762l-4.46411,9.29492c-8.50293,2.08972-12.35791,3.03723-20.86084,5.12708l-8.24292-6.151c-9.51611,3.61023-12.42603,4.71423-21.94214,8.32434l-2.08789,10.06506c-7.7522,4.07556-11.26489,5.92224-19.01709,9.9978l-9.49683-3.99573c-8.3667,5.78442-10.93091,7.55713-19.29761,13.34155l.3833,10.28149c-6.55811,5.8136-9.52588,8.44446-16.08423,14.25806l-10.16968-1.61475c-6.74609,7.60962-8.81494,9.9436-15.56104,17.55322l2.82422,9.90845c-4.98242,7.20703-7.23853,10.47009-12.22119,17.67712l-10.24609,.85583c-4.73486,9.00623-6.18408,11.76306-10.91895,20.76935l5.11133,8.93915c-3.10571,8.18628-4.51367,11.89783-7.61963,20.08411l-9.74658,3.29694c-2.42896,9.88312-3.17188,12.90613-5.60107,22.78925l7.09619,7.42676c-1.04883,8.69922-1.52344,12.63751-2.57227,21.33673l-8.69629,5.55212v23.4519l8.6958,5.55182c1.04883,8.69934,1.52344,12.63751,2.57227,21.33685l-7.09546,7.42578c2.42896,9.8833,3.17212,12.90619,5.60083,22.78949l9.74585,3.29651c3.10571,8.1864,4.51392,11.89795,7.61938,20.08435l-5.11108,8.93835c4.73486,9.00635,6.18433,11.76318,10.91895,20.76953l10.24561,.85583c4.98267,7.20709,7.23853,10.47015,12.22095,17.67731l-2.82422,9.9082c6.74609,7.60974,8.81494,9.94373,15.56079,17.55347l10.16968-1.61469c6.55811,5.81366,9.52588,8.44452,16.08398,14.25818l-.3833,10.28174c8.3667,5.78442,10.93091,7.55719,19.29761,13.34161l9.49707-3.99573c7.7522,4.07556,11.26489,5.9223,19.01733,9.99786l2.08765,10.06586c9.51611,3.61017,12.42627,4.71423,21.94214,8.32446l8.24365-6.15143c8.50317,2.08984,12.35791,3.03723,20.86084,5.12701l4.4646,9.29602c10.09766,1.21722,13.19312,1.59033,23.29077,2.80756l6.52808-7.94708c8.76807,0,12.73218,.00006,21.50049,.00006l6.52759,7.94666c10.09766-1.21722,13.19312-1.59033,23.29077-2.80762l4.46411-9.29492c8.50293-2.08978,12.35791-3.03717,20.86084-5.12701l8.24292,6.15094c9.51611-3.61017,12.42603-4.71417,21.94214-8.3244l2.08789-10.065c7.7522-4.07556,11.26489-5.92224,19.01709-9.9978l9.49683,3.99567c8.3667-5.78436,10.93091-7.55707,19.29761-13.34143l-.3833-10.28156c6.55811-5.8136,9.52588-8.44446,16.08423-14.25806l10.16968,1.61481c6.74609-7.60968,8.81494-9.9436,15.56104-17.55328l-2.82422-9.90845c4.98267-7.20703,7.23853-10.47009,12.22119-17.67712l10.24609-.85583c4.73486-9.00623,6.18408-11.76306,10.91895-20.76935l-5.11133-8.93915c3.10571-8.18628,4.51367-11.89789,7.61963-20.08411l9.74658-3.29694c2.42896-9.88312,3.17188-12.90613,5.60107-22.78925l-7.09619-7.42676c1.04883-8.69922,1.52344-12.63751,2.57227-21.33673Zm-231.30371,186.52853c-112.55937,0-203.80652-91.24737-203.80652-203.80666S143.44063,52.19334,256,52.19334s203.80652,91.24737,203.80652,203.80666-91.24715,203.80666-203.80652,203.80666Z"/>
    <path class="cls-2" d="M496,267.72601c0-10.16471,0-13.28719,0-23.4519l-8.6961-5.55201c-1.04863-8.69931-1.52334-12.63742-2.57197-21.33672l7.09546-7.42572c-2.42891-9.88331-3.17179-12.90614-5.6007-22.78945l-9.74607-3.29664c-3.10564-8.18637-4.51366-11.89789-7.6193-20.08426l5.11108-8.93834c-4.73481-9.00636-6.18413-11.76318-10.91894-20.76954l-10.24552-.85583c-4.98257-7.2071-7.23846-10.47016-12.22103-17.67725l2.82417-9.90802c-6.74586-7.60982-8.81488-9.94383-15.56074-17.55365l-10.16968,1.61462c-4.2793-3.79333-7.03296-6.2345-10.24976-9.08606h-.00001c-7.22281,7.22275-7.2235,18.9-.05234,26.17403,37.83347,38.37616,61.18844,91.06208,61.18883,149.20927,.00079,117.23757-95.33337,212.57065-212.57094,212.56873-55.45999-.00091-105.95158-21.2475-143.79741-56.03845-10.68142-9.81923-27.19596-9.48553-37.45536,.77384l-.00002,.00002c2.82568,3.18774,5.2124,5.88019,9.40601,10.61072l10.16968-1.61469c6.55811,5.81368,9.52587,8.44457,16.08398,14.25825l-.3833,10.28167c8.36674,5.78443,10.93087,7.55717,19.29761,13.3416l9.49707-3.99573c7.7524,4.07571,11.26498,5.9224,19.01738,9.99811l2.08755,10.06539c9.51608,3.61032,12.42611,4.71436,21.94218,8.32469l8.24365-6.15143,20.86084,5.12701,4.46454,9.29589c10.09768,1.21727,13.19316,1.59042,23.29084,2.80769l6.52812-7.94713c8.76813,.00005,12.73232,.00007,21.50045,.00011l6.52759,7.94666c10.09765-1.21719,13.19307-1.59032,23.29072-2.80752l4.46421-9.29513c8.50301-2.08977,12.35778-3.03715,20.86079-5.12691l8.24266,6.15074c9.51608-3.61008,12.42632-4.71413,21.9424-8.32421l2.08789-10.065c7.75238-4.07548,11.26511-5.92215,19.0175-9.99763l9.49654,3.99555c8.3667-5.78438,10.93079-7.55709,19.29749-13.34148l-.38329-10.28131c6.55823-5.81372,9.52599-8.44458,16.08422-14.2583l10.16989,1.61484c6.74591-7.6097,8.81491-9.94362,15.56082-17.55332l-2.82418-9.90833c4.98262-7.20709,7.23854-10.47016,12.22116-17.67724l10.24591-.85582c4.73488-9.00625,6.18425-11.76311,10.91913-20.76936l-5.11114-8.93882c3.10567-8.18639,4.51377-11.89805,7.61944-20.08444l9.74658-3.29694c2.42893-9.88326,3.17187-12.90626,5.60081-22.78953l-7.09592-7.42648c1.04871-8.69925,1.52346-12.63742,2.57216-21.33667l8.69639-5.55219Z"/>
    <path class="cls-4" d="M86.97442,317.08725c-6.89386-19.07073-10.65871-39.63845-10.65871-61.08725,0-99.23695,80.44727-179.68441,179.68428-179.68441,21.44867,0,42.01652,3.76498,61.08731,10.65858,56.84558,12.23053,104.4095,49.43131,130.65992,99.55415-28.41233-78.40327-103.53469-134.42451-191.74723-134.42451-112.60877,0-203.89619,91.28743-203.89619,203.89619,0,88.2126,56.02124,163.33496,134.42451,191.7473-50.12271-26.25048-87.32361-73.8146-99.55389-130.66005Z"/>
    <path d="M98.59961,131.37744c-1.12012,0-2.24609-.37402-3.17773-1.14209-2.13086-1.75684-2.43359-4.90771-.67676-7.03857,10.81152-13.11377,23.20996-24.89893,36.85156-35.02686,2.21777-1.64404,5.34863-1.18311,6.99512,1.03418,1.64551,2.2168,1.18262,5.34863-1.03418,6.99512-12.99121,9.64551-24.7998,20.86914-35.09766,33.35889-.98828,1.19922-2.41895,1.81934-3.86035,1.81934Z"/>
    <path d="M256,464.896c-115.18555,0-208.89648-93.71045-208.89648-208.896,0-33.25635,8.00977-66.34863,23.16309-95.69971,1.2666-2.4541,4.28418-3.41553,6.73633-2.14941,2.45312,1.2666,3.41602,4.28271,2.14844,6.73633-14.62988,28.33838-22.04785,58.99316-22.04785,91.11279,0,109.67139,89.22461,198.896,198.89648,198.896s198.89648-89.22461,198.89648-198.896S365.67188,57.104,256,57.104c-30.7041,0-60.14258,6.80615-87.49902,20.229-2.47656,1.2168-5.47461,.19287-6.69043-2.28613-1.2168-2.479-.19336-5.4751,2.28613-6.69141,28.73828-14.10156,59.65918-21.25146,91.90332-21.25146,115.18555,0,208.89648,93.71045,208.89648,208.896s-93.71094,208.896-208.89648,208.896Z"/>
    <path d="M238.72266,500.65186c-.19922,0-.39941-.01172-.59961-.03613l-23.29102-2.80762c-1.69531-.2041-3.16895-1.25977-3.9082-2.79932l-3.44336-7.16846-16.27637-4-6.35156,4.73975c-1.37109,1.02246-3.16602,1.27295-4.76367,.66748l-21.94238-8.32471c-1.59766-.60596-2.77539-1.98633-3.12207-3.65918l-1.6084-7.75391-14.83887-7.80078-7.32031,3.08008c-1.57617,.66211-3.37793,.47559-4.7832-.49609l-19.29688-13.3418c-1.4043-.97119-2.2168-2.59229-2.15234-4.29883l.29492-7.9209-12.54883-11.12402-7.83691,1.24414c-1.69043,.26562-3.39453-.34424-4.52637-1.62158l-15.55957-17.55322c-1.13281-1.27783-1.53516-3.04541-1.06738-4.6875l2.17676-7.63672-9.53418-13.79199-7.89258-.65967c-1.70312-.14209-3.21484-1.14355-4.00977-2.65576l-10.91895-20.76953c-.79492-1.51221-.7627-3.32568,.08496-4.80859l3.94043-6.88965-5.94531-15.6709-7.51074-2.54053c-1.61816-.54736-2.84473-1.88379-3.25293-3.54297l-5.60059-22.78906c-.4082-1.65918,.05957-3.41211,1.24023-4.64746l5.46289-5.71826-2.00586-16.64697-6.70508-4.28076c-1.43848-.91846-2.30957-2.50732-2.30957-4.21436v-23.45215c0-1.70703,.87109-3.2959,2.30957-4.21436l6.70508-4.28125,2.00684-16.64648-5.46387-5.71924c-1.18066-1.23535-1.64844-2.98779-1.24023-4.64746l5.60059-22.78955c.4082-1.65918,1.63477-2.99561,3.25293-3.54297l7.51172-2.54053,5.94531-15.6709-3.94043-6.89014c-.84766-1.48291-.87988-3.29639-.08496-4.80859l10.91895-20.76953c.79492-1.51221,2.30664-2.51367,4.00977-2.65576l7.89258-.65967,9.53516-13.79199-2.17676-7.63672c-.46777-1.64209-.06543-3.40918,1.06641-4.68701l15.56152-17.55371c1.13281-1.27734,2.83594-1.88818,4.52539-1.62109l7.83691,1.24414,12.54883-11.12354-.29492-7.92139c-.06445-1.70654,.74805-3.32764,2.15234-4.29883l19.29688-13.34131c1.4043-.97119,3.20898-1.1582,4.78223-.49609l7.32129,3.08008,14.83789-7.80078,1.6084-7.75293c.34668-1.67334,1.52441-3.05371,3.12207-3.65967l21.94238-8.32422c1.59668-.60547,3.39355-.35449,4.76367,.66748l6.35156,4.73926,16.27734-4,3.44238-7.16748c.73926-1.53955,2.21289-2.59521,3.9082-2.79932l23.29102-2.80762c1.69043-.20654,3.37793,.47021,4.46191,1.79053l5.02734,6.12012h16.77344l5.02832-6.12109c1.08398-1.31934,2.77051-1.99561,4.46191-1.79004l23.29102,2.80762c1.69531,.2041,3.16895,1.25977,3.9082,2.79932l3.44336,7.16846,16.27637,4,6.35156-4.73975c1.37012-1.02197,3.16699-1.27393,4.76367-.66748l21.94238,8.32471c1.59766,.60596,2.77539,1.98633,3.12207,3.65918l1.6084,7.75391,14.83887,7.80078,7.32031-3.08008c1.57617-.66211,3.37793-.47559,4.7832,.49609l19.29688,13.3418c2.27148,1.5708,2.83984,4.68506,1.26855,6.95654-1.56934,2.26953-4.68359,2.84033-6.95605,1.26904l-17.04102-11.78271-6.9707,2.93262c-1.37695,.57861-2.94238,.5127-4.26465-.18311l-19.01855-9.99805c-1.32227-.6958-2.26465-1.94678-2.56836-3.41016l-1.53125-7.37939-16.81152-6.37842-6.04492,4.51074c-1.19727,.89404-2.73145,1.20703-4.18359,.84814l-20.86035-5.12695c-1.45117-.35645-2.66699-1.34375-3.31348-2.69092l-3.27832-6.82422-17.84766-2.15186-4.78809,5.8291c-.94922,1.15625-2.36719,1.82617-3.86328,1.82617h-21.5c-1.49609,0-2.91406-.66992-3.86328-1.82617l-4.78809-5.82861-17.84668,2.15137-3.27734,6.82373c-.64648,1.34717-1.8623,2.33447-3.31348,2.69092l-20.86133,5.12695c-1.4502,.35742-2.98535,.0459-4.18359-.84814l-6.04395-4.51025-16.8125,6.37793-1.53027,7.37842c-.30273,1.46387-1.24609,2.71484-2.56934,3.41064l-19.0166,9.99805c-1.32324,.6958-2.88672,.76221-4.2666,.18311l-6.96973-2.93262-14.78613,10.22314,.28027,7.54199c.05566,1.49463-.56055,2.93555-1.67969,3.92773l-16.08398,14.25732c-1.11914,.99219-2.62109,1.43066-4.10059,1.19678l-7.46289-1.18457-11.92383,13.45068,2.07324,7.27197c.41016,1.43799,.1543,2.98438-.69629,4.21436l-12.2207,17.67676c-.85059,1.22998-2.20703,2.01465-3.69727,2.13916l-7.5127,.62793-8.36621,15.91406,3.75,6.55811c.74121,1.29736,.86426,2.8584,.33398,4.25537l-7.61914,20.08398c-.53027,1.39746-1.65723,2.48438-3.07227,2.96289l-7.14844,2.41797-4.29199,17.46143,5.20117,5.44336c1.0332,1.08105,1.52734,2.56787,1.34863,4.05273l-2.57227,21.33643c-.17871,1.48438-1.0127,2.81104-2.27344,3.61572l-6.38672,4.07764v17.97217l6.38672,4.07764c1.26074,.80469,2.09473,2.13135,2.27344,3.61621l2.57129,21.3374c.17871,1.48389-.31543,2.9707-1.34863,4.05176l-5.2002,5.44238,4.29199,17.46094,7.14746,2.41797c1.41504,.479,2.54199,1.56592,3.07227,2.96289l7.61914,20.08398c.53027,1.39697,.40723,2.95801-.33398,4.25537l-3.75,6.55762,8.36621,15.91406,7.5127,.62793c1.49023,.12451,2.84668,.90918,3.69727,2.13916l12.2207,17.67725c.84961,1.22998,1.10547,2.77588,.69531,4.21387l-2.07324,7.27197,11.92383,13.45117,7.46289-1.18457c1.47852-.23535,2.98145,.2041,4.10059,1.19629l16.08398,14.2583c1.11914,.9917,1.73535,2.43262,1.67969,3.92725l-.28027,7.54199,14.78613,10.22363,6.9707-2.93262c1.37695-.5791,2.94238-.5127,4.26465,.18311l19.01855,9.99805c1.32227,.6958,2.26465,1.94678,2.56836,3.41016l1.53125,7.37939,16.81152,6.37842,6.04492-4.51074c1.19824-.89355,2.7334-1.20459,4.18359-.84814l20.86035,5.12695c1.45117,.35645,2.66699,1.34375,3.31348,2.69092l3.27832,6.82422,17.84766,2.15186,4.78809-5.8291c.94922-1.15625,2.36719-1.82617,3.86328-1.82617l21.5,.00049c1.49609,0,2.91406,.66992,3.86328,1.82617l4.78711,5.82812,17.84766-2.15137,3.27734-6.82373c.64648-1.34717,1.8623-2.33447,3.31348-2.69092l20.86133-5.12695c1.45312-.35693,2.98633-.04541,4.18359,.84814l6.04395,4.51025,16.8125-6.37793,1.53027-7.37842c.30273-1.46387,1.24609-2.71484,2.56934-3.41064l19.0166-9.99805c1.32422-.69482,2.8877-.76123,4.2666-.18311l6.96973,2.93262,14.78613-10.22314-.28027-7.54199c-.05566-1.49463,.56055-2.93555,1.67969-3.92773l16.08398-14.25732c1.11914-.99219,2.62109-1.43066,4.10059-1.19678l7.46289,1.18457,11.92383-13.45068-2.07324-7.27197c-.41016-1.43799-.1543-2.98438,.69629-4.21436l12.2207-17.67676c.85059-1.22998,2.20703-2.01465,3.69727-2.13916l7.5127-.62793,8.36621-15.91406-3.75-6.55811c-.74121-1.29736-.86426-2.8584-.33398-4.25537l7.61914-20.08398c.53027-1.39746,1.65723-2.48438,3.07227-2.96289l7.14844-2.41797,4.29199-17.46143-5.20117-5.44336c-1.0332-1.08105-1.52734-2.56787-1.34863-4.05273l2.57227-21.33643c.17871-1.48438,1.0127-2.81104,2.27344-3.61572l6.38672-4.07764v-17.97217l-6.38672-4.07764c-1.26074-.80469-2.09473-2.13135-2.27344-3.61621l-2.57129-21.3374c-.17871-1.48389,.31543-2.9707,1.34863-4.05176l5.2002-5.44238-4.29199-17.46094-7.14746-2.41797c-1.41504-.479-2.54199-1.56592-3.07227-2.96289l-7.61914-20.08398c-.53027-1.39697-.40723-2.95801,.33398-4.25537l3.75-6.55762-8.36621-15.91406-7.5127-.62793c-1.49023-.12451-2.84668-.90918-3.69727-2.13916l-12.2207-17.67725c-.84961-1.22998-1.10547-2.77588-.69531-4.21387l2.07324-7.27197-11.92383-13.45117-7.46289,1.18457c-2.73926,.43896-5.28809-1.42773-5.72266-4.15381-.43262-2.72754,1.42676-5.28906,4.1543-5.72217l10.16992-1.61475c1.68848-.26855,3.39355,.34424,4.52637,1.62158l15.55957,17.55322c1.13281,1.27783,1.53516,3.04541,1.06738,4.6875l-2.17676,7.63672,9.53418,13.79199,7.89258,.65967c1.70312,.14209,3.21484,1.14355,4.00977,2.65576l10.91895,20.76953c.79492,1.51221,.7627,3.32568-.08496,4.80859l-3.94043,6.88965,5.94531,15.6709,7.51074,2.54053c1.61816,.54736,2.84473,1.88379,3.25293,3.54297l5.60059,22.78906c.4082,1.65918-.05957,3.41211-1.24023,4.64746l-5.46289,5.71826,2.00586,16.64697,6.70508,4.28076c1.43848,.91846,2.30957,2.50732,2.30957,4.21436v23.45215c0,1.70703-.87109,3.2959-2.30957,4.21436l-6.70508,4.28125-2.00684,16.64648,5.46387,5.71924c1.18066,1.23535,1.64844,2.98779,1.24023,4.64746l-5.60059,22.78955c-.4082,1.65918-1.63477,2.99561-3.25293,3.54297l-7.51172,2.54053-5.94531,15.6709,3.94043,6.89014c.84766,1.48291,.87988,3.29639,.08496,4.80859l-10.91895,20.76953c-.79492,1.51221-2.30664,2.51367-4.00977,2.65576l-7.89258,.65967-9.53516,13.79199,2.17676,7.63672c.46777,1.64209,.06543,3.40918-1.06641,4.68701l-15.56152,17.55371c-1.13184,1.27783-2.83496,1.8916-4.52539,1.62109l-7.83691-1.24414-12.54883,11.12354,.29492,7.92139c.06445,1.70654-.74805,3.32764-2.15234,4.29883l-19.29688,13.34131c-1.4043,.9707-3.20898,1.1582-4.78223,.49609l-7.32129-3.08008-14.83789,7.80078-1.6084,7.75293c-.34668,1.67334-1.52441,3.05371-3.12207,3.65967l-21.94238,8.32422c-1.59668,.60645-3.39258,.35498-4.76367-.66748l-6.35156-4.73926-16.27734,4-3.44238,7.16748c-.73926,1.53955-2.21289,2.59521-3.9082,2.79932l-23.29102,2.80762c-1.69531,.20752-3.37793-.47021-4.46191-1.79004l-5.02734-6.12012-16.77344-.00049-5.02832,6.12109c-.95605,1.16357-2.37695,1.82617-3.8623,1.82617Z"/>
    <path d="M256,442.61963c-102.90234,0-186.62012-83.71729-186.62012-186.61963S153.09766,69.38037,256,69.38037s186.62012,83.71729,186.62012,186.61963c0,2.76123-2.23828,5-5,5s-5-2.23877-5-5c0-97.38818-79.23145-176.61963-176.62012-176.61963S79.37988,158.61182,79.37988,256s79.23145,176.61963,176.62012,176.61963c40.52832,0,78.64355-13.35059,110.22559-38.60791,30.66309-24.52246,52.53418-58.93408,61.58496-96.896,.63965-2.68555,3.33496-4.34521,6.02246-3.7041,2.68652,.64062,4.34473,3.33691,3.7041,6.02344-9.56348,40.11768-32.67188,76.479-65.06543,102.38623-33.37402,26.69043-73.64941,40.79834-116.47168,40.79834Z"/>
  </g>
  <circle class="cls-3" cx="256" cy="256" r="36.81397"/>
  <circle class="cls-5" cx="256" cy="256" r="15.36058"/>
  <path class="cls-6" d="M248.6665,261.77759c0-7.24097,5.87012-13.11108,13.11108-13.11108,3.55566,0,6.77563,1.42078,9.13745,3.71887-1.62769-6.73608-7.67896-11.74597-14.91504-11.74597-8.4834,0-15.3606,6.8772-15.3606,15.3606,0,7.23608,5.01001,13.28735,11.74585,14.91504-2.29785-2.36182-3.71875-5.58179-3.71875-9.13745Z"/>
  <path class="cls-2" d="M268.79053,221.47217c7.06299,6.15051,11.53345,15.2019,11.53345,25.3031,0,18.52844-15.02026,33.54871-33.54858,33.54871-10.10132,0-19.15283-4.47046-25.30322-11.53345,5.19775,14.02576,18.69409,24.02344,34.52783,24.02344,20.33179,0,36.81396-16.48218,36.81396-36.81396,0-15.83374-9.99756-29.33008-24.02344-34.52783Z"/>
  <path d="M256,297.81396c-23.05664,0-41.81445-18.75781-41.81445-41.81396s18.75781-41.81396,41.81445-41.81396,41.81445,18.75781,41.81445,41.81396-18.75781,41.81396-41.81445,41.81396Zm0-73.62793c-17.54297,0-31.81445,14.27148-31.81445,31.81396s14.27148,31.81396,31.81445,31.81396,31.81445-14.27148,31.81445-31.81396-14.27148-31.81396-31.81445-31.81396Z"/>
  <path d="M256,276.36035c-11.22656,0-20.36035-9.13379-20.36035-20.36035s9.13379-20.36035,20.36035-20.36035,20.36035,9.13379,20.36035,20.36035c0,2.76123-2.23828,5-5,5s-5-2.23877-5-5c0-5.71289-4.64746-10.36035-10.36035-10.36035s-10.36035,4.64746-10.36035,10.36035,4.64746,10.36035,10.36035,10.36035c2.76172,0,5,2.23877,5,5s-2.23828,5-5,5Z"/>
  <path d="M256,224.18604c-2.76172,0-5-2.23877-5-5V74.38037c0-2.76123,2.23828-5,5-5s5,2.23877,5,5V219.18604c0,2.76123-2.23828,5-5,5Z"/>
  <path d="M237.59766,229.11914c-1.72852,0-3.40918-.89697-4.33496-2.50098l-72.40234-125.40527c-1.38086-2.3916-.56152-5.44922,1.83008-6.83008,2.39062-1.38184,5.44922-.56104,6.83008,1.83008l72.40234,125.40527c1.38086,2.3916,.56152,5.44922-1.83008,6.83008-.78711,.45459-1.64746,.6709-2.49512,.6709Z"/>
  <path d="M224.11328,242.59375c-.84766,0-1.70801-.21631-2.49512-.6709l-125.40527-72.40283c-2.3916-1.38086-3.21094-4.43848-1.83008-6.83008,1.37988-2.39062,4.43652-3.21143,6.83008-1.83008l125.40527,72.40283c2.3916,1.38086,3.21094,4.43848,1.83008,6.83008-.92578,1.604-2.60645,2.50098-4.33496,2.50098Z"/>
  <path d="M219.18555,261H74.37988c-2.76172,0-5-2.23877-5-5s2.23828-5,5-5H219.18555c2.76172,0,5,2.23877,5,5s-2.23828,5-5,5Z"/>
  <path d="M98.71777,351.81104c-1.72852,0-3.40918-.89697-4.33496-2.50098-1.38086-2.3916-.56152-5.44922,1.83008-6.83008l125.40527-72.40283c2.3916-1.38184,5.4502-.56055,6.83008,1.83008,1.38086,2.3916,.56152,5.44922-1.83008,6.83008l-125.40527,72.40283c-.78711,.45459-1.64746,.6709-2.49512,.6709Z"/>
  <path d="M179.27344,393.88623c-.84766,0-1.70801-.21631-2.49512-.6709-2.3916-1.38086-3.21094-4.43848-1.83008-6.83008l58.31445-101.00342c1.37988-2.39062,4.43652-3.21191,6.83008-1.83008,2.3916,1.38086,3.21094,4.43848,1.83008,6.83008l-58.31445,101.00342c-.92578,1.604-2.60645,2.50098-4.33496,2.50098Z"/>
  <path d="M256,442.61963c-2.76172,0-5-2.23877-5-5v-144.80566c0-2.76123,2.23828-5,5-5s5,2.23877,5,5v144.80566c0,2.76123-2.23828,5-5,5Z"/>
  <path d="M346.81445,418.28809c-1.72852,0-3.40918-.89697-4.33496-2.50098l-72.40234-125.40527c-1.38086-2.3916-.56152-5.44922,1.83008-6.83008,2.3916-1.38184,5.4502-.56055,6.83008,1.83008l72.40234,125.40527c1.38086,2.3916,.56152,5.44922-1.83008,6.83008-.78711,.45459-1.64746,.6709-2.49512,.6709Z"/>
  <path d="M413.28223,351.81104c-.84766,0-1.70801-.21631-2.49512-.6709l-125.40527-72.40283c-2.3916-1.38086-3.21094-4.43848-1.83008-6.83008,1.37891-2.39062,4.43652-3.21191,6.83008-1.83008l125.40527,72.40283c2.3916,1.38086,3.21094,4.43848,1.83008,6.83008-.92578,1.604-2.60645,2.50098-4.33496,2.50098Z"/>
  <path d="M437.62012,261h-144.80566c-2.76172,0-5-2.23877-5-5s2.23828-5,5-5h144.80566c2.76172,0,5,2.23877,5,5s-2.23828,5-5,5Z"/>
  <path d="M287.88672,242.59424c-1.72852,0-3.40918-.89697-4.33496-2.50098-1.38086-2.3916-.56152-5.44922,1.83008-6.83008l125.40527-72.40332c2.3916-1.38135,5.4502-.56055,6.83008,1.83008,1.38086,2.3916,.56152,5.44922-1.83008,6.83008l-125.40527,72.40332c-.78711,.45459-1.64746,.6709-2.49512,.6709Z"/>
  <path d="M274.40234,229.11914c-.84766,0-1.70801-.21631-2.49512-.6709-2.3916-1.38086-3.21094-4.43848-1.83008-6.83008l72.40234-125.40527c1.37891-2.39111,4.4375-3.21191,6.83008-1.83008,2.3916,1.38086,3.21094,4.43848,1.83008,6.83008l-72.40234,125.40527c-.92578,1.604-2.60645,2.50098-4.33496,2.50098Z"/>
</svg>