<?xml version="1.0" encoding="UTF-8"?>
<svg id="Layer_1" data-name="Layer 1" xmlns="http://www.w3.org/2000/svg" viewBox="0 0 512 512">
  <defs>
    <style>
      .cls-1 {
        fill: #e7e8f1;
      }

      .cls-2 {
        fill: #ed5920;
      }

      .cls-3 {
        fill: #ff702e;
      }

      .cls-4 {
        fill: #c7c8ce;
      }

      .cls-5 {
        fill: #5f606b;
      }

      .cls-6 {
        fill: #51545a;
      }
    </style>
  </defs>
  <path class="cls-5" d="M82.20457,232.46404v-41.19993c0-8.50351-6.89346-15.39697-15.39697-15.39697H31.397c-8.50351,0-15.39697,6.89346-15.39697,15.39697v129.47178c0,8.50351,6.89346,15.39697,15.39697,15.39697H125.40149v-103.66882h-43.19692Z"/>
  <path class="cls-3" d="M140.79848,232.46405H495.99997v103.66881H140.79848c-8.49782,0-15.39697-6.89915-15.39697-15.39697v-72.87487c0-8.49782,6.89915-15.39697,15.39697-15.39697Z" transform="translate(621.40148 568.59691) rotate(180)"/>
  <circle class="cls-1" cx="82.44975" cy="284.29846" r="24.18679"/>
  <circle class="cls-4" cx="82.44975" cy="284.29846" r="11.93754"/>
  <path class="cls-6" d="M83.88109,315.51922c-24.44824,0-44.26745-19.81921-44.26745-44.26745v-51.06888c0-14.02586-9.87096-26.11448-23.61362-28.91877h-.00002s0,129.47171,0,129.47171c0,8.50355,6.89349,15.39703,15.39703,15.39703H125.40148v-20.61364h-41.52038Z"/>
  <path class="cls-2" d="M125.40154,315.51922v20.61364H480.60291c8.50366,0,15.39709-6.89343,15.39709-15.39697v-5.21667H125.40154Z"/>
  <path d="M125.40137,341.13281H31.39697c-11.24707,0-20.39697-9.1499-20.39697-20.39697V191.26416c0-11.24707,9.1499-20.39697,20.39697-20.39697h35.41064c11.24707,0,20.39697,9.1499,20.39697,20.39697v36.19971h38.19678c2.76123,0,5,2.23877,5,5v73.35498c0,2.76123-2.23877,5-5,5s-5-2.23877-5-5v-68.35498h-38.19678c-2.76123,0-5-2.23877-5-5v-41.19971c0-5.73291-4.66406-10.39697-10.39697-10.39697H31.39697c-5.73291,0-10.39697,4.66406-10.39697,10.39697v129.47168c0,5.73291,4.66406,10.39697,10.39697,10.39697H125.40137c2.76123,0,5,2.23877,5,5s-2.23877,5-5,5Z"/>
  <path d="M480.60303,341.13281H125.40137c-2.76123,0-5-2.23877-5-5s2.23877-5,5-5H480.60303c5.73291,0,10.39697-4.66406,10.39697-10.39697v-72.875c0-5.73291-4.66406-10.39697-10.39697-10.39697H156.55518c-2.76123,0-5-2.23877-5-5s2.23877-5,5-5H480.60303c11.24707,0,20.39697,9.1499,20.39697,20.39697v72.875c0,11.24707-9.1499,20.39697-20.39697,20.39697Z"/>
  <path d="M82.44971,313.48535c-16.09375,0-29.18652-13.09326-29.18652-29.18701,0-2.76123,2.23877-5,5-5s5,2.23877,5,5c0,10.57959,8.60693,19.18701,19.18652,19.18701s19.18701-8.60742,19.18701-19.18701-8.60742-19.18652-19.18701-19.18652c-2.76123,0-5-2.23877-5-5s2.23877-5,5-5c16.09375,0,29.18701,13.09277,29.18701,29.18652s-13.09326,29.18701-29.18701,29.18701Z"/>
  <g>
    <polygon class="cls-1" points="247.08863 300.74308 247.08865 255.68616 304.03703 278.21464 304.03704 255.68618 374.31283 300.74312 318.09219 288.81621 318.09218 312.91077 247.08863 300.74308"/>
    <g>
      <path class="cls-4" d="M304.03699,278.21467l-56.94849-22.52852v15.04398s42.95943,16.99447,42.95943,16.99447c6.71248,2.65541,13.98906-2.29128,13.98906-9.50991v-.00002Z"/>
      <polygon class="cls-4" points="339.24531 293.30371 374.31298 300.74312 304.037 255.68616 304.037 270.73014 339.24531 293.30371"/>
    </g>
    <path d="M318.09229,317.91064c-.28076,0-.56348-.02344-.84473-.07178l-71.00342-12.16748c-2.40039-.41162-4.15527-2.49268-4.15527-4.92822v-45.05713c0-1.65576,.81982-3.2041,2.18896-4.13477s3.11084-1.12305,4.65039-.51465l33.67627,13.32227c2.56787,1.01562,3.82568,3.9209,2.81006,6.48877-1.01611,2.56738-3.91992,3.82422-6.48877,2.81006l-26.83691-10.6167v33.48633l61.00342,10.45361v-18.16455c0-1.5083,.68066-2.93555,1.85254-3.88525,1.17188-.94922,2.70996-1.31934,4.18506-1.00586l29.42432,6.24219-39.51709-25.33643v13.38379c0,2.76123-2.23877,5-5,5s-5-2.23877-5-5v-22.52881c0-1.82812,.99756-3.51025,2.60156-4.38721,1.60303-.87549,3.55762-.80908,5.09717,.17822l70.27588,45.05713c2.0332,1.30322,2.84375,3.87402,1.92676,6.10791-.91699,2.23438-3.29785,3.49316-5.66309,2.99219l-50.18311-10.646v17.92236c0,1.47363-.65039,2.87256-1.77686,3.82227-.90869,.76611-2.05273,1.17773-3.22314,1.17773Z"/>
  </g>
</svg>