<?xml version="1.0" encoding="UTF-8"?>
<svg id="Layer_1" data-name="Layer 1" xmlns="http://www.w3.org/2000/svg" viewBox="0 0 512 512">
  <defs>
    <style>
      .cls-1 {
        fill: #ed5920;
      }

      .cls-2 {
        fill: #ff702e;
      }

      .cls-3 {
        fill: #5f606b;
      }

      .cls-4 {
        fill: #51545a;
      }
    </style>
  </defs>
  <path class="cls-3" d="M285.25927,294.25894h-80.22626c-10.42059,0-20.19958-5.033-26.25566-13.51313l-44.12227-61.78297h220.98213l-44.12227,61.78297c-6.05608,8.48013-15.83507,13.51313-26.25566,13.51313Z"/>
  <path class="cls-4" d="M134.65503,218.96289l42.40723,59.38135h70.03247c14.46045,0,28.54297-4.61853,40.19458-13.1825l27.85522-20.47351c9.18652-6.75195,19.88574-11.03906,31.08789-12.55615l9.40479-13.16919H134.65503Z"/>
  <path class="cls-3" d="M277.54345,294.25894h-64.7946l30.2625,111.67449c1.18106,4.35833,5.13636,7.38445,9.65189,7.38445h50.60854c3.29351,0,5.68738-3.12892,4.82594-6.30777l-30.55427-112.75117Z"/>
  <path class="cls-2" d="M25.68989,126.39687l-.00006,.00008c-16.13401,23.50752-11.70897,55.43471,10.21026,73.66813l60.16006,50.04392c12.1903,10.14045,27.54641,15.69251,43.40302,15.69251h93.25329c14.4604,0,28.54281-4.61859,40.19451-13.18254l27.85539-20.4736c11.65169-8.56395,25.73411-13.18254,40.19451-13.18254h133.10364c12.11464,0,21.93549-9.82085,21.93549-21.93549v-.00007c0-25.90767-21.00232-46.90999-46.90999-46.90999h-54.2727c-100.71097,0-200.76158-16.25777-296.29087-48.14592l-.00019-.00006c-27.00913-9.01578-56.72352,.9489-72.83635,24.42556Z"/>
  <path class="cls-2" d="M25.68989,126.39687l-.00006,.00008c-16.13401,23.50752-11.70897,55.43471,10.21026,73.66813l60.16006,50.04392c12.1903,10.14045,27.54641,15.69251,43.40302,15.69251h93.25329c14.4604,0,28.54281-4.61859,40.19451-13.18254l27.85539-20.4736c11.65169-8.56395,25.73411-13.18254,40.19451-13.18254h133.10364c12.11464,0,21.93549-9.82085,21.93549-21.93549v-.00007c0-25.90767-21.00232-46.90999-46.90999-46.90999h-54.2727c-100.71097,0-200.76158-16.25777-296.29087-48.14592l-.00019-.00006c-27.00913-9.01578-56.72352,.9489-72.83635,24.42556Z"/>
  <path class="cls-1" d="M182.72021,232.00928c-16.06494,0-31.62256-5.62488-43.9729-15.89844l-60.94995-50.70093c-19.21191-15.98145-25.14551-42.34326-15.81592-64.58545-14.40649,3.81726-27.41479,12.63867-36.2915,25.57239v.00012c-16.13403,23.50757-11.70898,55.43469,10.21021,73.66809l60.15991,50.04395c12.19043,10.1405,27.54639,15.6925,43.40308,15.6925h93.25342c14.46021,0,28.54272-4.61865,40.19434-13.18262l27.85547-20.47351c.06348-.04675,.12939-.0896,.19312-.13611h-118.23926Z"/>
  <path class="cls-4" d="M270.66561,307.85229h10.56144l-3.68359-13.59338h-64.79468l30.26245,111.67444c1.18107,4.35838,5.13641,7.38452,9.65198,7.38452h16.78455l-20.78613-76.70518c-3.92771-14.49406,6.98718-28.7604,22.00399-28.7604Z"/>
  <path d="M285.25879,299.25879h-80.22559c-12.00977,0-23.34668-5.83447-30.3252-15.60742l-10.67285-14.94434c-1.60449-2.24707-1.08398-5.36963,1.16309-6.97461,2.24707-1.604,5.36914-1.08496,6.97559,1.16309l10.67285,14.94434c5.10547,7.15039,13.39941,11.41895,22.18652,11.41895h80.22559c8.78711,0,17.08105-4.26855,22.18652-11.41895l22.91895-32.0918c1.60645-2.24854,4.72949-2.76709,6.97559-1.16309,2.24707,1.60498,2.76758,4.72754,1.16309,6.97461l-22.91895,32.0918c-6.97852,9.77295-18.31543,15.60742-30.3252,15.60742Z"/>
  <path d="M303.27148,418.31787h-50.6084c-6.75781,0-12.71094-4.55518-14.47754-11.07715l-23.65332-87.28174c-.72168-2.66504,.85352-5.41113,3.51855-6.1333,2.66504-.72168,5.41211,.85303,6.13379,3.51807l23.65332,87.28223c.58887,2.17383,2.57324,3.69189,4.8252,3.69189h50.6084l-30.55469-112.75146c-.72168-2.66504,.85352-5.41113,3.51855-6.1333,2.66504-.72314,5.41113,.85303,6.13379,3.51807l30.55469,112.75146c.82129,3.03027,.19727,6.19824-1.70996,8.69189-1.9082,2.49316-4.80273,3.92334-7.94238,3.92334Z"/>
  <path d="M232.7168,270.80127h-93.25391c-16.99023,0-33.54004-5.9834-46.59961-16.84863l-60.16016-50.04395c-24.05273-20.00684-28.83984-54.54639-11.13574-80.34082,17.2793-25.17725,49.5791-36.00781,78.54199-26.33936,95.19531,31.77637,194.34961,47.88867,294.70801,47.88867h21.17969c2.76172,0,5,2.23877,5,5s-2.23828,5-5,5h-21.17969c-101.43652,0-201.65625-16.28516-297.87402-48.40332-24.75684-8.26465-52.36133,.99316-67.13184,22.5127-14.7627,21.50928-10.77051,50.31104,9.28613,66.99463l60.16016,50.04395c11.26855,9.37402,25.54688,14.53613,40.20508,14.53613h93.25391c13.49023,0,26.36523-4.22266,37.2334-12.21094l27.85547-20.47363c12.59766-9.25928,27.52051-14.15381,43.15527-14.15381h133.10352c9.33789,0,16.93555-7.59717,16.93555-16.93555,0-23.10938-18.80078-41.91016-41.91016-41.91016-2.76172,0-5-2.23877-5-5s2.23828-5,5-5c28.62305,0,51.91016,23.28662,51.91016,51.91016,0,14.85205-12.08301,26.93555-26.93555,26.93555h-133.10352c-13.48926,0-26.36426,4.22266-37.2334,12.21143l-27.85547,20.47363c-12.59668,9.25928-27.51953,14.15332-43.15527,14.15332Z"/>
</svg>