<?xml version="1.0" encoding="UTF-8"?>
<svg id="Layer_1" data-name="Layer 1" xmlns="http://www.w3.org/2000/svg" viewBox="0 0 512 512">
  <defs>
    <style>
      .cls-1 {
        fill: #e7e8f1;
      }

      .cls-2 {
        fill: #ed5920;
      }

      .cls-3 {
        fill: #ff702e;
      }

      .cls-4 {
        fill: #c7c8ce;
      }
    </style>
  </defs>
  <path class="cls-3" d="M252.9137,49.52246c24.14905-1.81567,44.9071,4.18188,50.7782,13.85974l60.98517-4.58557-2.17224-28.88928c-.62256-8.27966-7.83917-14.48694-16.11877-13.86438l-186.84845,14.04932c-8.2796,.62256-14.48688,7.83923-13.86432,16.1189l2.17224,28.88928,56.93347-4.28088c4.35785-10.44702,23.98566-19.4812,48.1347-21.29712Z"/>
  <path class="cls-2" d="M252.9137,49.52246c24.14899-1.81567,44.90692,4.18188,50.77814,13.85974l60.98523-4.58557-1.35388-18.00586-216.83154,16.30371,1.35388,18.00598,56.93347-4.28088c4.35791-10.44702,23.98566-19.4812,48.1347-21.29712Z"/>
  <path class="cls-3" d="M387.29053,79.24683l-9.75342-18.07007c-.9397-1.74097-2.81573-2.76611-4.78845-2.6167l-68.81561,5.21265c.80096,1.43225,1.28113,2.94177,1.39954,4.51685,.93768,12.47095-21.01068,24.28833-49.02313,26.39453-28.01245,2.10632-51.4812-6.2959-52.41888-18.76709-.11694-1.55542,.12268-3.10083,.68518-4.61841l-67.96393,5.14807c-2.32764,.17639-4.22534,1.9364-4.57593,4.24426l-3.51501,23.13684c-.31024,2.04211,.66431,4.06543,2.45447,5.09583l14.39594,8.28662c15.99487,9.20679,25.85333,26.25659,25.85333,44.71216V485.97754c0,5.53516,4.4873,10.02246,10.02264,10.02246h88.24426c5.53534,0,10.02258-4.4873,10.02258-10.02246V176.8833c0-18.43066,9.83215-35.46143,25.79303-44.67749l80.07935-46.23889c2.34827-1.35596,3.19202-4.33386,1.90405-6.72009Z"/>
  <path class="cls-1" d="M134.56652,119.54815h22.48347c5.60487,0,10.15531,4.55044,10.15531,10.15531v17.38868h-42.79409v-17.38868c0-5.60487,4.55044-10.15531,10.15531-10.15531Z" transform="translate(205.42185 321.68289) rotate(-150)"/>
  <path class="cls-4" d="M171.22462,132.09173l-37.06076-21.3971-5.42195,9.39104,4.36696,2.51372c11.37078,6.54515,19.63544,17.05565,23.46658,29.21526,2.42429-.70618,4.59263-2.30451,5.95483-4.66383l8.69434-15.05908Z"/>
  <path d="M148.65283,155.86914c-.84814,0-1.70752-.21582-2.49512-.6709l-19.47119-11.24219c-3.50537-2.02344-6.01318-5.29199-7.06104-9.20215s-.51025-7.99414,1.51416-11.5l8.69434-15.05957c1.38037-2.39062,4.4375-3.21191,6.83008-1.83008,2.3916,1.38086,3.21094,4.43848,1.83008,6.83008l-8.69434,15.05957c-.68848,1.19238-.87158,2.58203-.51514,3.91211s1.20947,2.44141,2.40137,3.12988l19.47168,11.24219c2.3916,1.38086,3.21094,4.43848,1.83008,6.83008-.92627,1.60449-2.60693,2.50098-4.33496,2.50098Z"/>
  <path class="cls-1" d="M339.72629,102.20238h42.79409v17.38868c0,5.60487-4.55044,10.15531-10.15531,10.15531h-22.48347c-5.60487,0-10.15531-4.55044-10.15531-10.15531v-17.38868h0Z" transform="translate(-9.60583 196.09929) rotate(-30)"/>
  <path class="cls-2" d="M182.43605,138.54524l-42.66824-24.56048,5.60345,3.22541c15.99489,9.20684,25.85337,26.25653,25.85337,44.71194V485.97741c0,5.53532,4.48727,10.02259,10.02259,10.02259h35.32106V165.93142c0-5.32988-.82694-10.5406-2.38165-15.48069-11.1185-2.19929-21.84905-6.20613-31.75057-11.90549Z"/>
  <path d="M249.79785,157.43066h-15.40381c-19.0835,0-37.91309-5.03223-54.45215-14.55273l-54.42969-31.33008c-2.39355-1.37695-3.2168-4.43359-1.83936-6.82715,1.37793-2.39258,4.43555-3.21875,6.82764-1.83887l54.42969,31.33008c15.02441,8.64746,32.12842,13.21875,49.46387,13.21875h15.40381c2.76123,0,5,2.23828,5,5s-2.23877,5-5,5Z"/>
  <polygon class="cls-4" points="372.7677 93.3489 335.70695 114.746 341.71993 125.16075 378.67188 103.57528 372.7677 93.3489"/>
  <path d="M269.4917,501h-88.24463c-8.2832,0-15.02246-6.73926-15.02246-15.02246V161.92188c0-16.61621-8.94629-32.08887-23.34814-40.37891l-14.39502-8.28613c-3.604-2.07324-5.52881-6.06934-4.90381-10.18066l3.51465-23.13574c.70557-4.6377,4.46436-8.125,9.14111-8.47949l67.64209-5.12305c2.75049-.2041,5.15479,1.85352,5.36328,4.60742s-1.85449,5.15527-4.6084,5.36328l-67.64111,5.12305-3.5249,23.14746,14.40088,8.29785c17.49268,10.06836,28.35938,28.86133,28.35938,49.04492V485.97754c0,2.76953,2.25293,5.02246,5.02246,5.02246h88.24463c2.76953,0,5.02246-2.25293,5.02246-5.02246,0-2.76172,2.23877-5,5-5s5,2.23828,5,5c0,8.2832-6.73926,15.02246-15.02246,15.02246Z"/>
  <path d="M279.51416,458.48828c-2.76123,0-5-2.23828-5-5v-29.58887c0-2.76172,2.23877-5,5-5s5,2.23828,5,5v29.58887c0,2.76172-2.23877,5-5,5Z"/>
  <path d="M279.51416,393.99902c-2.76123,0-5-2.23828-5-5V176.88281c0-20.15234,10.84131-38.93066,28.29297-49.00684l80.0791-46.23926-9.74902-18.08496-68.82568,5.20605c-2.7334,.20703-5.1543-1.85352-5.36328-4.60742-.2085-2.75391,1.85449-5.15527,4.60791-5.36328l68.81494-5.21289c3.93652-.31152,7.69092,1.75293,9.56592,5.22754l9.75342,18.07031c2.5918,4.80078,.9209,10.69824-3.80518,13.4248l-80.07812,46.23926c-14.36768,8.2959-23.29297,23.75586-23.29297,40.34668v212.11621c0,2.76172-2.23877,5-5,5Z"/>
  <path d="M353.22217,139.87988c-5.24268,0-10.34717-2.71875-13.15088-7.5752l-8.69434-15.05859c-.66309-1.14844-.84277-2.5127-.49951-3.79395s1.18115-2.37305,2.32959-3.03613l37.06055-21.39746c1.14893-.66309,2.51318-.84082,3.79395-.5,1.28125,.34375,2.37305,1.18164,3.03613,2.33008l8.69434,15.05957c2.02441,3.50586,2.56201,7.58984,1.51416,11.5s-3.55566,7.17871-7.06104,9.20215l-19.47119,11.24219c-2.38037,1.37402-4.98291,2.02734-7.55176,2.02734Zm-10.68506-23.30371l6.19434,10.72852c1.42188,2.46387,4.58203,3.30664,7.04297,1.8877l19.4707-11.24219h.00049c1.19189-.68848,2.04492-1.7998,2.40137-3.12988s.17334-2.71973-.51514-3.91211l-6.19435-10.72949-28.40038,16.39746Z"/>
  <path d="M147.84033,80.10059c-2.59082,0-4.7832-1.99902-4.98047-4.625l-2.17237-28.88965c-.40136-5.33594,1.29932-10.50879,4.78907-14.56641,3.48926-4.05664,8.3501-6.51172,13.68652-6.91309l186.84814-14.0498c11.0083-.82422,20.65088,7.45996,21.47949,18.47559l.43311,5.75781c.20703,2.75391-1.85693,5.15332-4.61084,5.36133-2.74365,.19043-5.15381-1.85742-5.36084-4.61133l-.43311-5.75781c-.41455-5.5166-5.24854-9.67188-10.7583-9.25293l-186.84814,14.0498c-2.67285,.2002-5.10742,1.42969-6.85498,3.46191-1.74756,2.03125-2.59912,4.62207-2.39844,7.29492l2.17236,28.88965c.20703,2.75391-1.85742,5.1543-4.61084,5.36133-.12744,.00879-.25439,.01367-.38037,.01367Z"/>
  <path d="M247.50781,100.02051c-27.25244,0-47.53809-9.5625-48.60303-23.72852-.61084-8.11914,5.16748-15.88379,16.27051-21.86133,9.86279-5.31055,23.13184-8.82422,37.36328-9.89453,14.23535-1.06641,27.87793,.4209,38.42285,4.19629,11.87207,4.25,18.74658,11.0625,19.35693,19.18262,.32031,4.25684-1.17676,8.57617-4.32861,12.49121-1.73242,2.15039-4.87939,2.49023-7.03027,.75879s-2.49072-4.87891-.75879-7.03027c1.55176-1.92773,2.27393-3.76758,2.146-5.46973-.28809-3.83008-5.05664-7.76172-12.75586-10.51855-9.25537-3.31348-21.44043-4.60645-34.30225-3.6377-12.86475,.9668-24.7168,4.06641-33.37256,8.72656-7.20068,3.87695-11.32764,8.47754-11.03955,12.30664,.55273,7.34766,18.71875,16.28906,47.05859,14.15625,6.63721-.49902,13.01123-1.56641,18.94531-3.1709,2.66504-.71875,5.41064,.85449,6.13184,3.52051,.7207,2.66602-.85547,5.41113-3.52148,6.13184-6.54053,1.76953-13.54053,2.94336-20.80566,3.49121-3.13037,.23438-6.19727,.34961-9.17725,.34961Z"/>
</svg>