<?xml version="1.0" encoding="UTF-8"?>
<svg id="Layer_1" data-name="Layer 1" xmlns="http://www.w3.org/2000/svg" viewBox="0 0 512 512">
  <defs>
    <style>
      .cls-1 {
        fill: #e7e8f1;
      }

      .cls-2 {
        fill: #ed5920;
      }

      .cls-3 {
        fill: #ff702e;
      }

      .cls-4 {
        fill: #c7c8ce;
      }
    </style>
  </defs>
  <path class="cls-3" d="M451.82035,223.09287l-26.80591-103.3177c-3.91955-15.10709-15.14983-27.24417-29.90773-32.32269l-55.23445-19.00737c-14.50651-4.992-25.62146-16.81175-29.7133-31.59741l-2.58664-9.34668c-2.47439-3.6096-6.23278-6.13905-10.50847-7.07205h0c-27.05739-5.90531-55.07024-5.90531-82.12769,0h0c-3.54295,0-6.85809,1.74679-8.86125,4.66909l-3.85145,12.64798c-4.34643,14.27348-15.27225,25.59803-29.38083,30.45308l-55.94924,19.25327c-14.75792,5.0785-25.98821,17.21558-29.90777,32.32267l-26.80606,103.31799c-1.35267,5.21357,1.56019,10.58477,6.66767,12.29492l44.21921,14.80606c5.55583,1.86028,11.53792-1.30631,13.12329-6.94675l11.23103-39.95783h1.93425c5.81027,81.4332,1.04067,163.34416-14.25472,243.67518l-.75036,3.94096c-1.77133,9.30293,3.32493,18.55081,12.13608,22.02176l.00013,.00025c78.08869,30.7631,164.93899,30.7631,243.02774,0l.00013-.00025c8.81116-3.47096,13.90735-12.71883,12.13608-22.02176l-.75043-3.94096c-15.29533-80.33102-20.06492-162.24198-14.25472-243.67518h1.93432l11.23096,39.95782c1.58536,5.64044,7.56746,8.80704,13.1233,6.94676l44.219-14.80599c5.1076-1.71019,8.02053-7.08151,6.66783-12.2952Z"/>
  <path class="cls-1" d="M306.11628,25.68834c-2.3893-2.63531-5.53966-4.4928-9.05242-5.25937-27.05739-5.90531-55.0703-5.90531-82.12769,0-3.51275,.76657-6.66311,2.62405-9.05242,5.25937l-.03673,.05268c4.98507,14.09417,18.37969,23.79003,33.67051,23.79003h32.96495c15.29033,0,28.68438-9.6951,33.66995-23.78852l-.03616-.05418Z"/>
  <path class="cls-4" d="M306.11628,25.68834c-2.3893-2.63531-5.53966-4.4928-9.05242-5.25937-.13427-.02928-.26941-.05343-.40368-.08246-6.20262,7.04828-15.2668,11.39529-25.18414,11.39529h-30.95211c-9.91728,0-18.98139-4.34702-25.18401-11.39517-.13433,.02903-.26948,.05306-.40374,.08234-3.51275,.76657-6.66311,2.62405-9.05242,5.25937l-.03673,.05268c4.98507,14.09417,18.37969,23.79003,33.67051,23.79003h32.96495c15.29033,0,28.68438-9.6951,33.66995-23.78852l-.03616-.05418Z"/>
  <path class="cls-1" d="M385.67848,460.5379c-32.33991-6.82979-78.46653-11.10336-129.67846-11.10336s-97.33856,4.27356-129.67846,11.10336l-3.1585,.69775c1.86587,5.20055,5.88284,9.5487,11.32296,11.69173l.00013,.00025c78.08869,30.7631,164.93899,30.7631,243.02774,0l.00013-.00025c5.30316-2.08898,9.24512-6.2772,11.16968-11.30382l-3.00521-1.08566Z"/>
  <path class="cls-4" d="M385.67848,460.5379c-32.33991-6.82979-78.46653-11.10336-129.67846-11.10336s-97.33856,4.27356-129.67846,11.10336l-3.1585,.69775c1.86587,5.20055,5.88284,9.5487,11.32296,11.69173l.00013,.00025c8.54519,3.36634,17.20037,6.34177,25.93244,8.97158,24.45593-6.30423,58.23524-10.20715,95.56329-10.20715,37.33799,0,71.12532,3.90492,95.58293,10.21215,8.7377-2.63081,17.39833-5.60799,25.94908-8.97658l.00013-.00025c5.30316-2.08898,9.24512-6.2772,11.16968-11.30382l-3.00521-1.08566Z"/>
  <g>
    <path class="cls-2" d="M380.73658,145.007l-4.21325,58.33829,11.21519,39.90199c1.58535,5.64045,7.56744,8.80706,13.12329,6.94678l11.97254-4.00878h0l-32.09777-101.17828Z"/>
    <path class="cls-2" d="M131.26345,145.007l4.21325,58.33829-11.21519,39.90199c-1.58535,5.64045-7.56744,8.80706-13.12329,6.94678l-11.97254-4.00878h0l32.09777-101.17828Z"/>
  </g>
  <path d="M256,454.43457c-2.76123,0-5-2.23828-5-5V52.17285c0-2.76172,2.23877-5,5-5s5,2.23828,5,5V449.43457c0,2.76172-2.23877,5-5,5Z"/>
  <path d="M397.65625,255.73633c-2.44824,0-4.875-.59961-7.1123-1.7832-3.72607-1.97266-6.40674-5.29395-7.54736-9.35352l-12.76611-45.41992c-.74707-2.6582,.80225-5.41895,3.46045-6.16602,2.65674-.74805,5.41895,.80176,6.1665,3.46094l12.76611,45.41992c.39307,1.39746,1.31592,2.54102,2.59912,3.21973,1.28271,.68066,2.74805,.80078,4.12305,.33887l44.21973-14.80664c2.60498-.87207,4.10547-3.63867,3.41504-6.29785l-26.80566-103.31738c-3.50781-13.52051-13.4873-24.30566-26.69482-28.85156l-58.97754-20.29492c-13.72803-4.72461-24.23486-15.89844-28.10693-29.88867l-3.3999-12.28613c-1.74658-2.23633-4.20508-3.78613-6.99854-4.39648-26.53857-5.79102-53.45361-5.79199-79.99512,0-2.79248,.61035-5.25098,2.16016-6.99756,4.39648l-3.3999,12.28613c-3.87207,13.99023-14.37891,25.16406-28.10596,29.88867l-58.97852,20.29492c-13.20754,4.5459-23.18701,15.33105-26.69482,28.85156l-26.80566,103.31738c-.68994,2.65918,.81006,5.42578,3.41504,6.29785l44.21924,14.80664c1.99268,.66699,4.18652,.08398,5.58887-1.4834,1.84082-2.05859,5.00146-2.23535,7.06006-.39355,2.05859,1.83984,2.23486,5.00098,.39404,7.05957-4.06738,4.54883-10.43555,6.23633-16.21729,4.2998l-44.21973-14.80664c-7.56641-2.5332-11.92334-10.56738-9.91992-18.29199l26.80566-103.31738c4.35254-16.77441,16.73389-30.15527,33.12061-35.79492l58.97803-20.29492c10.60938-3.65234,18.72998-12.28809,21.72266-23.10156l3.64209-13.16113c.14746-.53223,.38232-1.03711,.69482-1.49316,3.20605-4.67773,8.02393-7.91992,13.56543-9.12988,27.95605-6.10156,56.30566-6.10156,84.26074,0,5.54248,1.20996,10.36035,4.45215,13.56641,9.12988,.3125,.45605,.54736,.96094,.69482,1.49316l3.64209,13.16113c2.99268,10.81348,11.11328,19.44922,21.72314,23.10156l58.97754,20.29492c16.38672,5.63965,28.76807,19.02051,33.12061,35.79492l26.80566,103.31738c2.00439,7.72363-2.35303,15.75879-9.91992,18.29199l-44.21924,14.80664c-1.59717,.53516-3.23584,.80078-4.86475,.80078Z"/>
  <path d="M272.48242,54.53125h-32.96484c-7.69629,0-15.2002-2.16602-21.70117-6.26465-2.33594-1.47266-3.03564-4.55957-1.56299-6.89551,1.47168-2.33789,4.55957-3.03809,6.896-1.56348,4.90186,3.08984,10.56201,4.72363,16.36816,4.72363h32.96484c12.875,0,24.41895-8.07422,28.83789-20.12793,.30127-1.12109,.98877-2.14062,2.02295-2.83691,2.29199-1.54297,5.37988-.95898,6.92139,1.33105,.8833,1.31348,1.12939,3.02051,.60156,4.51172-5.73828,16.22266-21.16357,27.12207-38.38379,27.12207Z"/>
  <path class="cls-2" d="M389.65015,450.90552l-.75049-3.94092c-18.26721-95.93945-21.53125-194.13306-9.67554-291.07397l.55994-4.57812c-16.21777,10.9646-26.81128,28.71338-28.52283,48.45264-9.59912,110.71338,2.44873,185.79907,16.56104,257.48779l20.8269,4.45752c1.29993-3.3479,1.7124-7.06836,1.00098-10.80493Z"/>
  <path class="cls-2" d="M122.34585,450.90552l.75049-3.94092c18.26721-95.93945,21.53125-194.13306,9.67554-291.07397l-.55994-4.57812c16.21777,10.9646,26.81128,28.71338,28.52283,48.45264,9.59912,110.71338-2.44873,185.79907-16.56104,257.48779l-20.8269,4.45752c-1.29993-3.3479-1.7124-7.06836-1.00098-10.80493Z"/>
  <path d="M256,501.08105c-41.78809,0-83.57568-7.83398-123.34619-23.50098-11.03516-4.34766-17.43359-15.95898-15.21533-27.61035l.75-3.93945c18.19531-95.56152,21.43359-192.97461,9.62451-289.53223l-1.58398-12.9541c-.33545-2.74023,1.61523-5.23438,4.35596-5.56934,2.73975-.33789,5.23438,1.61523,5.56982,4.35547l1.58398,12.9541c11.93506,97.58594,8.6626,196.03711-9.72705,292.61621l-.75,3.93945c-1.32031,6.93555,2.48877,13.84766,9.05713,16.43555,77.17773,30.4043,162.18457,30.40527,239.3623,0,6.56836-2.58789,10.37744-9.5,9.05713-16.43457l-.75-3.94141c-18.38965-96.57812-21.66211-195.0293-9.72705-292.61621l1.58398-12.95312c.33545-2.74023,2.83105-4.69043,5.56982-4.35547,2.74072,.33496,4.69141,2.8291,4.35596,5.56934l-1.58398,12.95312c-11.80908,96.55859-8.5708,193.97168,9.62451,289.53223l.75,3.94141c2.21826,11.64941-4.18018,23.26172-15.21436,27.60938-39.771,15.66699-81.55908,23.50098-123.34717,23.50098Z"/>
  <path d="M126.31689,465.53906c-2.31348,0-4.39014-1.61426-4.88721-3.96777-.5708-2.70215,1.15723-5.35449,3.85889-5.92578,34.23242-7.22949,80.65332-11.21094,130.71143-11.21094,38.05713,0,74.39404,2.3291,105.08252,6.73633,2.73389,.39258,4.63135,2.92676,4.23877,5.66016s-2.93213,4.62012-5.66016,4.23828c-30.22607-4.34082-66.07178-6.63477-103.66113-6.63477-48.66895,0-95.55811,4.00781-128.64502,10.99512-.34814,.07422-.6958,.10938-1.03809,.10938Z"/>
</svg>