<?xml version="1.0" encoding="UTF-8"?>
<svg id="Layer_1" data-name="Layer 1" xmlns="http://www.w3.org/2000/svg" viewBox="0 0 512 512">
  <defs>
    <style>
      .cls-1 {
        fill: #e7e8f1;
      }

      .cls-2 {
        fill: #ed5920;
      }

      .cls-3 {
        fill: #ff702e;
      }

      .cls-4 {
        fill: #c7c8ce;
      }
    </style>
  </defs>
  <path class="cls-3" d="M447.47602,218.49847l-22.91597-88.32473c-5.86007-22.58621-23.03808-40.50351-45.35756-47.3094l-38.56818-11.76064c-3.39077-1.03404-6.32943-3.18986-8.33365-6.11371l-25.87249-37.74411c-2.4195-3.52952-6.0945-6.00286-10.27534-6.91516h0c-26.45712-5.77429-53.84855-5.77429-80.30567,0h0c-4.18083,.9123-7.85584,3.38563-10.27534,6.91516l-25.87249,37.74411c-2.00422,2.92385-4.94288,5.07967-8.33365,6.11371l-38.56818,11.76064c-22.31947,6.80589-39.49749,24.72319-45.35756,47.3094l-22.91597,88.32473c-1.32268,5.0979,1.52555,10.34998,6.5197,12.02236l43.2382,14.47758c5.43243,1.81897,11.28185-1.27741,12.83212-6.79255l10.98183-39.07144h0l1.09485,15.62285c.73072,10.43049,5.94731,20.03188,14.30041,26.3213h0l1.46242,8.39617c5.32304,30.56319,4.14694,61.90506-3.45146,91.98322l-24.30142,96.19697c-2.86659,11.34768,2.31941,23.19555,12.60111,28.78803h0c72.45325,39.40939,159.94327,39.40939,232.39652,0h0c10.2817-5.59247,15.4677-17.44035,12.60111-28.78803l-24.30142-96.19697c-7.5984-30.07816-8.7745-61.42004-3.45146-91.98322l1.46242-8.39617h0c8.3531-6.28942,13.56969-15.89081,14.30041-26.3213l1.09485-15.62285h0l10.98183,39.07144c1.55027,5.51514,7.39969,8.61152,12.83212,6.79255l43.2382-14.47758c4.99414-1.67238,7.84238-6.92446,6.5197-12.02236Z"/>
  <path class="cls-1" d="M256,420.39371c-50.07578,0-95.17908,13.51096-126.80152,35.10314,2.28809,4.52233,5.90571,8.39103,10.60326,10.9461h0c72.45325,39.40939,159.94327,39.40939,232.39652,0h0c4.69755-2.55507,8.31517-6.42377,10.60326-10.9461-31.62244-21.59218-76.72573-35.10314-126.80152-35.10314Z"/>
  <path class="cls-2" d="M384.79937,437.65493l-24.3021-96.19964c-7.59821-30.07745-8.77401-61.41834-3.45079-91.98055l1.46242-8.39617c-8.72091,6.56644-19.94427,8.8347-30.53064,6.17049l-12.2541-3.08365v7.08602c0,8.25293,3.38532,16.1446,9.36545,21.83222l.00002,.00002c4.96735,4.72437,8.17364,11.00587,9.08795,17.79986,7.4688,55.49843,18.99531,107.47622,34.49752,156.005,4.9567,2.70165,9.67933,5.57192,14.12642,8.60834-.72007,1.42302-1.58636,2.7714-2.56192,4.04465l.02618,.01566c4.67161-6.07701,6.50257-14.10757,4.53359-21.90224Z"/>
  <path class="cls-2" d="M127.20063,437.65493l24.3021-96.19964c7.59821-30.07745,8.77401-61.41834,3.45079-91.98055l-1.46242-8.39617c8.72091,6.56644,19.94427,8.8347,30.53064,6.17049l12.2541-3.08365v7.08602c0,8.25293-3.38532,16.1446-9.36545,21.83222l-.00002,.00002c-4.96735,4.72437-8.17364,11.00587-9.08795,17.79986-7.4688,55.49843-18.99531,107.47622-34.49752,156.005-4.9567,2.70165-9.67933,5.57192-14.12642,8.60834,.72007,1.42302,1.58636,2.7714,2.56192,4.04465l-.02618,.01566c-4.67161-6.07701-6.50257-14.10757-4.53359-21.90224Z"/>
  <path class="cls-4" d="M256,420.39371c-50.07578,0-95.17908,13.51096-126.80152,35.10314,2.28809,4.52233,5.90571,8.39103,10.60326,10.9461,7.63388,4.15232,15.4365,7.86171,23.36906,11.13894-.58756-.96222-1.1137-1.97191-1.56556-3.02566,23.54073-18.96835,57.11684-30.83727,94.39477-30.83727s70.85404,11.86892,94.39477,30.83727c-.45187,1.05374-.978,2.06344-1.56556,3.02566,7.93256-3.27722,15.73517-6.98661,23.36906-11.13894,4.69755-2.55507,8.31517-6.42377,10.60326-10.9461-31.62244-21.59218-76.72573-35.10314-126.80152-35.10314Z"/>
  <g>
    <path class="cls-2" d="M377.96926,142.14495l-4.11978,57.04404,10.96641,39.01687c1.55027,5.51514,7.39969,8.61152,12.83212,6.79255l11.70692-3.91984h0l-31.38568-98.93362Z"/>
    <path class="cls-2" d="M134.03074,142.14495l4.11978,57.04404-10.96641,39.01687c-1.55027,5.51514-7.39969,8.61152-12.83212,6.79255l-11.70692-3.91984h0l31.38568-98.93362Z"/>
  </g>
  <path class="cls-1" d="M248.25124,103.0866c4.01004,4.88699,11.48748,4.88699,15.49753,0l30.54891-37.2296c9.25113-11.27425,13.15716-26.00693,10.70675-40.38357v-.00002c-2.3363-2.57685-5.41677-4.39312-8.85159-5.14269h0c-26.45712-5.77429-53.84855-5.77429-80.30567,0h0c-3.43482,.74956-6.51529,2.56584-8.85159,5.14269v.00002c-2.45041,14.37664,1.45561,29.10932,10.70675,40.38357l30.54891,37.2296Z"/>
  <path d="M256,422.74609c-2.76123,0-5-2.23828-5-5V106.75195c0-2.76172,2.23877-5,5-5,2.76172,0,5,2.23828,5,5V417.74609c0,2.76172-2.23828,5-5,5Z"/>
  <path d="M256,501c-41.30029,0-82.30713-10.43066-118.5874-30.16406-12.29492-6.68848-18.48779-20.83594-15.05957-34.40527l24.30127-96.19727c7.47461-29.58789,8.60986-59.83496,3.37354-89.90137l-1.4624-8.39453c-.47412-2.7207,1.34717-5.31055,4.06787-5.78418,2.71973-.47656,5.30957,1.34766,5.78369,4.06738l1.4624,8.39551c5.479,31.45996,4.29102,63.1084-3.52979,94.06641l-24.30127,96.19727c-2.30859,9.13867,1.8623,18.66699,10.14258,23.1709,34.81836,18.93945,74.17285,28.94922,113.80908,28.94922s78.99023-10.00977,113.80957-28.94922c8.2793-4.50391,12.45117-14.03223,10.14258-23.1709l-24.30176-96.19727c-6.70703-26.54883-8.52734-53.80273-5.41309-81.00391,.31445-2.74219,2.80273-4.70117,5.53613-4.39844,2.74414,.31445,4.71289,2.79297,4.39941,5.53711-2.97754,25.99609-1.23633,52.04297,5.17285,77.41602l24.30176,96.19727c3.42773,13.56934-2.76562,27.7168-15.05957,34.40527-36.28125,19.7334-77.28809,30.16406-118.58789,30.16406Z"/>
  <path d="M175.14697,253.35352c-8.80957,0-17.44092-2.84277-24.66309-8.28027-9.51465-7.16406-15.44873-18.08691-16.28125-29.96582l-5.22998-74.63574c-.19287-2.75488,1.88379-5.14453,4.63818-5.33691,2.76709-.20801,5.14453,1.88281,5.3374,4.6377l5.22998,74.63574c.62988,8.99023,5.12061,17.25488,12.32031,22.67578,7.55078,5.68555,17.13965,7.62305,26.30273,5.31641l15.1626-3.81543c2.67676-.67773,5.39502,.9502,6.06885,3.62891,.67432,2.67773-.95068,5.39453-3.62842,6.06836l-15.1626,3.81543c-3.34521,.8418-6.73291,1.25586-10.09473,1.25586Z"/>
  <path class="cls-4" d="M300.98277,22.21258c-1.76293,3.77767-3.98983,7.36225-6.68512,10.64706l-11.70838,14.26892c-13.76013,16.76938-39.41842,16.76938-53.17855,0l-11.70838-14.26892c-2.69529-3.28481-4.9222-6.86939-6.68512-10.64706-1.49447,.8707-2.85142,1.9702-4.02165,3.26083-2.45033,14.37664,1.45556,29.10934,10.70677,40.3836l30.54887,37.22959c4.01005,4.88701,11.48751,4.88701,15.49756,0l30.54887-37.22959c9.25121-11.27426,13.1571-26.00696,10.70677-40.3836-1.17023-1.29063-2.52717-2.39013-4.02165-3.26083Z"/>
  <path d="M117.4873,250.52832c-1.60547,0-3.21924-.26172-4.79346-.78906l-43.23779-14.47754c-7.45361-2.49512-11.74609-10.41016-9.77197-18.01855l22.91602-88.3252c6.25195-24.09668,24.92773-43.5752,48.73877-50.83594l38.56836-11.76074c2.29736-.70117,4.31055-2.17773,5.66797-4.1582l25.87256-37.74414c3.15234-4.59766,7.8877-7.78516,13.3335-8.97266,27.3501-5.96875,55.08691-5.96973,82.43848,0,5.44531,1.1875,10.18066,4.375,13.33203,8.97266l25.87305,37.74414c1.35742,1.98047,3.37012,3.45703,5.66797,4.1582l38.56738,11.76074c23.81152,7.25977,42.4873,26.73926,48.74023,50.83594l22.91602,88.3252c1.97363,7.6084-2.31934,15.52344-9.77344,18.01855l-43.2373,14.47754c-3.94043,1.31934-8.12793,.97461-11.79785-.9668-3.66992-1.94336-6.31152-5.21484-7.43555-9.21289l-10.98145-39.07227c-.74707-2.6582,.80176-5.41895,3.46094-6.16602,2.65332-.74707,5.41895,.80078,6.16602,3.46094l10.98145,39.07129c.37598,1.33594,1.25879,2.43066,2.48633,3.08008s2.62793,.7627,3.94434,.32324l43.23828-14.47754c2.49316-.83496,3.92871-3.48047,3.26855-6.02441l-22.91602-88.3252c-5.38477-20.75293-21.46973-37.53027-41.97656-43.7832l-38.56738-11.76074c-4.45898-1.35938-8.36621-4.22461-11-8.06836l-25.87305-37.74414c-1.70605-2.48926-4.26855-4.21387-7.21582-4.85742-25.93555-5.65918-52.2373-5.66016-78.17432,0-2.94824,.64355-5.51172,2.36816-7.21777,4.85742l-25.87256,37.74414c-2.63477,3.84375-6.54102,6.70898-10.99902,8.06836l-38.56836,11.76074c-20.50781,6.25391-36.5918,23.03027-41.97607,43.7832l-22.91602,88.3252c-.66016,2.54395,.7749,5.19043,3.26709,6.02441l43.23828,14.47754c1.31787,.44043,2.71875,.32617,3.9458-.32324,1.22705-.65039,2.10986-1.74414,2.48535-3.08008,.74756-2.6582,3.51025-4.20605,6.16602-3.46094,2.65869,.74707,4.20801,3.50781,3.46094,6.16602-1.12354,3.99805-3.76367,7.26953-7.43408,9.21289-2.20361,1.16602-4.59473,1.75586-7.00586,1.75684Z"/>
  <path d="M336.85254,253.35352c-3.3623,0-6.74805-.41406-10.09473-1.25586l-15.16211-3.81543c-2.67871-.67383-4.30273-3.39062-3.62891-6.06836,.67383-2.67871,3.39453-4.30371,6.06836-3.62891l15.16309,3.81543c9.16504,2.30469,18.75195,.36816,26.30371-5.31543,7.19824-5.4209,11.68945-13.68652,12.32031-22.67676l5.22949-74.63574c.19238-2.75391,2.57324-4.84375,5.33691-4.6377,2.75488,.19238,4.83105,2.58203,4.6377,5.33691l-5.22949,74.63574c-.83301,11.88086-6.7666,22.80273-16.28125,29.96484-7.2207,5.4375-15.85352,8.28125-24.66309,8.28125Z"/>
  <path d="M256,111.75195h-.00098c-4.51562,0-8.74854-2.00293-11.61279-5.49316l-30.54932-37.22949c-2.33057-2.84082-4.38477-5.92578-6.10645-9.17188-1.29395-2.43945-.36572-5.46582,2.07422-6.75977,2.43945-1.2959,5.46631-.36621,6.75977,2.07422,1.41064,2.65918,3.09375,5.1875,5.00293,7.51367l30.54932,37.22949c.95801,1.16699,2.37305,1.83691,3.88281,1.83691h.00049c1.50977,0,2.92578-.66992,3.88379-1.83691l30.54883-37.22949c8.33691-10.16016,11.85156-23.41699,9.64355-36.37207-.46387-2.72168,1.36621-5.30469,4.08887-5.76855,2.73145-.46484,5.30566,1.36719,5.76855,4.08887,2.69531,15.8125-1.59473,31.99414-11.77051,44.39551l-30.54883,37.22949c-2.86523,3.49121-7.09863,5.49316-11.61426,5.49316Z"/>
  <path d="M129.20264,460.49707c-1.59668,.00098-3.16553-.7627-4.13379-2.18066-1.55713-2.28027-.9707-5.3916,1.31006-6.94824,33.97363-23.19824,80.00732-35.97461,129.62109-35.97461,36.00098,0,70.66895,6.86035,100.25684,19.83887,2.52832,1.10938,3.67969,4.05859,2.57031,6.58789-1.11035,2.52832-4.05664,3.67676-6.58789,2.57031-28.33105-12.42773-61.61035-18.99707-96.23926-18.99707-46.93164,0-92.12158,12.47754-123.98242,34.23242-.8623,.58887-1.84375,.87109-2.81494,.87109Z"/>
</svg>