<?xml version="1.0" encoding="UTF-8"?>
<svg id="Layer_1" data-name="Layer 1" xmlns="http://www.w3.org/2000/svg" viewBox="0 0 512 512">
  <defs>
    <style>
      .cls-1 {
        fill: #e7e8f1;
      }

      .cls-2 {
        fill: #ed5920;
      }

      .cls-3 {
        fill: #ff702e;
      }

      .cls-4 {
        fill: #c7c8ce;
      }

      .cls-5 {
        fill: #5f606b;
      }

      .cls-6 {
        fill: #51545a;
      }
    </style>
  </defs>
  <polygon class="cls-1" points="231.16229 386.51992 126.86484 301.92985 162.52363 289.43982 234.01198 347.42196 322.7639 294.71521 373.60165 301.92985 231.16229 386.51992"/>
  <path class="cls-4" d="M162.52363,289.43982l-35.65885,12.49018,8.45283,6.85553c5.77152,4.6809,13.53396,6.08995,20.58243,3.73614l1.6435-.54884c6.38496-2.13223,13.41905-.79761,18.57927,3.52516l47.64305,39.91112,7.92695-9.86819-69.16918-56.10111Z"/>
  <path class="cls-4" d="M370.89251,301.54526l-48.12861-6.83005-85.4777,50.76212c-.11935,9.11441-.26879,16.66735-.26879,16.66735l56.32742-34.83944c4.31885-2.67128,9.29662-4.0863,14.37483-4.0863h16.79187c8.66766,0,17.17515-2.33577,24.62766-6.76164l18.94943-11.25361c1.01629-1.35104,1.97788-2.60969,2.80389-3.65843Z"/>
  <rect class="cls-3" x="205.73139" y="339.36483" width="53.86011" height="42.56762" rx="10.25789" ry="10.25789"/>
  <path class="cls-1" d="M215.00683,381.93244h35.30923v77.97175c0,2.75958-2.24042,5-5,5h-25.30923c-2.75958,0-5-2.24042-5-5v-77.97175h0Z"/>
  <path class="cls-5" d="M48.49194,134.09282l-24.60451,35.42094c-5.1351,7.39277-7.88743,16.17871-7.88743,25.18005v22.38218c0,12.60193,5.38688,24.60294,14.8028,32.97823l42.93803,38.19316c21.49519,19.12001,51.96345,24.42026,78.65262,13.68261l34.87576-14.03149c25.7904-10.37594,54.97175-7.91701,78.66205,6.62826l15.06401,9.24894c5.07569,3.11613,10.9151,4.7658,16.87098,4.7658h21.77105C252.89931,209.55027,160.99671,154.02758,48.49194,134.09282Z"/>
  <path class="cls-6" d="M319.6373,308.5415C252.89931,209.55027,160.99671,154.02758,48.49194,134.09282l-22.27697,32.0703c102.39553,36.30977,188.66548,77.53714,251.68039,135.7093l3.0999,1.90329c5.07569,3.11613,10.9151,4.7658,16.87098,4.7658h21.77105Z"/>
  <path class="cls-3" d="M494.22993,257.79509c-4.59673-90.27177-65.99337-167.67046-152.85038-192.68942l-.00026-.00013c-63.15101-18.19035-129.46185-22.6672-194.485-13.1301l-63.43708,9.30456c-4.06039,.59555-7.593,3.09261-9.50914,6.72165l-3.11871,5.90659c-1.64023,3.10648,.10607,6.91499,3.52609,7.71747,8.59738,2.0173,17.14582,4.10618,25.64086,6.27319,.00209-.00026,.00366-.00065,.00576-.00092-.00209,.00026-.00366,.00065-.00576,.00092,112.25429,28.63434,214.83513,71.4292,288.00743,157.2728h-.00005c-29.52987,0-58.1319-10.44306-80.61567-29.58706-41.13359-35.02356-121.55068-92.38085-234.89879-122.47735-11.45496,2.87179-21.99257,6.50812-31.57096,10.94485-3.23296,1.49751-5.72156,4.23947-6.97266,7.57554l-2.7272,7.27211c-1.41346,3.76901,.40396,7.97553,4.10968,9.54747,113.6813,48.22284,207.14987,100.49513,269.19224,173.09374,3.78344,4.42718,9.29334,7.00051,15.11695,7.00051h160.38134c8.82625,0,15.98136-7.15538,15.98136-15.98162l-1.77007-34.76479Z"/>
  <path class="cls-2" d="M376.67024,245.17169h11.33351C314.83145,159.32809,212.25062,116.53323,99.99632,87.8989c-9.68472,1.30602-18.85671,3.03971-27.50707,5.20838,120.11942,31.89443,203.25576,94.40401,241.8487,128.50448,17.20265,15.20014,39.37635,23.55993,62.3323,23.55993Z"/>
  <path class="cls-2" d="M249.33379,339.36493h-.04947v8.32569c0,13.21873-10.7159,23.93463-23.93463,23.93463h-19.61846v.0492c0,5.66528,4.59262,10.2579,10.2579,10.2579h33.34439c5.66528,0,10.2579-4.59262,10.2579-10.2579v-22.05188c0-5.66514-4.5925-10.25764-10.25764-10.25764Z"/>
  <path class="cls-4" d="M215.00687,381.93235v8.47527h2.86393c12.05411,0,21.8259,9.77179,21.8259,21.8259v52.67074h5.61935c2.76142,0,5-2.23858,5-5v-77.97192h-35.30918Z"/>
  <path class="cls-5" d="M377.45577,143.45535h26.82035c6.41271,0,12.50595,2.84919,16.56688,7.81222,10.23844,12.51283,20.30987,26.74988,29.3474,43.54594,1.82833,3.39792-1.26633,7.35419-5.00281,6.3912l-15.55309-4.00845c-6.41918-1.65439-12.21756-5.11572-16.75832-9.94526-11.38501-12.10905-24.50703-23.27696-38.71789-33.85499-4.26047-3.17133-2.01372-9.94067,3.29749-9.94067Z"/>
  <path class="cls-6" d="M450.1903,194.81342c-9.03746-16.79586-19.10875-31.03307-29.34728-43.54602-4.06097-4.96288-10.15426-7.81205-16.56685-7.81205h-26.8203c-5.31124,0-7.55792,6.76933-3.29751,9.94069,2.25662,1.67977,4.47476,3.38048,6.67406,5.09139h20.92593c6.41286,0,12.50614,2.84917,16.56711,7.81231,8.27165,10.10924,16.42447,21.37217,24.02112,34.17276l2.84106,.73205c3.73643,.96316,6.8311-2.99312,5.00267-6.39113Z"/>
  <path class="cls-5" d="M184.08793,67.74361l-2.37157,6.55303c-1.19816,3.31072,1.06501,6.87473,4.57433,7.15959,21.51253,1.74625,42.88403,7.54941,64.13474,16.82084,2.99994,1.30884,6.46181-.34511,7.31636-3.50461l5.09891-18.85209c.80385-2.97206-1.05983-6.00906-4.07068-6.65256-24.47101-5.23009-47.69347-6.53727-70.02703-5.05119-2.11232,.14056-3.93465,1.53633-4.65507,3.52697Z"/>
  <path class="cls-6" d="M186.45027,76.08084c.72028-1.9907,2.54242-3.3865,4.65483-3.52704,22.3335-1.48609,45.55609-.17889,70.02712,5.05109,.40542,.08663,.78806,.21985,1.1482,.38736l.56036-2.07184c.80377-2.97218-1.06-6.00901-4.07092-6.6526-24.47077-5.23011-47.69336-6.53718-70.02686-5.05109-2.11241,.14055-3.93482,1.53621-4.65509,3.52678l-2.37152,6.55314c-.99823,2.75809,.41013,5.68512,2.9358,6.75232l1.79807-4.96812Z"/>
  <path d="M205.72852,370.89453c-1.10645,0-2.2207-.36523-3.14648-1.11621l-72.96289-59.17676c-2.14453-1.74023-2.47363-4.88867-.73438-7.0332,1.74023-2.14453,4.88965-2.47266,7.0332-.73438l72.96289,59.17676c2.14453,1.74023,2.47363,4.88867,.73438,7.0332-.98828,1.21875-2.43164,1.85059-3.88672,1.85059Z"/>
  <path d="M259.59668,374.6377c-1.70703,0-3.36914-.87402-4.30371-2.44824-1.41016-2.37402-.62891-5.44141,1.74609-6.85156l102.87695-61.09473c2.37402-1.41016,5.44238-.62793,6.85156,1.74609,1.41016,2.37402,.62891,5.44141-1.74609,6.85156l-102.87695,61.09473c-.7998,.47559-1.67969,.70215-2.54785,.70215Z"/>
  <path d="M250.21582,342.80273c-1.70703,0-3.36914-.87402-4.30371-2.44824-1.41016-2.37402-.62891-5.44141,1.74609-6.85156l49.27148-29.25977c2.37305-1.41016,5.44238-.62793,6.85156,1.74609,1.41016,2.37402,.62891,5.44141-1.74609,6.85156l-49.27148,29.25977c-.7998,.47559-1.67969,.70215-2.54785,.70215Z"/>
  <path d="M222.36719,342.97949c-1.10645,0-2.2207-.36523-3.14648-1.11621l-29.41309-23.85547c-2.14453-1.74023-2.47363-4.88867-.73438-7.0332,1.73926-2.14551,4.89062-2.47266,7.0332-.73438l29.41309,23.85547c2.14453,1.74023,2.47363,4.88867,.73438,7.0332-.98828,1.21875-2.43164,1.85059-3.88672,1.85059Z"/>
  <path d="M249.33398,386.93262h-33.34473c-8.41309,0-15.25781-6.84473-15.25781-15.25781v-22.05176c0-8.41309,6.84473-15.25781,15.25781-15.25781h33.34473c8.41309,0,15.25781,6.84473,15.25781,15.25781v22.05176c0,8.41309-6.84473,15.25781-15.25781,15.25781Zm-33.34473-42.56738c-2.89941,0-5.25781,2.3584-5.25781,5.25781v22.05176c0,2.89941,2.3584,5.25781,5.25781,5.25781h33.34473c2.89941,0,5.25781-2.3584,5.25781-5.25781v-22.05176c0-2.89941-2.3584-5.25781-5.25781-5.25781h-33.34473Z"/>
  <path d="M245.31641,469.9043h-25.30957c-5.51367,0-10-4.48633-10-10v-77.97168c0-2.76172,2.23828-5,5-5s5,2.23828,5,5v77.97168h25.30957v-53.26758c0-2.76172,2.23828-5,5-5s5,2.23828,5,5v53.26758c0,5.51367-4.48633,10-10,10Z"/>
  <path d="M319.6377,313.54102h-21.77148c-6.88281,0-13.62109-1.90332-19.4873-5.50488l-15.06348-9.24902c-22.24023-13.65332-49.96973-15.99023-74.17969-6.25l-34.87598,14.03125c-28.64453,11.52637-60.77148,5.93555-83.8418-14.58496l-42.93848-38.19238c-10.47266-9.31641-16.47949-22.69824-16.47949-36.71484v-22.38281c0-10.06934,3.03613-19.7627,8.78125-28.03223l24.60449-35.4209c1.57617-2.26758,4.69043-2.83105,6.95898-1.25391,2.26758,1.5752,2.8291,4.69141,1.25391,6.95898l-24.60449,35.4209c-4.5752,6.58594-6.99414,14.30664-6.99414,22.32715v22.38281c0,11.16406,4.78418,21.82227,13.12598,29.24316l42.93848,38.19141c20.21387,17.98242,48.3623,22.87695,73.46289,12.78027l34.87598-14.03125c27.13477-10.91797,58.2168-8.2998,83.14453,7.00586l15.06348,9.24902c4.29102,2.63379,9.2207,4.02637,14.25488,4.02637h21.77148c2.76172,0,5,2.23828,5,5s-2.23828,5-5,5Z"/>
  <path d="M494.22559,262.79492c-2.64551,0-4.85352-2.07422-4.98926-4.74609-4.4873-88.11035-64.46191-163.71777-149.24023-188.13867-62.89453-18.11621-127.61816-22.48535-192.37598-12.9873l-63.4375,9.30469c-2.47266,.3623-4.64551,1.89844-5.8125,4.10938l-3.12012,5.90625c-.02344,.04492-.0791,.15137-.00879,.30762,.0752,.16504,.20703,.19629,.25684,.20703,8.65918,2.03125,17.28125,4.14062,25.63086,6.26953,.07227,.0166,.14355,.03516,.21484,.05469,137.05859,34.97461,226.63672,83.96484,290.46582,158.84668,1.79102,2.10156,1.53906,5.25684-.5625,7.04883-2.09863,1.78906-5.25684,1.54199-7.04883-.5625-62.41895-73.22754-150.45117-121.23828-285.43848-155.67188-8.31836-2.12207-16.91309-4.22461-25.5459-6.24902-3.1543-.74023-5.73242-2.85449-7.07324-5.7998-1.33887-2.93945-1.24121-6.26367,.2666-9.12012l3.12012-5.90723c2.65039-5.02051,7.58691-8.50977,13.2041-9.33398l63.4375-9.30469c66.18164-9.70703,132.32324-5.24023,196.59375,13.27246,88.87988,25.60254,151.75684,104.86719,156.45996,197.24023,.14062,2.75781-1.98145,5.10742-4.73926,5.24707-.08594,.00488-.17285,.00684-.25781,.00684Z"/>
  <path d="M480.01855,313.54102h-160.38086c-7.26953,0-14.16504-3.18945-18.91797-8.75195-29.19141-34.15723-66.50391-65.12988-114.07031-94.68945-41.62012-25.86328-90.32324-50.34668-153.27344-77.0498-6.19531-2.62793-9.19922-9.61523-6.83887-15.90625l2.72656-7.27148c1.73535-4.62793,5.12793-8.30664,9.55176-10.35645,6.8252-3.16113,14.25684-5.98047,22.08984-8.37988,2.63379-.80762,5.43457,.67578,6.24512,3.31738,.80859,2.63965-.67676,5.43652-3.31738,6.24512-7.39844,2.26562-14.40137,4.9209-20.81348,7.89062-1.99512,.9248-3.59668,2.67188-4.39258,4.79492l-2.72656,7.27148c-.47266,1.25977,.13379,2.66016,1.38086,3.18945,63.43652,26.90918,112.57715,51.61816,154.64648,77.76172,48.45215,30.10938,86.52539,61.73535,116.39355,96.68652,2.85059,3.33496,6.97559,5.24805,11.31641,5.24805h160.38086c6.05566,0,10.98145-4.92676,10.98145-10.98145,0-2.76172,2.23828-5,5-5s5,2.23828,5,5c0,11.56934-9.41211,20.98145-20.98145,20.98145Z"/>
  <path d="M446.35156,206.35547c-.79688,0-1.60547-.10059-2.41211-.30859l-15.55273-4.00879c-7.3125-1.88477-13.93555-5.81348-19.15332-11.3623-10.41016-11.07227-22.85938-21.9541-38.06055-33.26855-3.7002-2.75391-5.15332-7.36328-3.70215-11.74121,1.45117-4.38086,5.37109-7.21094,9.98535-7.21094h26.82031c7.97168,0,15.4209,3.51562,20.43652,9.64648,11.83398,14.46289,21.6084,28.96777,29.88086,44.34277,1.80176,3.34961,1.46289,7.29102-.88477,10.28711-1.83203,2.33691-4.5166,3.62402-7.35742,3.62402Zm-.56445-9.17285h0Zm-68.33105-48.72754c-.16699,0-.375,0-.49316,.35645-.11719,.35254,.04883,.47559,.18066,.57422,15.67871,11.66895,28.55859,22.93457,39.375,34.44043,3.91895,4.16797,8.88672,7.11719,14.36426,8.52832l14.28418,3.68164c-7.83398-14.37988-17.06641-28.00195-28.19434-41.60254-3.1084-3.7998-7.73633-5.97852-12.69629-5.97852h-26.82031Z"/>
  <path d="M252.57422,103.72656c-1.41113,0-2.82227-.28809-4.14746-.86621-21.19824-9.24805-42.23926-14.77246-62.54004-16.4209-3.23047-.2627-6.08887-1.97852-7.84375-4.70898-1.7627-2.74121-2.13672-6.07129-1.02734-9.13574l2.37012-6.55273c.00098,0,.00098-.00098,.00098-.00098,1.40039-3.86719,4.94238-6.54102,9.02441-6.81348,24.26953-1.61328,47.62793,.06934,71.4043,5.15039,2.77441,.59277,5.21387,2.32227,6.69238,4.74414,1.47559,2.41797,1.89844,5.37109,1.15918,8.10352l-5.09863,18.85254c-.78613,2.90723-2.79395,5.32324-5.50977,6.62695-1.41699,.67969-2.9502,1.02148-4.48438,1.02148Zm-63.78516-34.28125l-2.37012,6.55273c-.01758,.04785-.0625,.17188,.03613,.32617,.08691,.13574,.19141,.14453,.24121,.14844,21.40332,1.7373,43.51758,7.53125,65.72852,17.22168,.04395,.01953,.15234,.06836,.30566-.00391,.14355-.06934,.17383-.18164,.18555-.22363l5.09863-18.85254c.00977-.03613,.04004-.14746-.04199-.28223-.08594-.14062-.20703-.16602-.24707-.1748-22.85938-4.88477-45.31543-6.50391-68.65039-4.95117-.12012,.00781-.23828,.10645-.28613,.23926h0Z"/>
  <path d="M115.97754,262.79492c-1.04883,0-2.10645-.32812-3.00781-1.00879l-54.6875-41.26562c-2.2041-1.66309-2.64258-4.79883-.97949-7.00293,1.66211-2.2041,4.7998-2.64355,7.00293-.97949l54.6875,41.26562c2.2041,1.66309,2.64258,4.79883,.97949,7.00293-.98242,1.30273-2.47949,1.98828-3.99512,1.98828Z"/>
</svg>