<?xml version="1.0" encoding="UTF-8"?>
<svg id="Layer_1" data-name="Layer 1" xmlns="http://www.w3.org/2000/svg" viewBox="0 0 512 512">
  <defs>
    <style>
      .cls-1 {
        fill: #e7e8f1;
      }

      .cls-2 {
        fill: #ed5920;
      }

      .cls-3 {
        fill: #ff702e;
      }

      .cls-4 {
        fill: #c7c8ce;
      }
    </style>
  </defs>
  <path class="cls-3" d="M348.57421,489.5595l.00013-.00002c20.9638-2.93113,35.75145-22.06498,33.30269-43.09058l-14.07612-120.86044c-3.59876-30.89967,2.46752-62.15524,17.36398-89.46525l21.81656-39.99679c8.86355-40.40254,12.85195-77.93274,4.96783-108.46697l-99.35893-30.08757-6.01063-30.47787c-.96964-4.91671-5.0449-8.61822-10.03194-9.11189h-.00005c-26.96593-2.66938-54.12955-2.66938-81.09548,0h-.00006c-4.98704,.49367-9.06231,4.19519-10.03195,9.11191l-6.01063,30.47786-99.35893,30.08757c-7.88411,30.53423-3.89572,68.06443,4.96783,108.46697l21.81656,39.99679c14.89646,27.31,20.96274,58.56558,17.36398,89.46525l-14.07612,120.86044c-2.44877,21.02561,12.33888,40.15945,33.30269,43.09058l.00013,.00002c61.41743,8.58731,123.731,8.58731,185.14842,0Z"/>
  <path class="cls-2" d="M100.04944,87.68503c-7.88234,30.53335-3.89395,68.06139,4.9691,108.4614l.04836,.08863c8.63059-6.19542,14.99947-27.74355,14.99947-53.38009,0-30.39902-8.95471-55.05093-20.01693-55.16994Z"/>
  <path class="cls-2" d="M411.9506,87.68503c7.88234,30.53335,3.89395,68.06139-4.9691,108.4614l-.04836,.08863c-8.63059-6.19542-14.99947-27.74355-14.99947-53.38009,0-30.39902,8.95471-55.05093,20.01693-55.16994Z"/>
  <path class="cls-2" d="M256,443.77995c-50.3296,0-95.22925,3.86382-124.59413,18.07351,4.16311,14.29578,16.3681,25.51753,32.01985,27.70607h0c61.41765,8.58729,123.73092,8.58729,185.14857,0h0c15.65175-2.18854,27.85673-13.41029,32.01985-27.70607-29.36488-14.20969-74.26453-18.07351-124.59413-18.07351Z"/>
  <path d="M287.50684,88.90918c-1.93945,0-3.78613-1.13574-4.59766-3.03223-1.08789-2.53809,.08887-5.47754,2.62695-6.56445,12.4668-5.34082,20.4248-13.55566,21.83203-22.53809,.42676-2.72852,2.99219-4.58887,5.71289-4.16602,2.72852,.42676,4.59375,2.98535,4.16602,5.71289-1.95117,12.45703-12.07422,23.45801-27.77344,30.18262-.6416,.27539-1.30957,.40527-1.9668,.40527Z"/>
  <path d="M222.5957,88.06055c-.70898,0-1.42871-.15137-2.11328-.4707-14.49902-6.77441-23.87695-17.44141-25.72949-29.26855-.42773-2.72754,1.4375-5.28613,4.16602-5.71289,2.72559-.42871,5.28613,1.4375,5.71289,4.16602,1.3291,8.4834,8.64941,16.41309,20.08301,21.75488,2.50195,1.16895,3.58301,4.14453,2.41406,6.64648-.84961,1.81738-2.65234,2.88477-4.5332,2.88477Z"/>
  <path class="cls-2" d="M206.96813,23.24842c5.13369,14.07371,25.12935,24.57329,49.03187,24.57329s43.89793-10.49958,49.03187-24.57329c-1.83227-2.89957-4.922-4.89364-8.48398-5.24637-26.96592-2.6694-54.1296-2.6694-81.09553,0h-.00025c-3.56198,.35273-6.65172,2.3468-8.48398,5.24637Z"/>
  <path class="cls-1" d="M207.90629,368.03922V202.32578c0-2.63292-.50125-5.24177-1.47697-7.68722l-49.54315-124.16978-29.88828,9.05068,49.79329,124.79873v157.64482l-39.39829,22.08469-4.44444,38.16209,64.35743-36.07616c6.54659-3.66975,10.60041-10.58944,10.60041-18.09443Z"/>
  <path class="cls-1" d="M304.09371,202.32578v165.71343c0,7.50499,4.05382,14.42468,10.60041,18.09443l64.35743,36.07616-4.44444-38.16209-39.39829-22.08469V204.3182l49.79329-124.79873-29.88828-9.05068-49.54315,124.16978c-.97572,2.44545-1.47697,5.0543-1.47697,7.68722Z"/>
  <path d="M256,448.78027c-2.76172,0-5-2.23828-5-5V73.74902c0-2.76172,2.23828-5,5-5s5,2.23828,5,5V443.78027c0,2.76172-2.23828,5-5,5Z"/>
  <path class="cls-4" d="M374.60711,384.04771l-39.39829-22.08469V204.3182l-3.57891,2.44064c-3.95301,2.69575-6.31801,7.17116-6.31801,11.95586v142.34511c0,8.18811,4.42801,15.73604,11.57532,19.73116l16.36314,9.14647c6.52014,3.64455,10.81885,10.27483,11.4852,17.71466l.61602,6.87794,13.69997,7.67977-4.44444-38.16209Z"/>
  <path class="cls-4" d="M137.39289,384.04771l39.39829-22.08469V204.3182l3.57891,2.44064c3.95301,2.69575,6.31801,7.17116,6.31801,11.95586v142.34511c0,8.18811-4.42801,15.73604-11.57532,19.73116l-16.36314,9.14647c-6.52014,3.64455-10.81885,10.27483-11.4852,17.71466l-.61602,6.87794-13.69997,7.67977,4.44444-38.16209Z"/>
  <path d="M256,501.00098c-31.16211,0-62.32324-2.16309-93.2666-6.48926-11.44043-1.60059-21.63086-7.51465-28.69531-16.65527-7.06348-9.13965-10.21777-20.49219-8.88184-31.96582l14.07617-120.86035c3.49805-30.03711-2.30664-59.94531-16.78711-86.49219l-21.81641-39.99707c-.22656-.41602-.39258-.86133-.49414-1.32324-6.24609-28.46973-9.29297-52.16797-9.31445-72.44824-.00293-2.76074,2.2334-5.00195,4.99512-5.00488h.00488c2.75879,0,4.99707,2.23535,5,4.99512,.02051,19.39062,2.94238,42.16992,8.92969,69.62012l21.47461,39.36914c15.47559,28.37207,21.67969,60.33594,17.94141,92.4375l-14.07617,120.86035c-2.11816,18.17676,10.9043,35.02637,29.02832,37.56055,60.96875,8.52539,122.79492,8.52539,183.76367,0,18.12402-2.53418,31.14648-19.38379,29.02832-37.56055l-14.07617-120.86035c-3.73828-32.10156,2.46582-64.06543,17.94141-92.4375l21.81641-39.99707c1.32324-2.42188,4.35645-3.31934,6.78418-1.99512,2.42383,1.32227,3.31738,4.35938,1.99512,6.78418l-21.81641,39.99707c-14.48047,26.54688-20.28613,56.45508-16.78711,86.49219l14.07617,120.86035c1.33594,11.47363-1.81836,22.82617-8.88184,31.96582-7.06445,9.14062-17.25488,15.05469-28.69531,16.65527-30.94336,4.32617-62.10547,6.48926-93.2666,6.48926Z"/>
  <path d="M412.82324,170.06152c-.24805,0-.49902-.01855-.75195-.05664-2.73047-.41309-4.61035-2.95996-4.19824-5.69043,4.43555-29.37695,4.40527-53.19238-.10254-72.67578l-96.62891-29.26172c-1.76953-.53516-3.09863-2.00391-3.45605-3.81738l-6.01074-30.47754c-.54688-2.77441-2.80566-4.8252-5.62012-5.10449-26.57617-2.62988-53.53027-2.62988-80.11035,0-2.81348,.2793-5.07227,2.33008-5.61914,5.10449l-6.01074,30.47754c-.35742,1.81348-1.68652,3.28223-3.45605,3.81738l-99.3584,30.08789c-2.64844,.7998-5.43359-.69336-6.23438-3.33594s.69336-5.43457,3.33594-6.23438l96.4834-29.21777,5.42969-27.53027c1.40625-7.13086,7.21094-12.40332,14.44434-13.12012,27.23242-2.69531,54.84863-2.69531,82.08105,0,7.23438,.7168,13.03906,5.98926,14.44531,13.12012l5.42969,27.53027,96.4834,29.21777c1.66992,.50586,2.95605,1.8457,3.3916,3.53516,5.50195,21.30273,5.81934,47.26758,.97168,79.37695-.37402,2.47754-2.50684,4.25488-4.93848,4.25488Z"/>
  <path d="M105.06738,201.23535c-.36914,0-.73926-.04102-1.10547-.12402-1.39453-.31543-2.58789-1.21484-3.27637-2.46777l-.04883-.08887c-1.33008-2.4209-.44629-5.46094,1.97363-6.79004,.05664-.03125,.11328-.06055,.16992-.08887,6.06934-5.26172,12.28613-23.67773,12.28613-48.82129,0-14.13184-1.97461-27.35449-5.56055-37.2334-3.23047-8.90039-7.10352-12.91113-9.50977-12.93652-2.76172-.03027-4.97559-2.29297-4.94629-5.05371,.03027-2.74316,2.2627-4.94629,4.99902-4.94629h.05469c5.36621,.05762,12.9834,3.49219,18.80273,19.52441,3.97266,10.94531,6.16016,25.37988,6.16016,40.64551,0,27.02246-6.86523,50.10742-17.08301,57.44238-.85742,.61523-1.87891,.93848-2.91602,.93848Z"/>
  <path d="M406.93359,201.23535c-1.03711,0-2.05859-.32227-2.91602-.93848-10.21875-7.33496-17.08398-30.41895-17.08398-57.44238,0-15.26562,2.1875-29.7002,6.16016-40.64551,5.81934-16.03223,13.43652-19.4668,18.80273-19.52441h.05469c2.73633,0,4.96875,2.20312,4.99902,4.94629,.0293,2.76074-2.18457,5.02344-4.94629,5.05371-2.40625,.02539-6.2793,4.03613-9.50977,12.93652-3.58594,9.87891-5.56055,23.10156-5.56055,37.2334,0,25.14551,6.21777,43.5625,12.28809,48.82227,.04395,.02148,.08691,.04395,.12988,.06738,2.43164,1.30957,3.3418,4.3418,2.03223,6.77246l-.04785,.08887c-.68164,1.2666-1.875,2.17773-3.27637,2.50195-.37305,.08594-.75,.12793-1.12598,.12793Z"/>
  <path d="M256,501.00098c-31.16113,0-62.32324-2.16309-93.2666-6.48926-17.11328-2.39355-31.29492-14.66309-36.12793-31.25977-.77148-2.65137,.75195-5.42676,3.40234-6.19922,2.65234-.77344,5.42676,.75098,6.19922,3.40234,3.73438,12.82324,14.68945,22.30371,27.91113,24.15234,60.96875,8.52539,122.79492,8.52539,183.76367,0,11.79102-1.64844,21.78125-9.36816,26.45312-20.11523-24.89648-10.70703-62.72363-15.71191-118.33496-15.71191-37.17383,0-65.00098,2.09473-87.57129,6.59277-2.71777,.54492-5.34277-1.21973-5.88086-3.92578-.54004-2.70898,1.21777-5.3418,3.92578-5.88086,23.23145-4.62988,51.67871-6.78613,89.52637-6.78613,60.30469,0,100.58789,5.90137,126.77148,18.57227,2.19629,1.06348,3.30469,3.55664,2.62305,5.89941-4.83301,16.59668-19.01465,28.86621-36.12793,31.25977-30.94336,4.32617-62.10547,6.48926-93.2666,6.48926Z"/>
  <path d="M256,52.82129c-25.65137,0-47.74609-11.45605-53.72949-27.85938-.53125-1.45605-.35742-3.07617,.4707-4.38574,2.71777-4.29883,7.1709-7.05078,12.21875-7.5498,27.23242-2.69531,54.84961-2.69531,82.08008,0,5.04785,.49902,9.50098,3.25098,12.21875,7.5498,.82812,1.30957,1.00195,2.92969,.4707,4.38574-5.98438,16.40332-28.0791,27.85938-53.72949,27.85938Zm-43.14648-28.6748c6.01172,10.96582,23.4834,18.6748,43.14648,18.6748s37.13379-7.70898,43.14648-18.6748c-.89648-.64941-1.95508-1.05664-3.09082-1.16895-26.58008-2.63086-53.53125-2.63086-80.11133,0-1.13574,.1123-2.19434,.51953-3.09082,1.16895Z"/>
  <path d="M137.39746,389.04883c-1.75098,0-3.44922-.9209-4.36621-2.55566-1.35059-2.40918-.49219-5.45703,1.91602-6.80664l36.84375-20.65234V205.2793l-49.43652-123.90723c-1.02344-2.56445,.22559-5.47363,2.79102-6.49609,2.56738-1.02637,5.47461,.22559,6.49609,2.79102l49.79297,124.79883c.23535,.58887,.35645,1.21777,.35645,1.85254v157.64453c0,1.80859-.97754,3.47656-2.55469,4.36133l-39.39844,22.08496c-.77344,.43359-1.61328,.63965-2.44043,.63965Z"/>
  <path d="M132.95312,427.21094c-1.75098,0-3.44922-.9209-4.36621-2.55566-1.35059-2.40918-.49219-5.45605,1.91602-6.80664l64.35742-36.07617c4.96289-2.78223,8.0459-8.04395,8.0459-13.7334V202.32617c0-2.00781-.37695-3.9707-1.12109-5.83496l-49.54297-124.16992c-1.02344-2.56445,.22559-5.47363,2.79102-6.49609,2.56738-1.02637,5.47461,.22754,6.49609,2.79102l49.54395,124.16992c1.2168,3.04785,1.83301,6.25781,1.83301,9.54004v165.71289c0,9.30273-5.04102,17.90723-13.15527,22.45605l-64.35742,36.07617c-.77344,.43359-1.61328,.63965-2.44043,.63965Z"/>
  <path d="M374.60254,389.04883c-.82715,0-1.66602-.20605-2.44043-.63965l-39.39844-22.08496c-1.57715-.88477-2.55469-2.55273-2.55469-4.36133V204.31836c0-.63477,.12109-1.26367,.35645-1.85254l49.79297-124.79883c1.02148-2.56445,3.92871-3.81934,6.49609-2.79102,2.56543,1.02246,3.81445,3.93164,2.79102,6.49609l-49.43652,123.90723v153.75488l36.84375,20.65234c2.4082,1.34961,3.2666,4.39746,1.91602,6.80664-.91699,1.63477-2.61523,2.55566-4.36621,2.55566Z"/>
  <path d="M379.04688,427.21094c-.82715,0-1.66602-.20605-2.44043-.63965l-64.35742-36.07617c-8.11426-4.54883-13.15527-13.15332-13.15527-22.45605V202.32617c0-3.28223,.61621-6.49219,1.83203-9.54004l39.96191-100.15234c1.02246-2.56445,3.92871-3.81836,6.49609-2.79102,2.56543,1.02246,3.81445,3.93164,2.79102,6.49609l-39.96094,100.15234c-.74316,1.86426-1.12012,3.82715-1.12012,5.83496v165.71289c0,5.68945,3.08301,10.95117,8.0459,13.7334l64.35742,36.07617c2.4082,1.35059,3.2666,4.39746,1.91602,6.80664-.91699,1.63477-2.61523,2.55566-4.36621,2.55566Z"/>
</svg>