<?xml version="1.0" encoding="UTF-8"?>
<svg id="Layer_1" data-name="Layer 1" xmlns="http://www.w3.org/2000/svg" viewBox="0 0 512 512">
  <defs>
    <style>
      .cls-1 {
        fill: #e7e8f1;
      }

      .cls-2 {
        fill: #ed5920;
      }

      .cls-3 {
        fill: #ff702e;
      }

      .cls-4 {
        fill: #c7c8ce;
      }
    </style>
  </defs>
  <g>
    <path class="cls-3" d="M354.47593,283.40203l36.3596,200.52702c.62452,3.44431,3.77269,5.84388,7.25934,5.53316l42.44868-3.78285c3.77823-.3367,6.54186-3.71269,6.12568-7.483l-34.47342-312.30456c-1.84942-16.75445-12.57799-31.21473-28.07657-37.84241l-64.64386-27.64376,8.05043-5.50365c2.86891-1.96132,2.57766-6.28243-.52849-7.84103l-7.52194-3.77433,18.12692-26.26553c5.67068-8.21669,2.6612-19.55586-6.33765-23.87918l-.00009-.00004c-47.5736-22.85581-102.95548-22.8558-150.52908,0l-.00009,.00004c-8.99886,4.32333-12.00833,15.66249-6.33766,23.87918l18.12692,26.26553-7.52194,3.77433c-3.10616,1.5586-3.3974,5.87971-.52849,7.84103l8.05043,5.50365-64.64386,27.64376c-15.49858,6.62768-26.22715,21.08795-28.07657,37.84241l-34.47342,312.30456c-.41618,3.77031,2.34745,7.14629,6.12568,7.483l42.44868,3.78285c3.48665,.31072,6.63482-2.08885,7.25934-5.53316l36.3596-200.52702"/>
    <path class="cls-3" d="M364.339,203.71005l-3.26639,33.58645c-6.53765,67.22307-7.55119,134.86908-3.03043,202.25783l2.88564,43.01488c.25748,3.83816-2.53965,7.20413-6.36009,7.65352h-.00011c-65.48601,7.70301-131.64925,7.70301-197.13526,.00001h-.00011c-3.82045-.4494-6.61757-3.81537-6.36009-7.65353l2.88564-43.01488c4.52076-67.38876,3.50722-135.03476-3.03043-202.25783l-3.26639-33.58645"/>
  </g>
  <path class="cls-1" d="M322.87453,51.77429c0,8.81204-29.94075,30.32685-66.87453,30.32685s-66.87453-21.51481-66.87453-30.32685,29.94075-14.02212,66.87453-14.02212,66.87453,5.21008,66.87453,14.02212Z"/>
  <path class="cls-2" d="M262.20071,81.89153V496h20.14525V78.51169c-6.27783,1.7121-13.05113,2.92195-20.14525,3.37984Z"/>
  <path d="M282.34619,474.90039c-2.76123,0-5-2.23828-5-5V78.51465c0-2.76172,2.23877-5,5-5s5,2.23828,5,5V469.90039c0,2.76172-2.23877,5-5,5Z"/>
  <g>
    <path class="cls-2" d="M364.33902,208.45316l-7.12079,90.07286,33.61727,185.40311c.62457,3.44427,3.77269,5.84391,7.25939,5.53306l14.54669-1.29623-48.30256-279.7128Z"/>
    <path class="cls-2" d="M356.03346,313.51224l.01027,.1317c.0059-.16923,.01345-.33846,.01947-.50768l-.02974,.37598Z"/>
  </g>
  <g>
    <path class="cls-2" d="M147.66096,208.45307l7.12079,90.07286-33.61727,185.40311c-.62457,3.44427-3.77269,5.84391-7.25939,5.53306l-14.54669-1.29623,48.30256-279.7128Z"/>
    <path class="cls-2" d="M155.96652,313.51215l-.01027,.1317c-.0059-.16923-.01345-.33846-.01947-.50768l.02974,.37598Z"/>
  </g>
  <path d="M229.65381,118.16895c-2.76123,0-5-2.23828-5-5v-34.65527c0-2.76172,2.23877-5,5-5s5,2.23828,5,5v34.65527c0,2.76172-2.23877,5-5,5Z"/>
  <path d="M229.65381,500.58594c-2.76123,0-5-2.23828-5-5V138.34863c0-2.76172,2.23877-5,5-5s5,2.23828,5,5V495.58594c0,2.76172-2.23877,5-5,5Z"/>
  <path d="M256,500.99316c-33.13184,0-66.25195-1.93457-99.15186-5.80469-6.47314-.76074-11.20166-6.45117-10.76465-12.9541l2.88574-43.01465c4.48877-66.91504,3.47314-134.68848-3.01855-201.43848l-3.26611-33.58691c-.26709-2.74902,1.74414-5.19336,4.49268-5.46094,2.75586-.26953,5.19287,1.74414,5.46045,4.49219l3.26611,33.58691c6.54443,67.29297,7.56836,135.61816,3.04297,203.07715l-2.88574,43.01465c-.0791,1.18066,.7793,2.21387,1.95508,2.35254,65.01758,7.64746,130.9502,7.64746,195.96777,0,1.17578-.13867,2.03418-1.17188,1.95508-2.35254l-2.88574-43.01465c-4.52539-67.45898-3.50146-135.78418,3.04297-203.07715l3.26611-33.58691c.26709-2.74707,2.70898-4.75684,5.46045-4.49219,2.74854,.26758,4.75977,2.71191,4.49268,5.46094l-3.26611,33.58691c-6.4917,66.75-7.50732,134.52344-3.01855,201.43848l2.88574,43.01465c.43701,6.50293-4.2915,12.19336-10.76465,12.9541-32.89209,3.86914-66.02783,5.80469-99.15186,5.80469Z"/>
  <path d="M114.53613,494.49023c-.35547,0-.71338-.01562-1.07471-.04785l-42.44873-3.78223c-3.17773-.2832-6.04053-1.79883-8.06104-4.26758-2.02051-2.46777-2.94092-5.57422-2.59082-8.74512L94.83447,165.34277c2.04395-18.51562,13.95361-34.56738,31.08057-41.89062l56.26514-24.06152-.52783-.36035c-2.8252-1.93262-4.37354-5.12402-4.14307-8.53711,.23047-3.41406,2.19336-6.36719,5.25146-7.90137l2.38379-1.19629-14.86182-21.53418c-3.53467-5.12109-4.646-11.50781-3.0498-17.52246s5.72852-11.00977,11.3374-13.7041c49.20703-23.64062,105.65234-23.64062,154.85938,0,5.60889,2.69434,9.74121,7.68945,11.3374,13.7041s.48486,12.40137-3.0498,17.52246l-14.86182,21.53418,2.38428,1.19629c3.05762,1.53418,5.02051,4.4873,5.25098,7.90137,.23047,3.41309-1.31787,6.60449-4.14209,8.53613l-.52881,.36133,56.26514,24.06152c17.12695,7.32324,29.03662,23.375,31.08057,41.89062l34.47363,312.30469c.3501,3.1709-.57031,6.27734-2.59082,8.74512-2.02051,2.46875-4.8833,3.98438-8.06055,4.26758l-42.44922,3.78223c-6.10449,.54492-11.52979-3.59277-12.62305-9.62207l-34.06543-187.87402c-.49268-2.7168,1.31055-5.31836,4.02783-5.81152,2.71436-.49316,5.31934,1.31055,5.81201,4.02832l34.06543,187.87402c.16406,.9043,.979,1.52734,1.89551,1.44434l42.44873-3.78223c.64404-.05762,1.03516-.42578,1.21094-.64062s.45996-.6709,.38916-1.31348l-34.47363-312.30469c-1.64893-14.93652-11.25635-27.88574-25.07275-33.79297l-64.64355-27.64453c-1.67822-.71777-2.83203-2.29297-3.01025-4.10938s.64746-3.58594,2.1543-4.61621l7.43506-5.08203-6.85596-3.44043c-1.29297-.64844-2.2417-1.82617-2.60107-3.22754-.35889-1.40234-.09326-2.89062,.72852-4.08105l18.12646-26.26465c1.87158-2.71191,2.45996-6.09375,1.61475-9.27832-.84473-3.18359-3.03271-5.82812-6.00195-7.25488-46.45605-22.31738-99.74316-22.31738-146.19922,0-2.96924,1.42676-5.15723,4.07129-6.00195,7.25488-.84521,3.18457-.25684,6.56641,1.61475,9.27832l18.12646,26.26465c.82178,1.19043,1.0874,2.67871,.72852,4.08105-.35938,1.40137-1.30811,2.5791-2.60107,3.22754l-6.85596,3.44043,7.43506,5.08203c1.50684,1.03027,2.33252,2.7998,2.1543,4.61621s-1.33203,3.3916-3.01025,4.10938l-64.64355,27.64453c-13.81641,5.90723-23.42383,18.85645-25.07275,33.79297l-34.47363,312.30469c-.0708,.64258,.21338,1.09863,.38916,1.31348s.56689,.58301,1.21143,.64062l42.44824,3.78223c.91699,.08301,1.73145-.54004,1.89551-1.44434l21.66895-119.50586c.49268-2.71777,3.0957-4.52051,5.81201-4.02832,2.71729,.49316,4.52051,3.09473,4.02783,5.81152l-21.66895,119.50586c-1.02881,5.67285-5.89355,9.66992-11.54834,9.66992Z"/>
  <path d="M303.22119,113.77051c-1.81348,0-3.56299-.99023-4.4502-2.71387-1.26318-2.45508-.29639-5.46973,2.15869-6.7334l16.25879-8.36426c2.45459-1.25977,5.46973-.2959,6.7334,2.15918,1.26318,2.45508,.29639,5.46973-2.15918,6.7334l-16.2583,8.36426c-.73145,.37598-1.51318,.55469-2.2832,.55469Z"/>
  <path d="M259.94092,122.49414c-.17236,0-.34668-.00879-.52197-.02637l-10.36621-1.07617c-18.66064-1.93945-36.81738-6.77832-53.96631-14.38086l-4.58838-2.03418c-2.52441-1.11914-3.66357-4.07324-2.54443-6.59766,1.11816-2.52344,4.07178-3.66504,6.59717-2.54492l4.58887,2.03418c16.18945,7.17871,33.33008,11.74609,50.9458,13.57617l10.36572,1.07617c2.74707,.28516,4.74219,2.74316,4.45703,5.49023-.2666,2.57129-2.4375,4.4834-4.96729,4.4834Z"/>
  <path d="M311.35059,94.03613c-1.56836,0-3.11182-.73535-4.08643-2.1123-1.59473-2.25488-1.05957-5.375,1.19482-6.96973l8.12939-5.75c2.25293-1.59473,5.37451-1.05957,6.96924,1.19434,1.59473,2.25488,1.05957,5.375-1.19482,6.96973l-8.12939,5.75c-.87695,.62012-1.88477,.91797-2.88281,.91797Z"/>
  <path d="M202.98145,94.03711c-.81445,0-1.64014-.19922-2.40381-.61914l-10.46143-5.75c-2.41992-1.33008-3.30372-4.37012-1.97363-6.79004,1.33057-2.4209,4.37207-3.30371,6.79004-1.97363l10.46143,5.75c2.41992,1.33008,3.30371,4.37012,1.97363,6.79004-.91016,1.65625-2.62158,2.59277-4.38623,2.59277Z"/>
  <path class="cls-4" d="M311.63948,43.52543c-6.80575,8.70851-29.1299,21.53182-55.63948,21.53182s-48.83373-12.82331-55.63948-21.53182c-7.09335,2.19737-11.23506,4.97369-11.23506,8.24873,0,8.81212,29.94075,30.32695,66.87455,30.32695s66.87455-21.51483,66.87455-30.32695c0-3.27504-4.14171-6.05137-11.23506-8.24873Z"/>
  <path d="M256,87.10156c-2.76123,0-5-2.23828-5-5s2.23877-5,5-5c34.86963,0,60.17188-19.61035,61.81348-25.13184-2.3418-3.04395-20.3374-9.21777-61.81348-9.21777-41.56152,0-59.5459,6.19922-61.82764,9.23633,1.03613,3.78613,14.55127,15.6377,36.79639,21.7041,2.66406,.72656,4.23486,3.47559,3.5083,6.13965-.72705,2.66406-3.4751,4.2334-6.13916,3.50879-23.96582-6.53613-44.2124-20.99219-44.2124-31.56641,0-9.4375,13.47607-13.20605,23.61279-15.21973,12.34326-2.45215,29.48291-3.80273,48.26172-3.80273s35.91846,1.35059,48.26172,3.80273c10.13672,2.01367,23.61279,5.78223,23.61279,15.21973,0,5.30469-5.83887,14.10059-22.22705,22.87598-8.68408,4.65039-26.68164,12.45117-49.64746,12.45117Z"/>
</svg>