<?xml version="1.0" encoding="UTF-8"?>
<svg id="Layer_1" data-name="Layer 1" xmlns="http://www.w3.org/2000/svg" viewBox="0 0 512 512">
  <defs>
    <style>
      .cls-1 {
        fill: #e7e8f1;
      }

      .cls-2 {
        fill: #ed5920;
      }

      .cls-3 {
        fill: #ff702e;
      }

      .cls-4 {
        fill: #c7c8ce;
      }

      .cls-5 {
        fill: #5f606b;
      }

      .cls-6 {
        fill: #51545a;
      }
    </style>
  </defs>
  <path class="cls-3" d="M20.53846,189.40925l22.4282-13.47933c3.58629-2.15543,8.16757-1.66807,11.22005,1.19365l33.59124,31.49188V106.62114c0,15.69333,3.4911-7.79777,7.79777-7.79777h28.32679c4.30657,0,7.79777,3.4911,7.79777,7.79777,0-4.30667,3.4912-7.79777,7.79777-7.79777h28.32689c4.30657,0,7.79777,3.4911,7.79777,7.79777,0-4.30667,3.4912-7.79777,7.79777-7.79777h28.32689c4.30657,0,7.79777,3.4911,7.79777,7.79777v15.59554c0-4.30667,3.4912-7.79777,7.79777-7.79777h28.32689c4.30657,0,7.79777,3.4911,7.79777,7.79777v97.47175c0,19.97189-4.87294,39.64298-14.1959,57.30562l-6.82848,12.93676c-9.32306,17.66264-14.1959,37.33335-14.1959,57.30562v8.88101c0,5.92486-4.80317,10.72803-10.72812,10.72803H103.11649l-.12489-1.7743c-2.52238-35.81758-17.90489-69.51667-43.31294-94.8876h-.0001c-11.51675-11.50019-21.06988-24.81085-28.2791-39.40235l-14.43006-29.20699c-2.15705-4.36607-.60482-9.65659,3.56906-12.16498Z"/>
  <path class="cls-2" d="M209.59991,356.11738v-8.88092c0-19.97228,4.87303-39.64289,14.19599-57.30576l6.8285-12.93652c9.32296-17.66288,14.19586-37.33373,14.19586-57.30576V122.21669c0-4.30653-3.49125-7.79791-7.79778-7.79791h17.82514c4.3066,0,7.79778,3.49138,7.79778,7.79791v97.47173c0,19.97203-4.87297,39.64289-14.19592,57.30576l-6.82844,12.93652c-9.32315,17.66288-14.19592,37.33348-14.19592,57.30576v8.88092c0,5.92499-4.8031,10.72809-10.72809,10.72809h-17.8252c5.92499,0,10.72809-4.8031,10.72809-10.72809Z"/>
  <path class="cls-5" d="M103.99332,318.37075h85.51955c4.45453,0,8.07105,3.61652,8.07105,8.07105v32.3325c0,4.45453-3.61652,8.07105-8.07105,8.07105H103.99332c-8.9791,0-16.26898-7.28989-16.26898-16.26898v-15.93664c0-8.9791,7.28989-16.26898,16.26898-16.26898Z" transform="translate(285.30827 685.2161) rotate(180)"/>
  <path class="cls-6" d="M95.79551,318.37059h7.37552v6.02791c0,16.5796,13.44043,30.02003,30.02003,30.02003h63.57054c.1187,0,.2335-.01523,.35153-.01751-1.72261,7.13603-8.13274,12.44445-15.7982,12.44445H95.79541c-4.45752,0-8.07105-3.61353-8.07105-8.07105v-32.33267c0-4.45757,3.61358-8.07115,8.07115-8.07115Z"/>
  <path d="M217.51904,371.8457h-34.22705c-2.76123,0-5-2.23828-5-5s2.23877-5,5-5h34.22705c3.1582,0,5.72803-2.56934,5.72803-5.72852v-8.88086c0-20.70508,5.10889-41.32812,14.77441-59.63965l6.82812-12.93652c1.28857-2.44043,4.31201-3.37598,6.75586-2.08789,2.44189,1.28906,3.37695,4.31348,2.08789,6.75586l-6.82812,12.93652c-8.90918,16.87793-13.61816,35.8877-13.61816,54.97168v8.88086c0,8.67285-7.05566,15.72852-15.72803,15.72852Z"/>
  <path class="cls-2" d="M202.89813,98.82334h2.8072c7.63839,0,13.8398,6.20141,13.8398,13.8398v34.27556h-7.32461c-5.14517,0-9.32239-4.17722-9.32239-9.32239v-38.79297h0Z" transform="translate(422.44326 245.76205) rotate(180)"/>
  <path class="cls-2" d="M158.97572,98.82334h2.8072c7.63839,0,13.8398,6.20141,13.8398,13.8398v34.27556h-7.32461c-5.14517,0-9.32239-4.17722-9.32239-9.32239v-38.79297h0Z" transform="translate(334.59844 245.76205) rotate(180)"/>
  <path class="cls-2" d="M115.05331,98.82334h2.8072c7.63839,0,13.8398,6.20141,13.8398,13.8398v34.27556h-7.32461c-5.14517,0-9.32239-4.17722-9.32239-9.32239v-38.79297h0Z" transform="translate(246.75362 245.76205) rotate(180)"/>
  <path d="M92.28613,324.18457c-1.9707,0-3.83838-1.17188-4.62988-3.1084-7.28613-17.81934-17.8877-33.75195-31.51025-47.35449-11.92773-11.91016-21.76221-25.6123-29.22949-40.72559l-14.43018-29.20703c-3.2832-6.64746-.87793-14.8457,5.47656-18.66504l22.42822-13.47949c5.47656-3.29102,12.55566-2.53613,17.21582,1.83203l25.1709,23.59766V106.62109c0-7.17676,5.62158-12.79785,12.79785-12.79785h28.32666c7.05664,0,12.79785,5.74121,12.79785,12.79785v32.74902c0,2.76172-2.23877,5-5,5s-5-2.23828-5-5v-32.74902c0-1.54297-1.25488-2.79785-2.79785-2.79785h-28.32666c-1.64746,0-2.79785,1.15039-2.79785,2.79785v101.99414c0,1.99316-1.18359,3.7959-3.01221,4.58789-1.82959,.79297-3.95361,.42383-5.40723-.94043l-33.59131-31.49121c-1.41455-1.32617-3.56348-1.55371-5.22461-.55664l-22.42822,13.47949c-1.92871,1.15918-2.65869,3.64844-1.66211,5.66504l14.43018,29.20703c6.98193,14.13184,16.17676,26.94336,27.3291,38.0791,14.56982,14.54785,25.9082,31.58789,33.70068,50.64551,1.04541,2.55664-.17969,5.47559-2.73535,6.52051-.61963,.25293-1.26074,.37305-1.89062,.37305Z"/>
  <g>
    <path d="M175.62256,151.21875c-2.76123,0-5-2.23828-5-5v-39.59766c0-1.54297-1.25488-2.79785-2.79736-2.79785h-28.32715c-1.54297,0-2.79785,1.25488-2.79785,2.79785v39.59766c0,2.76172-2.23877,5-5,5s-5-2.23828-5-5v-39.59766c0-7.05664,5.74121-12.79785,12.79785-12.79785h28.32715c7.05664,0,12.79736,5.74121,12.79736,12.79785v39.59766c0,2.76172-2.23877,5-5,5Z"/>
    <path d="M219.54492,151.21875c-2.76123,0-5-2.23828-5-5v-39.59766c0-1.54297-1.25488-2.79785-2.79736-2.79785h-28.32715c-1.54297,0-2.79785,1.25488-2.79785,2.79785v39.59766c0,2.76172-2.23877,5-5,5s-5-2.23828-5-5v-39.59766c0-7.05664,5.74121-12.79785,12.79785-12.79785h28.32715c7.05664,0,12.79736,5.74121,12.79736,12.79785v39.59766c0,2.76172-2.23877,5-5,5Z"/>
  </g>
  <path d="M263.46777,142.36816c-2.76123,0-5-2.23828-5-5v-15.15137c0-1.54297-1.25488-2.79785-2.79785-2.79785h-28.32715c-1.54297,0-2.79785,1.25488-2.79785,2.79785,0,2.76172-2.23877,5-5,5s-5-2.23828-5-5c0-7.05664,5.74121-12.79785,12.79785-12.79785h28.32715c7.05664,0,12.79785,5.74121,12.79785,12.79785v15.15137c0,2.76172-2.23877,5-5,5Z"/>
  <path d="M181.31494,371.8457H95.79541c-7.20752,0-13.07129-5.86328-13.07129-13.07129v-32.33301c0-7.20703,5.86377-13.07031,13.07129-13.07031h19.25781c2.76123,0,5,2.23828,5,5s-2.23877,5-5,5h-19.25781c-1.69336,0-3.07129,1.37695-3.07129,3.07031v32.33301c0,1.69336,1.37793,3.07129,3.07129,3.07129h85.51953c6.21387,0,11.26904-5.05566,11.26904-11.26953v-15.93652c0-6.21387-5.05518-11.26855-11.26904-11.26855h-41.58105c-2.76123,0-5-2.23828-5-5s2.23877-5,5-5h41.58105c11.72803,0,21.26904,9.54102,21.26904,21.26855v15.93652c0,11.72852-9.54102,21.26953-21.26904,21.26953Z"/>
  <path class="cls-3" d="M491.46154,235.74044l-22.4282-13.47933c-3.58629-2.15543-8.16757-1.66807-11.22005,1.19365l-33.59124,31.49188v-101.99431c0-4.30667-3.4911-7.79777-7.79777-7.79777h-28.32679c-4.30657,0-7.79777,3.4911-7.79777,7.79777,0-4.30667-3.4912-7.79777-7.79777-7.79777h-28.32689c-4.30657,0-7.79777,3.4911-7.79777,7.79777,0-4.30667-3.4912-7.79777-7.79777-7.79777h-28.32689c-4.30657,0-7.79777,3.4911-7.79777,7.79777v15.59554c0-4.30667-3.4912-7.79777-7.79777-7.79777h-28.32689c-4.30657,0-7.79777,3.4911-7.79777,7.79777v97.47175c0,19.97189,4.87294,39.64298,14.1959,57.30562l6.82848,12.93676c9.32306,17.66264,14.1959,37.33335,14.1959,57.30562v8.88101c0,5.92486,4.80317,10.72803,10.72812,10.72803h114.40268l.12489-1.7743c2.52238-35.81758,17.90489-69.51667,43.31294-94.8876h.0001c11.51675-11.50019,21.06988-24.81085,28.2791-39.40235l14.43006-29.20699c2.15705-4.36607,.60482-9.65659-3.56906-12.16498Z"/>
  <path class="cls-2" d="M302.40009,402.44857v-8.88092c0-19.97228-4.87303-39.64289-14.19599-57.30576l-6.8285-12.93652c-9.32296-17.66288-14.19586-37.33373-14.19586-57.30576v-97.47173c0-4.30653,3.49125-7.79791,7.79778-7.79791h-17.82514c-4.3066,0-7.79778,3.49138-7.79778,7.79791v97.47173c0,19.97203,4.87297,39.64289,14.19592,57.30576l6.82844,12.93652c9.32315,17.66288,14.19592,37.33348,14.19592,57.30576v8.88092c0,5.92499,4.8031,10.72809,10.72809,10.72809h17.8252c-5.92499,0-10.72809-4.8031-10.72809-10.72809Z"/>
  <path class="cls-5" d="M330.68505,364.70194h85.51955c4.45453,0,8.07105,3.61652,8.07105,8.07105v32.3325c0,4.45453-3.61652,8.07105-8.07105,8.07105h-85.51955c-8.9791,0-16.26898-7.28989-16.26898-16.26898v-15.93664c0-8.9791,7.28989-16.26898,16.26898-16.26898Z"/>
  <path class="cls-6" d="M416.20449,364.70178h-7.37552v6.02791c0,16.5796-13.44043,30.02003-30.02003,30.02003h-63.57054c-.1187,0-.2335-.01523-.35153-.01751,1.72261,7.13603,8.13274,12.44445,15.7982,12.44445h85.51952c4.45752,0,8.07105-3.61353,8.07105-8.07105v-32.33267c0-4.45757-3.61358-8.07115-8.07115-8.07115Z"/>
  <path d="M328.70801,418.17676h-34.22705c-8.67236,0-15.72803-7.05566-15.72803-15.72852v-8.88086c0-19.08398-4.70898-38.09375-13.61816-54.97168l-6.82812-12.93652c-9.66553-18.31152-14.77441-38.93457-14.77441-59.63965v-61.09863c0-2.76172,2.23877-5,5-5s5,2.23828,5,5v61.09863c0,19.08398,4.70898,38.09375,13.61816,54.97168l6.82812,12.93652c9.66553,18.31152,14.77441,38.93457,14.77441,59.63965v8.88086c0,3.15918,2.56934,5.72852,5.72803,5.72852h34.22705c2.76123,0,5,2.23828,5,5s-2.23877,5-5,5Z"/>
  <g>
    <path class="cls-2" d="M301.77726,145.15453h7.32461v34.27556c0,7.63839-6.20141,13.8398-13.8398,13.8398h-2.8072v-38.79297c0-5.14517,4.17722-9.32239,9.32239-9.32239Z"/>
    <path class="cls-2" d="M345.69967,145.15453h7.32461v34.27556c0,7.63839-6.20141,13.8398-13.8398,13.8398h-2.8072v-38.79297c0-5.14517,4.17722-9.32239,9.32239-9.32239Z"/>
    <path class="cls-2" d="M389.62208,145.15453h7.32461v34.27556c0,7.63839-6.20141,13.8398-13.8398,13.8398h-2.8072v-38.79297c0-5.14517,4.17722-9.32239,9.32239-9.32239Z"/>
  </g>
  <path d="M433.50391,344.4834c-.9502,0-1.91064-.27051-2.76172-.83594-2.30029-1.52832-2.92627-4.63184-1.39795-6.93164,5.65918-8.51953,12.20117-16.50684,19.44385-23.73926,11.15283-11.13574,20.34766-23.94727,27.32959-38.0791l14.43018-29.20703c.99658-2.01758,.2666-4.50586-1.66211-5.66504l-22.42822-13.47949c-1.66211-.99805-3.80957-.76953-5.22363,.55664l-33.59229,31.49121c-1.45312,1.36426-3.57812,1.7334-5.40723,.94043-1.82861-.79199-3.01221-2.59473-3.01221-4.58789v-101.99414c0-1.54297-1.25488-2.79785-2.79785-2.79785h-28.32666c-1.54297,0-2.79785,1.25488-2.79785,2.79785v40.31738c0,2.76172-2.23877,5-5,5s-5-2.23828-5-5v-40.31738c0-7.05664,5.74121-12.79785,12.79785-12.79785h28.32666c7.05664,0,12.79785,5.74121,12.79785,12.79785v90.45312l25.17139-23.59766c4.65967-4.36914,11.73975-5.12402,17.21533-1.83203l22.42822,13.47949c6.35498,3.81934,8.76025,12.01855,5.47656,18.66504l-14.43018,29.20703c-7.46729,15.11328-17.30176,28.81543-29.22949,40.72559-6.77197,6.7627-12.88867,14.23047-18.18066,22.19629-.9624,1.44922-2.55078,2.2334-4.16943,2.23438Z"/>
  <g>
    <path d="M336.37744,157.95215c-2.76123,0-5-2.23828-5-5,0-7.05664,5.74072-12.79785,12.79736-12.79785h14.16357c2.76123,0,5,2.23828,5,5s-2.23877,5-5,5h-14.16357c-1.54248,0-2.79736,1.25488-2.79736,2.79785,0,2.76172-2.23877,5-5,5Z"/>
    <path d="M336.37744,197.5498c-2.76123,0-5-2.23828-5-5v-39.59766c0-1.54297-1.25488-2.79785-2.79785-2.79785h-28.32715c-1.54248,0-2.79736,1.25488-2.79736,2.79785v39.59766c0,2.76172-2.23877,5-5,5s-5-2.23828-5-5v-39.59766c0-7.05664,5.74072-12.79785,12.79736-12.79785h28.32715c7.05664,0,12.79785,5.74121,12.79785,12.79785v39.59766c0,2.76172-2.23877,5-5,5Z"/>
  </g>
  <path d="M248.53223,217.5498c-2.76123,0-5-2.23828-5-5v-44.00195c0-7.05664,5.74121-12.79785,12.79785-12.79785h28.32715c7.05664,0,12.79785,5.74121,12.79785,12.79785,0,2.76172-2.23877,5-5,5s-5-2.23828-5-5c0-1.54297-1.25488-2.79785-2.79785-2.79785h-28.32715c-1.54297,0-2.79785,1.25488-2.79785,2.79785v44.00195c0,2.76172-2.23877,5-5,5Z"/>
  <path d="M416.20459,418.17676h-85.51953c-2.76123,0-5-2.23828-5-5s2.23877-5,5-5h85.51953c1.69336,0,3.07129-1.37793,3.07129-3.07129v-32.33203c0-1.69336-1.37793-3.07129-3.07129-3.07129h-85.51953c-6.21387,0-11.26904,5.05469-11.26904,11.26855v12.55664c0,2.76172-2.23877,5-5,5s-5-2.23828-5-5v-12.55664c0-11.72754,9.54102-21.26855,21.26904-21.26855h85.51953c7.20752,0,13.07129,5.86328,13.07129,13.07129v32.33203c0,7.20801-5.86377,13.07129-13.07129,13.07129Z"/>
  <g>
    <rect class="cls-1" x="119.08542" y="181.90891" width="108.42761" height="61.28182" rx="12.27722" ry="12.27722"/>
    <path class="cls-4" d="M215.2359,181.90894h-83.87341c-6.78045,0-12.2771,5.49664-12.2771,12.2771v1.54565h53.79453c21.43432,0,38.81027,17.37595,38.81027,38.81027v8.64872h3.54565c6.78049,0,12.27716-5.49667,12.27716-12.27716v-36.72748c0-6.78045-5.49664-12.2771-12.2771-12.2771Z"/>
    <path d="M215.23584,248.19043c-2.76123,0-5-2.23828-5-5s2.23877-5,5-5c4.0127,0,7.27734-3.26465,7.27734-7.27734v-36.72656c0-4.0127-3.26465-7.27734-7.27734-7.27734h-83.87305c-4.0127,0-7.27734,3.26465-7.27734,7.27734v36.72656c0,4.0127,3.26465,7.27734,7.27734,7.27734h53.57422c2.76123,0,5,2.23828,5,5s-2.23877,5-5,5h-53.57422c-9.52686,0-17.27734-7.75098-17.27734-17.27734v-36.72656c0-9.52637,7.75049-17.27734,17.27734-17.27734h83.87305c9.52686,0,17.27734,7.75098,17.27734,17.27734v36.72656c0,9.52637-7.75049,17.27734-17.27734,17.27734Z"/>
  </g>
  <g>
    <rect class="cls-1" x="282.8945" y="222.10371" width="108.42761" height="61.28182" rx="12.27722" ry="12.27722" transform="translate(674.21662 505.48924) rotate(180)"/>
    <path class="cls-4" d="M295.17163,222.10374h83.87341c6.78045,0,12.2771,5.49664,12.2771,12.2771v1.54565h-53.79453c-21.43432,0-38.81027,17.37595-38.81027,38.81027v8.64872h-3.54565c-6.78049,0-12.27716-5.49667-12.27716-12.27716v-36.72748c0-6.78045,5.49664-12.2771,12.2771-12.2771Z"/>
    <path d="M379.04492,288.38574h-83.87305c-9.52686,0-17.27734-7.75098-17.27734-17.27734v-10.24121c0-2.76172,2.23877-5,5-5s5,2.23828,5,5v10.24121c0,4.0127,3.26465,7.27734,7.27734,7.27734h83.87305c4.0127,0,7.27734-3.26465,7.27734-7.27734v-36.72754c0-4.0127-3.26465-7.27734-7.27734-7.27734h-83.87305c-4.0127,0-7.27734,3.26465-7.27734,7.27734,0,2.76172-2.23877,5-5,5s-5-2.23828-5-5c0-9.52637,7.75049-17.27734,17.27734-17.27734h83.87305c9.52686,0,17.27734,7.75098,17.27734,17.27734v36.72754c0,9.52637-7.75049,17.27734-17.27734,17.27734Z"/>
  </g>
</svg>