<?xml version="1.0" encoding="UTF-8"?>
<svg id="Layer_1" data-name="Layer 1" xmlns="http://www.w3.org/2000/svg" viewBox="0 0 512 512">
  <defs>
    <style>
      .cls-1 {
        fill: #ed5920;
      }

      .cls-2 {
        fill: #ff702e;
      }
    </style>
  </defs>
  <path class="cls-2" d="M256.95399,80.61874c18.6782,0,35.39834,6.13669,46.65201,15.81391,4.5009,3.8704,11.41783,1.71353,12.87047-4.04216,1.56301-6.193,2.18424-12.75998,1.69354-19.54511-2.23026-30.83927-27.58086-55.43972-58.47137-56.78552-35.14815-1.53128-64.12496,26.51068-64.12496,61.32068,0,5.2348,.65952,10.31412,1.89665,15.16294,1.45028,5.68422,8.38639,7.71114,12.83461,3.88661,11.25365-9.67575,27.97248-15.81136,46.64904-15.81136Z"/>
  <path class="cls-2" d="M413.62434,354.90044l52.8517-46.93247c9.67139-8.58822,10.00002-23.58689,.71409-32.59048l-134.43724-130.34962c-12.88501-12.49324-21.29331-28.88486-23.92373-46.63832l.00002-.00006c-30.14997-43.0849-65.36935-43.08442-105.65837,0l.00002,.00006c-2.63042,17.75346-11.03872,34.14509-23.92373,46.63832L44.80987,275.37749c-9.28593,9.00359-8.9573,24.00226,.71409,32.59048l52.8517,46.93247"/>
  <path class="cls-2" d="M388.2096,444.44476l36.997-27.95002c8.72612-6.5923,11.36302-18.55125,6.21843-28.20198l-120.2782-225.62988h-110.29367l-120.2782,225.62988c-5.14459,9.65074-2.50769,21.60969,6.21843,28.20198l36.997,27.95002"/>
  <path class="cls-2" d="M296.09728,185.84949l96.49808,282.1961c2.13668,6.24844-1.66298,12.96058-8.12008,14.34419l-.00014,.00003c-84.68889,18.14692-172.2614,18.14692-256.95028,0l-.00014-.00003c-6.4571-1.38361-10.25676-8.09574-8.12008-14.34419L215.90272,185.84949"/>
  <path class="cls-1" d="M256.95399,80.61874c-13.6426,0-26.22934,3.28452-36.41556,8.82049-.11291,1.43062-.17477,2.8792-.17477,4.34572,0,24.70338,16.38209,44.72922,36.59033,44.72922s36.59033-20.02584,36.59033-44.72922c0-1.46652-.06185-2.9151-.17477-4.34548-10.18623-5.53621-22.77296-8.82073-36.41556-8.82073Z"/>
  <path class="cls-1" d="M388.20958,444.44475l13.442-10.15506-77.0592-210.12303c-3.96755-10.81862-12.51235-19.33153-23.34574-23.25859h-.00002s83.27845,243.53668,83.27845,243.53668h3.6845Z"/>
  <path class="cls-1" d="M319.7497,178.80099l93.87464,176.09945,15.73835-13.9757-83.03837-145.18276c-4.04852-7.07836-10.68596-12.30938-18.51449-14.59143l-8.06013-2.34956Z"/>
  <path class="cls-1" d="M123.79042,444.44475l-13.442-10.15506,77.0592-210.12303c3.96755-10.81862,12.51235-19.33153,23.34574-23.25859h.00002s-83.27845,243.53668-83.27845,243.53668h-3.6845Z"/>
  <path class="cls-1" d="M192.2503,178.80099l-93.87464,176.09945-15.73835-13.9757,83.03837-145.18276c4.04852-7.07836,10.68596-12.30938,18.51449-14.59143l8.06013-2.34956Z"/>
  <path class="cls-1" d="M318.17009,72.84539c-2.23035-30.83921-27.58089-55.43975-58.47152-56.78548-10.33771-.45044-20.13232,1.67367-28.82207,5.75961,4.17726-.69664,8.49667-.97291,12.91419-.78056,30.89039,1.34573,56.24105,25.94627,58.47127,56.78548,.41575,5.74676,.02571,11.33439-1.05053,16.6734,.82131,.62896,1.62346,1.27175,2.39456,1.93491,4.50096,3.8703,11.41783,1.71345,12.87053-4.04228,1.56294-6.19307,2.18426-12.75992,1.69356-19.54508Z"/>
  <g>
    <path d="M205.07617,103.39453c-1.31152,0-2.63428-.2002-3.9292-.6084-4.23779-1.33594-7.42334-4.70215-8.52148-9.00586-1.36133-5.33887-2.05176-10.85547-2.05176-16.39941,0-18.28027,7.27393-35.31055,20.48145-47.95508,13.19971-12.6377,30.53418-19.16992,48.86084-18.36133,33.62695,1.46484,60.81445,27.87012,63.24121,61.4209,.51758,7.14844-.09961,14.25781-1.83301,21.12793-1.10645,4.38477-4.32422,7.81152-8.60742,9.16797-4.2998,1.3623-8.9248,.4043-12.37109-2.55762-10.79297-9.28125-26.60938-14.60449-43.3916-14.60449h-.00098c-2.33496,0-4.68701,.10352-6.9917,.30762-2.74854,.24902-5.17773-1.78809-5.42139-4.53906s1.78857-5.17871,4.53955-5.42188c2.59668-.23047,5.24609-.34668,7.87451-.34668,19.13867,0,37.33105,6.2041,49.91211,17.02246,1.1543,.99219,2.36523,.75195,2.83203,.60547,.57031-.18066,1.58008-.69043,1.93066-2.08008,1.47168-5.83398,1.99414-11.87695,1.55371-17.95996-2.05957-28.48828-25.14648-50.9082-53.70215-52.15234-15.55469-.68262-30.29834,4.86035-41.50977,15.59375-11.21875,10.74023-17.39697,25.20605-17.39697,40.73242,0,4.71094,.58594,9.39648,1.74121,13.92773,.32861,1.28809,1.29297,1.76855,1.83887,1.94043,.479,.15234,1.72217,.39453,2.89111-.61035,4.69678-4.03809,10.18945-7.46094,16.32666-10.17285,2.52637-1.11426,5.479,.02734,6.59424,2.55176,1.11621,2.52637-.02637,5.47852-2.55225,6.59473-5.23779,2.31543-9.89746,5.21191-13.84863,8.6084-2.41846,2.08008-5.42139,3.17383-8.48877,3.17383Z"/>
    <path d="M77.95752,341.77051c-1.18066,0-2.36572-.41602-3.31787-1.26172l-32.43555-28.80273c-5.64648-5.01367-8.97949-12.21875-9.14502-19.76855-.16504-7.54883,2.84912-14.89355,8.27051-20.14941L175.7666,141.43848c12.02734-11.66211,20.00293-27.21094,22.4585-43.78125,.40479-2.73242,2.94678-4.61426,5.67871-4.21387,2.73145,.40527,4.61768,2.94727,4.21289,5.67871-2.77539,18.73438-11.79199,36.31152-25.38916,49.49609L48.29053,278.96777c-3.48145,3.375-5.33984,7.90332-5.23389,12.75098,.10645,4.84766,2.16162,9.29102,5.78711,12.51074l32.43555,28.80273c2.06494,1.83301,2.25244,4.99316,.41895,7.05859-.98779,1.1123-2.36133,1.67969-3.74072,1.67969Z"/>
    <path d="M123.78662,449.44434c-1.0498,0-2.10791-.3291-3.00977-1.01074l-36.99707-27.94922c-10.75342-8.12402-13.95654-22.65234-7.6167-34.54395l120.27783-225.62988c1.29834-2.43652,4.32764-3.35742,6.76416-2.05957,2.43701,1.29883,3.35938,4.32715,2.06006,6.76465l-120.27783,225.62891c-4.01221,7.52637-1.98486,16.71973,4.82031,21.86133l36.99658,27.94922c2.20361,1.66406,2.64062,4.7998,.97607,7.00293-.9834,1.30176-2.47949,1.98633-3.99365,1.98633Z"/>
    <path d="M413.62598,359.90039c-1.37988,0-2.75293-.56738-3.74023-1.67969-1.83398-2.06543-1.64648-5.22559,.41797-7.05859l52.85156-46.93262c3.62598-3.21973,5.68164-7.66211,5.78809-12.50977,.10645-4.84863-1.75293-9.37695-5.2334-12.75195l-134.4375-130.34961c-13.59668-13.18457-22.61328-30.76172-25.38965-49.49512-.4043-2.73242,1.48145-5.27441,4.21289-5.67969,2.74512-.39648,5.27539,1.4834,5.67969,4.21289,2.45508,16.57129,10.43164,32.12012,22.45801,43.78223l134.4375,130.34961c5.4209,5.25684,8.43555,12.60059,8.26953,20.15039-.16504,7.5498-3.49902,14.75488-9.14551,19.76855l-52.85059,46.93164c-.95215,.8457-2.1377,1.26172-3.31836,1.26172Z"/>
    <path d="M408.16699,434.37012c-1.51465,0-3.01074-.68457-3.99316-1.98633-1.66504-2.20312-1.22754-5.33887,.97559-7.00293l17.04395-12.875c6.80371-5.1416,8.83105-14.33496,4.81934-21.86035l-120.27832-225.62988c-1.29883-2.4375-.37695-5.46582,2.05957-6.76465,2.43457-1.2998,5.46484-.37793,6.76465,2.05957l120.27832,225.63086c6.33984,11.8916,3.13672,26.41895-7.61523,34.54297l-17.04492,12.875c-.90234,.68164-1.95996,1.01074-3.00977,1.01074Z"/>
    <path d="M256,501.09082c-43.27539,0-86.55029-4.60352-129.52295-13.8125-4.47363-.95801-8.33252-3.79199-10.58643-7.77344s-2.69727-8.74805-1.2168-13.07715L211.17188,184.23145c.89355-2.6123,3.74023-4.00195,6.34863-3.11328,2.61279,.89355,4.00684,3.73633,3.11328,6.34961L124.13574,469.66406c-.56445,1.65039-.40234,3.39648,.45752,4.91406,.85938,1.51953,2.27295,2.55664,3.97949,2.92285,84.5542,18.11719,170.30127,18.11914,254.85498,0,1.70703-.36621,3.12012-1.4043,3.97949-2.92285s1.02246-3.26367,.45703-4.91406l-96.49805-282.19629c-.89258-2.61328,.50098-5.45605,3.11328-6.34961,2.61621-.89062,5.45508,.50098,6.34961,3.11328l96.49805,282.19629c1.47949,4.3291,1.03613,9.0957-1.21777,13.07715s-6.1123,6.81543-10.58594,7.77344c-42.97266,9.20898-86.24805,13.8125-129.52344,13.8125Z"/>
  </g>
  <path d="M256.9541,143.51465c-22.93311,0-41.59033-22.30859-41.59033-49.72949,0-1.5498,.06396-3.14453,.19043-4.74023,.21826-2.75293,2.62988-4.80078,5.37891-4.58984,2.75293,.21777,4.80762,2.62598,4.58984,5.37891-.10547,1.33398-.15918,2.66406-.15918,3.95117,0,21.90723,14.17139,39.72949,31.59033,39.72949,12.47949,0,23.82324-9.30273,28.90039-23.7002,.91895-2.60352,3.77441-3.96777,6.37891-3.05273,2.60449,.91895,3.9707,3.77441,3.05273,6.37891-6.50781,18.45117-21.55371,30.37402-38.33203,30.37402Z"/>
</svg>