<?xml version="1.0" encoding="UTF-8"?>
<svg id="Layer_1" data-name="Layer 1" xmlns="http://www.w3.org/2000/svg" viewBox="0 0 512 512">
  <defs>
    <style>
      .cls-1 {
        fill: #e7e8f1;
      }

      .cls-2 {
        fill: #ed5920;
      }

      .cls-3 {
        fill: #ff702e;
      }

      .cls-4 {
        fill: #c7c8ce;
      }

      .cls-5 {
        fill: #5f606b;
      }

      .cls-6 {
        fill: #51545a;
      }
    </style>
  </defs>
  <g>
    <circle class="cls-5" cx="406.88846" cy="310.04112" r="89.11153"/>
    <path class="cls-6" d="M465.71704,243.11371l-122.63354,129.12598c16.18506,16.60034,38.78906,26.91309,63.80493,26.91309,49.21509-.00024,89.11157-39.89673,89.11157-89.11182,0-26.66846-11.71851-50.59644-30.28296-66.92725Z"/>
    <circle class="cls-1" cx="406.88846" cy="310.04112" r="70.60023"/>
    <path class="cls-4" d="M412.58496,378.82465c-34.84204,.00024-63.08691-28.24487-63.08691-63.08691s28.24487-63.08716,63.08691-63.08716,63.08716,28.24512,63.08716,63.08716c0,8.53223-1.70312,16.66431-4.77271,24.08765,4.21899-9.05176,6.58936-19.13892,6.58936-29.78442,0-38.99121-31.60889-70.6001-70.60034-70.6001s-70.60034,31.60889-70.60034,70.60034c.00024,38.99146,31.60889,70.6001,70.60034,70.6001,10.64526,0,20.73267-2.37036,29.78442-6.58936-7.42334,3.06958-15.55542,4.77271-24.08789,4.77271Z"/>
    <path d="M406.88867,404.15234c-51.89355,0-94.11133-42.21777-94.11133-94.11133s42.21777-94.11133,94.11133-94.11133,94.11133,42.21777,94.11133,94.11133-42.21777,94.11133-94.11133,94.11133Zm0-178.22266c-46.37891,0-84.11133,37.73242-84.11133,84.11133s37.73242,84.11133,84.11133,84.11133,84.11133-37.73242,84.11133-84.11133-37.73242-84.11133-84.11133-84.11133Z"/>
    <path d="M406.88867,385.6416c-41.68652,0-75.60059-33.91406-75.60059-75.60059,0-21.31055,9.06445-41.74023,24.87012-56.05273,2.04785-1.85449,5.21094-1.69629,7.0625,.34961,1.85352,2.04688,1.69727,5.20898-.34961,7.0625-13.7168,12.4209-21.58301,30.14941-21.58301,48.64062,0,36.17188,29.42871,65.60059,65.60059,65.60059s65.59961-29.42871,65.59961-65.60059-29.42773-65.60059-65.59961-65.60059c-9.58984,0-18.83105,2.02148-27.46777,6.00879-2.50488,1.15723-5.47754,.06543-6.63477-2.44336-1.1582-2.50684-.06445-5.47754,2.44336-6.63477,9.95898-4.59863,20.61133-6.93066,31.65918-6.93066,41.68555,0,75.59961,33.91406,75.59961,75.60059s-33.91406,75.60059-75.59961,75.60059Z"/>
  </g>
  <g>
    <circle class="cls-5" cx="105.11154" cy="310.04112" r="89.11153"/>
    <path class="cls-6" d="M163.94012,243.11371L41.30657,372.23969c16.18506,16.60034,38.78906,26.91309,63.80493,26.91309,49.21509-.00024,89.11157-39.89673,89.11157-89.11182,0-26.66846-11.71851-50.59644-30.28296-66.92725Z"/>
    <circle class="cls-1" cx="105.11154" cy="310.04112" r="70.60023"/>
    <path class="cls-4" d="M110.80804,378.82465c-34.84204,.00024-63.08691-28.24487-63.08691-63.08691s28.24487-63.08716,63.08691-63.08716,63.08716,28.24512,63.08716,63.08716c0,8.53223-1.70312,16.66431-4.77271,24.08765,4.21899-9.05176,6.58936-19.13892,6.58936-29.78442,0-38.99121-31.60889-70.6001-70.60034-70.6001s-70.60034,31.60889-70.60034,70.60034c.00024,38.99146,31.60889,70.6001,70.60034,70.6001,10.64526,0,20.73267-2.37036,29.78442-6.58936-7.42334,3.06958-15.55542,4.77271-24.08789,4.77271Z"/>
    <path d="M105.11133,404.15234c-51.89355,0-94.11133-42.21777-94.11133-94.11133s42.21777-94.11133,94.11133-94.11133,94.11133,42.21777,94.11133,94.11133-42.21777,94.11133-94.11133,94.11133Zm0-178.22266c-46.37891,0-84.11133,37.73242-84.11133,84.11133s37.73242,84.11133,84.11133,84.11133,84.11133-37.73242,84.11133-84.11133-37.73242-84.11133-84.11133-84.11133Z"/>
    <path d="M105.11133,385.6416c-41.68555,0-75.59961-33.91406-75.59961-75.60059s33.91406-75.60059,75.59961-75.60059,75.60059,33.91406,75.60059,75.60059c0,2.76172-2.23828,5-5,5s-5-2.23828-5-5c0-36.17188-29.42871-65.60059-65.60059-65.60059s-65.59961,29.42871-65.59961,65.60059,29.42773,65.60059,65.59961,65.60059c16.0127,0,31.43262-5.83301,43.41992-16.4248,2.06934-1.82715,5.22949-1.63184,7.05762,.43652,1.82812,2.06934,1.63281,5.22852-.43652,7.05762-13.81543,12.20801-31.58691,18.93066-50.04102,18.93066Z"/>
  </g>
  <circle class="cls-3" cx="406.88846" cy="310.04112" r="21.12206"/>
  <path class="cls-2" d="M406.88843,288.91889c-.13647,0-.26831,.01807-.40405,.02051,2.7124,1.21655,5.01611,3.18018,6.64966,5.62817,3.51685,2.83276,5.77222,7.1687,5.77222,12.03638,0,8.5354-6.91943,15.45459-15.45508,15.45459-4.86743,0-9.20361-2.25513-12.03638-5.77197-2.448-1.63354-4.41138-3.93701-5.62793-6.64941-.00269,.13574-.02051,.26758-.02051,.40405,0,11.66528,9.45679,21.12183,21.12207,21.12183s21.12207-9.45654,21.12207-21.12207-9.45679-21.12207-21.12207-21.12207Z"/>
  <path d="M251.17285,346.3291c-12.68262,0-23-10.31738-23-23s10.31738-23,23-23,23,10.31738,23,23-10.31738,23-23,23Zm0-36c-7.16797,0-13,5.83203-13,13s5.83203,13,13,13,13-5.83203,13-13-5.83203-13-13-13Z"/>
  <path d="M233.17676,281.63965c-1.8623,0-3.64941-1.04395-4.50977-2.83496-1.19727-2.48828-.14941-5.47559,2.33984-6.67188,27.79785-13.36426,48.10547-27.23047,63.91016-43.6377,19.04102-19.76855,31.3584-43.2373,37.65625-71.74707,.59473-2.69629,3.26367-4.39844,5.95996-3.80469,2.69629,.5957,4.39941,3.26465,3.80371,5.96094-6.70605,30.36133-19.86133,55.39453-40.21777,76.52832-16.65625,17.29102-37.875,31.81738-66.78027,45.71191-.69824,.33594-1.43652,.49512-2.16211,.49512Z"/>
  <path d="M251.17383,328.3291c-.15137,0-.30176-.00684-.4541-.02051l-146.06152-13.28809c-1.80859-.16504-3.38672-1.29688-4.12012-2.95898-.73438-1.66113-.50977-3.59082,.58691-5.03906l93.38672-123.3457c1.66797-2.19922,4.80273-2.63379,7.00488-.96777,2.20117,1.66699,2.63477,4.80273,.96777,7.00488l-87.94922,116.16406,134.33789,12.22168,99.54004-130.56543c1.67383-2.19727,4.81055-2.62109,7.00781-.94531,2.19629,1.6748,2.61914,4.81152,.94531,7.00781l-101.2168,132.76367c-.95117,1.24707-2.4248,1.96875-3.97559,1.96875Z"/>
  <path d="M251.17383,328.33008c-2.00781,0-3.90137-1.2168-4.66602-3.20215l-62.79688-162.8916c-.99316-2.57715,.29004-5.4707,2.86621-6.46387,2.58008-.99609,5.47168,.29004,6.46387,2.86621l62.79688,162.8916c.99316,2.57715-.29004,5.4707-2.86621,6.46387-.5918,.22852-1.2002,.33594-1.79785,.33594Z"/>
  <path class="cls-3" d="M216.6378,142.84723l-50.29658,.00002c-6.16734,0-11.16169,5.00956-11.14295,11.17687l.03303,10.8664c.02207,7.26212,5.91539,13.13756,13.17755,13.13755h2.7588c4.21176,0,8.16979-2.01326,10.65013-5.4172h0c3.23039-4.4333,8.13356-7.35233,13.57059-8.07908l22.49221-3.00643c4.65888-.62273,8.13762-4.5974,8.13762-9.29771v-.00002c0-5.18065-4.19975-9.3804-9.3804-9.3804Z"/>
  <path class="cls-3" d="M245.36053,354.44105l-142.87324-26.06232c-8.7049-1.58791-15.03026-9.17149-15.03026-18.02004v-.00003c0-10.11642,8.20098-18.3174,18.3174-18.3174H251.0053c17.37222,0,31.45518,14.08296,31.45518,31.45518v.00007c0,19.63241-17.78625,34.46767-37.09995,30.94454Z"/>
  <circle class="cls-5" cx="251.17295" cy="323.50096" r="14.83949"/>
  <path class="cls-2" d="M268.72803,294.60327c3.44897,5.04712,5.46875,11.14844,5.46875,17.7229h0c0,19.63257-17.78613,34.46777-37.09985,30.94458l-142.87329-26.06226c-1.71948-.31372-3.34131-.86938-4.84473-1.6145,2.50537,5.03833,7.26514,8.81226,13.1084,9.87817l142.87329,26.06226c19.31372,3.52319,37.09985-11.31226,37.09985-30.94458h0c0-10.79785-5.44287-20.32227-13.73242-25.98657Z"/>
  <circle cx="105.75831" cy="310.34254" r="5"/>
  <path d="M251.03906,359.95605c-2.18555,0-4.38477-.19629-6.57617-.5957l-118.6748-21.64844c-2.7168-.49609-4.5166-3.09961-4.02148-5.81641,.49609-2.7168,3.10059-4.5166,5.81641-4.02148l118.6748,21.64844c7.74023,1.41406,15.64844-.66895,21.69336-5.71094,6.04395-5.04102,9.50977-12.44531,9.50977-20.31543,0-14.58691-11.86816-26.45508-26.45605-26.45508H105.77441c-7.34277,0-13.31738,5.97461-13.31738,13.31738,0,6.43652,4.5957,11.94629,10.92773,13.10156,2.7168,.49609,4.5166,3.09961,4.02148,5.81641-.49609,2.7168-3.09863,4.51855-5.81641,4.02148-11.08594-2.02246-19.13281-11.66992-19.13281-22.93945,0-12.85742,10.45996-23.31738,23.31738-23.31738H251.00488c20.10156,0,36.45605,16.35352,36.45605,36.45508,0,10.84473-4.77637,21.04883-13.10449,27.99512-6.61816,5.51953-14.8584,8.46484-23.31738,8.46484Z"/>
  <path class="cls-6" d="M242.72606,327.61338c0-6.93627,5.62298-12.55925,12.55925-12.55925,4.55066,0,8.5241,2.42855,10.7271,6.05199-1.1953-7.06135-7.32442-12.4446-14.72618-12.4446-8.25811,0-14.95278,6.69467-14.95278,14.95278,0,7.40155,5.38325,13.53088,12.4446,14.72618-3.62344-2.20321-6.05199-6.17644-6.05199-10.7271Z"/>
  <path d="M251.17285,343.34082c-10.93945,0-19.83984-8.90039-19.83984-19.83984,0-2.76172,2.23828-5,5-5s5,2.23828,5,5c0,5.42578,4.41406,9.83984,9.83984,9.83984s9.83984-4.41406,9.83984-9.83984-4.41406-9.83984-9.83984-9.83984c-2.76172,0-5-2.23828-5-5s2.23828-5,5-5c10.93945,0,19.83984,8.90039,19.83984,19.83984s-8.90039,19.83984-19.83984,19.83984Z"/>
  <path d="M406.88867,336.16309c-14.40332,0-26.12207-11.71875-26.12207-26.12207,0-10.2002,5.99609-19.53027,15.27539-23.76953,2.5127-1.14648,5.47852-.04199,6.62598,2.46973s.04199,5.47852-2.46973,6.62598c-5.72949,2.61719-9.43164,8.37695-9.43164,14.67383,0,8.88965,7.23242,16.12207,16.12207,16.12207s16.12207-7.23242,16.12207-16.12207c0-2.26758-.46094-4.45898-1.36914-6.5127-1.11621-2.52539,.02539-5.47852,2.55078-6.5957,2.5293-1.11621,5.47852,.02539,6.5957,2.55078,1.47461,3.33594,2.22266,6.8877,2.22266,10.55762,0,14.40332-11.71875,26.12207-26.12207,26.12207Z"/>
  <path d="M398.12305,295.82031c-1.89844,0-3.71289-1.08594-4.55176-2.92578l-82.13281-180.05762c-.92871-2.03516-.39258-4.43848,1.3125-5.88672l20.20898-17.15918c.9043-.76758,2.05078-1.18848,3.23633-1.18848h13.77441c2.76172,0,5,2.23828,5,5s-2.23828,5-5,5h-11.93848l-15.92676,13.52344,80.56348,176.61816c1.14648,2.5127,.03906,5.47852-2.47363,6.62402-.67285,.30664-1.37793,.45215-2.07227,.45215Z"/>
  <path class="cls-2" d="M181.87793,170.29584c-10.75879,0-19.4895-8.70435-19.52222-19.46289l-.02197-7.23047c-4.18213,1.61475-7.1499,5.66895-7.1355,10.42163l.0332,10.86646c.02197,7.26221,5.91528,13.13745,13.17749,13.13745h2.75879c4.21167,0,8.16968-2.01318,10.65015-5.41724,.60693-.83301,1.29004-1.59326,2.00781-2.31494h-1.94775Z"/>
  <path d="M171.16797,183.02832h-2.75879c-9.99414,0-18.14844-8.12988-18.17773-18.12305l-.0332-10.86523c-.0127-4.32227,1.66016-8.38672,4.71094-11.44727,3.05078-3.05957,7.11035-4.74512,11.43164-4.74512h50.29688c7.92969,0,14.38086,6.45117,14.38086,14.37988,0,7.1748-5.36328,13.30273-12.47461,14.25391l-22.49316,3.00684c-4.06348,.54297-7.77832,2.75488-10.19238,6.06738-3.40918,4.67871-8.90039,7.47266-14.69043,7.47266Zm-4.82715-35.18066c-1.64453,0-3.18945,.6416-4.34961,1.80566-1.16113,1.16406-1.79785,2.71094-1.79297,4.35645l.0332,10.86523c.01367,4.49609,3.68164,8.15332,8.17773,8.15332h2.75879c2.60449,0,5.0752-1.25684,6.6084-3.36133,4.01465-5.50977,10.19238-9.1875,16.9502-10.09082l22.49219-3.00684c2.16602-.29004,3.7998-2.15625,3.7998-4.3418,0-2.41504-1.96484-4.37988-4.38086-4.37988h-50.29688Z"/>
  <path d="M176.49902,220.74609c-.95605,0-1.92188-.27441-2.77539-.8457l-29.22656-19.55762H28.13379v9.21582c0,2.76172-2.23828,5-5,5s-5-2.23828-5-5v-14.21582c0-2.76172,2.23828-5,5-5h122.88184c.99023,0,1.95801,.29395,2.78027,.84473l30.48828,20.40234c2.2959,1.53516,2.91113,4.64062,1.375,6.93555-.96387,1.44141-2.54688,2.2207-4.16016,2.2207Z"/>
  <path d="M98.71582,298.45508c-1.71777,0-3.39062-.88574-4.32031-2.47559l-57.4043-98.11133c-1.39453-2.38379-.59277-5.44629,1.79004-6.84082,2.38477-1.39648,5.44727-.59375,6.84082,1.79004l57.4043,98.11133c1.39453,2.38379,.59277,5.44629-1.79004,6.84082-.79395,.46484-1.66309,.68555-2.52051,.68555Z"/>
  <path d="M381.9248,210.09961c-1.91309,0-3.71289-1.10449-4.54395-2.91699l-26.40625-57.59082c-1.15137-2.50977-.04883-5.47852,2.46094-6.62891,2.50781-1.15039,5.47852-.0498,6.62891,2.46094l24.62402,53.70508,41.96973-11.79492c2.6543-.74707,5.41797,.80176,6.16602,3.46094,.74707,2.6582-.80273,5.41895-3.46094,6.16602l-46.08496,12.95117c-.4502,.12695-.90527,.1875-1.35352,.1875Z"/>
  <path d="M406.88867,315.04102h-49.83496c-2.76172,0-5-2.23828-5-5s2.23828-5,5-5h45.35645l12.16211-110.2793c.30273-2.74414,2.75977-4.7168,5.51758-4.42188,2.74512,.30273,4.72461,2.77344,4.42188,5.51758l-12.65332,114.73145c-.2793,2.53418-2.4209,4.45215-4.96973,4.45215Z"/>
</svg>