<?xml version="1.0" encoding="UTF-8"?>
<svg id="Layer_1" data-name="Layer 1" xmlns="http://www.w3.org/2000/svg" viewBox="0 0 512 512">
  <defs>
    <style>
      .cls-1 {
        fill: #ed5920;
      }

      .cls-2 {
        fill: #ff702e;
      }
    </style>
  </defs>
  <circle cx="313.22666" cy="481.10042" r="5"/>
  <g>
    <rect class="cls-2" x="134.76658" y="60.79832" width="29.86425" height="82.88886"/>
    <path class="cls-1" d="M134.76658,60.79832v25.88235h3.05777c8.20175,0,14.85058,6.64883,14.85058,14.85058v42.15593h11.95591V60.79832h-29.86425Z"/>
    <rect class="cls-2" x="211.0891" y="350.88064" width="91.87876" height="29.86425"/>
    <rect class="cls-1" x="211.0891" y="368.07884" width="91.87876" height="12.66606"/>
    <path class="cls-2" d="M323.15134,492.24214c-6.1716,5.47015-15.60909,4.90157-21.07932-1.26997L59.12652,216.87987c-8.59812-9.70102-13.33295-22.18189-13.33295-35.14348,0-29.21389,23.76745-52.98134,52.98134-52.98134H441.80455v-30.22103c0-12.59407-10.20951-22.80357-22.80357-22.80357H149.70047c-34.22967,0-67.77376-9.59639-96.82435-27.69978l-8.7919-5.47883c-3.73287-2.3262-4.87314-7.23807-2.54686-10.97089l7.37125-11.82812c2.32623-3.73274,7.23799-4.87296,10.97075-2.54675l8.79167,5.47885c24.31094,15.15026,52.38246,23.18125,81.02774,23.18125H419.00098c29.08764,0,52.66783,23.58019,52.66783,52.66783v60.08528H99.28749c-11.31329-.00001-21.32162,7.93372-23.27695,19.07676-1.23689,7.04879,.82513,14.13982,5.46507,19.37493l242.94572,274.09154c5.47034,6.17164,4.90175,15.60934-1.26996,21.07959l-.00002,.00002Z"/>
    <path class="cls-2" d="M441.80455,158.6193h29.86425v14.93214c0,8.24126-6.69085,14.93211-14.93211,14.93211h-.00003c-8.24126,0-14.93211-6.69085-14.93211-14.93211v-14.93214h0Z"/>
    <circle cx="456.73668" cy="173.55143" r="5"/>
    <path class="cls-1" d="M122.93259,146.73279c-10.50787,0-20.2565,4.61176-26.79389,12.11539,1.53816-.20284,3.09327-.33976,4.67417-.33976H441.80455v-11.77563H122.93259Z"/>
    <path class="cls-1" d="M316.97304,483.03951L74.02753,208.94718c-8.59812-9.70102-13.33295-22.18189-13.33295-35.14348,0-17.21095,8.25399-32.52556,21.00632-42.20957-20.85929,7.1229-35.90734,26.90189-35.90734,50.14226,0,12.96159,4.73483,25.44246,13.33295,35.14348l242.94551,274.09232c5.47025,6.17153,14.9077,6.74012,21.07923,1.26992h.00012c1.40851-1.24835,2.50995-2.70961,3.32959-4.28527-3.54237-.39712-6.95727-2.03974-9.50793-4.91735Z"/>
    <path class="cls-1" d="M149.70041,75.73045H419.00098c9.58874,0,17.7895,5.92108,21.16017,14.30412v-3.59815c0-12.594-10.20957-22.80357-22.80357-22.80357H148.057c-34.22966,0-67.77373-9.59627-96.82429-27.69978l-8.79195-5.47876c-.04897-.0305-.09235-.06635-.14035-.0977l-.76313,1.22441c-2.32622,3.73279-1.18602,8.64454,2.54702,10.97088l8.79182,5.47876c29.05057,18.10338,62.59463,27.69978,96.82429,27.69978Z"/>
    <polygon class="cls-2" points="268.69323 408.29004 290.62722 433.03596 407.17109 158.77144 374.79348 158.60278 268.69323 408.29004"/>
    <path class="cls-1" d="M374.79348,158.60278l-4.68816,11.03255,2.56991,1.63073c7.50722,4.7637,10.46354,14.26099,6.98635,22.44392l-97.59383,229.66919,8.55948,9.65679,116.54386-274.26452-32.37761-.16867Z"/>
    <path d="M164.63086,113.10791c-2.76123,0-5-2.23877-5-5v-32.37744c0-2.76123,2.23877-5,5-5s5,2.23877,5,5v32.37744c0,2.76123-2.23877,5-5,5Z"/>
    <path d="M134.7666,133.75488c-2.76123,0-5-2.23877-5-5v-53.63867c0-2.76123,2.23877-5,5-5s5,2.23877,5,5v53.63867c0,2.76123-2.23877,5-5,5Z"/>
    <path d="M264.93555,355.88086h-47.12793c-2.76123,0-5-2.23877-5-5s2.23877-5,5-5h47.12793c2.76172,0,5,2.23877,5,5s-2.23828,5-5,5Z"/>
    <path d="M280.39844,385.74512h-36.12012c-2.76123,0-5-2.23877-5-5s2.23877-5,5-5h36.12012c2.76172,0,5,2.23877,5,5s-2.23828,5-5,5Z"/>
    <path d="M313.27344,501.00049c-.40723,0-.81543-.01221-1.22559-.03662-5.31445-.32031-10.18652-2.69092-13.71777-6.67529L55.38477,220.19629c-9.40918-10.61621-14.59131-24.2749-14.59131-38.45996,0-31.97119,26.01025-57.98145,57.98145-57.98145H441.80469c2.76172,0,5,2.23877,5,5s-2.23828,5-5,5H98.7749c-26.45703,0-47.98145,21.52441-47.98145,47.98145,0,11.73877,4.28809,23.0415,12.07471,31.82715l242.94629,274.09229c1.75879,1.98535,4.18652,3.1665,6.83496,3.32617,2.65527,.16309,5.20117-.72217,7.18555-2.48145,4.09863-3.63281,4.47754-9.92285,.84473-14.02148l-106.61377-120.28174c-1.83154-2.06641-1.64111-5.22656,.42529-7.05811s5.22607-1.6416,7.05811,.42529l106.61475,120.28174c7.29004,8.2251,6.5293,20.84766-1.69629,28.1377-3.67676,3.25928-8.32227,5.0166-13.19434,5.0166Z"/>
    <path d="M200.52393,336.37891c-1.38086,0-2.75537-.56885-3.74365-1.68359L77.73389,200.38721c-5.71924-6.45264-8.14209-15.03809-6.64795-23.55518,2.35986-13.4502,14.2207-23.21289,28.20166-23.21289H441.80469c2.76172,0,5,2.23877,5,5v14.93213c0,5.47656,4.45508,9.93213,9.93164,9.93213s9.93262-4.45557,9.93262-9.93213V98.53369c0-26.28418-21.38379-47.66748-47.66797-47.66748H149.69873c-29.60889,0-58.54248-8.27734-83.67236-23.9375l-8.7915-5.47949c-1.3877-.86377-3.21924-.43896-4.08252,.94824l-7.37109,11.82812c-.41895,.67188-.55127,1.46631-.37207,2.2373,.1792,.77148,.64746,1.42676,1.31982,1.84521l8.7915,5.47949c28.28564,17.62598,60.85254,26.94287,94.18018,26.94287H419.00098c15.33105,0,27.80371,12.47266,27.80371,27.80322,0,2.76123-2.23828,5-5,5s-5-2.23877-5-5c0-9.81689-7.98633-17.80322-17.80371-17.80322H149.70068c-35.19873,0-69.59473-9.83984-99.46924-28.45605l-8.7915-5.47949c-2.93896-1.83105-4.98877-4.69727-5.77197-8.07031-.7832-3.37354-.20557-6.84961,1.62646-9.78857l7.37061-11.82764c3.78027-6.06641,11.78955-7.92773,17.85889-4.146l8.7915,5.47949c23.5415,14.66992,50.646,22.42432,78.3833,22.42432H419.00098c31.79785,0,57.66797,25.86963,57.66797,57.66748v75.01758c0,10.99072-8.94141,19.93213-19.93262,19.93213-10.99023,0-19.93164-8.94141-19.93164-19.93213v-9.93213H99.2876c-9.11475,0-16.83301,6.28369-18.35205,14.94141-.96484,5.49707,.59619,11.03516,4.28174,15.19385l119.04639,134.30813c1.83154,2.06639,1.64111,5.22654-.42529,7.05808-.95166,.84375-2.13525,1.2583-3.31445,1.2583Z"/>
    <path d="M290.62695,438.03613c-1.41797,0-2.78418-.60352-3.74219-1.68359l-21.93359-24.74609c-1.2793-1.44385-1.61426-3.49561-.85938-5.27197l96.67285-227.50244c1.08008-2.5415,4.01758-3.72607,6.55664-2.646,2.54199,1.07959,3.72656,4.01562,2.64648,6.55713l-95.4375,224.59473,14.58984,16.45996,113.44922-266.98193c1.08008-2.5415,4.01855-3.72705,6.55664-2.646,2.54199,1.07959,3.72656,4.01562,2.64648,6.55713l-116.54395,274.26465c-.6709,1.57861-2.10352,2.70312-3.79688,2.979-.26855,.04395-.53809,.06543-.80469,.06543Z"/>
  </g>
</svg>