<?xml version="1.0" encoding="UTF-8"?>
<svg id="Layer_1" data-name="Layer 1" xmlns="http://www.w3.org/2000/svg" viewBox="0 0 512 512">
  <defs>
    <style>
      .cls-1 {
        fill: #e7e8f1;
      }

      .cls-2 {
        fill: #ed5920;
      }

      .cls-3 {
        fill: #ff702e;
      }

      .cls-4 {
        fill: #c7c8ce;
      }

      .cls-5 {
        fill: #5f606b;
      }

      .cls-6 {
        fill: #51545a;
      }
    </style>
  </defs>
  <g>
    <circle class="cls-5" cx="406.88846" cy="310.04112" r="89.11153"/>
    <path class="cls-6" d="M465.71704,243.11371l-122.63354,129.12598c16.18506,16.60034,38.78906,26.91309,63.80493,26.91309,49.21509-.00024,89.11157-39.89673,89.11157-89.11182,0-26.66846-11.71851-50.59644-30.28296-66.92725Z"/>
    <circle class="cls-1" cx="406.88846" cy="310.04112" r="70.60023"/>
    <path class="cls-4" d="M412.58496,378.82465c-34.84204,.00024-63.08691-28.24487-63.08691-63.08691s28.24487-63.08716,63.08691-63.08716,63.08716,28.24512,63.08716,63.08716c0,8.53223-1.70312,16.66431-4.77271,24.08765,4.21899-9.05176,6.58936-19.13892,6.58936-29.78442,0-38.99121-31.60889-70.6001-70.60034-70.6001s-70.60034,31.60889-70.60034,70.60034c.00024,38.99146,31.60889,70.6001,70.60034,70.6001,10.64526,0,20.73267-2.37036,29.78442-6.58936-7.42334,3.06958-15.55542,4.77271-24.08789,4.77271Z"/>
    <path d="M406.88867,404.15234c-51.89355,0-94.11182-42.21777-94.11182-94.11133s42.21826-94.11133,94.11133-94.11133,94.11182,42.21777,94.11182,94.11133-42.21826,94.11133-94.11133,94.11133Zm-.00049-178.22266c-46.37939,0-84.11133,37.73242-84.11133,84.11133s37.73242,84.11133,84.11182,84.11133,84.11133-37.73242,84.11133-84.11133-37.73242-84.11133-84.11182-84.11133Z"/>
    <path d="M406.88867,385.6416c-41.68652,0-75.60059-33.91406-75.60059-75.60059,0-21.0625,8.88867-41.33105,24.38623-55.61035,2.03076-1.87305,5.19434-1.74316,7.06543,.28906,1.87109,2.03027,1.7417,5.19336-.28906,7.06445-13.44922,12.3916-21.1626,29.98047-21.1626,48.25684,0,36.17188,29.42822,65.60059,65.60059,65.60059s65.6001-29.42871,65.6001-65.60059-29.42822-65.60059-65.6001-65.60059c-9.41943,0-18.51025,1.95312-27.02002,5.80469-2.51562,1.13379-5.47803,.02148-6.6167-2.49414s-.02246-5.47852,2.49365-6.61621c9.81396-4.44238,20.29199-6.69434,31.14307-6.69434,41.68604,0,75.6001,33.91406,75.6001,75.60059s-33.91406,75.60059-75.6001,75.60059Z"/>
  </g>
  <g>
    <circle class="cls-5" cx="105.11154" cy="310.04112" r="89.11153"/>
    <path class="cls-6" d="M163.94012,243.11371L41.30657,372.23969c16.18506,16.60034,38.78906,26.91309,63.80493,26.91309,49.21509-.00024,89.11157-39.89673,89.11157-89.11182,0-26.66846-11.71851-50.59644-30.28296-66.92725Z"/>
    <circle class="cls-1" cx="105.11154" cy="310.04112" r="70.60023"/>
    <path class="cls-4" d="M110.80804,378.82465c-34.84204,.00024-63.08691-28.24487-63.08691-63.08691s28.24487-63.08716,63.08691-63.08716,63.08716,28.24512,63.08716,63.08716c0,8.53223-1.70312,16.66431-4.77271,24.08765,4.21899-9.05176,6.58936-19.13892,6.58936-29.78442,0-38.99121-31.60889-70.6001-70.60034-70.6001s-70.60034,31.60889-70.60034,70.60034c.00024,38.99146,31.60889,70.6001,70.60034,70.6001,10.64526,0,20.73267-2.37036,29.78442-6.58936-7.42334,3.06958-15.55542,4.77271-24.08789,4.77271Z"/>
    <path d="M105.11133,404.15234c-51.89307,0-94.11133-42.21777-94.11133-94.11133s42.21826-94.11133,94.11133-94.11133,94.11182,42.21777,94.11182,94.11133-42.21826,94.11133-94.11182,94.11133Zm0-178.22266c-46.37891,0-84.11133,37.73242-84.11133,84.11133s37.73242,84.11133,84.11133,84.11133,84.11182-37.73242,84.11182-84.11133-37.73242-84.11133-84.11182-84.11133Z"/>
    <path d="M105.11133,385.6416c-41.68604,0-75.6001-33.91406-75.6001-75.60059s33.91406-75.60059,75.6001-75.60059,75.60059,33.91406,75.60059,75.60059c0,2.76172-2.23877,5-5,5s-5-2.23828-5-5c0-36.17188-29.42822-65.60059-65.60059-65.60059s-65.6001,29.42871-65.6001,65.60059,29.42822,65.60059,65.6001,65.60059c16.3208,0,31.9624-6.03125,44.04346-16.98242,2.04541-1.85449,5.2085-1.69922,7.0625,.3457,1.85449,2.0459,1.69922,5.20801-.34668,7.0625-13.92383,12.62305-31.95068,19.57422-50.75928,19.57422Z"/>
  </g>
  <circle class="cls-3" cx="406.88846" cy="310.04112" r="21.12206"/>
  <path class="cls-2" d="M406.88843,288.91889c-.13647,0-.26831,.01807-.40405,.02051,2.7124,1.21655,5.01611,3.18018,6.64966,5.62817,3.51685,2.83276,5.77222,7.1687,5.77222,12.03638,0,8.5354-6.91943,15.45459-15.45508,15.45459-4.86743,0-9.20361-2.25513-12.03638-5.77197-2.448-1.63354-4.41138-3.93701-5.62793-6.64941-.00269,.13574-.02051,.26758-.02051,.40405,0,11.66528,9.45679,21.12183,21.12207,21.12183s21.12207-9.45654,21.12207-21.12207-9.45679-21.12207-21.12207-21.12207Z"/>
  <path d="M251.17285,346.3291c-12.68213,0-23-10.31738-23-23s10.31787-23,23-23,23,10.31738,23,23-10.31787,23-23,23Zm0-36c-7.16846,0-13,5.83203-13,13s5.83154,13,13,13,13-5.83203,13-13-5.83154-13-13-13Z"/>
  <path d="M341.85254,172.46582H191.08496c-2.76123,0-5-2.23828-5-5s2.23877-5,5-5h150.76758c2.76123,0,5,2.23828,5,5s-2.23877,5-5,5Z"/>
  <path d="M251.17334,328.3291c-.15039,0-.30176-.00684-.45361-.02051l-146.06152-13.28809c-1.71533-.15625-3.22949-1.18457-4.00781-2.7207-.77783-1.53711-.71045-3.36523,.1792-4.84082l85.97363-142.5752c1.42627-2.36328,4.49805-3.12402,6.86377-1.7002,2.36475,1.42676,3.12549,4.49902,1.69971,6.86426l-81.8501,135.7373,135.35596,12.31445,99.54102-130.56543c1.67383-2.19629,4.81055-2.62012,7.00732-.94531,2.19629,1.6748,2.61914,4.81152,.94482,7.00781l-101.2168,132.76367c-.9502,1.24707-2.4248,1.96875-3.97559,1.96875Z"/>
  <path d="M251.17383,328.33008c-2.00732,0-3.90088-1.2168-4.6665-3.20215l-72.78467-188.79688c-.99316-2.57715,.29053-5.4707,2.86719-6.46387,2.5752-.99512,5.47021,.28906,6.46387,2.86621l72.78467,188.79688c.99316,2.57715-.29053,5.4707-2.86719,6.46387-.59131,.22852-1.19922,.33594-1.79736,.33594Z"/>
  <path class="cls-3" d="M199.6378,112.84723l-50.29658,.00002c-6.16734,0-11.16169,5.00956-11.14295,11.17687l.03303,10.8664c.02207,7.26212,5.91539,13.13756,13.17755,13.13755h2.7588c4.21176,0,8.16979-2.01326,10.65013-5.4172h0c3.23039-4.4333,8.13356-7.35233,13.57059-8.07908l22.49221-3.00643c4.65888-.62273,8.13762-4.5974,8.13762-9.29771v-.00002c0-5.18065-4.19975-9.3804-9.3804-9.3804Z"/>
  <path class="cls-3" d="M245.36053,354.44105l-142.87324-26.06232c-8.7049-1.58791-15.03026-9.17149-15.03026-18.02004v-.00003c0-10.11642,8.20098-18.3174,18.3174-18.3174H251.0053c17.37222,0,31.45518,14.08296,31.45518,31.45518v.00007c0,19.63241-17.78625,34.46767-37.09995,30.94454Z"/>
  <circle class="cls-5" cx="251.17295" cy="323.50096" r="14.83949"/>
  <path class="cls-2" d="M268.72803,294.60327c3.44897,5.04712,5.46875,11.14844,5.46875,17.7229h0c0,19.63257-17.78613,34.46777-37.09985,30.94458l-142.87329-26.06226c-1.71948-.31372-3.34131-.86938-4.84473-1.6145,2.50537,5.03833,7.26514,8.81226,13.1084,9.87817l142.87329,26.06226c19.31372,3.52319,37.09985-11.31226,37.09985-30.94458h0c0-10.79785-5.44287-20.32227-13.73242-25.98657Z"/>
  <circle cx="105.75831" cy="310.34254" r="5"/>
  <path d="M251.03955,359.95605c-2.18604,0-4.38477-.19629-6.57617-.5957l-113.47803-20.7002c-2.71631-.49609-4.51709-3.09961-4.02148-5.81641s3.09619-4.52051,5.81641-4.02148l113.47754,20.7002c7.74268,1.41309,15.64941-.66895,21.69287-5.70996s9.50977-12.44629,9.50977-20.31641c0-14.58691-11.86768-26.45508-26.45508-26.45508H105.77441c-7.34326,0-13.31738,5.97461-13.31738,13.31738,0,6.43652,4.5957,11.94629,10.92773,13.10156,2.71631,.49609,4.51709,3.09961,4.02148,5.81641-.49609,2.71582-3.09766,4.52051-5.81641,4.02148-11.08643-2.02246-19.13281-11.66992-19.13281-22.93945,0-12.85742,10.45996-23.31738,23.31738-23.31738H251.00537c20.10156,0,36.45508,16.35352,36.45508,36.45508,0,10.84473-4.77637,21.04883-13.10449,27.99512-6.61768,5.52051-14.8584,8.46484-23.31641,8.46484Z"/>
  <path class="cls-6" d="M244.42522,328.39611c0-6.43015,5.21268-11.64283,11.64283-11.64283,4.21861,0,7.90212,2.25134,9.94437,5.61039-1.10809-6.54609-6.78997-11.53654-13.65164-11.53654-7.65553,0-13.8617,6.20617-13.8617,13.8617,0,6.86148,4.99045,12.54356,11.53654,13.65164-3.35904-2.04244-5.61039-5.72576-5.61039-9.94437Z"/>
  <path d="M251.17285,343.34082c-10.93945,0-19.83936-8.90039-19.83936-19.83984,0-2.76172,2.23877-5,5-5s5,2.23828,5,5c0,5.42578,4.41406,9.83984,9.83936,9.83984s9.83936-4.41406,9.83936-9.83984-4.41406-9.83984-9.83936-9.83984c-2.76123,0-5-2.23828-5-5s2.23877-5,5-5c10.93945,0,19.83936,8.90039,19.83936,19.83984s-8.8999,19.83984-19.83936,19.83984Z"/>
  <path d="M406.88867,336.16309c-14.40381,0-26.12207-11.71875-26.12207-26.12207,0-10.2002,5.99609-19.53027,15.27637-23.76953,2.51074-1.14746,5.47803-.04199,6.62549,2.46973s.0415,5.47852-2.47021,6.62598c-5.72949,2.61719-9.43164,8.37695-9.43164,14.67383,0,8.88965,7.23242,16.12207,16.12207,16.12207s16.12207-7.23242,16.12207-16.12207c0-5.64355-2.87402-10.78125-7.68848-13.74316-2.35205-1.44727-3.08545-4.52734-1.63818-6.87891,1.44678-2.35156,4.52588-3.08301,6.87842-1.63867,7.79492,4.79688,12.44824,13.11816,12.44824,22.26074,0,14.40332-11.71826,26.12207-26.12207,26.12207Z"/>
  <path d="M406.8916,315.04199c-1.89795,0-3.71289-1.08594-4.55225-2.92578l-77.93555-170.85449c-.83252-1.82617-.49316-3.97266,.8623-5.45215l23.43652-25.58398c.94727-1.03418,2.28516-1.62305,3.68701-1.62305h13.7749c2.76123,0,5,2.23828,5,5s-2.23877,5-5,5h-11.57422l-19.71436,21.52051,76.56201,167.84277c1.146,2.5127,.03809,5.47852-2.47412,6.62402-.67285,.30664-1.37793,.45215-2.07227,.45215Z"/>
  <path class="cls-2" d="M164.87793,140.29584c-10.75879,0-19.4895-8.70435-19.52222-19.46289l-.02197-7.23047c-4.18213,1.61475-7.1499,5.66895-7.1355,10.42163l.0332,10.86646c.02197,7.26221,5.91528,13.13745,13.17749,13.13745h2.75879c4.21167,0,8.16968-2.01318,10.65015-5.41724,.60693-.83301,1.29004-1.59326,2.00781-2.31494h-1.94775Z"/>
  <path d="M154.16748,153.02832h-2.75879c-9.99268,0-18.14697-8.12988-18.17725-18.12305l-.0332-10.86523c-.01318-4.32227,1.66016-8.38672,4.71094-11.44727,3.05078-3.05957,7.11084-4.74512,11.43213-4.74512h50.29639c7.9292,0,14.38037,6.45117,14.38037,14.37988,0,7.1748-5.36328,13.30273-12.4751,14.25391l-22.49219,3.00684c-4.06299,.54297-7.77783,2.75391-10.19189,6.06738-3.41016,4.67969-8.90234,7.47266-14.69141,7.47266Zm-4.82617-35.18066c-1.64453,0-3.18945,.6416-4.35059,1.80566-1.16064,1.16406-1.79736,2.71094-1.79248,4.35645l.0332,10.86523c.01367,4.49609,3.68213,8.15332,8.17725,8.15332h2.75879c2.60449,0,5.0752-1.25684,6.60986-3.3623,4.01416-5.50879,10.19189-9.18652,16.94873-10.08984l22.4917-3.00684c2.1665-.29004,3.80029-2.15625,3.80029-4.3418,0-2.41504-1.96484-4.37988-4.38037-4.37988h-50.29639Z"/>
  <path d="M89.38232,307.19141c-1.48682,0-2.95752-.65918-3.94385-1.92188l-28.64551-36.66992c-10.8208-13.85254-16.78027-31.16211-16.78027-48.73926v-21.51758c0-2.76172,2.23877-5,5-5s5,2.23828,5,5v21.51758c0,15.35742,5.20654,30.48047,14.66113,42.58301l28.64551,36.66992c1.69971,2.17578,1.31396,5.31836-.8623,7.01855-.91406,.71387-1.99854,1.05957-3.07471,1.05957Z"/>
  <path d="M149.39795,203.34277H33.9082c-2.76123,0-5-2.23828-5-5s2.23877-5,5-5h115.48975c2.76123,0,5,2.23828,5,5s-2.23877,5-5,5Z"/>
  <path d="M115.17383,273.91992c-.49463,0-.99756-.07324-1.49463-.22949-2.63574-.82422-4.10352-3.62988-3.27881-6.26465l22.08691-70.57617c.82517-2.63574,3.63037-4.10547,6.26514-3.27832,2.63574,.82422,4.10352,3.62988,3.27881,6.26465l-22.08691,70.57617c-.66943,2.13867-2.64258,3.50781-4.77051,3.50781Z"/>
  <path d="M363.479,219.8877c-.91162,0-1.83398-.24902-2.66211-.77148-2.33545-1.47266-3.03516-4.56055-1.5625-6.89648l12.34375-19.57715c.91553-1.45215,2.5127-2.33301,4.22949-2.33301h6.09814c2.76123,0,5,2.23828,5,5s-2.23877,5-5,5h-3.33984l-10.87256,17.24414c-.95068,1.50781-2.57422,2.33398-4.23438,2.33398Z"/>
</svg>