<?xml version="1.0" encoding="UTF-8"?>
<svg id="Layer_1" data-name="Layer 1" xmlns="http://www.w3.org/2000/svg" viewBox="0 0 512 512">
  <defs>
    <style>
      .cls-1 {
        fill: #e7e8f1;
      }

      .cls-2 {
        fill: #ed5920;
      }

      .cls-3 {
        fill: #ff702e;
      }

      .cls-4 {
        fill: #c7c8ce;
      }

      .cls-5 {
        fill: #5f606b;
      }

      .cls-6 {
        fill: #51545a;
      }
    </style>
  </defs>
  <g>
    <g>
      <circle class="cls-5" cx="406.88846" cy="325.1287" r="89.11153"/>
      <path class="cls-6" d="M465.71704,258.2013l-122.63354,129.12598c16.18506,16.60034,38.78906,26.91309,63.80493,26.91309,49.21509-.00024,89.11157-39.89673,89.11157-89.11182,0-26.66846-11.71851-50.59644-30.28296-66.92725Z"/>
      <circle class="cls-1" cx="406.88846" cy="325.1287" r="70.60023"/>
      <path class="cls-4" d="M412.58496,393.91223c-34.84204,.00024-63.08691-28.24487-63.08691-63.08691s28.24487-63.08716,63.08691-63.08716,63.08716,28.24512,63.08716,63.08716c0,8.53223-1.70312,16.66431-4.77271,24.08765,4.21899-9.05176,6.58936-19.13892,6.58936-29.78442,0-38.99121-31.60889-70.6001-70.60034-70.6001s-70.60034,31.60889-70.60034,70.60034c.00024,38.99146,31.60889,70.6001,70.60034,70.6001,10.64526,0,20.73267-2.37036,29.78442-6.58936-7.42334,3.06958-15.55542,4.77271-24.08789,4.77271Z"/>
      <path d="M406.88867,419.24023c-51.89355,0-94.11133-42.21777-94.11133-94.11133s42.21777-94.11133,94.11133-94.11133,94.11133,42.21777,94.11133,94.11133-42.21777,94.11133-94.11133,94.11133Zm0-178.22266c-46.37891,0-84.11133,37.73242-84.11133,84.11133s37.73242,84.11133,84.11133,84.11133,84.11133-37.73242,84.11133-84.11133-37.73242-84.11133-84.11133-84.11133Z"/>
      <path d="M406.88867,400.72852c-41.68652,0-75.60059-33.91406-75.60059-75.59961,0-21.0625,8.88867-41.33203,24.38672-55.61133,2.02832-1.87109,5.19238-1.74414,7.06445,.28906,1.87109,2.03027,1.74219,5.19336-.28906,7.06445-13.44824,12.39258-21.16211,29.98145-21.16211,48.25781,0,36.17188,29.42871,65.59961,65.60059,65.59961s65.59961-29.42773,65.59961-65.59961-29.42773-65.60059-65.59961-65.60059c-9.4209,0-18.51172,1.95312-27.01855,5.80371-2.51562,1.13965-5.47852,.02344-6.61719-2.49219s-.02344-5.47852,2.49219-6.61719c9.8125-4.44238,20.29004-6.69434,31.14355-6.69434,41.68555,0,75.59961,33.91406,75.59961,75.60059s-33.91406,75.59961-75.59961,75.59961Z"/>
    </g>
    <g>
      <circle class="cls-5" cx="105.11154" cy="325.1287" r="89.11153"/>
      <path class="cls-6" d="M163.94012,258.2013L41.30657,387.32727c16.18506,16.60034,38.78906,26.91309,63.80493,26.91309,49.21509-.00024,89.11157-39.89673,89.11157-89.11182,0-26.66846-11.71851-50.59644-30.28296-66.92725Z"/>
      <circle class="cls-1" cx="105.11154" cy="325.1287" r="70.60023"/>
      <path class="cls-4" d="M110.80804,393.91223c-34.84204,.00024-63.08691-28.24487-63.08691-63.08691s28.24487-63.08716,63.08691-63.08716,63.08716,28.24512,63.08716,63.08716c0,8.53223-1.70312,16.66431-4.77271,24.08765,4.21899-9.05176,6.58936-19.13892,6.58936-29.78442,0-38.99121-31.60889-70.6001-70.60034-70.6001s-70.60034,31.60889-70.60034,70.60034c.00024,38.99146,31.60889,70.6001,70.60034,70.6001,10.64526,0,20.73267-2.37036,29.78442-6.58936-7.42334,3.06958-15.55542,4.77271-24.08789,4.77271Z"/>
      <path d="M105.11133,419.24023c-51.89355,0-94.11133-42.21777-94.11133-94.11133s42.21777-94.11133,94.11133-94.11133,94.11133,42.21777,94.11133,94.11133-42.21777,94.11133-94.11133,94.11133Zm0-178.22266c-46.37891,0-84.11133,37.73242-84.11133,84.11133s37.73242,84.11133,84.11133,84.11133,84.11133-37.73242,84.11133-84.11133-37.73242-84.11133-84.11133-84.11133Z"/>
      <path d="M105.11133,400.72852c-41.68555,0-75.59961-33.91406-75.59961-75.59961s33.91406-75.60059,75.59961-75.60059,75.60059,33.91406,75.60059,75.60059c0,10.94531-2.29004,21.50781-6.80664,31.3916-1.14746,2.51172-4.11328,3.61621-6.62598,2.46973-2.51172-1.14746-3.61719-4.11426-2.46973-6.62598,3.91699-8.57031,5.90234-17.7334,5.90234-27.23535,0-36.17188-29.42871-65.60059-65.60059-65.60059s-65.59961,29.42871-65.59961,65.60059,29.42773,65.59961,65.59961,65.59961c16.16113,0,31.68848-5.92773,43.71973-16.69043,2.05859-1.84277,5.2207-1.66406,7.06055,.39258,1.84082,2.05859,1.66504,5.21973-.39258,7.06055-13.86816,12.40527-31.7627,19.2373-50.3877,19.2373Z"/>
    </g>
    <circle class="cls-3" cx="406.88846" cy="325.1287" r="21.12206"/>
    <path class="cls-2" d="M406.88843,304.00647c-.13647,0-.26831,.01807-.40405,.02051,2.7124,1.21655,5.01611,3.18018,6.64966,5.62817,3.51685,2.83276,5.77222,7.1687,5.77222,12.03638,0,8.5354-6.91943,15.45459-15.45508,15.45459-4.86743,0-9.20361-2.25513-12.03638-5.77197-2.448-1.63354-4.41138-3.93701-5.62793-6.64941-.00269,.13574-.02051,.26758-.02051,.40405,0,11.66528,9.45679,21.12183,21.12207,21.12183s21.12207-9.45654,21.12207-21.12207-9.45679-21.12207-21.12207-21.12207Z"/>
    <path class="cls-3" d="M107.38481,307.12884l18.07139-19.86509c15.13941-16.64209,36.99892-25.53594,59.45669-24.1908l38.09347,2.28166,7.1907,18.65205-48.51373-1.75286c-17.29414-.62486-34.21862,5.10384-47.57772,16.10439l-10.6511,8.77065"/>
    <path d="M251.17285,361.41602c-12.68262,0-23-10.31738-23-23s10.31738-23,23-23,23,10.31738,23,23-10.31738,23-23,23Zm0-36c-7.16797,0-13,5.83203-13,13s5.83203,13,13,13,13-5.83203,13-13-5.83203-13-13-13Z"/>
    <path class="cls-3" d="M227.85963,284.74664l84.18203-42.52065c11.98802-6.05519,25.0017-9.81765,38.37142-11.09377l10.88067-1.03855-10.70001-33.95999-127.58736,69.22094"/>
    <path d="M251.17383,343.41699c-2.00781,0-3.90137-1.2168-4.66602-3.20215l-57.1123-148.14453c-.99316-2.57715,.29004-5.4707,2.86621-6.46387,2.5791-.99512,5.47168,.29004,6.46387,2.86621l57.1123,148.14453c.99316,2.57715-.29004,5.4707-2.86621,6.46387-.5918,.22852-1.2002,.33594-1.79785,.33594Z"/>
    <path class="cls-3" d="M215.31001,167.03703l-50.29658,.00002c-6.16734,0-11.16169,5.00956-11.14295,11.17687l.03303,10.8664c.02207,7.26212,5.91539,13.13756,13.17755,13.13755h2.7588c4.21176,0,8.16979-2.01326,10.65013-5.4172h0c3.23039-4.4333,8.13356-7.35233,13.57059-8.07908l22.49221-3.00643c4.65888-.62273,8.13762-4.5974,8.13762-9.29771v-.00002c0-5.18065-4.19975-9.3804-9.3804-9.3804Z"/>
    <circle class="cls-5" cx="251.17295" cy="338.58854" r="14.83949"/>
    <circle class="cls-3" cx="251.50586" cy="339.0654" r="30.95462"/>
    <circle class="cls-5" cx="251.50586" cy="338.58854" r="14.83949"/>
    <path class="cls-6" d="M254.82373,328.46649c4.39917,0,8.28906,2.12476,10.73877,5.39331-1.97607-5.87427-7.51636-10.11084-14.05664-10.11084-8.19556,0-14.83936,6.64404-14.83936,14.8396,0,6.54028,4.23633,12.08081,10.11084,14.05664-3.26855-2.44971-5.39355-6.3396-5.39355-10.73877,0-7.42261,6.01733-13.43994,13.43994-13.43994Z"/>
    <circle cx="105.75831" cy="325.43012" r="5"/>
    <path class="cls-2" d="M282.4126,337.37152c-.46118-8.54541-4.39038-16.16479-10.40234-21.48682,1.40869,3.57031,2.18652,7.45801,2.18652,11.52905,0,19.63257-17.78613,34.46777-37.09985,30.94458l-11.30835-2.06274c2.16895,3.23071,4.93262,6.02661,8.13135,8.2395l11.44067,2.08691c18.75366,3.42114,36.06372-10.46851,37.052-29.25049Z"/>
    <path d="M251.04102,375.04395c-2.18652,0-4.38672-.19727-6.57812-.59668l-113.47754-20.7002c-2.7168-.49609-4.5166-3.09961-4.02148-5.81641,.49609-2.71582,3.09961-4.52051,5.81641-4.02148l113.47754,20.7002c7.74512,1.41406,15.64844-.66797,21.69336-5.70996,6.04297-5.04102,9.50977-12.44531,9.50977-20.31543,0-14.58691-11.86816-26.45508-26.45605-26.45508H105.77441c-7.34277,0-13.31738,5.97461-13.31738,13.31738,0,6.43555,4.5957,11.94629,10.92773,13.10156,2.7168,.49609,4.51758,3.10059,4.02148,5.81641-.49609,2.7168-3.09863,4.51758-5.81641,4.02148-11.08691-2.02344-19.13281-11.6709-19.13281-22.93945,0-12.85742,10.45996-23.31738,23.31738-23.31738H251.00488c20.10156,0,36.45605,16.35352,36.45605,36.45508,0,10.84473-4.77637,21.04883-13.10449,27.99512-6.61816,5.51953-14.85742,8.46484-23.31543,8.46484Z"/>
    <path d="M251.17285,358.42773c-10.93945,0-19.83984-8.89941-19.83984-19.83887,0-2.76172,2.23828-5,5-5s5,2.23828,5,5c0,5.4248,4.41406,9.83887,9.83984,9.83887s9.83984-4.41406,9.83984-9.83887c0-5.42578-4.41406-9.83984-9.83984-9.83984-2.76172,0-5-2.23828-5-5s2.23828-5,5-5c10.93945,0,19.83984,8.90039,19.83984,19.83984s-8.90039,19.83887-19.83984,19.83887Z"/>
    <path d="M406.88867,351.25098c-14.40332,0-26.12207-11.71875-26.12207-26.12207,0-10.2002,5.99609-19.53027,15.27539-23.76953,2.5127-1.14746,5.47852-.04199,6.62598,2.46973s.04199,5.47852-2.46973,6.62598c-5.72949,2.61719-9.43164,8.37695-9.43164,14.67383,0,8.88965,7.23242,16.12207,16.12207,16.12207s16.12207-7.23242,16.12207-16.12207c0-5.64355-2.87402-10.78125-7.68848-13.74316-2.35156-1.44727-3.08496-4.52734-1.63867-6.87891,1.44727-2.35254,4.52539-3.08691,6.87891-1.63867,7.79492,4.7959,12.44824,13.11816,12.44824,22.26074,0,14.40332-11.71875,26.12207-26.12207,26.12207Z"/>
    <path d="M406.8916,330.12988c-1.89844,0-3.71289-1.08594-4.55176-2.92578l-87.21094-191.18848c-.78027-1.70996-.53516-3.71387,.63379-5.18555l17.79297-22.39551c.94922-1.19434,2.39062-1.88965,3.91504-1.88965h13.77441c2.76172,0,5,2.23828,5,5s-2.23828,5-5,5h-11.36133l-14.38574,18.10742,85.93945,188.40137c1.14648,2.5127,.03906,5.47852-2.47363,6.62402-.67285,.30664-1.37793,.45215-2.07227,.45215Z"/>
    <path class="cls-2" d="M180.55014,194.48564c-10.75879,0-19.4895-8.70435-19.52222-19.46289l-.02197-7.23047c-4.18213,1.61475-7.1499,5.66895-7.1355,10.42163l.0332,10.86646c.02197,7.26221,5.91528,13.13745,13.17749,13.13745h2.75879c4.21167,0,8.16968-2.01318,10.65015-5.41724,.60693-.83301,1.29004-1.59326,2.00781-2.31494h-1.94775Z"/>
    <path d="M169.83984,207.21777h-2.75879c-9.99219,0-18.14648-8.12988-18.17773-18.12207l-.0332-10.86621c-.0127-4.32129,1.66016-8.38672,4.71094-11.44727,3.05078-3.05957,7.11133-4.74512,11.43262-4.74512h50.2959c7.92969,0,14.38086,6.45117,14.38086,14.37988,0,7.17676-5.36328,13.30469-12.47559,14.25391l-22.49219,3.00684c-4.0625,.54297-7.77734,2.75488-10.19141,6.06738-3.40918,4.67871-8.90137,7.47266-14.69141,7.47266Zm-4.82617-35.18066c-1.64453,0-3.18945,.6416-4.35059,1.80566-1.16113,1.16504-1.79785,2.71191-1.79297,4.35645l.0332,10.86523c.01367,4.49609,3.68262,8.15332,8.17773,8.15332h2.75879c2.60449,0,5.0752-1.25684,6.60938-3.36133,4.01465-5.50977,10.19238-9.1875,16.94922-10.09082l22.49219-3.00684c2.16602-.28906,3.7998-2.15527,3.7998-4.3418,0-2.41504-1.96484-4.37988-4.38086-4.37988h-50.2959Z"/>
    <path d="M356.43945,217.00781c-.79688,0-1.60449-.19043-2.35547-.59277-2.43457-1.30273-3.35156-4.33203-2.04883-6.76758l12.7832-23.88867c1.30273-2.43555,4.33594-3.35059,6.76758-2.04883,2.43457,1.30273,3.35156,4.33203,2.04883,6.76758l-12.7832,23.88867c-.90039,1.68359-2.62793,2.6416-4.41211,2.6416Z"/>
    <path d="M249.02344,279.05957c-1.82715,0-3.58691-1.00488-4.4668-2.74707-1.24512-2.46484-.25586-5.47168,2.20898-6.7168l63.02246-31.83301c12.59473-6.36133,26.10352-10.26758,40.14941-11.6084l10.88184-1.03809c2.74707-.27441,5.18945,1.75293,5.45215,4.50293,.26172,2.74902-1.75391,5.18945-4.50293,5.45215l-10.88086,1.03809c-12.80176,1.22168-25.1123,4.78125-36.5918,10.5791l-63.02246,31.83301c-.72266,.36523-1.49219,.53809-2.25,.53809Z"/>
    <path d="M223.01172,270.35547c-1.77539,0-3.49414-.94727-4.39941-2.61621-1.31738-2.42773-.41699-5.46289,2.00977-6.7793l125.5459-68.11328c2.42969-1.31836,5.46387-.41602,6.7793,2.00977,1.31738,2.42773,.41699,5.46289-2.00977,6.7793l-125.5459,68.11328c-.75781,.41113-1.5752,.60645-2.37988,.60645Z"/>
    <path d="M148.36719,294.23828c-1.86035,0-3.64551-1.04199-4.50781-2.8291-1.19922-2.4873-.15527-5.47656,2.33203-6.67578,11.06445-5.33496,23.39941-7.91309,35.67285-7.47656l48.51367,1.75293c2.75977,.09961,4.91602,2.41797,4.81641,5.17773s-2.39941,4.92969-5.17773,4.81641l-48.51367-1.75293c-10.65332-.38086-21.36328,1.85938-30.96777,6.49023-.7002,.33691-1.44043,.49707-2.16797,.49707Z"/>
    <path d="M107.38379,312.12891c-1.20117,0-2.40527-.42969-3.36328-1.30176-2.04297-1.85742-2.19238-5.02051-.33398-7.0625l18.07129-19.86523c16.23926-17.85059,39.37402-27.25781,63.4541-25.81738l38.09375,2.28125c2.75684,.16504,4.85742,2.5332,4.69238,5.29004-.16504,2.75586-2.54395,4.83887-5.29004,4.69238l-38.09375-2.28125c-21.05078-1.2627-41.2666,6.96289-55.45996,22.56348l-18.07129,19.86523c-.98633,1.08496-2.34082,1.63574-3.69922,1.63574Z"/>
    <path d="M196.98438,241.01758c-.91895,0-1.83594-.25391-2.6416-.75488-29.06641-18.08594-64.34961-24.60059-107.87305-19.91406-2.74414,.29883-5.21094-1.69141-5.50684-4.43652-.29492-2.74512,1.69043-5.21094,4.43652-5.50684,44.66113-4.80469,81.28613,1.70703,111.84961,19.91992l9.9248-4.84375c2.4834-1.21484,5.47559-.18164,6.68652,2.30078,1.21094,2.48145,.18164,5.47461-2.30078,6.68555l-12.38184,6.04297c-.69434,.33887-1.44434,.50684-2.19336,.50684Z"/>
    <path d="M251.50586,375.02051c-19.82617,0-35.95508-16.12891-35.95508-35.95508s16.12891-35.95508,35.95508-35.95508,35.95508,16.12891,35.95508,35.95508-16.12891,35.95508-35.95508,35.95508Zm0-61.91016c-14.31152,0-25.95508,11.64355-25.95508,25.95508s11.64355,25.95508,25.95508,25.95508,25.95508-11.64355,25.95508-25.95508-11.64355-25.95508-25.95508-25.95508Z"/>
  </g>
  <g>
    <circle class="cls-1" cx="96.77072" cy="399.88187" r="33.56972"/>
    <path class="cls-4" d="M114.74839,371.53801c3.30406,5.19845,5.2258,11.36166,5.2258,17.97757,0,18.5401-15.0297,33.5698-33.5698,33.5698-6.61591,0-12.77912-1.92174-17.97757-5.2258,5.95532,9.36944,16.41959,15.59202,28.344,15.59202,18.53988,0,33.56958-15.0297,33.56958-33.5698,0-11.9242-6.22235-22.38847-15.59202-28.34378Z"/>
    <path d="M96.77051,438.45117c-21.26758,0-38.56934-17.30176-38.56934-38.56934s17.30176-38.56934,38.56934-38.56934,38.57031,17.30176,38.57031,38.56934-17.30273,38.56934-38.57031,38.56934Zm0-67.13867c-15.75293,0-28.56934,12.81641-28.56934,28.56934s12.81641,28.56934,28.56934,28.56934c15.75391,0,28.57031-12.81641,28.57031-28.56934s-12.81641-28.56934-28.57031-28.56934Z"/>
    <circle cx="96.77072" cy="399.88187" r="5.0683"/>
  </g>
  <path d="M94.98828,369.75293c-.55176,0-1.1123-.0918-1.66113-.28516-2.60449-.91797-3.97266-3.77246-3.05469-6.37695l7.49902-21.28516c.91699-2.60547,3.77832-3.9707,6.37695-3.05469,2.60449,.91797,3.97266,3.77246,3.05469,6.37695l-7.49902,21.28516c-.72363,2.05566-2.6543,3.33984-4.71582,3.33984Z"/>
  <path class="cls-3" d="M415.84247,216.18589h-26.79844c-4.31242,0-8.17345-2.67244-9.69224-6.70855l-18.94742-50.35169c-2.54827-6.77188,2.45677-14.00296,9.69224-14.00296h45.74586c5.71933,0,10.35576,4.63643,10.35576,10.35576v50.35169c0,5.71933-4.63643,10.35576-10.35576,10.35576Z"/>
  <path class="cls-2" d="M415.84229,145.12256h-3.29639v21.60404c0,19.77571-16.03138,35.80709-35.80709,35.80709h-.00004l2.61311,6.94381c1.51883,4.03597,5.37976,6.70829,9.69206,6.70829h26.79858c5.7193,0,10.35571-4.63641,10.35571-10.35571v-50.35156c0-5.71944-4.63652-10.35596-10.35596-10.35596Z"/>
  <path d="M415.84277,221.18555h-26.79883c-6.35742,0-12.13379-3.99707-14.37207-9.94727l-18.94727-50.35156c-1.77441-4.71582-1.12109-10.00488,1.74609-14.14746,2.86816-4.14258,7.58789-6.61621,12.62598-6.61621h45.74609c8.4668,0,15.35547,6.88867,15.35547,15.35547v50.35156c0,8.4668-6.88867,15.35547-15.35547,15.35547Zm-45.74609-71.0625c-1.7832,0-3.38867,.84082-4.40332,2.30762-1.01562,1.46582-1.2373,3.26465-.60938,4.93457l18.94727,50.35156c.78027,2.0752,2.79492,3.46875,5.0127,3.46875h26.79883c2.95312,0,5.35547-2.40234,5.35547-5.35547v-50.35156c0-2.95312-2.40234-5.35547-5.35547-5.35547h-45.74609Z"/>
</svg>