<?xml version="1.0" encoding="UTF-8"?>
<svg id="Layer_1" data-name="Layer 1" xmlns="http://www.w3.org/2000/svg" viewBox="0 0 512 512">
  <defs>
    <style>
      .cls-1 {
        fill: #e7e8f1;
      }

      .cls-2 {
        fill: #ed5920;
      }

      .cls-3 {
        fill: #ff702e;
      }

      .cls-4 {
        fill: #c7c8ce;
      }

      .cls-5 {
        fill: #5f606b;
      }

      .cls-6 {
        fill: #51545a;
      }
    </style>
  </defs>
  <g>
    <circle class="cls-5" cx="418.30968" cy="331.29536" r="77.69031"/>
    <path class="cls-6" d="M469.59834,272.94589l-106.91589,112.5762c14.11066,14.47271,33.81756,23.4637,55.6272,23.4637,42.9073-.00021,77.69035-34.78326,77.69035-77.69056,0-23.25042-10.21657-44.11161-26.40166-58.34933Z"/>
    <circle class="cls-1" cx="418.30968" cy="331.29536" r="56.22768"/>
    <path class="cls-4" d="M422.84651,386.07617c-27.74902,.00019-50.2439-22.49488-50.2439-50.2439s22.49488-50.24409,50.2439-50.24409,50.24409,22.49507,50.24409,50.24409c0,6.79526-1.35641,13.27184-3.80109,19.18397,3.36011-7.20903,5.24792-15.24268,5.24792-23.72101,0-31.05351-25.17406-56.22757-56.22777-56.22757s-56.22777,25.17406-56.22777,56.22777c.00019,31.05371,25.17406,56.22757,56.22777,56.22757,8.47814,0,16.51198-1.88781,23.72101-5.24792-5.91212,2.44469-12.3887,3.80109-19.18416,3.80109Z"/>
    <path d="M418.30957,413.98535c-45.5957,0-82.69043-37.09473-82.69043-82.69043s37.09473-82.68945,82.69043-82.68945,82.69043,37.09473,82.69043,82.68945-37.09473,82.69043-82.69043,82.69043Zm0-155.37988c-40.08203,0-72.69043,32.6084-72.69043,72.68945s32.6084,72.69043,72.69043,72.69043,72.69043-32.6084,72.69043-72.69043-32.6084-72.68945-72.69043-72.68945Z"/>
    <path d="M418.30957,392.52344c-33.76074,0-61.22754-27.4668-61.22754-61.22852,0-17.05762,7.19824-33.47363,19.75-45.03809,2.0293-1.87109,5.19238-1.74414,7.06445,.28906,1.87109,2.03027,1.74219,5.19336-.28906,7.06445-10.50195,9.67773-16.52539,23.41309-16.52539,37.68457,0,28.24707,22.98047,51.22852,51.22754,51.22852s51.22754-22.98145,51.22754-51.22852-22.98047-51.22754-51.22754-51.22754c-6.45312,0-12.74219,1.18262-18.69336,3.5166-2.57031,1.00684-5.47168-.25879-6.48047-2.83008-1.00781-2.57129,.25977-5.47266,2.83008-6.48047,7.11914-2.79102,14.63672-4.20605,22.34375-4.20605,33.76074,0,61.22754,27.4668,61.22754,61.22754s-27.4668,61.22852-61.22754,61.22852Z"/>
  </g>
  <g>
    <circle class="cls-5" cx="93.69031" cy="331.29536" r="77.69031"/>
    <path class="cls-6" d="M144.97897,272.94589l-106.91589,112.5762c14.11066,14.47271,33.81756,23.4637,55.6272,23.4637,42.9073-.00021,77.69035-34.78326,77.69035-77.69056,0-23.25042-10.21657-44.11161-26.40166-58.34933Z"/>
    <path d="M93.69043,413.98535c-45.5957,0-82.69043-37.09473-82.69043-82.69043s37.09473-82.68945,82.69043-82.68945,82.69043,37.09473,82.69043,82.68945-37.09473,82.69043-82.69043,82.69043Zm0-155.37988c-40.08203,0-72.69043,32.6084-72.69043,72.68945s32.6084,72.69043,72.69043,72.69043,72.69043-32.6084,72.69043-72.69043-32.6084-72.68945-72.69043-72.68945Z"/>
    <circle class="cls-1" cx="93.69034" cy="331.29536" r="56.22768"/>
    <path class="cls-4" d="M98.22717,386.07617c-27.74902,.00019-50.2439-22.49488-50.2439-50.2439s22.49488-50.24409,50.2439-50.24409,50.24409,22.49507,50.24409,50.24409c0,6.79526-1.35641,13.27184-3.80109,19.18397,3.36011-7.20903,5.24792-15.24268,5.24792-23.72101,0-31.05351-25.17406-56.22757-56.22777-56.22757s-56.22777,25.17406-56.22777,56.22777c.00019,31.05371,25.17406,56.22757,56.22777,56.22757,8.47814,0,16.51198-1.88781,23.72101-5.24792-5.91212,2.44469-12.3887,3.80109-19.18416,3.80109Z"/>
    <path d="M93.69043,392.52344c-33.76074,0-61.22754-27.4668-61.22754-61.22852,0-17.05762,7.19824-33.47363,19.75-45.03809,2.0293-1.87109,5.19238-1.74414,7.06445,.28906,1.87109,2.03027,1.74219,5.19336-.28906,7.06445-10.50195,9.67773-16.52539,23.41309-16.52539,37.68457,0,28.24707,22.98047,51.22852,51.22754,51.22852s51.22754-22.98145,51.22754-51.22852c0-9.87695-2.81543-19.46387-8.14258-27.72266-1.49609-2.32031-.82812-5.41504,1.49219-6.91211,2.32031-1.49609,5.41602-.82715,6.91211,1.49219,6.37109,9.87793,9.73828,21.33887,9.73828,33.14258,0,33.76172-27.4668,61.22852-61.22754,61.22852Z"/>
    <path d="M119.16406,286.15918c-.76367,0-1.53809-.1748-2.26465-.54492-7.22852-3.68066-15.03613-5.54688-23.20898-5.54688-6.45312,0-12.74219,1.18262-18.69336,3.5166-2.56934,1.00684-5.47168-.25879-6.48047-2.83008-1.00781-2.57129,.25977-5.47266,2.83008-6.48047,7.11914-2.79102,14.63672-4.20605,22.34375-4.20605,9.76465,0,19.09961,2.23242,27.74609,6.63477,2.46094,1.25391,3.44043,4.26367,2.1875,6.72461-.88379,1.73438-2.63867,2.73242-4.45996,2.73242Z"/>
  </g>
  <circle class="cls-3" cx="418.30968" cy="331.29536" r="18.4149"/>
  <path class="cls-2" d="M418.30965,312.88032c-.11898,0-.23392,.01575-.35227,.01788,2.36476,1.06063,4.37321,2.77258,5.79739,4.90682,3.0661,2.46969,5.03241,6.24991,5.03241,10.4937,0,7.44144-6.03259,13.47381-13.47424,13.47381-4.24358,0-8.02401-1.96609-10.4937-5.03219-2.13424-1.42418-3.84598-3.43241-4.90661-5.79717-.00234,.11834-.01788,.23328-.01788,.35227,0,10.17017,8.24473,18.41469,18.4149,18.41469s18.4149-8.24452,18.4149-18.4149-8.24473-18.4149-18.4149-18.4149Z"/>
  <path class="cls-3" d="M102.0766,300.41119l18.31823-20.13643c15.34621-16.86941,37.5043-25.88475,60.26883-24.52123l38.61381,2.31283,7.28892,18.90682-49.17639-1.7768c-17.53037-.63339-34.68602,5.17355-48.2276,16.32437l-10.79659,8.89045"/>
  <path class="cls-3" d="M212.97809,287.44505l111.82936-38.7674c11.99339-4.1577,24.65793-6.03835,37.34197-5.5452l15.07559,.58614-12.17954-36.40178-161.10274,50.36466"/>
  <path d="M226.54004,337.12695c-2.14453,0-4.12695-1.39062-4.78223-3.54883l-60.16309-198.18555c-.80273-2.64258,.68945-5.43457,3.33203-6.23633,2.63672-.80273,5.43359,.68945,6.23633,3.33203l60.16309,198.18555c.80273,2.64258-.68945,5.43457-3.33203,6.23633-.4834,.14746-.97266,.2168-1.4541,.2168Z"/>
  <path class="cls-3" d="M190.09156,111.54534l-50.9836,.00002c-6.25158,0-11.31415,5.07799-11.29515,11.32954l.03348,11.01483c.02237,7.36132,5.99619,13.31701,13.35754,13.317h2.79649c4.26929,0,8.28138-2.04076,10.7956-5.4912h0c3.27451-4.49385,8.24466-7.45276,13.75595-8.18943l22.79944-3.0475c4.72252-.63124,8.24877-4.66019,8.24877-9.42471v-.00002c0-5.25142-4.25712-9.50853-9.50853-9.50853Z"/>
  <circle cx="100.42788" cy="318.96246" r="5.0683"/>
  <path d="M418.30957,354.70996c-12.91113,0-23.41504-10.50391-23.41504-23.41504,0-9.14258,5.375-17.50488,13.69238-21.30566,2.5127-1.14648,5.47852-.04199,6.62598,2.46973s.04199,5.47852-2.46973,6.62598c-4.76758,2.17871-7.84863,6.9707-7.84863,12.20996,0,7.39746,6.01758,13.41504,13.41504,13.41504s13.41504-6.01758,13.41504-13.41504c0-4.69531-2.3916-8.9707-6.39746-11.43555-2.35254-1.44727-3.08496-4.52734-1.63867-6.87891,1.44824-2.35254,4.52832-3.08496,6.87891-1.63867,6.98633,4.2998,11.15723,11.75879,11.15723,19.95312,0,12.91113-10.50391,23.41504-23.41504,23.41504Z"/>
  <path d="M418.3125,334.58887c-1.92969,0-3.76758-1.12207-4.58691-3.00391l-64.31152-147.62988c-.23828-.54785-.37695-1.13379-.40918-1.73047l-4.22168-78.94336c-.07324-1.37012,.41992-2.70996,1.36426-3.70605s2.25684-1.56055,3.62891-1.56055h18.25c2.76172,0,5,2.23828,5,5s-2.23828,5-5,5h-12.97559l3.8916,72.77441,63.95117,146.80176c1.10254,2.53223-.05566,5.47852-2.58691,6.58105-.65039,.2832-1.32812,.41699-1.99414,.41699Z"/>
  <path class="cls-2" d="M154.85689,139.36888c-10.90575,0-19.75572-8.82324-19.78888-19.72874l-.02227-7.32923c-4.23925,1.6368-7.24757,5.74638-7.23296,10.56398l.03366,11.01488c.02227,7.3614,5.99608,13.3169,13.35749,13.3169h2.79647c4.2692,0,8.28127-2.04068,10.79562-5.49123,.61522-.84439,1.30766-1.61502,2.03524-2.34656h-1.97436Z"/>
  <path d="M144,152.20703h-2.7959c-10.0918,0-18.32617-8.20996-18.35742-18.30176l-.03418-11.01465c-.0127-4.36328,1.67578-8.4668,4.75586-11.55566s7.17773-4.79004,11.54004-4.79004h50.9834c8,0,14.50781,6.50879,14.50781,14.50879,0,7.24023-5.41113,13.42188-12.58594,14.38086l-22.7998,3.04785c-4.13672,.55273-7.91895,2.80469-10.37695,6.17773-3.44434,4.72559-8.99023,7.54688-14.83691,7.54688Zm-4.8916-35.66211c-1.68555,0-3.26855,.65723-4.45801,1.85059-1.19043,1.19336-1.84277,2.7793-1.83789,4.46484l.03418,11.01367c.01367,4.59473,3.7627,8.33301,8.35742,8.33301h2.7959c2.66211,0,5.1875-1.28418,6.75488-3.43652,4.05859-5.56934,10.30371-9.28711,17.13477-10.2002l22.7998-3.04785c2.22949-.29785,3.91016-2.21875,3.91016-4.46875,0-2.48633-2.02246-4.50879-4.50781-4.50879h-50.9834Z"/>
  <path d="M235.55859,284.61816c-2.07129,0-4.00781-1.2959-4.72461-3.36328-.9043-2.60938,.47754-5.45703,3.08691-6.3623l89.24902-30.93945c12.63281-4.37891,25.81836-6.33301,39.17383-5.81641l15.0752,.58594c2.75879,.10742,4.90918,2.43066,4.80176,5.19043s-2.45898,4.90918-5.19043,4.80176l-15.0752-.58594c-12.1123-.46289-24.05957,1.30273-35.50977,5.27246l-89.24902,30.94043c-.54199,.1875-1.09473,.27637-1.6377,.27637Z"/>
  <path d="M203.94043,262.68262c-2.12793,0-4.10156-1.37012-4.77051-3.50879-.82422-2.63574,.64453-5.44043,3.28027-6.26465l44.21875-13.82422c2.63379-.82129,5.44043,.64355,6.26465,3.28027,.82422,2.63574-.64453,5.44043-3.28027,6.26465l-44.21875,13.82422c-.49707,.15527-.99902,.22852-1.49414,.22852Z"/>
  <path d="M270.51758,241.86914c-2.12793,0-4.10156-1.37012-4.77051-3.50879-.82422-2.63574,.64453-5.44043,3.28027-6.26465l94.52637-29.55176c2.63477-.82227,5.44043,.64355,6.26465,3.28027,.82422,2.63574-.64453,5.44043-3.28027,6.26465l-94.52637,29.55176c-.49707,.15527-.99902,.22852-1.49414,.22852Z"/>
  <path d="M143.61914,287.27637c-1.86035,0-3.64551-1.04199-4.50781-2.8291-1.19922-2.4873-.15527-5.47656,2.33203-6.67578,11.20508-5.40332,23.7041-8.00684,36.12695-7.57227l32.22363,1.16406c2.75977,.09961,4.91602,2.41797,4.81641,5.17773s-2.40332,4.8916-5.17773,4.81641l-32.22363-1.16406c-10.80957-.39844-21.67676,1.88672-31.42188,6.58594-.7002,.33691-1.43945,.49707-2.16797,.49707Z"/>
  <path d="M102.0752,305.41113c-1.20117,0-2.40527-.42969-3.36328-1.30176-2.04297-1.85742-2.19238-5.02051-.33398-7.0625l18.31836-20.13672c16.44629-18.0791,39.87695-27.60742,64.2666-26.14746l23.31055,1.39551c2.75684,.16504,4.85742,2.5332,4.69238,5.29004-.16504,2.75586-2.53223,4.84863-5.29004,4.69238l-23.31055-1.39551c-21.36816-1.28516-41.87012,7.06445-56.27246,22.89355l-18.31836,20.13672c-.98633,1.08496-2.34082,1.63574-3.69922,1.63574Z"/>
  <g>
    <path d="M226.54199,355.37207c-12.81836,0-23.24609-10.42773-23.24609-23.24609s10.42773-23.24609,23.24609-23.24609,23.24609,10.42773,23.24609,23.24609-10.42773,23.24609-23.24609,23.24609Zm0-36.49219c-7.30371,0-13.24609,5.94238-13.24609,13.24609s5.94238,13.24609,13.24609,13.24609,13.24609-5.94238,13.24609-13.24609-5.94238-13.24609-13.24609-13.24609Z"/>
    <circle class="cls-5" cx="226.54193" cy="332.30061" r="15.04219"/>
    <circle class="cls-3" cx="226.8794" cy="332.78399" r="31.37744"/>
    <circle class="cls-5" cx="226.8794" cy="332.30061" r="15.04219"/>
    <path class="cls-6" d="M230.24258,322.0403c4.45926,0,8.40229,2.15378,10.88545,5.46698-2.00307-5.95451-7.61903-10.24895-14.24864-10.24895-8.3075,0-15.04205,6.7348-15.04205,15.0423,0,6.62962,4.29419,12.24583,10.24895,14.24864-3.3132-2.48317-5.46723-6.42619-5.46723-10.88545,0-7.524,6.09953-13.62352,13.62352-13.62352Z"/>
    <path class="cls-2" d="M258.2083,331.06697c-.46748-8.66213-4.45035-16.38559-10.54443-21.78031,1.42793,3.61908,2.21639,7.55988,2.21639,11.68653,0,19.90074-18.02908,34.93858-37.60661,31.36726l-11.46281-2.09092c2.19857,3.27484,4.99999,6.10893,8.24242,8.35205l11.59695,2.11542c19.00982,3.46787,36.55633-10.6115,37.55811-29.65003Z"/>
    <path d="M226.4082,369.18555c-2.21191,0-4.43848-.19922-6.65527-.60352-.0498-.00879-.09863-.01855-.14844-.0293l-99.86914-21.35645c-2.7002-.57812-4.4209-3.23438-3.84375-5.93555,.57715-2.7002,3.23926-4.41797,5.93555-3.84375l99.79199,21.33984c7.84375,1.40918,15.85059-.70801,21.97266-5.81543,6.14258-5.12207,9.66504-12.64746,9.66504-20.64551,0-14.82422-12.06055-26.88477-26.88477-26.88477H100.44434c-7.48145,0-13.56738,6.08594-13.56738,13.56738,0,6.55762,4.68164,12.1709,11.13281,13.34766,2.71582,.49512,4.5166,3.09961,4.02148,5.81641s-3.09473,4.52441-5.81641,4.02148c-11.20508-2.04395-19.33789-11.79492-19.33789-23.18555,0-12.99512,10.57227-23.56738,23.56738-23.56738h125.92773c20.33789,0,36.88477,16.54688,36.88477,36.88477,0,10.97266-4.83301,21.29688-13.25977,28.3252-6.69531,5.58496-15.03125,8.56445-23.58887,8.56445Z"/>
    <path d="M226.54199,352.34277c-11.05078,0-20.04199-8.99121-20.04199-20.04199,0-2.76172,2.23828-5,5-5s5,2.23828,5,5c0,5.53711,4.50488,10.04199,10.04199,10.04199s10.04199-4.50488,10.04199-10.04199-4.50488-10.04199-10.04199-10.04199c-2.76172,0-5-2.23828-5-5s2.23828-5,5-5c11.05078,0,20.04199,8.99121,20.04199,20.04199s-8.99121,20.04199-20.04199,20.04199Z"/>
    <path d="M226.87988,369.16113c-20.05859,0-36.37793-16.31836-36.37793-36.37695s16.31934-36.37793,36.37793-36.37793,36.37695,16.31934,36.37695,36.37793-16.31836,36.37695-36.37695,36.37695Zm0-62.75488c-14.54492,0-26.37793,11.83301-26.37793,26.37793,0,14.54395,11.83301,26.37695,26.37793,26.37695,14.54395,0,26.37695-11.83301,26.37695-26.37695,0-14.54492-11.83301-26.37793-26.37695-26.37793Z"/>
  </g>
  <path d="M248.68262,290.74316c-2.76172,0-5-2.23828-5-5v-51.19043c0-2.76172,2.23828-5,5-5s5,2.23828,5,5v51.19043c0,2.76172-2.23828,5-5,5Z"/>
  <path d="M158.67676,262.68262c-1.62012,0-3.20898-.78613-4.17188-2.2373l-14.86621-22.41211H38.06348c-2.76172,0-5-2.23828-5-5s2.23828-5,5-5h104.25879c1.67578,0,3.24023,.83984,4.16699,2.23633l16.34961,24.64844c1.52637,2.30078,.89844,5.4043-1.40332,6.93066-.84961,.56348-1.80957,.83398-2.75879,.83398Z"/>
  <path d="M91.93457,307.48047c-1.83203,0-3.59668-1.01074-4.47363-2.76074l-34.05176-67.92578c-1.2373-2.46875-.23926-5.47363,2.22949-6.71094,2.4668-1.23828,5.47168-.24023,6.70996,2.22949l34.05176,67.92676c1.2373,2.46777,.23926,5.47266-2.22949,6.70996-.71875,.36035-1.4834,.53125-2.23633,.53125Z"/>
</svg>