<?xml version="1.0" encoding="UTF-8"?>
<svg id="Layer_1" data-name="Layer 1" xmlns="http://www.w3.org/2000/svg" viewBox="0 0 512 512">
  <defs>
    <style>
      .cls-1 {
        fill: #ed5920;
      }

      .cls-2 {
        fill: #ff702e;
      }

      .cls-3 {
        fill: #5f606b;
      }

      .cls-4 {
        fill: #51545a;
      }
    </style>
  </defs>
  <path class="cls-3" d="M450.66992,221.41211l-6.73779-112.66699c-.92505-15.4668-13.26147-27.80322-28.72827-28.72803l-112.66675-6.73779c-8.73828-.52295-17.28198,2.7207-23.47192,8.91064L36.91443,324.34082c-11.95398,11.9541-11.95398,31.33496,0,43.28906l119.40466,119.40479c11.95398,11.95361,31.33514,11.95361,43.28906,0l242.15088-242.15088c6.18982-6.18994,9.43335-14.73389,8.91089-23.47168Zm-49.36865-54.36377c-12.26099,12.26123-32.13989,12.26123-44.40076,0-12.26086-12.26074-12.26086-32.13965,0-44.40088,12.26086-12.26074,32.13977-12.26074,44.40076,0,12.26086,12.26123,12.26086,32.14014,0,44.40088Z"/>
  <path class="cls-1" d="M312.51289,144.84808c0,11.07933-11.48635,20.50125-14.2175,30.71953-2.82592,10.57283,2.32751,24.46012-3.02829,33.71701-5.43282,9.39002-20.08738,11.83759-27.70799,19.45816s-10.06815,22.27504-19.45813,27.7078c-9.25674,5.35567-23.14384,.20215-33.71647,3.02803-10.21833,2.73118-19.6403,14.21755-30.7197,14.21755s-20.50125-11.48635-30.71953-14.2175c-10.57283-2.82592-24.46012,2.32751-33.71702-3.02829-9.39002-5.43282-11.83759-20.08738-19.45816-27.70799-7.62053-7.62057-22.27504-10.06815-27.7078-19.45813-5.35567-9.25674-.20215-23.14384-3.02803-33.71647-2.73118-10.21833-14.21755-19.6403-14.21755-30.7197s11.48635-20.50125,14.2175-30.71953c2.82592-10.57283-2.32751-24.46012,3.02829-33.71701,5.43282-9.39002,20.08738-11.83759,27.70799-19.45816,7.62057-7.62053,10.06815-22.27504,19.45813-27.7078,9.25674-5.35567,23.14384-.20215,33.71647-3.02803,10.21833-2.73118,19.6403-14.21755,30.7197-14.21755s20.50125,11.48635,30.71953,14.2175c10.57283,2.82592,24.46012-2.32751,33.71701,3.02829,9.39002,5.43282,11.83759,20.08738,19.45816,27.70799,7.62053,7.62057,22.27504,10.06815,27.7078,19.45813,5.35567,9.25674,.20215,23.14384,3.02803,33.71647,2.73118,10.21833,14.21755,19.6403,14.21755,30.7197Z"/>
  <path d="M379.10107,149.84766c-1.27979,0-2.55908-.48828-3.53564-1.46484-9.16992-9.16895-11.95801-23.35254-7.85107-39.93652,3.88477-15.68652,13.57227-31.87402,27.27783-45.5791,13.70557-13.70605,29.89307-23.39355,45.58008-27.27832,16.58252-4.10938,30.7666-1.31836,39.9375,7.84961,9.16943,9.1709,11.95752,23.35352,7.85059,39.93848-3.88477,15.68652-13.57227,31.87402-27.27783,45.5791-3.94678,3.94727-8.1582,7.6123-12.51709,10.89258-2.20605,1.66211-5.34033,1.21777-7.00146-.98828-1.66064-2.20703-1.21777-5.3418,.98877-7.00195,3.98584-3,7.84082-6.35547,11.4585-9.97266,24.61035-24.61035,33.50684-57.2959,19.42725-71.37598-14.0791-14.08008-46.76611-5.18164-71.375,19.42773-12.4375,12.4375-21.18896,26.9668-24.64258,40.91309-3.23145,13.04883-1.37939,23.86719,5.21582,30.46191,1.95264,1.95215,1.95264,5.11816,0,7.07031-.97607,.97656-2.25586,1.46484-3.53564,1.46484Z"/>
  <path class="cls-4" d="M450.66995,221.41159l-2.09284-34.99494-140.21643,140.21643c-64.44548,64.44548-168.93226,64.44548-233.37774,0l-20.18041-20.18041-17.8881,17.8881c-11.95395,11.95395-11.95395,31.33514,0,43.28909l119.40468,119.40468c11.95395,11.95395,31.33514,11.95395,43.28909,0l242.1508-242.1508c6.18994-6.18994,9.43356-14.73386,8.91097-23.47215Z"/>
  <circle class="cls-2" cx="183.66481" cy="144.84808" r="101.77293"/>
  <path d="M140.03418,193.47852c-1.27979,0-2.55908-.48828-3.53564-1.46484-1.95264-1.95215-1.95264-5.11816,0-7.07031l87.26123-87.26074c1.95312-1.95312,5.11914-1.95215,7.07129,0,1.95264,1.95215,1.95264,5.11816,0,7.07031l-87.26123,87.26074c-.97607,.97656-2.25635,1.46484-3.53564,1.46484Z"/>
  <g>
    <path d="M159.99365,138.05566h-7.92627c-9.39209,0-17.0332-7.64062-17.0332-17.0332v-17.25391c0-9.39258,7.64111-17.0332,17.0332-17.0332h7.92627c9.39209,0,17.0332,7.64062,17.0332,17.0332v17.25391c0,9.39258-7.64111,17.0332-17.0332,17.0332Zm-7.92627-41.32031c-3.87793,0-7.0332,3.15527-7.0332,7.0332v17.25391c0,3.87793,3.15527,7.0332,7.0332,7.0332h7.92627c3.87793,0,7.0332-3.15527,7.0332-7.0332v-17.25391c0-3.87793-3.15527-7.0332-7.0332-7.0332h-7.92627Z"/>
    <path d="M215.26221,202.96094h-7.92578c-9.39258,0-17.03369-7.64062-17.03369-17.0332v-17.25391c0-9.39258,7.64111-17.0332,17.03369-17.0332h7.92578c9.39209,0,17.0332,7.64062,17.0332,17.0332v17.25391c0,9.39258-7.64111,17.0332-17.0332,17.0332Zm-7.92578-41.32031c-3.87842,0-7.03369,3.15527-7.03369,7.0332v17.25391c0,3.87793,3.15527,7.0332,7.03369,7.0332h7.92578c3.87793,0,7.0332-3.15527,7.0332-7.0332v-17.25391c0-3.87793-3.15527-7.0332-7.0332-7.0332h-7.92578Z"/>
  </g>
  <path d="M177.96387,501c-9.51221,0-18.45459-3.7041-25.18066-10.43066l-119.4043-119.4043c-6.72559-6.72559-10.43018-15.66797-10.43018-25.17969s3.70459-18.4541,10.43018-25.17969l60.05857-60.05859c1.95315-1.95312,5.11819-1.95312,7.07131,0,1.95264,1.95215,1.95264,5.11816,0,7.07031l-60.05859,60.05859c-9.98535,9.98535-9.98535,26.2334,0,36.21875l119.4043,119.4043c9.98535,9.9834,26.23291,9.9834,36.21826,0l242.15039-242.15039c5.17529-5.1748,7.89258-12.33301,7.45557-19.6377l-6.73779-112.66699c-.77295-12.92969-11.10596-23.26367-24.03516-24.03613-2.75635-.16504-4.85742-2.5332-4.69287-5.29004,.16504-2.75586,2.53467-4.83594,5.28955-4.69238,17.97803,1.0752,32.3457,15.44336,33.4209,33.4209l6.73779,112.66699c.60742,10.1582-3.17139,20.11133-10.36719,27.30664l-242.1499,242.14941c-6.72607,6.72656-15.66846,10.43066-25.18018,10.43066Z"/>
  <path d="M388.10742,83.39648c-.10059,0-.20166-.00293-.30322-.00879l-85.56543-5.11719c-3.46582-.21094-6.87744,.28027-10.14355,1.44629-2.59912,.93262-5.46143-.42383-6.39111-3.02539-.9292-2.60059,.42529-5.46191,3.02588-6.39062,4.54248-1.62305,9.2915-2.30176,14.10547-2.0127l85.56543,5.11719c2.75684,.16504,4.85742,2.5332,4.69287,5.29004-.15869,2.6543-2.36182,4.70117-4.98633,4.70117Z"/>
  <path d="M183.66504,278.69629c-7.8623,0-14.67188-4.44434-20.6792-8.36523-3.99365-2.60645-7.76514-5.06836-11.33154-6.02246-3.80566-1.01758-8.4502-.77734-13.36475-.52246-7.38721,.37988-15.0249,.77637-21.56543-3.00781-6.64258-3.84375-10.12842-10.71289-13.5-17.35547-2.20166-4.33887-4.28125-8.43652-6.98975-11.14551-2.7085-2.70801-6.80566-4.78711-11.14404-6.98926-6.64307-3.37109-13.5127-6.85742-17.35547-13.5-3.78467-6.54102-3.39014-14.17871-3.0083-21.56445,.25439-4.91602,.49414-9.56055-.52295-13.36523-.95312-3.56641-3.41504-7.33789-6.021-11.33105-3.92139-6.00781-8.36572-12.81738-8.36572-20.67969s4.44434-14.6709,8.36523-20.67871c2.60645-3.99316,5.06836-7.76465,6.02148-11.33105,1.01709-3.80469,.77734-8.44922,.52295-13.36621-.38184-7.38574-.77637-15.02344,3.0083-21.56445,3.84277-6.64258,10.71191-10.12793,17.35449-13.49902,4.33887-2.20215,8.43701-4.28125,11.14551-6.99023,2.70898-2.70898,4.78857-6.80664,6.99023-11.14551,3.37109-6.64258,6.85742-13.51172,13.49902-17.35547,2.39111-1.38281,5.44971-.56543,6.83203,1.82422,1.3833,2.38965,.56689,5.44824-1.82324,6.83105-4.0752,2.3584-6.75391,7.6377-9.59033,13.22559-2.45898,4.8457-5.00195,9.85645-8.83643,13.69141-3.83447,3.83398-8.84521,6.37695-13.69092,8.83594-5.58887,2.83594-10.86719,5.51465-13.2251,9.58984-2.30029,3.97656-1.99756,9.83691-1.67676,16.04102,.28271,5.47461,.57568,11.13574-.84863,16.46387-1.36621,5.11133-4.38721,9.73926-7.30859,14.21484-3.46582,5.31055-6.73926,10.3252-6.73926,15.21289s3.27393,9.90332,6.73975,15.21387c2.92139,4.47559,5.94189,9.10352,7.30811,14.21484,1.42432,5.32812,1.13135,10.98926,.84863,16.46387-.3208,6.2041-.62354,12.06348,1.67676,16.04004,2.35791,4.0752,7.63672,6.75391,13.22559,9.59082,4.84521,2.45898,9.85547,5.00098,13.68994,8.83496,3.83447,3.83496,6.37695,8.8457,8.83594,13.69141,2.83643,5.58789,5.51514,10.86719,9.59033,13.22461,3.97607,2.30078,9.83643,1.99512,16.04102,1.67773,5.4751-.2832,11.13525-.57617,16.46338,.84863,5.11133,1.36621,9.73926,4.38672,14.21533,7.30859,5.31006,3.46582,10.32568,6.73926,15.21338,6.73926,4.88721,0,9.90283-3.27344,15.21289-6.73926,4.47559-2.92188,9.104-5.94238,14.21533-7.30859,5.32812-1.4248,10.98877-1.13086,16.46338-.84863,6.2041,.32031,12.06396,.62402,16.04004-1.67773,4.07568-2.35742,6.75439-7.63574,9.59082-13.22461,2.45898-4.8457,5.00146-9.85547,8.83594-13.68945,3.83447-3.83496,8.84473-6.37793,13.69043-8.83691,5.58887-2.83594,10.86768-5.51562,13.2251-9.59082,2.30078-3.97656,1.99805-9.83594,1.67725-16.04004-.28271-5.47461-.57568-11.13574,.84863-16.46387,1.36621-5.11133,4.38672-9.73926,7.30811-14.21484,3.46582-5.31055,6.73975-10.32617,6.73975-15.21387,0-4.88672-3.27344-9.90234-6.73926-15.21191-2.92139-4.47656-5.94238-9.10547-7.30859-14.2168-1.42432-5.32812-1.13135-10.98828-.84863-16.46289,.3208-6.2041,.62354-12.06348-1.67676-16.04004-2.3584-4.07617-7.63721-6.75488-13.22607-9.59082-4.84521-2.45898-9.85498-5.00195-13.68945-8.83496-3.83447-3.83496-6.37695-8.8457-8.83594-13.69141-2.83643-5.58789-5.51514-10.86719-9.59033-13.22461-3.97803-2.30273-9.83838-1.99805-16.04248-1.67773-5.47314,.2832-11.13379,.57617-16.46191-.84863-5.11133-1.36621-9.73975-4.38672-14.21533-7.30859-5.31006-3.46582-10.32568-6.73926-15.21289-6.73926-4.8877,0-9.90332,3.27344-15.21338,6.73926-4.47607,2.92188-9.104,5.94238-14.21533,7.30859-2.66602,.71289-5.40869-.87012-6.12158-3.53906-.71289-2.66797,.87158-5.4082,3.53955-6.12109,3.56641-.9541,7.33789-3.41602,11.33154-6.02246,6.00732-3.9209,12.81689-8.36523,20.6792-8.36523s14.67139,4.44434,20.67871,8.36523c3.99316,2.60645,7.76514,5.06836,11.33154,6.02246,3.8042,1.01465,8.44678,.77441,13.36377,.52246,7.38672-.38281,15.0249-.77637,21.56641,3.00781,6.64258,3.84375,10.12842,10.71289,13.5,17.35547,2.20166,4.33887,4.28125,8.43652,6.98975,11.14551,2.70801,2.70801,6.80566,4.78711,11.14355,6.98828,6.64355,3.37207,13.51318,6.85742,17.35645,13.50098,3.78418,6.54102,3.38965,14.17871,3.00781,21.56445-.25439,4.91602-.49414,9.55957,.52295,13.36426,.95312,3.56738,3.41504,7.33887,6.02197,11.33301,3.9209,6.00684,8.36475,12.81543,8.36475,20.67773s-4.44434,14.67188-8.36572,20.67969c-2.60596,3.99316-5.06787,7.76465-6.021,11.33105-1.01709,3.80469-.77734,8.44922-.52295,13.36523,.38184,7.38574,.77637,15.02344-3.0083,21.56445-3.84277,6.64258-10.71191,10.12891-17.35547,13.5-4.33838,2.20215-8.43604,4.28223-11.14453,6.99023-2.70898,2.70898-4.78809,6.80664-6.98975,11.14453-3.37158,6.64258-6.85742,13.51172-13.5,17.35547-6.54102,3.78516-14.17676,3.38965-21.56494,3.00781-4.9165-.25586-9.55957-.49512-13.36475,.52246-3.56641,.9541-7.33838,3.41602-11.33154,6.02246-6.00732,3.9209-12.81641,8.36523-20.67871,8.36523Z"/>
  <path d="M379.10107,181.22754c-9.32031,0-18.64062-3.54785-25.73633-10.64355-10.35693-10.3584-13.49951-25.8252-8.00488-39.40332,1.03564-2.55957,3.94873-3.79785,6.51025-2.75977,2.55957,1.03516,3.79541,3.9502,2.75928,6.50977-3.98535,9.84961-1.70605,21.06934,5.80664,28.58301,10.29199,10.29004,27.0376,10.29199,37.32959,0,10.2915-10.29297,10.2915-27.03906,0-37.33105-6.58496-6.58496-15.92383-9.18848-24.97949-6.96875-2.68311,.65723-5.38916-.98438-6.04688-3.66602-.65723-2.68164,.98389-5.38965,3.66602-6.04688,12.48242-3.05859,25.35303,.53418,34.43164,9.61035,14.19043,14.19141,14.19043,37.28125,0,51.47266-7.09521,7.0957-16.41553,10.64355-25.73584,10.64355Z"/>
  <path d="M183.52686,398.72363c-1.27979,0-2.55908-.48828-3.53564-1.46484-1.95264-1.95215-1.95264-5.11816,0-7.07031l128.98584-128.98535c1.95312-1.95312,5.11816-1.95312,7.07129,0,1.95264,1.95215,1.95264,5.11816,0,7.07031l-128.98586,128.98535c-.97605,.97656-2.25632,1.46484-3.53562,1.46484Z"/>
  <path d="M133.62109,348.81836c-1.27979,0-2.55908-.48828-3.53564-1.46484-1.95264-1.95215-1.95264-5.11816,0-7.07031l41.63086-41.63086c1.95312-1.95312,5.11816-1.95312,7.07129,0,1.95264,1.95215,1.95264,5.11816,0,7.07031l-41.63086,41.63086c-.97656,.97656-2.25586,1.46484-3.53564,1.46484Z"/>
</svg>