<?xml version="1.0" encoding="UTF-8"?>
<svg id="Layer_1" data-name="Layer 1" xmlns="http://www.w3.org/2000/svg" viewBox="0 0 512 512">
  <defs>
    <style>
      .cls-1 {
        fill: #e7e8f1;
      }

      .cls-2 {
        fill: #ed5920;
      }

      .cls-3 {
        fill: #ff702e;
      }

      .cls-4 {
        fill: #c7c8ce;
      }

      .cls-5 {
        fill: #5f606b;
      }

      .cls-6 {
        fill: #51545a;
      }
    </style>
  </defs>
  <circle class="cls-1" cx="256.57018" cy="198.98692" r="182.98692"/>
  <path class="cls-3" d="M120.0576,320.82617c33.51013,37.51953,82.24847,61.14746,136.51257,61.14746s103.00244-23.62793,136.5127-61.14746l-6.31519-31.34668c-6.40479-31.79199-34.33765-54.65918-66.76855-54.65918h-126.85779c-32.43091,0-60.36383,22.86719-66.76868,54.65918l-6.31506,31.34668Z"/>
  <path class="cls-2" d="M386.76768,289.47949c-6.40496-31.7923-34.33809-54.65918-66.76916-54.65918h-26.2909c30.72559,0,57.1897,21.66455,63.25757,51.78516v.00003c4.09788,20.34039-3.6968,41.39922-20.37833,53.73821-28.79243,21.29718-64.40986,33.89213-102.97299,33.89213-17.20764,0-33.82385-2.51953-49.51385-7.18945,22.22314,9.59912,46.72241,14.92725,72.47015,14.92725,54.26416,0,103.00244-23.62793,136.5127-61.14746l-6.31519-31.34668Z"/>
  <path class="cls-4" d="M98.80751,225.3462c0-101.06083,81.92603-182.98651,182.98686-182.98651,45.42513,0,86.97817,16.55874,118.96931,43.96024-33.49331-42.80507-85.62885-70.31965-144.1935-70.31965-101.0609,0-182.98693,81.92568-182.98693,182.98651,0,55.63612,24.83534,105.46534,64.01741,139.02627-24.3037-31.06046-38.79315-70.17054-38.79315-112.66686Z"/>
  <rect class="cls-5" x="139.24223" y="415.95051" width="234.65589" height="80.04949" rx="17.02824" ry="17.02824"/>
  <path class="cls-6" d="M356.86995,415.95052h-6.10428v14.17531c0,26.48943-21.47392,47.96335-47.96335,47.96335H139.24223v.88245c0,9.40444,7.6238,17.02824,17.02824,17.02824h200.59947c9.40444,0,17.02824-7.6238,17.02824-17.02824v-45.99288c0-9.40444-7.6238-17.02824-17.02824-17.02824Z"/>
  <path d="M256.57031,386.97363c-30.0249,0-59.8916-7.25293-86.37158-20.97363-25.62109-13.27637-48.20557-32.62305-65.3125-55.94727-1.6333-2.22656-1.15186-5.35547,1.07471-6.98926,2.22656-1.63281,5.35498-1.15234,6.98877,1.0752,16.20117,22.08984,37.58838,40.41016,61.84961,52.98242,25.42236,13.17285,52.93408,19.85254,81.771,19.85254,98.1416,0,177.98633-79.84473,177.98633-177.98633S354.71191,21,256.57031,21,78.5835,100.84473,78.5835,198.9873c0,28.73535,7.00586,57.28223,20.26025,82.55273,1.28271,2.44531,.34033,5.46777-2.10547,6.75-2.44482,1.28223-5.46777,.33984-6.75-2.10547-14.00342-26.69727-21.40479-56.84961-21.40479-87.19727,0-103.65625,84.33057-187.9873,187.98682-187.9873s187.98633,84.33105,187.98633,187.9873-84.33008,187.98633-187.98633,187.98633Z"/>
  <path d="M356.87012,501H156.27051c-12.14648,0-22.02832-9.88184-22.02832-22.02832v-45.99316c0-12.14648,9.88184-22.02832,22.02832-22.02832h200.59961c12.14648,0,22.02832,9.88184,22.02832,22.02832v17.10449c0,2.76172-2.23828,5-5,5s-5-2.23828-5-5v-17.10449c0-6.63281-5.39551-12.02832-12.02832-12.02832H156.27051c-6.63232,0-12.02832,5.39551-12.02832,12.02832v45.99316c0,6.63281,5.396,12.02832,12.02832,12.02832h200.59961c6.63281,0,12.02832-5.39551,12.02832-12.02832,0-2.76172,2.23828-5,5-5s5,2.23828,5,5c0,12.14648-9.88184,22.02832-22.02832,22.02832Z"/>
  <rect class="cls-3" x="188.79679" y="67.83265" width="135.54685" height="178.11622" rx="67.77335" ry="67.77335"/>
  <path class="cls-2" d="M270.74095,69.32099c21.62467,11.32249,36.38255,33.97392,36.38255,60.07561v42.56963c0,37.43025-30.34308,67.77351-67.77332,67.77351h-.00009c-4.86055,0-9.60011-.51617-14.17064-1.48864,9.38532,4.91427,20.06222,7.6979,31.39077,7.6979h0c37.43025,0,67.77342-30.34327,67.77342-67.77351v-42.56963c0-32.56941-22.97593-59.76901-53.60268-66.28487Z"/>
  <path d="M256.57031,250.94922c-40.12744,0-72.77344-32.64648-72.77344-72.77344v-42.56934c0-12.35547,3.15381-24.56348,9.12109-35.30176,1.3418-2.41406,4.38477-3.28418,6.79932-1.94141,2.41357,1.34082,3.2832,4.38477,1.94189,6.79883-5.14355,9.25684-7.8623,19.78418-7.8623,30.44434v42.56934c0,34.61328,28.16016,62.77344,62.77344,62.77344s62.77344-28.16016,62.77344-62.77344v-42.56934c0-34.61328-28.16016-62.77344-62.77344-62.77344-14.52197,0-28.68164,5.07324-39.87012,14.28516-2.13232,1.75586-5.28418,1.4502-7.03809-.68262-1.75537-2.13184-1.4502-5.28223,.68164-7.03809,12.97461-10.68164,29.3916-16.56445,46.22656-16.56445,40.12695,0,72.77344,32.64648,72.77344,72.77344v42.56934c0,40.12695-32.64648,72.77344-72.77344,72.77344Z"/>
  <path d="M256.57031,386.97363c-53.4707,0-104.58691-22.89551-140.2417-62.81641-1.04932-1.1748-1.4834-2.77441-1.17236-4.31836l6.31494-31.34668c6.1626-30.59082,31.06592-53.91113,61.96826-58.0293,2.73584-.37109,5.25195,1.55762,5.6167,4.2959,.36475,2.7373-1.55811,5.25195-4.29541,5.61621-26.67236,3.55469-48.16699,23.68555-53.48682,50.0918l-5.81641,28.87305c33.67529,36.66113,81.31494,57.63379,131.11279,57.63379,2.76172,0,5,2.23828,5,5s-2.23828,5-5,5Z"/>
  <path d="M386.7627,294.48047c-2.33203,0-4.41797-1.63965-4.89648-4.01367-5.91211-29.34668-31.93066-50.64648-61.86719-50.64648h-26.29102c-2.76172,0-5-2.23828-5-5s2.23828-5,5-5h26.29102c34.67969,0,64.82129,24.6748,71.66992,58.67188,.5459,2.70703-1.20703,5.34375-3.91406,5.88867-.33301,.06738-.66504,.09961-.99219,.09961Z"/>
</svg>