<?xml version="1.0" encoding="UTF-8"?>
<svg id="Layer_1" data-name="Layer 1" xmlns="http://www.w3.org/2000/svg" viewBox="0 0 512 512">
  <defs>
    <style>
      .cls-1 {
        fill: #e7e8f1;
      }

      .cls-2 {
        fill: #ed5920;
      }

      .cls-3 {
        fill: #ff702e;
      }

      .cls-4 {
        fill: #c7c8ce;
      }

      .cls-5 {
        fill: #5f606b;
      }

      .cls-6 {
        fill: #51545a;
      }
    </style>
  </defs>
  <path class="cls-5" d="M376.47684,215.53612v14.36321c0,12.54438,4.57235,24.65866,12.86095,34.07464l.00003,.00003c8.2886,9.41597,12.86095,21.53026,12.86095,34.07464v24.01409H110.94157v-24.01409c0-12.54438,4.57235-24.65866,12.86095-34.07464l.00003-.00003c8.2886-9.41597,12.86095-21.53026,12.86095-34.07464v-14.36321"/>
  <path class="cls-6" d="M376.47689,229.89951v-14.36333h-89.96223v106.52634h115.68419v-24.01384c0-12.54434-4.57247-24.65896-12.86111-34.07459-8.28864-9.41616-12.86085-21.53025-12.86085-34.07459Z"/>
  <path class="cls-5" d="M376.47689,168.94621v-33.03923c0-66.22276-53.68395-119.90698-119.90658-119.90698h-.00026c-66.22263,0-119.90658,53.68421-119.90658,119.90698v33.03923h239.81343Z"/>
  <path class="cls-6" d="M256.5703,16h-.00026c-5.57597,0-11.06017,.38971-16.43378,1.12594,58.44575,8.01216,103.47281,58.13424,103.47281,118.78104v75.31504c0,60.6468-45.02706,110.76835-103.47281,118.78051,5.37361,.73676,10.85781,1.12594,16.43378,1.12594h.00026c66.22263,0,119.90658-53.68369,119.90658-119.90645v-75.31504c0-66.22276-53.68395-119.90698-119.90658-119.90698Z"/>
  <path class="cls-3" d="M348.37806,133.92068h18.54548c14.73828,0,26.70389,11.96561,26.70389,26.70389v31.91487c0,14.73828-11.96561,26.70389-26.70389,26.70389h-18.54548v-85.32265h0Z"/>
  <path class="cls-3" d="M119.07501,133.92068h18.54548c14.73828,0,26.70389,11.96561,26.70389,26.70389v31.91487c0,14.73828-11.96561,26.70389-26.70389,26.70389h-18.54548v-85.32265h0Z" transform="translate(283.39938 353.16402) rotate(180)"/>
  <rect class="cls-2" x="144.90202" y="133.92068" width="22.56678" height="85.32265"/>
  <rect class="cls-1" x="162.39292" y="49.81012" width="188.35451" height="247.50849" rx="94.17716" ry="94.17716"/>
  <path class="cls-3" d="M344.71031,281.85472H168.43003c-45.0656,0-83.88093,31.77545-92.78101,75.95347l-18.47179,91.68984c-4.84398,24.04446,13.54045,46.50197,38.06799,46.50197H417.89512c24.52754,0,42.91197-22.45751,38.06799-46.50197l-18.47179-91.68984c-8.90008-44.17802-47.7154-75.95347-92.78101-75.95347Z"/>
  <path class="cls-2" d="M322.36496,281.85472l28.64029,105.83605c2.15967,7.98077-5.09418,15.32385-13.10075,13.26191l-82.36968-21.21277h-.00026l-82.36968,21.21277c-8.00657,2.06194-15.26042-5.28114-13.10075-13.26191l28.64029-105.83605"/>
  <path class="cls-1" d="M204.44721,280.03591h104.24593v36.03144c0,28.76742-23.35549,52.12291-52.12291,52.12291h-.0001c-28.76742,0-52.12291-23.35549-52.12291-52.12291v-36.03144h0Z"/>
  <path class="cls-4" d="M281.38343,280.03581v36.03155c0,24.06018-16.30699,44.30176-38.46814,50.30324,4.35352,1.17913,8.92837,1.81951,13.65488,1.81951h0c28.78669,0,52.12302-23.33606,52.12302-52.12275v-36.03155h-27.30975Z"/>
  <rect class="cls-2" x="345.67154" y="133.92068" width="22.56678" height="85.32265"/>
  <path class="cls-4" d="M276.26169,51.8783c30.04942,15.73362,50.55682,47.20981,50.55682,83.48045v59.15433c0,52.01269-42.16443,94.17738-94.17712,94.17738h-.00013c-6.75417,0-13.34022-.71727-19.69138-2.06861,13.04175,6.82882,27.87825,10.69692,43.6203,10.69692h0c52.01269,0,94.17725-42.16469,94.17725-94.17738v-59.15433c0-45.25812-31.92712-83.05441-74.48573-92.10877Z"/>
  <path class="cls-5" d="M157.37691,126.89424h46.88264c2.72456,0,5.02113-2.03224,5.35263-4.73656l4.63053-37.77461,16.67226,37.39624c1.38698,3.11103,4.4744,5.11493,7.88061,5.11493h119.73231v-25.22052l-55.17456-56.8435h-98.90612l-47.0703,51.9712v30.09282Z"/>
  <rect class="cls-3" x="233.50774" y="246.34393" width="46.12486" height="26.51078" rx="10.7854" ry="10.7854"/>
  <path class="cls-6" d="M303.35342,44.8304h-1.66534c23.5242,20.16153,39.14802,49.27526,41.58474,82.06382h15.25504v-25.22035l-55.17445-56.84347Z"/>
  <path class="cls-2" d="M455.96302,449.49779l-18.47175-91.68968c-6.0627-30.09379-26.01358-54.42044-52.35895-66.88053,14.96197,12.63019,25.8057,30.1691,29.90446,50.5139l8.4081,41.73623c9.21547,45.74382-25.76034,88.46848-72.4232,88.46848H92.57143c-16.49684,0-30.0377-10.7854-34.78001-25.19665l-.6141,3.04823c-4.84398,24.04444,13.54043,46.50193,38.06794,46.50193H417.89508c24.52751,0,42.91192-22.45749,38.06795-46.50192Z"/>
  <path class="cls-2" d="M240.09163,268.65333v-4.94032c0-5.95672,4.82868-10.7854,10.7854-10.7854h24.55403c1.25694,0,2.45844,.22592,3.58017,.62142-1.47799-4.19409-5.46432-7.20484-10.16397-7.20484h-24.55416c-5.95659,0-10.7854,4.82868-10.7854,10.7854v4.9398c0,4.69965,3.01127,8.68625,7.20536,10.16397-.39524-1.12172-.62142-2.32349-.62142-3.58004Z"/>
  <path d="M110.94141,306.32129c-2.76172,0-5-2.23828-5-5v-3.27246c0-13.76953,5.01074-27.04395,14.1084-37.37891,7.48926-8.50781,11.61328-19.43652,11.61328-30.77051v-11.61035c0-2.76172,2.23828-5,5-5s5,2.23828,5,5v11.61035c0,13.76855-5.00977,27.04297-14.10742,37.37793-7.48926,8.50781-11.61426,19.43652-11.61426,30.77148v3.27246c0,2.76172-2.23828,5-5,5Z"/>
  <path d="M394.84863,276.50781c-1.69922,0-3.35449-.86621-4.29199-2.42871-1.44336-2.4043-3.11621-4.69336-4.97168-6.80176-9.09766-10.33496-14.1084-23.60938-14.1084-37.37793v-10.65625c0-2.76172,2.23828-5,5-5s5,2.23828,5,5v10.65625c0,11.33496,4.125,22.2627,11.61426,30.77051,2.25488,2.5625,4.28711,5.34277,6.04004,8.26465,1.4209,2.36816,.65332,5.43945-1.71484,6.85938-.80469,.4834-1.69238,.71387-2.56738,.71387Z"/>
  <path d="M376.46973,139.63574c-2.7373,0-4.9707-2.2041-4.99902-4.94824-.31543-30.43555-12.4082-59-34.0498-80.43066-21.65625-21.44629-50.37012-33.25684-80.85059-33.25684-52.00977,0-97.67285,35.05469-111.04395,85.24609-.70996,2.66797-3.44336,4.25879-6.11816,3.54395-2.66797-.70996-4.25488-3.4502-3.54395-6.11816,14.53516-54.56348,64.1709-92.67188,120.70605-92.67188,33.13379,0,64.3457,12.83887,87.8877,36.15137,23.52441,23.2959,36.66895,54.34668,37.0127,87.43262,.02832,2.76074-2.18652,5.02246-4.94824,5.05176h-.05273Z"/>
  <path d="M366.92383,224.24316h-15.5459c-2.76172,0-5-2.23828-5-5s2.23828-5,5-5h15.5459c11.9668,0,21.70312-9.73633,21.70312-21.7041v-31.91406c0-11.96777-9.73633-21.7041-21.70312-21.7041h-15.5459c-2.76172,0-5-2.23828-5-5s2.23828-5,5-5h15.5459c17.48145,0,31.70312,14.22266,31.70312,31.7041v31.91406c0,17.48145-14.22168,31.7041-31.70312,31.7041Z"/>
  <path d="M162.32422,224.24316h-16.54492c-17.48145,0-31.7041-14.22266-31.7041-31.7041v-31.91406c0-17.48145,14.22266-31.7041,31.7041-31.7041h16.54492c2.76172,0,5,2.23828,5,5s-2.23828,5-5,5h-16.54492c-11.96777,0-21.7041,9.73633-21.7041,21.7041v31.91406c0,11.96777,9.73633,21.7041,21.7041,21.7041h16.54492c2.76172,0,5,2.23828,5,5s-2.23828,5-5,5Z"/>
  <path d="M344.35742,242.30957c-.60352,0-1.2168-.10938-1.81348-.3418-2.57324-1.00195-3.84668-3.90039-2.84473-6.47363,4.0127-10.30469,6.04785-21.18945,6.04785-32.35254v-59.1543c0-5.44336-.49316-10.89062-1.46484-16.19238-.49805-2.71582,1.2998-5.32129,4.0166-5.81934,2.71777-.49414,5.32129,1.2998,5.81934,4.0166,1.08105,5.89355,1.62891,11.94824,1.62891,17.99512v59.1543c0,12.41016-2.26367,24.51562-6.72949,35.98145-.76953,1.97656-2.65918,3.18652-4.66016,3.18652Z"/>
  <path d="M256.57031,302.31836c-54.68652,0-99.17773-44.49023-99.17773-99.17676v-59.1543c0-6.06543,.55273-12.14355,1.64355-18.06641,.5-2.71582,3.1123-4.51367,5.82227-4.01172,2.71582,.5,4.51172,3.10645,4.01172,5.82227-.98047,5.32715-1.47754,10.7959-1.47754,16.25586v59.1543c0,49.17188,40.00488,89.17676,89.17773,89.17676,28.10254,0,54.89258-13.49219,71.66211-36.09082,1.64746-2.21777,4.77832-2.67871,6.99512-1.03613,2.21777,1.64551,2.68164,4.77734,1.03613,6.99512-18.64746,25.12891-48.43945,40.13184-79.69336,40.13184Z"/>
  <path d="M417.89551,501H95.24512c-13.19629,0-25.55859-5.85645-33.91699-16.06738-8.35938-10.20996-11.65918-23.48535-9.05273-36.42188l18.47266-91.68945c9.33398-46.33594,50.41504-79.9668,97.68164-79.9668h36.01758c2.76172,0,5,2.23828,5,5s-2.23828,5-5,5h-36.01758c-42.52344,0-79.48145,30.25586-87.87891,71.94141l-18.47266,91.68945c-2.01172,9.98535,.53516,20.23145,6.9873,28.11328,6.45215,7.88086,15.99414,12.40137,26.17969,12.40137H417.89551c10.18555,0,19.72656-4.51953,26.17871-12.40137,6.45215-7.88086,8.99902-18.12793,6.9873-28.11328l-18.47168-91.68945c-8.39844-41.68555-45.35742-71.94141-87.87988-71.94141h-36.0166c-2.76172,0-5-2.23828-5-5s2.23828-5,5-5h36.0166c47.2666,0,88.34766,33.63086,97.68262,79.9668l18.47168,91.68945c2.60645,12.93652-.69336,26.21191-9.05273,36.42285-8.3584,10.20996-20.7207,16.06641-33.91602,16.06641Z"/>
  <path d="M256.57031,373.19043c-31.49805,0-57.12305-25.625-57.12305-57.12305v-9.60059c0-2.76172,2.23828-5,5-5s5,2.23828,5,5v9.60059c0,25.9834,21.13965,47.12305,47.12305,47.12305s47.12305-21.13965,47.12305-47.12305v-33.03125c0-2.76172,2.23828-5,5-5s5,2.23828,5,5v33.03125c0,31.49805-25.625,57.12305-57.12305,57.12305Z"/>
  <path d="M324.7959,131.89453h-86c-5.37402,0-10.25977-3.17188-12.44824-8.08008l-9.33398-20.93848-2.43848,19.88965c-.63867,5.20508-5.07324,9.12891-10.31543,9.12891h-39.93555c-2.76172,0-5-2.23828-5-5s2.23828-5,5-5h39.93555c.19824,0,.36523-.14941,.38965-.34668l4.63086-37.77344c.27344-2.22949,2-4.00391,4.22266-4.33691,2.21387-.32715,4.39258,.85645,5.30664,2.90918l16.67188,37.39648c.58301,1.30762,1.88379,2.15137,3.31445,2.15137h86c2.76172,0,5,2.23828,5,5s-2.23828,5-5,5Z"/>
  <path d="M268.84766,277.85449h-24.55469c-8.7041,0-15.78516-7.08105-15.78516-15.78516v-4.94043c0-8.7041,7.08105-15.78516,15.78516-15.78516h24.55469c8.7041,0,15.78516,7.08105,15.78516,15.78516v4.94043c0,8.7041-7.08105,15.78516-15.78516,15.78516Zm-24.55469-26.51074c-3.19043,0-5.78516,2.59473-5.78516,5.78516v4.94043c0,3.19043,2.59473,5.78516,5.78516,5.78516h24.55469c3.19043,0,5.78516-2.59473,5.78516-5.78516v-4.94043c0-3.19043-2.59473-5.78516-5.78516-5.78516h-24.55469Z"/>
  <path d="M256.57031,497.38281c-2.76172,0-5-2.23828-5-5v-98.91895c0-2.76172,2.23828-5,5-5s5,2.23828,5,5v98.91895c0,2.76172-2.23828,5-5,5Z"/>
  <path d="M349.33496,264.28906h-69.70215c-2.76172,0-5-2.23828-5-5s2.23828-5,5-5h69.70215c4.64355,0,8.4209-3.77734,8.4209-8.4209v-26.625c0-2.76172,2.23828-5,5-5s5,2.23828,5,5v26.625c0,10.15723-8.26367,18.4209-18.4209,18.4209Z"/>
</svg>