<?xml version="1.0" encoding="UTF-8"?>
<svg id="Layer_1" data-name="Layer 1" xmlns="http://www.w3.org/2000/svg" viewBox="0 0 512 512">
  <defs>
    <style>
      .cls-1 {
        fill: #ed5920;
      }

      .cls-2 {
        fill: #ff702e;
      }
    </style>
  </defs>
  <path class="cls-2" d="M167.12081,180.62092h177.75838v58.19007c0,2.75958-2.24042,5-5,5H172.12081c-2.75958,0-5-2.24042-5-5v-58.19007h0Z"/>
  <path class="cls-2" d="M344.87919,48.5048V20.83908c0-2.67255-2.16653-4.83908-4.83908-4.83908H171.95988c-2.67255,0-4.83908,2.16653-4.83908,4.83908v27.66572l-48.02106,29.3783c-4.31188,2.63792-6.94119,7.3288-6.94119,12.3836v54.66043c0,3.78569,1.47879,7.42163,4.1211,10.13264l20.63989,21.17659c2.73244,2.80349,6.48131,4.38458,10.39612,4.38458h217.36866c3.91481,0,7.66369-1.58109,10.39612-4.38458l20.63989-21.17659c2.64231-2.71102,4.1211-6.34696,4.1211-10.13264v-54.66043c0-5.0548-2.62931-9.74568-6.94119-12.3836l-48.02106-29.3783Z"/>
  <path class="cls-1" d="M344.87919,48.5048V20.83908c0-2.67255-2.16653-4.83908-4.83908-4.83908h-34.63814V48.5048l25.9278,33.62478v98.49136h33.35455c3.91481,0,7.66369-1.58109,10.39612-4.38458l20.63989-21.17659c2.64231-2.71102,4.1211-6.34696,4.1211-10.13264v-54.66043c0-5.0548-2.62931-9.74568-6.94119-12.3836l-48.02106-29.3783Z"/>
  <path d="M397.33887,87.12939H242.33398c-2.76172,0-5-2.23877-5-5s2.23828-5,5-5h155.00488c2.76172,0,5,2.23877,5,5s-2.23828,5-5,5Z"/>
  <path d="M210.5459,87.12939h-30.97461c-2.76172,0-5-2.23877-5-5s2.23828-5,5-5h30.97461c2.76172,0,5,2.23877,5,5s-2.23828,5-5,5Z"/>
  <path d="M344.87891,53.50488H167.12109c-2.76172,0-5-2.23877-5-5s2.23828-5,5-5h177.75781c2.76172,0,5,2.23877,5,5s-2.23828,5-5,5Z"/>
  <path d="M357.36523,149.81982H112.1582c-2.76172,0-5-2.23877-5-5s2.23828-5,5-5h245.20703c2.76172,0,5,2.23877,5,5s-2.23828,5-5,5Z"/>
  <path class="cls-1" d="M167.12081,180.62094v16.34582h119.84822c19.74216,0,35.74635,16.00419,35.74635,35.74635v11.09787h17.16381c2.76142,0,5-2.23858,5-5v-58.19004H167.12081Z"/>
  <path class="cls-2" d="M172.12081,268.18901h167.75838c2.75958,0,5,2.24042,5,5v58.19007H167.12081v-58.19007c0-2.75958,2.24042-5,5-5Z"/>
  <path class="cls-2" d="M344.87919,463.4952v27.66572c0,2.67255-2.16653,4.83908-4.83908,4.83908H171.95988c-2.67255,0-4.83908-2.16653-4.83908-4.83908v-27.66572l-48.02106-29.3783c-4.31188-2.63792-6.94119-7.3288-6.94119-12.3836v-54.66043c0-3.78569,1.47879-7.42163,4.1211-10.13264l20.63989-21.17659c2.73244-2.80349,6.48131-4.38458,10.39612-4.38458h217.36866c3.91481,0,7.66369,1.58109,10.39612,4.38458l20.63989,21.17659c2.64231,2.71102,4.1211,6.34696,4.1211,10.13264v54.66043c0,5.0548-2.62931,9.74568-6.94119,12.3836l-48.02106,29.3783Z"/>
  <path class="cls-1" d="M344.87919,463.4952v27.66572c0,2.67255-2.16653,4.83908-4.83908,4.83908h-34.63814v-32.5048l25.9278-33.62478v-98.49136h33.35455c3.91481,0,7.66369,1.58109,10.39612,4.38458l20.63989,21.17659c2.64231,2.71102,4.1211,6.34696,4.1211,10.13264v54.66043c0,5.0548-2.62931,9.74568-6.94119,12.3836l-48.02106,29.3783Z"/>
  <path d="M344.87891,434.87061H167.12109c-2.76172,0-5-2.23877-5-5s2.23828-5,5-5h177.75781c2.76172,0,5,2.23877,5,5s-2.23828,5-5,5Z"/>
  <path d="M344.87891,468.49512H200.22852c-2.76172,0-5-2.23877-5-5s2.23828-5,5-5h144.65039c2.76172,0,5,2.23877,5,5s-2.23828,5-5,5Z"/>
  <path d="M357.36523,372.18018h-26.03516c-2.76172,0-5-2.23877-5-5s2.23828-5,5-5h26.03516c2.76172,0,5,2.23877,5,5s-2.23828,5-5,5Z"/>
  <path d="M291.14062,372.18018H143.33691c-2.76172,0-5-2.23877-5-5s2.23828-5,5-5h147.80371c2.76172,0,5,2.23877,5,5s-2.23828,5-5,5Z"/>
  <path class="cls-1" d="M167.12081,273.18902v15.34582h119.98922c19.66429,0,35.60535,15.94106,35.60535,35.60535v7.23887h22.16381v-58.19004c0-2.76142-2.23858-5-5-5H172.12081c-2.76142,0-5,2.23858-5,5Z"/>
  <path d="M339.87891,248.81104H172.12109c-5.51367,0-10-4.48584-10-10v-30.6792c0-2.76123,2.23828-5,5-5s5,2.23877,5,5v30.6792h167.75781v-58.18994c0-2.76123,2.23828-5,5-5s5,2.23877,5,5v58.18994c0,5.51416-4.48633,10-10,10Z"/>
  <path d="M364.68457,185.62109H147.31543c-5.23145,0-10.3252-2.14844-13.97656-5.89502l-20.63965-21.17676c-3.57324-3.6665-5.54102-8.50439-5.54102-13.62207v-54.66064c0-6.74756,3.57617-13.12695,9.33203-16.64844l45.63086-27.91602V20.83887c0-5.42529,4.41406-9.83887,9.83887-9.83887h168.08008c5.4248,0,9.83887,4.41357,9.83887,9.83887v24.86328l45.63086,27.91602c5.75586,3.52148,9.33203,9.90088,9.33203,16.64844v54.66064c0,5.11768-1.96777,9.95557-5.54004,13.62158l-20.64062,21.17725c-3.65137,3.74658-8.74512,5.89502-13.97656,5.89502ZM172.12109,21v27.50488c0,1.74072-.90527,3.35645-2.39062,4.26514l-48.02148,29.37842c-2.80664,1.71729-4.55078,4.82812-4.55078,8.11816v54.66064c0,2.49561,.95996,4.85449,2.70215,6.64307l20.64062,21.17627c1.78027,1.82666,4.26367,2.87451,6.81445,2.87451h217.36914c2.55078,0,5.03418-1.04785,6.81445-2.87451l20.6416-21.17676c1.74121-1.78809,2.70117-4.14697,2.70117-6.64258v-54.66064c0-3.29004-1.74414-6.40088-4.55078-8.11816l-48.02148-29.37842c-1.48535-.90869-2.39062-2.52441-2.39062-4.26514V21H172.12109Z"/>
  <path d="M167.12109,336.37891c-2.76172,0-5-2.23877-5-5v-58.18994c0-5.51416,4.48633-10,10-10h167.75781c5.51367,0,10,4.48584,10,10v28.54736c0,2.76123-2.23828,5-5,5s-5-2.23877-5-5v-28.54736H172.12109v58.18994c0,2.76123-2.23828,5-5,5Z"/>
  <path d="M340.04004,501H171.95996c-5.4248,0-9.83887-4.41357-9.83887-9.83887v-24.86328l-45.63086-27.91602c-5.75586-3.52148-9.33203-9.90088-9.33203-16.64844v-54.66064c0-5.11768,1.96777-9.95557,5.54004-13.62158l20.64062-21.17725c3.65137-3.74658,8.74512-5.89502,13.97656-5.89502h217.36914c5.23145,0,10.3252,2.14844,13.97656,5.89502l20.63965,21.17676c3.57324,3.6665,5.54102,8.50439,5.54102,13.62207v54.66064c0,6.74756-3.57617,13.12695-9.33203,16.64844l-45.63086,27.91602v24.86328c0,5.42529-4.41406,9.83887-9.83887,9.83887Zm-167.91895-10h167.75781v-27.50488c0-1.74072,.90527-3.35645,2.39062-4.26514l48.02148-29.37842c2.80664-1.71729,4.55078-4.82812,4.55078-8.11816v-54.66064c0-2.49561-.95996-4.85449-2.70215-6.64307l-20.64062-21.17627c-1.78027-1.82666-4.26367-2.87451-6.81445-2.87451H147.31543c-2.55078,0-5.03418,1.04785-6.81445,2.87451l-20.6416,21.17676c-1.74121,1.78809-2.70117,4.14697-2.70117,6.64258v54.66064c0,3.29004,1.74414,6.40088,4.55078,8.11816l48.02148,29.37842c1.48535,.90869,2.39062,2.52441,2.39062,4.26514v27.50488Z"/>
</svg>