<?xml version="1.0" encoding="UTF-8"?>
<svg id="Layer_1" data-name="Layer 1" xmlns="http://www.w3.org/2000/svg" viewBox="0 0 512 512">
  <defs>
    <style>
      .cls-1 {
        fill: #ed5920;
      }

      .cls-2 {
        fill: #ff702e;
      }

      .cls-3 {
        fill: #5f606b;
      }

      .cls-4 {
        fill: #51545a;
      }
    </style>
  </defs>
  <path class="cls-2" d="M343.9549,61.26788l-.00018-.00012c-43.8186-27.10303-92.82727-42.02704-142.36438-44.78906l-7.16846,32.16064h-19.41608l-7.16846-32.16064c-49.53711,2.76202-98.54578,17.68604-142.36444,44.78906l-.00012,.00012c-2.9455,1.82184-4.7381,5.03845-4.7381,8.50183v40.59827c0,5.52106,4.47565,9.9967,9.9967,9.9967H338.69629c5.521,0,9.9967-4.47565,9.9967-9.9967v-40.59827c0-3.46338-1.7926-6.67999-4.7381-8.50183Z"/>
  <g>
    <path class="cls-1" d="M167.83795,16.48145c-49.39789,2.75507-98.27026,17.60297-141.995,44.56195,46.76294-19.72662,97.31818-27.17126,146.94629-22.34833l-4.95129-22.21362Z"/>
    <path class="cls-1" d="M343.9549,61.26782l-.00018-.00006c-43.81885-27.10315-92.82745-42.02734-142.3645-44.78857l-5.65466,25.3692c37.2196,6.54364,73.48859,20.09894,106.76422,40.68085l.00018,.00006c2.9455,1.8219,4.7381,5.03857,4.7381,8.50189v29.3335h31.25824c5.52106,0,9.9967-4.47565,9.9967-9.99677v-40.59821c0-3.46338-1.7926-6.68005-4.7381-8.50189Z"/>
  </g>
  <path class="cls-3" d="M487.08221,267.89008l-102.36517-102.36517c-3.60779-3.60779-8.86615-5.01672-13.79443-3.69623l-139.83344,37.46826c-4.92828,1.3205-8.77771,5.16992-10.09821,10.09821l-37.46826,139.83344c-1.32056,4.92828,.08844,10.18671,3.69623,13.79443l102.36511,102.36517c3.60779,3.60773,8.86621,5.01672,13.79443,3.69617l139.83344-37.46826c4.92828-1.3205,8.77771-5.16992,10.09827-10.09821l37.4682-139.83337c1.32056-4.92828-.08844-10.18671-3.69617-13.79443Zm-91.24139,106.25671c-32.41376,32.4137-84.9668,32.4137-117.38049,0-32.41376-32.41376-32.41376-84.9668,0-117.38049,32.4137-32.41376,84.96674-32.41376,117.38049,0,32.4137,32.4137,32.4137,84.96674,0,117.38049Z"/>
  <path class="cls-4" d="M337.15057,206.26947c-60.30237,0-109.18713,48.8847-109.18713,109.18707s48.88477,109.18707,109.18713,109.18707,109.18707-48.8847,109.18707-109.18707-48.8847-109.18707-109.18707-109.18707Zm58.69025,167.87732c-32.41376,32.4137-84.9668,32.4137-117.38049,0-32.41376-32.41376-32.41376-84.9668,0-117.38049,32.4137-32.41376,84.96674-32.41376,117.38049,0,32.4137,32.4137,32.4137,84.96674,0,117.38049Z"/>
  <path d="M299.70752,474.56689c-5.0542,0-10.00293-1.98682-13.65918-5.64307-1.95264-1.95264-1.95264-5.11865,0-7.07129,1.95312-1.95215,5.11816-1.95215,7.07129,0,2.3374,2.3374,5.77393,3.25879,8.96484,2.40234l139.8335-37.46826c3.19238-.85547,5.70703-3.37012,6.5625-6.5625l37.46826-139.8335c.85547-3.19287-.06494-6.62793-2.40186-8.96484l-102.36572-102.36523c-2.33691-2.3374-5.77393-3.2583-8.96484-2.40234l-139.83301,37.46826c-3.19238,.85547-5.70752,3.37061-6.56299,6.56299l-37.46826,139.83301c-.85498,3.19238,.06543,6.62793,2.40234,8.96533,1.95264,1.95264,1.95264,5.11865-.00049,7.0708-1.95215,1.95264-5.11865,1.95264-7.0708-.00049-4.85498-4.85547-6.76709-11.9917-4.99023-18.62354l37.46826-139.8335c1.77734-6.63232,7.00146-11.85645,13.63379-13.63379l139.8335-37.46826c6.63086-1.77783,13.76904,.13574,18.62402,4.99072l102.36523,102.36475c4.85547,4.85498,6.76758,11.9917,4.99023,18.62451l-37.46826,139.83301c-1.77686,6.63184-7.00049,11.85596-13.6333,13.63379l-139.83398,37.46826c-1.6377,.43896-3.30762,.65283-4.96484,.65283Z"/>
  <path d="M337.15088,403.45703c-23.50586,0-45.60498-9.15332-62.22607-25.77441-3.19531-3.19531-6.16016-6.64941-8.81201-10.2666-1.63281-2.22705-1.15137-5.35596,1.07568-6.98877,2.22656-1.63281,5.35547-1.15137,6.98877,1.07568,2.35205,3.20752,4.98242,6.27246,7.81885,9.1084,14.73242,14.73242,34.31982,22.8457,55.15479,22.8457s40.42188-8.11328,55.1543-22.8457c30.41211-30.4126,30.41211-79.89697,0-110.30957-26.31592-26.31592-67.79199-30.36523-98.62158-9.63086-2.29004,1.54053-5.39795,.93311-6.93945-1.3584-1.54102-2.29151-.93311-5.39844,1.3584-6.93946,34.78809-23.39844,81.58495-18.83154,111.27393,10.85742,34.31102,34.31152,34.31102,90.14062,0,124.45215-16.62109,16.62109-38.72021,25.77441-62.22559,25.77441Z"/>
  <path class="cls-2" d="M107.64698,120.3647h154.13371V486.00326c0,5.51735-4.47939,9.99674-9.99674,9.99674H117.64371c-5.51735,0-9.99674-4.47939-9.99674-9.99674V120.3647h0Z"/>
  <path class="cls-1" d="M107.64697,120.36468v40.30693h.00011c60.94744,0,110.3551,49.40766,110.3551,110.3551v224.97324h33.78178c5.52105,0,9.99674-4.47569,9.99674-9.99674V120.36468H107.64697Z"/>
  <path d="M251.78418,501H117.64355c-8.26904,0-14.99658-6.72754-14.99658-14.99658V150.9126c0-2.76123,2.23877-5,5-5s5,2.23877,5,5V486.00342c0,2.75537,2.2417,4.99658,4.99658,4.99658H251.78418c2.75488,0,4.99658-2.24121,4.99658-4.99658V120.36475c0-2.76123,2.23877-5,5-5s5,2.23877,5,5V486.00342c0,8.26904-6.72754,14.99658-14.99658,14.99658Z"/>
  <path d="M227.96338,125.36475H30.73145c-8.26904,0-14.99658-6.72754-14.99658-14.99658v-40.59863c0-5.2334,2.65723-10.00098,7.10742-12.75391C59.24854,34.49756,99.17676,20.03955,141.51709,14.04297c2.73535-.38867,5.26465,1.51514,5.65186,4.24951s-1.51562,5.26465-4.24951,5.65186c-40.96338,5.80127-79.59326,19.78955-114.81592,41.57568-1.4834,.91699-2.36865,2.50586-2.36865,4.24951v40.59863c0,2.75488,2.24121,4.99658,4.99658,4.99658H227.96338c2.76123,0,5,2.23877,5,5s-2.23877,5-5,5Z"/>
  <g>
    <path class="cls-2" d="M83.57859,188.28621v16.12777c0,3.82636,3.53339,6.67509,7.27268,5.86347l190.2705-41.29882c2.75903-.59886,4.72732-3.04019,4.72732-5.86347v-16.12783c0-3.82636-3.53339-6.6751-7.27269-5.86347l-190.2705,41.29888c-2.75903,.59886-4.72731,3.04019-4.72731,5.86347Z"/>
    <path class="cls-1" d="M249.31757,147.47455v.00002c0,9.17399-6.39576,17.1069-15.36099,19.05283l-150.37796,32.64008v5.24651c0,3.82636,3.53339,6.67509,7.27268,5.86347l190.27045-41.2988c2.75903-.59886,4.72732-3.04019,4.72732-5.86347v-16.12787c0-3.82636-3.53339-6.67509-7.27268-5.86347l-29.25881,6.3507Z"/>
    <path d="M89.56055,215.41699c-2.48438,0-4.90625-.84326-6.88623-2.43994-2.60303-2.09814-4.0957-5.21973-4.0957-8.56299v-16.12793c0-5.13916,3.64502-9.65967,8.66699-10.74951l190.27002-41.29883c3.2666-.70947,6.63379,.08643,9.2373,2.18555,2.60303,2.09863,4.09619,5.22021,4.09619,8.56396v16.12793c0,5.13916-3.64502,9.66016-8.66748,10.74951l-190.27002,41.29883c-.78223,.16992-1.56982,.25342-2.35107,.25342Zm190.30029-69.43164c-.07031,0-.14453,.00781-.22363,.0249l-190.271,41.29883c-.45654,.09912-.7876,.50977-.7876,.97705v16.12793c0,.39502,.20264,.6416,.37207,.77832,.17041,.13672,.45361,.28223,.83984,.19873l190.27051-41.29883c.45703-.09912,.78809-.50977,.78809-.97705v-16.12793c0-.39551-.20264-.6416-.37256-.77832-.13477-.10889-.3418-.22363-.61572-.22363Z"/>
    <path class="cls-2" d="M83.57859,252.10731v16.12777c0,3.82636,3.53339,6.67509,7.27268,5.86347l190.2705-41.29882c2.75903-.59886,4.72732-3.04019,4.72732-5.86347v-16.12783c0-3.82636-3.53339-6.6751-7.27269-5.86347l-190.2705,41.29888c-2.75903,.59886-4.72731,3.04019-4.72731,5.86347Z"/>
    <path class="cls-1" d="M249.31757,211.29566v.00002c0,9.17399-6.39576,17.1069-15.36099,19.05283l-150.37796,32.64008v5.24651c0,3.82636,3.53339,6.67509,7.27268,5.86347l190.27045-41.2988c2.75903-.59886,4.72732-3.04019,4.72732-5.86347v-16.12787c0-3.82636-3.53339-6.67509-7.27268-5.86347l-29.25881,6.3507Z"/>
    <path d="M89.56055,279.23828c-2.48438,0-4.90625-.84326-6.88623-2.43994-2.60303-2.09863-4.0957-5.21973-4.0957-8.56348v-16.12744c0-5.13818,3.64453-9.65918,8.66602-10.75l190.271-41.29883c3.26465-.70752,6.63477,.08691,9.23779,2.18652,2.60303,2.09863,4.0957,5.21973,4.0957,8.56348v16.12744c0,5.13867-3.64502,9.65967-8.6665,10.75l-190.271,41.29883c-.78174,.16992-1.56982,.25342-2.35107,.25342Zm190.30029-69.43213c-.0708,0-.14551,.00781-.22412,.0249l-190.27051,41.29883c-.45605,.09912-.7876,.51025-.7876,.97754v16.12744c0,.39551,.20264,.64209,.37256,.77881,.16992,.13721,.45557,.28369,.83936,.19873l190.27051-41.29883c.45654-.09912,.78809-.51025,.78809-.97754v-16.12744c0-.39551-.20264-.6416-.37256-.77881-.13477-.10889-.34229-.22363-.61572-.22363Z"/>
    <path class="cls-2" d="M83.57859,315.92842v16.12777c0,3.82636,3.53339,6.67509,7.27268,5.86347l190.2705-41.29882c2.75903-.59886,4.72732-3.04019,4.72732-5.86347v-16.12783c0-3.82636-3.53339-6.6751-7.27269-5.86347l-190.2705,41.29888c-2.75903,.59886-4.72731,3.04019-4.72731,5.86347Z"/>
    <path class="cls-1" d="M249.31757,275.11676v.00002c0,9.17399-6.39576,17.1069-15.36099,19.05283l-150.37796,32.64008v5.24651c0,3.82636,3.53339,6.67509,7.27268,5.86347l190.27045-41.2988c2.75903-.59886,4.72732-3.04019,4.72732-5.86347v-16.12787c0-3.82636-3.53339-6.67509-7.27268-5.86347l-29.25881,6.3507Z"/>
    <path d="M89.56006,343.05908c-2.48389,0-4.90527-.84277-6.88525-2.43896-2.60303-2.09863-4.09619-5.22021-4.09619-8.56396v-16.12793c0-5.13916,3.64502-9.65967,8.66699-10.74951l190.27002-41.29883c3.26465-.70801,6.63477,.0874,9.23779,2.18652,2.60303,2.09863,4.0957,5.21973,4.0957,8.56299v16.12793c0,5.13916-3.64502,9.66016-8.66748,10.74951l-190.27002,41.29883c-.78223,.16992-1.57031,.25342-2.35156,.25342Zm190.30078-69.43164c-.07031,0-.14551,.00781-.22412,.0249l-190.27051,41.29883c-.45654,.09912-.7876,.50977-.7876,.97705v16.12793c0,.39551,.20264,.6416,.37256,.77881,.16943,.13721,.45264,.28125,.83887,.19824l190.271-41.29883c.45703-.09912,.78809-.50977,.78809-.97705v-16.12793c0-.39502-.20264-.64111-.37207-.77832-.13525-.10889-.34277-.22363-.61621-.22363Z"/>
    <path class="cls-2" d="M83.57859,379.74953v16.12777c0,3.82636,3.53339,6.67509,7.27268,5.86347l190.2705-41.29882c2.75903-.59886,4.72732-3.04019,4.72732-5.86347v-16.12783c0-3.82636-3.53339-6.6751-7.27269-5.86347l-190.2705,41.29888c-2.75903,.59886-4.72731,3.04019-4.72731,5.86347Z"/>
    <path class="cls-1" d="M249.31757,338.93787v.00002c0,9.17399-6.39576,17.1069-15.36099,19.05283l-150.37796,32.64008v5.24651c0,3.82636,3.53339,6.67509,7.27268,5.86347l190.27045-41.2988c2.75903-.59886,4.72732-3.04019,4.72732-5.86347v-16.12787c0-3.82636-3.53339-6.67509-7.27268-5.86347l-29.25881,6.3507Z"/>
    <path d="M89.56055,406.87988c-2.48438,0-4.90625-.84277-6.88623-2.43945-2.60303-2.09814-4.0957-5.21973-4.0957-8.56299v-16.12793c0-5.13916,3.64502-9.65967,8.66699-10.74951l190.27002-41.29883c3.2666-.71045,6.63379,.08691,9.2373,2.18555,2.60303,2.09863,4.09619,5.22021,4.09619,8.56396v16.12793c0,5.13916-3.64502,9.66016-8.66748,10.74951l-190.27002,41.29883c-.78223,.16992-1.56982,.25293-2.35107,.25293Zm190.30078-69.43115c-.07031,0-.14502,.00781-.22412,.0249l-190.271,41.29883c-.45654,.09912-.7876,.50977-.7876,.97705v16.12793c0,.39502,.20264,.6416,.37207,.77832,.17041,.13672,.45605,.28223,.83984,.19873l190.27051-41.29883c.45703-.09912,.78809-.50977,.78809-.97705v-16.12793c0-.39551-.20264-.6416-.37256-.77832-.13477-.10889-.3418-.22363-.61523-.22363Z"/>
    <path class="cls-2" d="M83.57859,443.57063v16.12777c0,3.82636,3.53339,6.67509,7.27268,5.86347l190.2705-41.29882c2.75903-.59886,4.72732-3.04019,4.72732-5.86347v-16.12783c0-3.82636-3.53339-6.6751-7.27269-5.86347l-190.2705,41.29888c-2.75903,.59886-4.72731,3.04019-4.72731,5.86347Z"/>
    <path class="cls-1" d="M249.31757,402.75898v.00002c0,9.17399-6.39576,17.1069-15.36099,19.05283l-150.37796,32.64008v5.24651c0,3.82636,3.53339,6.67509,7.27268,5.86347l190.27045-41.2988c2.75903-.59886,4.72732-3.04019,4.72732-5.86347v-16.12787c0-3.82636-3.53339-6.67509-7.27268-5.86347l-29.25881,6.3507Z"/>
    <path d="M89.56055,470.70117c-2.48438,0-4.90625-.84277-6.88623-2.43896-2.60303-2.09863-4.0957-5.22021-4.0957-8.56396v-16.12744c0-5.13818,3.64453-9.65918,8.66602-10.75l190.271-41.29883c3.26465-.7085,6.63477,.0874,9.23779,2.18652,2.60303,2.09863,4.0957,5.21973,4.0957,8.56348v16.12744c0,5.13867-3.64502,9.65967-8.6665,10.75l-190.271,41.29883c-.78174,.16992-1.56982,.25293-2.35107,.25293Zm190.30029-69.43164c-.0708,0-.14551,.00781-.22412,.0249l-190.27051,41.29883c-.45605,.09912-.7876,.51025-.7876,.97754v16.12744c0,.39551,.20264,.64209,.37256,.77881s.45459,.28223,.83936,.19873l190.27051-41.29883c.45654-.09912,.78809-.51025,.78809-.97754v-16.12744c0-.39551-.20264-.6416-.37256-.77881-.13477-.10889-.34229-.22363-.61572-.22363Z"/>
  </g>
  <g>
    <path d="M338.69629,125.36475h-76.91553c-2.76123,0-5-2.23877-5-5s2.23877-5,5-5h76.91553c2.75488,0,4.99658-2.2417,4.99658-4.99658v-40.59863c0-1.74365-.88525-3.33202-2.36816-4.24902-42.00342-25.98096-90.25977-41.20703-139.55127-44.03223-2.75684-.15771-4.86377-2.521-4.70557-5.27783s2.51611-4.86914,5.27783-4.70557c50.94775,2.91992,100.82471,18.65723,144.23926,45.51025,4.45068,2.75342,7.10791,7.52148,7.10791,12.75439v40.59863c0,8.26904-6.72754,14.99658-14.99658,14.99658Z"/>
    <path d="M194.42188,52.63916h-19.41602c-2.30273,0-4.30762-1.57275-4.85596-3.80908l-7.6377-31.13818c-.65771-2.68164,.98291-5.38916,3.66504-6.04688,2.68262-.65967,5.38916,.98291,6.04688,3.66504l6.70361,27.3291h11.57227l6.70361-27.33008c.65771-2.68213,3.36572-4.32227,6.04688-3.66504,2.68213,.65771,4.32275,3.36523,3.66504,6.04688l-7.6377,31.13916c-.54834,2.23633-2.55322,3.80908-4.85596,3.80908Z"/>
  </g>
  <path d="M348.69287,74.76953h-73.31641c-2.76123,0-5-2.23877-5-5s2.23877-5,5-5h73.31641c2.76123,0,5,2.23877,5,5s-2.23877,5-5,5Z"/>
  <path d="M141.22119,74.76953h-47.16992c-2.76123,0-5-2.23877-5-5s2.23877-5,5-5h47.16992c2.76123,0,5,2.23877,5,5s-2.23877,5-5,5Z"/>
  <path d="M66.27246,74.76953h-12.65967c-2.76123,0-5-2.23877-5-5s2.23877-5,5-5h12.65967c2.76123,0,5,2.23877,5,5s-2.23877,5-5,5Z"/>
</svg>