<?xml version="1.0" encoding="UTF-8"?>
<svg id="Layer_1" data-name="Layer 1" xmlns="http://www.w3.org/2000/svg" viewBox="0 0 512 512">
  <defs>
    <style>
      .cls-1 {
        fill: #e7e8f1;
      }

      .cls-2 {
        fill: #ed5920;
      }

      .cls-3 {
        fill: #ff702e;
      }

      .cls-4 {
        fill: #c7c8ce;
      }

      .cls-5 {
        fill: #5f606b;
      }

      .cls-6 {
        fill: #51545a;
      }
    </style>
  </defs>
  <path class="cls-3" d="M471.92804,412.04334l-.00023,.00005c-142.16648,32.06317-289.68915,32.06317-431.85563,0l-.00023-.00005c-7.76205-1.75059-13.61423-8.14761-14.66877-16.03443l-.00002-.00015c-12.53755-93.76679-12.53755-188.7853,0-282.55209l.00002-.00015c1.05455-7.88682,6.90672-14.28383,14.66877-16.03443l.00023-.00005c142.16647-32.06317,289.68915-32.06317,431.85563,0l.00023,.00005c7.76205,1.75059,13.61423,8.14761,14.66877,16.03443l.00002,.00015c12.53755,93.76679,12.53755,188.7853,0,282.55209l-.00002,.00015c-1.05455,7.88682-6.90672,14.28383-14.66877,16.03443Z"/>
  <path class="cls-2" d="M486.59682,113.45669h0c0-7.26841-4.94675-13.60408-11.99813-15.36693l-2.6709-.66772c-4.59208-1.03569-9.19014-2.0348-13.79309-3.00356,3.23016,27.66104,3.71766,65.69322,2.86718,104.84782-2.34888,108.13809-88.5405,196.18256-196.64772,199.67467-81.48317,2.63209-163.59156-4.2421-241.1594-20.56754,.687,5.88296,1.42303,11.76159,2.20841,17.63533v.00012c0,7.26833,4.9467,13.60395,11.99802,15.36678l2.671,.66775c141.77027,35.44257,290.08532,35.44257,431.85559,0l2.6709-.66772c7.05138-1.76285,11.99813-8.09852,11.99813-15.36692h0c12.53756-93.76681,12.53756-188.78528,0-282.55208Z"/>
  <g>
    <rect class="cls-5" x="92.73434" y="336.53048" width="89.24803" height="38.99092" rx="10.00513" ry="10.00513"/>
    <rect class="cls-5" x="211.37598" y="336.53048" width="89.24803" height="38.99092" rx="10.00513" ry="10.00513"/>
    <rect class="cls-5" x="330.01762" y="336.53048" width="89.24803" height="38.99092" rx="10.00513" ry="10.00513"/>
  </g>
  <rect class="cls-1" x="75.41299" y="132.03059" width="361.17401" height="168.90819" rx="23.92976" ry="23.92976"/>
  <path class="cls-4" d="M188.94332,159.27298h247.64371v-3.31261c0-13.21604-10.71372-23.92976-23.92976-23.92976H99.34273c-13.21604,0-23.92976,10.71372-23.92976,23.92976v121.04867c0,13.21604,10.71372,23.92976,23.92976,23.92976h9.54854v-61.61376c0-44.21153,35.84053-80.05206,80.05206-80.05206Z"/>
  <path class="cls-6" d="M171.97722,336.53048h-3.59773c.00598,.14228,.0215,.28201,.0215,.42576v6.98655c0,12.14986-9.84941,21.99927-21.99927,21.99927h-53.64586c.22472,5.32671,4.60173,9.57932,9.98364,9.57932h69.23773c5.52568,0,10.00513-4.47945,10.00513-10.00513v-18.98062c0-5.52568-4.47945-10.00513-10.00513-10.00513Z"/>
  <path class="cls-6" d="M290.61884,336.53048h-3.59779c.00611,.14228,.0215,.28201,.0215,.42576v6.98655c0,12.14986-9.84941,21.99927-21.99927,21.99927h-53.6458c.22472,5.32671,4.60173,9.57932,9.98364,9.57932h69.23773c5.52568,0,10.00513-4.47945,10.00513-10.00513v-18.98062c0-5.52568-4.47945-10.00513-10.00513-10.00513Z"/>
  <path class="cls-6" d="M409.26051,336.53048h-3.59779c.00598,.14228,.0215,.28201,.0215,.42576v6.98655c0,12.14986-9.84941,21.99927-21.99927,21.99927h-53.64574c.22472,5.32671,4.6016,9.57932,9.98364,9.57932h69.23767c5.52568,0,10.00513-4.47945,10.00513-10.00513v-18.98062c0-5.52568-4.47945-10.00513-10.00513-10.00513Z"/>
  <g>
    <path d="M171.97705,380.52148H102.73926c-8.27393,0-15.00488-6.73145-15.00488-15.00537v-18.98047c0-8.27393,6.73096-15.00537,15.00488-15.00537h69.23779c8.27393,0,15.00537,6.73145,15.00537,15.00537v18.98047c0,8.27393-6.73145,15.00537-15.00537,15.00537Zm-69.23779-38.99121c-2.75977,0-5.00488,2.24561-5.00488,5.00537v18.98047c0,2.75977,2.24512,5.00537,5.00488,5.00537h69.23779c2.75977,0,5.00537-2.24561,5.00537-5.00537v-18.98047c0-2.75977-2.24561-5.00537-5.00537-5.00537H102.73926Z"/>
    <path d="M290.61865,380.52148h-69.2373c-8.27393,0-15.00537-6.73145-15.00537-15.00537v-18.98047c0-8.27393,6.73145-15.00537,15.00537-15.00537h40.44824c2.76123,0,5,2.23877,5,5s-2.23877,5-5,5h-40.44824c-2.75977,0-5.00537,2.24561-5.00537,5.00537v18.98047c0,2.75977,2.24561,5.00537,5.00537,5.00537h69.2373c2.75977,0,5.00537-2.24561,5.00537-5.00537v-18.98047c0-2.75977-2.24561-5.00537-5.00537-5.00537-2.76123,0-5-2.23877-5-5s2.23877-5,5-5c8.27393,0,15.00537,6.73145,15.00537,15.00537v18.98047c0,8.27393-6.73145,15.00537-15.00537,15.00537Z"/>
    <path d="M409.26074,380.52148h-69.23779c-8.27393,0-15.00537-6.73145-15.00537-15.00537v-18.98047c0-8.27393,6.73145-15.00537,15.00537-15.00537h69.23779c8.27393,0,15.00488,6.73145,15.00488,15.00537v18.98047c0,8.27393-6.73096,15.00537-15.00488,15.00537Zm-69.23779-38.99121c-2.75977,0-5.00537,2.24561-5.00537,5.00537v18.98047c0,2.75977,2.24561,5.00537,5.00537,5.00537h69.23779c2.75977,0,5.00488-2.24561,5.00488-5.00537v-18.98047c0-2.75977-2.24512-5.00537-5.00488-5.00537h-69.23779Z"/>
  </g>
  <path d="M412.65723,305.93896H99.34277c-15.95166,0-28.92969-12.97803-28.92969-28.93018v-121.04834c0-15.95166,12.97803-28.92969,28.92969-28.92969H412.65723c15.95166,0,28.92969,12.97803,28.92969,28.92969v77.14209c0,2.76123-2.23877,5-5,5s-5-2.23877-5-5v-77.14209c0-10.43799-8.4917-18.92969-18.92969-18.92969H99.34277c-10.43799,0-18.92969,8.4917-18.92969,18.92969v121.04834c0,10.43799,8.4917,18.93018,18.92969,18.93018H412.65723c10.43799,0,18.92969-8.49219,18.92969-18.93018,0-2.76123,2.23877-5,5-5s5,2.23877,5,5c0,15.95215-12.97803,28.93018-28.92969,28.93018Z"/>
  <path d="M256,441.09082c-72.89746,0-145.91602-8.13184-217.02783-24.16992-9.75537-2.19971-17.19971-10.3374-18.5249-20.24951-12.59326-94.18311-12.59326-189.69336,0-283.87744,1.32471-9.91113,8.76904-18.04883,18.52441-20.24951,20.0708-4.52637,40.55225-8.47363,60.875-11.73242,2.72656-.43457,5.2915,1.41895,5.72852,4.14551s-1.41895,5.29102-4.14551,5.72852c-20.11721,3.22559-40.39111,7.13281-60.25732,11.61328-5.69434,1.28467-10.04004,6.03467-10.81299,11.81982-12.47607,93.30469-12.47607,187.92285,0,281.22705,.77344,5.78564,5.11865,10.53564,10.8125,11.81982,70.3906,15.875,142.66943,23.9248,214.82812,23.9248s144.43701-8.0498,214.82764-23.9248c5.69434-1.28418,10.03955-6.03418,10.81299-11.81982,12.47607-93.3042,12.47607-187.92236,0-281.22705-.77295-5.78516-5.11865-10.53516-10.8125-11.81982-109.47412-24.68994-221.4668-30.33057-332.86621-16.76416-2.73682,.33398-5.23438-1.61719-5.56787-4.35889-.33398-2.74121,1.61768-5.23389,4.35889-5.56787,112.54199-13.70312,225.68018-8.00635,336.2749,16.93604,9.75537,2.20068,17.2002,10.33838,18.5249,20.24951,12.59326,94.18408,12.59326,189.69434,0,283.87744-1.3252,9.91162-8.76953,18.04932-18.52441,20.24951-71.11182,16.03809-144.13086,24.16992-217.02832,24.16992Z"/>
  <path d="M372.06152,234.31445H139.93848c-2.76123,0-5-2.23877-5-5s2.23877-5,5-5h232.12305c2.76123,0,5,2.23877,5,5s-2.23877,5-5,5Z"/>
  <path d="M220.87793,214.82764h-49.35742c-2.76123,0-5-2.23877-5-5s2.23877-5,5-5h49.35742c2.76123,0,5,2.23877,5,5s-2.23877,5-5,5Z"/>
  <path d="M292.90771,214.82764h-49.35742c-2.76123,0-5-2.23877-5-5s2.23877-5,5-5h49.35742c2.76123,0,5,2.23877,5,5s-2.23877,5-5,5Z"/>
  <path d="M347.17822,214.82764h-20.13623c-2.76123,0-5-2.23877-5-5s2.23877-5,5-5h20.13623c2.76123,0,5,2.23877,5,5s-2.23877,5-5,5Z"/>
  <g>
    <path d="M190.02246,280.63721h-20.13623c-2.76123,0-5-2.23877-5-5s2.23877-5,5-5h20.13623c2.76123,0,5,2.23877,5,5s-2.23877,5-5,5Z"/>
    <path d="M240.71973,280.63721h-20.13672c-2.76123,0-5-2.23877-5-5s2.23877-5,5-5h20.13672c2.76123,0,5,2.23877,5,5s-2.23877,5-5,5Z"/>
    <path d="M291.41699,280.63721h-20.13672c-2.76123,0-5-2.23877-5-5s2.23877-5,5-5h20.13672c2.76123,0,5,2.23877,5,5s-2.23877,5-5,5Z"/>
    <path d="M342.11377,280.63721h-20.13623c-2.76123,0-5-2.23877-5-5s2.23877-5,5-5h20.13623c2.76123,0,5,2.23877,5,5s-2.23877,5-5,5Z"/>
  </g>
</svg>