<?xml version="1.0" encoding="UTF-8"?>
<svg id="Layer_1" data-name="Layer 1" xmlns="http://www.w3.org/2000/svg" viewBox="0 0 512 512">
  <defs>
    <style>
      .cls-1 {
        fill: #e7e8f1;
      }

      .cls-2 {
        fill: #ed5920;
      }

      .cls-3 {
        fill: #ff702e;
      }

      .cls-4 {
        fill: #c7c8ce;
      }

      .cls-5 {
        fill: #5f606b;
      }

      .cls-6 {
        fill: #51545a;
      }
    </style>
  </defs>
  <path class="cls-3" d="M347.53378,433.14895l-211.11791,11.64783c-42.49603,2.3446-82.02675-21.79259-99.35548-60.66579l-15.19841-34.09431c-7.46952-16.75623-7.8144-35.8274-.9556-52.84274l32.61559-80.9129c24.56901-60.95089,87.73136-97.09956,152.72937-87.40909l151.4303,22.57655c53.82284,8.02438,93.66063,54.24185,93.66063,108.65957v63.34716c0,58.32291-45.57416,106.4808-103.8085,109.69372Z"/>
  <path class="cls-2" d="M451.34232,323.45523v-63.34715c0-22.10939-6.57616-42.86511-17.99444-60.25568l-86.87955-16.53389c-5.83439-1.1104-11.80784,1.06977-15.55537,5.67739h-.00012c-13.43713,16.52051-34.53295,24.8144-55.62318,21.86837l-107.24614-14.9807c-19.8977-2.77941-39.27884,7.75366-47.77055,25.96161l-39.36376,84.40484c-5.99973,12.86483-6.39695,27.64145-1.09702,40.81l5.56856,13.83599c7.81212,19.41045,26.63604,32.12564,47.55959,32.12564h187.6033c12.73599,0,24.78107,5.79077,32.73504,15.73762l16.64935,20.82087c47.11042-12.58726,81.41428-55.52713,81.41428-106.1249Z"/>
  <path class="cls-1" d="M338.13437,345.7558H144.60161c-10.08739,0-19.07211-6.37782-22.39979-15.90053v-.00003c-2.04956-5.86514-1.71695-12.30019,.92637-17.92277l19.84071-42.20288c7.27965-15.48443,22.84972-25.36941,39.95998-25.36941h155.20549v101.3956Z"/>
  <path class="cls-4" d="M183.61319,277.92542h116.44381v17.97081h-98.47302c-9.91835,0-17.97079-8.05244-17.97079-17.97079v-.00002h0Z"/>
  <path class="cls-4" d="M165.56261,311.40835h136.37679v17.97081h-118.40601c-9.91835,0-17.97079-8.05244-17.97079-17.97079v-.00002h0Z"/>
  <circle class="cls-1" cx="353.14961" cy="295.62831" r="62.52591"/>
  <path class="cls-4" d="M353.14959,233.10241c-2.60867,0-5.17398,.17849-7.69871,.48874,27.64899,3.58907,49.01015,27.21091,49.01015,55.83792,0,31.10838-25.21835,56.32673-56.32666,56.32673-12.86208,0-24.70978-4.31995-34.19188-11.57581,11.44628,14.58951,29.22514,23.97421,49.20709,23.97421,34.5321,0,62.52593-27.99375,62.52593-62.52586s-27.99383-62.52593-62.52593-62.52593Z"/>
  <path class="cls-5" d="M481.24697,71.00221l-.00005-.00003c-13.72843-7.92611-31.26663-3.58386-39.71104,9.83199l-122.55692,194.70935c-11.56888,18.37978-5.54951,42.69177,13.2585,53.55058l.00007,.00004c18.80801,10.85881,42.8725,3.91574,53.00542-15.29309l107.34478-203.49209c7.39626-14.02099,2.38766-31.38065-11.34076-39.30676Z"/>
  <circle class="cls-1" cx="353.1496" cy="295.6283" r="18.78735"/>
  <path class="cls-4" d="M342.29034,301.77119c0-9.38997,7.61219-17.00205,17.00211-17.00205,4.45508,0,8.49691,1.72719,11.52846,4.53094-2.60032-7.25758-9.51938-12.45916-17.67133-12.45916-10.37593,0-18.7874,8.41141-18.7874,18.7874,0,8.15189,5.20158,15.07101,12.45922,17.67133-2.80386-3.03155-4.53105-7.0735-4.53105-11.52846Z"/>
  <path class="cls-6" d="M481.247,71.00222v-.00007c-6.99274-4.0372-14.97222-4.88495-22.23652-2.97841,2.48073,.65409,4.91588,1.63617,7.24081,2.97841v.00007c13.72851,7.92611,18.73695,25.28573,11.34076,39.30672l-107.34475,203.49209c-5.61048,10.63573-15.49407,17.50207-26.38955,19.6774,16.15671,3.24031,33.25499-4.26498,41.38511-19.6774l107.34489-203.49209c7.39633-14.02099,2.38762-31.38061-11.34076-39.30672Z"/>
  <path d="M130.68457,449.95508c-19.77197,.00049-39.01318-5.40088-55.98975-15.76709-18.69141-11.4126-33.28418-28.01855-42.20117-48.02148l-15.19873-34.09424c-7.97607-17.89404-8.3501-38.57764-1.02588-56.74756l32.61572-80.9126c12.30078-30.51611,34.80127-56.32275,63.35742-72.66553,28.55566-16.34277,62.20264-22.67041,94.74658-17.81982l151.43018,22.57666c2.73145,.40723,4.61523,2.95117,4.20801,5.68262-.40723,2.73047-2.95215,4.61084-5.68262,4.20801l-151.43018-22.57666c-30.32812-4.52002-61.68994,1.37646-88.30469,16.6084-26.61475,15.23145-47.58594,39.28369-59.05029,67.72461l-32.61572,80.9126c-6.31592,15.66943-5.99365,33.50684,.88525,48.93799l15.19873,34.09424c8.08789,18.14404,21.32471,33.20605,38.27881,43.55811s36.39648,15.24023,56.23438,14.15137l211.11816-11.64844c55.56152-3.06494,99.08398-49.05566,99.08398-104.70117v-63.34717c0-16.03418-3.53906-31.44434-10.52051-45.80273-1.20703-2.4834-.17285-5.4751,2.31055-6.68262,2.48633-1.20752,5.47559-.17285,6.68359,2.31055,7.64844,15.73145,11.52637,32.61279,11.52637,50.1748v63.34717c0,60.95215-47.67383,111.32861-108.5332,114.68604l-211.11816,11.64795c-2.00586,.11084-4.00977,.16602-6.00684,.16602Z"/>
  <path d="M353.28125,413.75928c-1.4668,0-2.9209-.64258-3.9082-1.87744-7.04297-8.80859-17.55078-13.86035-28.8291-13.86035H132.94043c-23.08887,0-43.57764-13.83984-52.19775-35.25879l-5.56885-13.83594c-5.79492-14.39795-5.35596-30.72363,1.2041-44.79004l39.36377-84.40479c9.48096-20.33008,30.7793-31.90771,52.99365-28.7998l107.24609,14.97998c19.23145,2.68848,38.79785-5.00391,51.05273-20.07129,4.91309-6.04053,12.7168-8.88965,20.36914-7.43408l27.29102,5.19385c2.71289,.51611,4.49316,3.13379,3.97754,5.84619-.5166,2.71289-3.14453,4.49463-5.84668,3.97705l-27.29102-5.19385c-4.03711-.76807-8.15137,.73438-10.74219,3.9209-14.44922,17.76514-37.51172,26.83203-60.19336,23.66553l-107.24707-14.98047c-17.83398-2.49658-34.93457,6.7998-42.54736,23.12256l-39.36377,84.40479c-5.39404,11.56689-5.75488,24.99072-.98975,36.83008l5.56836,13.83594c7.08838,17.61182,23.93604,28.99219,42.92139,28.99219h187.60352c14.33398,0,27.68848,6.42041,36.63965,17.61523,1.72461,2.15674,1.37402,5.30322-.7832,7.02783-.9209,.73682-2.02344,1.09473-3.11914,1.09473Z"/>
  <path d="M313.08887,350.75586H144.60156c-12.19775,0-23.09619-7.73633-27.12012-19.25098-2.49609-7.14502-2.09766-14.85107,1.12207-21.69971l19.84033-42.20312c8.06592-17.15625,25.52734-28.2417,44.48486-28.2417h130.16016c2.76172,0,5,2.23877,5,5s-2.23828,5-5,5H182.92871c-15.10107,0-29.01025,8.83057-35.43506,22.49658l-19.84033,42.20312c-2.09912,4.46436-2.35889,9.48828-.73145,14.146,2.62305,7.50635,9.72803,12.5498,17.67969,12.5498h168.4873c2.76172,0,5,2.23877,5,5s-2.23828,5-5,5Z"/>
  <path d="M353.14941,363.1543c-37.2334,0-67.52539-30.29199-67.52539-67.52588,0-34.06055,25.45703-62.87256,59.21484-67.01953,2.74609-.33594,5.23535,1.61279,5.57227,4.35352s-1.6123,5.23535-4.35352,5.57227c-28.75195,3.53174-50.43359,28.07666-50.43359,57.09375,0,31.71973,25.80566,57.52588,57.52539,57.52588s57.52637-25.80615,57.52637-57.52588c0-2.76123,2.23828-5,5-5s5,2.23877,5,5c0,37.23389-30.29199,67.52588-67.52637,67.52588Z"/>
  <path d="M351.29395,339.25c-7.48535,0-14.87207-1.96631-21.55664-5.82568-10.28418-5.9375-17.51953-15.55615-20.37402-27.0835-2.85352-11.52734-.94238-23.41064,5.38379-33.46094l122.55762-194.70947c9.91699-15.75684,30.31641-20.80859,46.44238-11.49854,16.125,9.30957,21.9502,29.50195,13.26367,45.97021l-8.96973,17.00049c-1.28809,2.44238-4.31445,3.37744-6.75488,2.08936-2.44238-1.28857-3.37793-4.31299-2.08887-6.75537l8.96875-17.00049c6.16895-11.69434,2.03125-26.03271-9.41895-32.64355-11.45215-6.61182-25.93555-3.02441-32.97949,8.16504l-122.55762,194.70947c-4.86426,7.72803-6.33398,16.86621-4.13965,25.73047s7.75879,16.26074,15.66699,20.82666c7.90918,4.56543,17.09863,5.68652,25.87012,3.15479,8.77441-2.53125,15.95312-8.37354,20.21289-16.45068l84.62793-160.42773c1.28906-2.44336,4.31445-3.37744,6.75586-2.08936,2.44238,1.28857,3.37793,4.31299,2.08984,6.75537l-84.62793,160.42773c-5.54102,10.50342-14.87598,18.10059-26.28613,21.39258-3.99414,1.15234-8.05469,1.72314-12.08594,1.72314Z"/>
  <path d="M353.14941,319.41553c-13.11621,0-23.78711-10.6709-23.78711-23.78711s10.6709-23.7876,23.78711-23.7876,23.78711,10.6709,23.78711,23.7876-10.6709,23.78711-23.78711,23.78711Zm0-37.57471c-7.60254,0-13.78711,6.18506-13.78711,13.7876,0,7.60205,6.18457,13.78711,13.78711,13.78711s13.78711-6.18506,13.78711-13.78711c0-7.60254-6.18457-13.7876-13.78711-13.7876Z"/>
  <path d="M293.16992,282.92529h-112.28906c-2.76123,0-5-2.23877-5-5s2.23877-5,5-5h112.28906c2.76172,0,5,2.23877,5,5s-2.23828,5-5,5Z"/>
  <path d="M290.62402,316.4082h-127.93994c-2.76123,0-5-2.23877-5-5s2.23877-5,5-5h127.93994c2.76172,0,5,2.23877,5,5s-2.23828,5-5,5Z"/>
</svg>