<?xml version="1.0" encoding="UTF-8"?>
<svg id="Layer_1" data-name="Layer 1" xmlns="http://www.w3.org/2000/svg" viewBox="0 0 512 512">
  <defs>
    <style>
      .cls-1 {
        fill: #e7e8f1;
      }

      .cls-2 {
        fill: #ed5920;
      }

      .cls-3 {
        fill: #ff702e;
      }

      .cls-4 {
        fill: #c7c8ce;
      }
    </style>
  </defs>
  <path class="cls-3" d="M279.51172,404.50781l-8.89551,43.71448c-5.02344,24.68604,13.84253,47.77771,39.03442,47.77771h0c14.98828,0,28.70801-8.41333,35.50415-21.77234l35.46875-69.71985h-101.11182Zm31.19092,72.2995c-10.41211,0-18.85254-8.44049-18.85254-18.85242s8.44043-18.85236,18.85254-18.85236,18.85229,8.44049,18.85229,18.85236-8.44067,18.85242-18.85229,18.85242Z"/>
  <path class="cls-2" d="M380.62366,404.50782h-101.11197l-5.71403,28.08038c9.73303,1.11274,19.62575,1.8986,29.65654,2.33273,1.59415,.06899,4.37059,.12891,7.59709,.17974,14.87728,.2344,26.58959,13.13704,24.94976,27.92552-.01822,.16431-.03741,.32841-.05759,.49227-.72889,5.91775,1.65922,11.78676,6.39674,15.40711h0c1.03511-1.48738,1.97845-3.05425,2.81455-4.69787l20.97808-41.23585h0l14.49082-28.48404Z"/>
  <path class="cls-3" d="M414.31819,26.35132c-29.07558-6.71239-60.18955-10.35129-92.53509-10.35129C160.70256,16.00002,30.12083,106.17409,30.12083,217.40951s130.58174,201.40944,291.66226,201.40944c32.34554,0,63.45952-3.6389,92.53509-10.35129V26.35132Z"/>
  <path class="cls-1" d="M414.31822,408.46764l-.00004,.00002V22.39151l.00004,.00002c23.56807,11.63975,38.48714,35.64732,38.48714,61.93301V346.53462c0,26.2857-14.91907,50.29327-38.48714,61.93301Z"/>
  <path class="cls-4" d="M414.31818,359.7096h0v48.75804h0c23.56802-11.63976,38.48728-35.64731,38.48728-61.93303v-48.75804c0,26.28572-14.91926,50.29328-38.48728,61.93303Z"/>
  <path class="cls-2" d="M359.76879,17.70339V299.63295c0,50.66411-40.90099,92.0313-91.56497,92.14529-.32321,.00073-.64654,.00109-.96999,.00109-51.38144,0-99.64841-9.1871-141.57516-25.29403,51.79746,32.51541,120.60925,52.33365,196.12455,52.33365,32.3453,0,63.45953-3.63893,92.53496-10.35132V26.35132c-17.50184-4.04044-35.7465-6.95805-54.54939-8.64793Z"/>
  <path class="cls-3" d="M30.12083,217.40931v.0002l.00008-.00011c52.98181-66.4631,133.35082-105.17622,218.34738-105.17622h192.74508c13.03459,0,24.33567-9.01684,27.22992-21.72604l13.08143-57.44307c1.99022-8.73942-4.65179-17.06405-13.61496-17.06405h-146.12667C160.70256,16.00002,30.12083,106.17409,30.12083,217.40951"/>
  <path class="cls-2" d="M467.90979,16h-146.12656C160.70267,16,30.1208,106.17407,30.1208,217.40951v-.00013c.29814-.37381,.6087-.73476,.90861-1.10686C59.40056,125.58656,176.2428,57.60675,316.09682,57.60675h146.12656c5.27393,0,9.72697,2.89219,12.108,7.04488l7.19331-31.58754c1.99011-8.73945-4.6518-17.06408-13.61491-17.06408Z"/>
  <path d="M309.65039,501c-13.51465,0-26.16895-6.00244-34.71973-16.46826s-11.90918-24.06348-9.21387-37.30664l1.32422-6.50586c.55078-2.70508,3.18945-4.45605,5.89648-3.90186,2.70605,.55078,4.45312,3.19092,3.90234,5.89697l-1.32422,6.50537c-2.09375,10.28906,.51562,20.85352,7.15918,28.98535,6.64355,8.13135,16.47559,12.79492,26.97559,12.79492,13.17578,0,25.07324-7.29541,31.04883-19.04004l29.58789-58.16113c1.25098-2.46143,4.26172-3.44238,6.72363-2.18945,2.46094,1.25195,3.44141,4.26221,2.18848,6.72363l-29.58789,58.16162c-7.69043,15.11572-23.00293,24.50537-39.96094,24.50537Z"/>
  <path d="M310.70215,481.80713c-13.15234,0-23.85254-10.7002-23.85254-23.85205s10.7002-23.85254,23.85254-23.85254c3.05664,0,6.03516,.57129,8.85352,1.69824,2.56348,1.02588,3.81055,3.93555,2.78516,6.49951-1.02539,2.56445-3.93457,3.8125-6.5,2.78564-1.63086-.65283-3.35938-.9834-5.13867-.9834-7.63867,0-13.85254,6.21436-13.85254,13.85254s6.21387,13.85205,13.85254,13.85205,13.85254-6.21387,13.85254-13.85205c0-2.76123,2.23828-5,5-5s5,2.23877,5,5c0,13.15186-10.7002,23.85205-23.85254,23.85205Z"/>
  <path d="M321.7832,423.81885c-78.91113,0-153.16309-21.26465-209.07715-59.87695-56.48047-39.00244-87.58496-91.04199-87.58496-146.53223S56.22559,109.87988,112.70508,70.87744C168.62012,32.26465,242.87207,11,321.7832,11c2.76172,0,5,2.23877,5,5s-2.23828,5-5,5C163.7168,21,35.12109,109.10889,35.12109,217.40967s128.5957,196.40918,286.66211,196.40918c31.27148,0,62.02637-3.43945,91.41016-10.22314,2.68848-.61768,5.375,1.05566,5.99707,3.74756,.62109,2.69043-1.05664,5.375-3.74707,5.99658-30.12109,6.95312-61.63281,10.479-93.66016,10.479Z"/>
  <path d="M414.31836,413.46777c-.91797,0-1.83398-.25293-2.63867-.75342-1.46875-.91211-2.36133-2.51807-2.36133-4.24658V112.2334c0-2.76123,2.23828-5,5-5s5,2.23877,5,5V399.83301c17.75488-11.78809,28.4873-31.54395,28.4873-53.29834V140.15332c0-2.76123,2.23828-5,5-5s5,2.23877,5,5v206.38135c0,28.39404-15.81543,53.84326-41.27344,66.41602-.69922,.3457-1.45801,.51709-2.21387,.51709Z"/>
  <path d="M30.12109,222.40967c-2.76172,0-5-2.23877-5-5,0-55.49023,31.10449-107.52979,87.58398-146.53223C168.62012,32.26465,242.87207,11,321.7832,11c2.76172,0,5,2.23877,5,5s-2.23828,5-5,5C163.7168,21,35.12109,109.10889,35.12109,217.40967c0,2.76123-2.23828,5-5,5Z"/>
  <path d="M72.19238,179.90576c-1.45215,0-2.89258-.62939-3.88086-1.84375-1.74316-2.1416-1.41992-5.29102,.72168-7.03418,50.54199-41.13818,114.2666-63.79443,179.43555-63.79443h192.74414c10.77051,0,19.96387-7.33447,22.35547-17.83643l13.08105-57.44336c.6084-2.67383-.02246-5.43701-1.7334-7.58057-1.70996-2.14355-4.26367-3.37305-7.00586-3.37305h-108.1416c-2.76172,0-5-2.23877-5-5s2.23828-5,5-5h108.1416c5.80176,0,11.2041,2.60107,14.82227,7.13623,3.61914,4.53516,4.95508,10.38086,3.66699,16.03809l-13.08105,57.44336c-3.43457,15.08203-16.63672,25.61572-32.10547,25.61572H248.46875c-62.87695,0-124.35938,21.85889-173.12305,61.55029-.92773,.75488-2.04395,1.12207-3.15332,1.12207Z"/>
</svg>